<?xml version="1.0" encoding="UTF-8" standalone="no"?>
<svg width="70px" height="50px" viewBox="0 0 70 50" version="1.1" xmlns="http://www.w3.org/2000/svg" xmlns:xlink="http://www.w3.org/1999/xlink" xmlns:sketch="http://www.bohemiancoding.com/sketch/ns">
    <!-- Generator: Sketch 3.4 (15588) - http://www.bohemiancoding.com/sketch -->
    <title>Fill 4</title>
    <desc>Created with Sketch.</desc>
    <defs></defs>
    <g id="Page-1" stroke="none" stroke-width="1" fill="none" fill-rule="evenodd" sketch:type="MSPage">
        <path d="M66.7272992,6.92259682 C65.7212992,7.06559682 65.9362992,6.20159682 64.8582992,5.55359682 C64.0012992,5.04159682 61.4332992,7.37259682 59.5452992,9.04259682 C58.6552992,9.33659682 57.7832992,9.66959682 57.0152992,9.89959682 C55.9562992,10.2125968 55.0932992,10.3175968 54.6532992,9.80459682 C53.5002992,8.45959682 56.5722992,5.00059682 54.4612992,4.04059682 C52.3472992,3.07959682 54.2692992,0.202596816 52.5402992,0.00859681572 C50.8102992,-0.183403184 48.1222992,2.89059682 48.1222992,4.23259682 C48.1222992,5.57759682 43.5122992,5.19359682 43.5122992,6.53859682 C43.5122992,7.88359682 39.2882992,6.34659682 38.5192992,7.88359682 C37.7502992,9.42059682 35.6372992,6.73159682 34.2932992,6.73159682 C32.9502992,6.73159682 31.9892992,4.80859682 30.2602992,5.38559682 C28.5322992,5.96159682 27.5712992,4.80859682 26.2282992,4.61859682 C24.8832992,4.42459682 23.9222992,7.49859682 22.3852992,6.92259682 C20.8492992,6.34659682 20.0812992,9.80459682 19.5062992,11.7225968 C18.9292992,13.6445968 12.3992992,13.6445968 12.5912992,15.7585968 C12.7842992,17.8685968 8.74829925,18.6375968 8.36429925,17.2925968 C7.98029925,15.9475968 5.48529925,16.7185968 4.90929925,16.3345968 C4.33229925,15.9505968 2.60329925,16.7185968 2.79529925,18.6375968 C2.98729925,20.5585968 1.06629925,21.7115968 0.873299247,22.4805968 C0.681299247,23.2455968 -0.469700753,25.5515968 0.299299247,26.7045968 C1.06729925,27.8575968 -0.661700753,29.7785968 0.299299247,31.8895968 C1.25929925,34.0025968 0.683299247,36.6935968 1.06629925,37.4615968 C1.45029925,38.2305968 5.10129925,37.8445968 5.86929925,39.9585968 C6.63829925,42.0705968 1.06629925,45.7195968 0.873299247,46.8705968 C0.794299247,47.3525968 1.25629925,47.9025968 1.85429925,48.4875968 C4.04929925,48.5835968 6.82329925,48.8525968 9.33529925,49.3115968 C12.5002992,49.8875968 28.6112992,47.4405968 28.8982992,46.8675968 C29.1842992,46.2905968 28.3212992,42.6935968 28.4662992,41.9755968 C28.6112992,41.2575968 30.6242992,39.5285968 32.3502992,39.6735968 C34.0762992,39.8185968 35.6572992,40.1045968 35.6572992,38.8105968 C35.6572992,37.5155968 40.4042992,35.9345968 40.8352992,37.0845968 C41.2672992,38.2375968 42.9932992,37.8025968 43.1382992,34.9265968 C43.2822992,32.0505968 42.9932992,29.8935968 44.7192992,29.7485968 C46.4452992,29.6065968 48.1722992,28.5985968 48.0292992,27.7355968 C47.8842992,26.8725968 45.8702992,25.1465968 46.4452992,24.5705968 C47.0212992,23.9975968 51.3362992,26.0095968 51.9132992,24.7155968 C52.4862992,23.4205968 51.6242992,21.9815968 52.3442992,20.8315968 C53.0622992,19.6825968 54.7882992,18.5295968 54.6432992,17.3795968 C54.5022992,16.2305968 54.7882992,15.5085968 53.7802992,14.5045968 C52.7752992,13.4965968 53.2072992,12.2015968 54.5022992,12.0565968 C54.7242992,12.0335968 54.9722992,11.9115968 55.2232992,11.7465968 C56.2232992,11.5445968 57.0822992,11.3525968 57.7402992,10.8635968 C59.5352992,9.53059682 62.9822992,8.43259682 64.3082992,8.91459682 C65.3902992,9.30959682 67.7772992,8.97859682 69.2402992,7.42159682 C68.3812992,7.01659682 67.3222992,6.83859682 66.7272992,6.92259682" id="Fill-4" fill="#ED1C24" sketch:type="MSShapeGroup"></path>
    </g>
</svg>