<?xml version="1.0" encoding="utf-8"?>
<!-- Generator: Adobe Illustrator 17.1.0, SVG Export Plug-In . SVG Version: 6.00 Build 0)  -->
<!DOCTYPE svg PUBLIC "-//W3C//DTD SVG 1.0//EN" "http://www.w3.org/TR/2001/REC-SVG-20010904/DTD/svg10.dtd">
<svg version="1.0" id="Ebene_1" xmlns="http://www.w3.org/2000/svg" xmlns:xlink="http://www.w3.org/1999/xlink" x="0px" y="0px"
	 viewBox="0 0 30 49.2" enable-background="new 0 0 30 49.2" xml:space="preserve" style="fill: black">
<path d="M15.1,48l0.3-0.1c0.1,0,0.3,0,0.4,0c0.1,0,0.2,0,0.2-0.1c0-0.3-0.1-1,0.2-1.1c0.1,0,0.3,0,0.3,0.1c0,0,0,0.4,0,0.6
	c0,0.1-0.1,0.1-0.1,0.1c-0.1,0-0.1,0.1-0.1,0.1c0,0.1,0,0.1,0.1,0.1c0.4,0,0.8,0,1.2,0.1c0.1,0,0.1,0,0.1-0.1c0-0.1,0-0.2,0-0.4
	c0-0.2-0.1-0.3-0.3-0.4c-0.2-0.1-1.3-0.8-1.6-1.1l-0.4,0l0,0c0,0-0.1,0-0.1-0.1c0-0.1,0-3.2,0-3.2l0.1-0.2l0.1-0.3l0.4-0.5l0.4-0.3
	l0.3-0.4l0-3.7l0.1-0.1l0-0.7c0-0.4,0.1-0.7,0.1-1.1c0-0.2,0.2-0.5,0.3-0.6c0,0,0,0,0,0c0-0.1,0.4-0.5,0.5-0.6c0.1,0,0.1,0,0.2,0
	c0.1,0,0.1,0,0.2-0.1c0-0.4,0.1-1.6,0.1-1.8c0.1,0,0.3,0,0.4,0c0.1,0,0.2-0.1,0.2-0.2c0,0,0.1-3,0-3c-0.1-0.1-0.2-0.1-0.3,0
	c0,0,0,0.1,0,0.1c0,0.1-0.1,0.1-0.2,0.1c-0.3,0-0.2,0-0.2-0.3c0-0.1,0.2-11.2,0.2-11.8c0-0.3,0-0.8-0.1-1c0-0.2-0.1-0.5-0.2-0.5
	c-1-0.2-1.6-1.5-1.6-1.5c0,0-1.6-3.8-1.6-4.1c0-0.1,0.5-0.3,0.7-0.4c0.2-0.2,0.3-0.4,0.3-0.7c0.1-0.4-0.4-6.5-0.5-6.9
	c0-0.3-0.2-0.6-0.5-0.7c0,0-5.8-0.6-6.5-0.5C8.1,1,8,1.2,8,1.3c0,0.2,0.1,0.8,0.2,0.9c0.1,0.1,3.3,7,3.7,7.9
	c0.3,0.6,0.5,1.3,0.7,1.9c0,0.1,0.4,1.1,0.6,1.5c0.1,0.1,0.4,1.2,0.1,1.5c-0.1,0.1-0.4,0.4-0.4,0.4c-0.2,0.2-0.5,0.2-0.8,0.2
	c-1.3-0.1-3.8-1.3-4.1-1.5c-1-0.4-1.1-0.4-1.2-0.2c-0.2,0.2-0.4,0.5-0.5,0.7c-0.1,0.3-0.3,0.7-0.4,1c-0.2,0.5,0.2,0.6,1.2,1
	c0.4,0.2,1.9,0.6,2.4,0.7c0.7,0.3,1.2,0.6,1.6,1.3c0.1,0.2,0.2,0.4,0.3,0.6c0.1,0.2,0.1,0.3,0.1,0.3c-0.3,0.4-0.5,0.8-0.5,1.6
	c0,0.4,0,0.9,0,1.3c0,0.4,0.1,0.8,0.2,1.1c0,0,0.3,0.4,0.3,0.4c0,0,0,0.3,0,0.5c0,0.1-0.1,0.1-0.1,0.1c-0.2,0.1-0.5,0.1-0.7,0
	c0,0-0.1,0.1-0.1,0.1c0,0,0.1,0.1,0.2,0.1c0.1,0.1,0.3,0.1,0.4,0.2c0.1,0,0.1,0,0.2,0c0.1,0,0.1,0,0.2,0c0,0.1,0.1,0.1,0.1,0.2
	c0,0.1,0,0.1,0.1,0.1c0.2,0,0.1,0,0.3,0.1c0,0,0.1,0,0.1,0c0,0,0,0,0,0c-0.2,0-0.4,0.1-0.7,0.1c-0.6,0.1-5.6,1.2-8.1,4.3
	c-0.3,0.3-0.5,0.6-0.8,0.9c-0.1,0.1-0.5,0.5-0.3,0.7c0.4,0.3,0.7,0.6,1.2,0.9c0.3,0.2,0.7,0.5,1,0.7c0.1,0.1,0.2,0.2,0.4,0.2
	c0.1,0,0.3-0.2,0.2-0.2c0.1-0.1,1-1.1,1.4-1.5c0.1-0.1,0.3-0.3,0.4-0.3c0.7-0.6,1.4-1.2,2.2-1.6c2.3-1.2,4.3-1.1,4.5-1.1
	c0.1,0,0.1,0,0.1-0.1c0.1-0.3,0.1-0.7,0.2-1c0,0,0,0,0-0.1c0,0,0,0,0,0c0,0.1,0,0.3,0,0.4c0,0.2,0,0.5,0,0.7c0,0.6,0,2,0,2.2
	c0,0,1.4,0,2,0c0.2,0,0.2,0,0.2,0.2c0,0.2-0.1,0.1-0.2,0.1c-0.1,0-1.7,0-2.3,0c-0.2,0-0.4,0.2-0.3,0.4c0.1,0.2,0.6,0.8,0.7,1
	c0.2,0.4,0.4,0.9,0.5,1.4c0.1,0.4,0,0.8,0,1.2c0,0.4-0.1,0.8-0.1,1.2c0,0.1,0,0.2,0,0.3l-0.3,4l-0.5,0.1v0.4l0.5,0.2l0.2,5.4
	c0,0,0,0.2,0,0.4c0,0.2,0.1,0.4,0.3,0.5c0.1,0,0.1,0.3,0.1,0.4C14.5,48.2,15.1,48,15.1,48z M11.8,24.1c-0.8-0.5-0.8-1.3-0.8-1.5
	c0-0.4,0-0.9,0.1-1.3c0-0.2,0-0.3,0.1-0.5c0.1-0.3,0.3-0.8,0.5-1.1c0,0,1.6,0.1,1.7,0.1c0,0.1-0.2,0.6-0.3,0.8
	c-0.1,0.1,0,0.1-0.1,0.1c-0.3-0.1-1.1,0.1-1.4,0.7c0,0,0,0.1,0,0.1c0,0,0.1,0,0.1,0c0,0,0.1-0.1,0.1-0.1c0.3-0.3,0.3-0.4,0.7-0.3
	c0.2,0,0.3,0.2,0.5,0.3c0.3,0.2,0.3,0.5,0.4,0.8c0,0.1,0.1,0.2,0.2,0.2c0.1,0,0.1,0.1,0.1,0.2c0,0.3,0,0.5,0,0.8c0,0.3,0,0.6,0,0.8
	c0,0.1,0,0.1-0.1,0.1C12.8,24.4,12.4,24.5,11.8,24.1z M14.3,40.6V38h1v2.6L14.3,40.6z"/>
</svg>
