<?xml version="1.0" encoding="UTF-8" standalone="no"?>
<svg width="90px" height="93px" viewBox="0 0 90 93" version="1.1" xmlns="http://www.w3.org/2000/svg" xmlns:xlink="http://www.w3.org/1999/xlink" xmlns:sketch="http://www.bohemiancoding.com/sketch/ns">
    <!-- Generator: Sketch 3.4 (15588) - http://www.bohemiancoding.com/sketch -->
    <title>Fill 28</title>
    <desc>Created with Sketch.</desc>
    <defs></defs>
    <g id="Page-1" stroke="none" stroke-width="1" fill="none" fill-rule="evenodd" sketch:type="MSPage">
        <path d="M81.629,60.720239 C79.256,59.425239 78.285,43.136239 79.471,42.705239 C79.623,42.651239 79.773,42.822239 79.923,43.160239 L79.687,39.468239 C79.687,39.468239 79.549,39.441239 79.367,39.367239 C78.983,39.212239 78.393,38.838239 78.393,37.958239 C78.393,36.663239 79.471,36.556239 79.471,36.556239 C79.471,36.556239 79.256,33.859239 80.442,33.427239 C80.68,33.343239 80.87,33.171239 81.036,32.967239 C81.696,32.149239 81.845,30.562239 81.845,29.436239 C81.845,28.033239 82.168,26.415239 82.708,25.228239 C83.247,24.042239 83.031,22.424239 83.894,21.776239 C84.757,21.129239 84.65,19.403239 85.728,19.079239 C86.807,18.756239 87.67,18.324239 87.778,17.677239 C87.886,17.030239 89.18,16.167239 89.18,15.196239 C89.18,14.225239 87.562,14.009239 87.562,12.823239 C87.562,11.636239 87.994,8.61523897 87.994,8.61523897 C87.994,8.61523897 88.034,8.60223897 88.064,8.58823897 C85.742,6.46323897 83.057,4.25623897 82.445,3.84823897 C81.541,3.24923897 80.039,4.45223897 80.039,4.45223897 C80.039,4.45223897 78.536,2.94523897 77.332,4.14923897 C76.129,5.35223897 74.325,4.14923897 74.325,4.14923897 C74.325,4.14923897 72.822,3.24923897 72.22,1.74523897 C71.974,1.13123897 71.522,0.771238967 70.959,0.474238967 L71.037,0.669238967 L67.436,1.27023897 C67.436,1.27023897 62.936,-1.13076103 62.036,0.669238967 C61.136,2.47023897 60.237,1.27023897 58.137,1.27023897 C56.037,1.27023897 54.238,2.17023897 53.038,2.77023897 C51.838,3.37023897 50.038,2.17023897 49.138,2.77023897 C48.238,3.37023897 47.638,6.06723897 47.638,6.06723897 L38.338,4.26723897 C38.338,4.26723897 36.538,1.57023897 34.438,1.57023897 C32.337,1.57023897 29.339,5.46723897 29.339,5.46723897 L29.339,8.72823897 C29.7,10.689239 29.238,12.732239 28.614,13.773239 C27.714,15.277239 26.811,15.877239 26.811,18.884239 C26.811,21.891239 23.202,26.705239 23.202,29.109239 C23.202,31.516239 18.991,33.019239 18.991,34.523239 C18.991,36.028239 18.689,39.333239 18.689,42.644239 C18.689,45.953239 16.886,43.244239 16.886,46.251239 C16.886,49.258239 15.382,47.456239 13.879,48.958239 C12.375,50.461239 11.774,50.761239 11.774,49.258239 C11.774,47.754239 9.668,47.456239 7.865,48.958239 C6.061,50.461239 5.458,48.958239 4.558,48.658239 C4.059,48.493239 1.997,49.703239 0,51.075239 C0.9,52.929239 1.363,54.798239 1.729,56.442239 C1.763,56.597239 1.807,56.765239 1.852,56.931239 C2.914,56.182239 3.991,55.522239 4.605,55.434239 C6.115,55.218239 20.355,55.434239 20.355,55.434239 C20.355,55.434239 21.649,57.592239 21.218,59.533239 C20.786,61.475239 22.081,60.612239 23.16,63.201239 C24.238,65.790239 25.101,66.869239 27.259,66.222239 C29.417,65.574239 32.006,65.143239 32.869,65.359239 C33.732,65.574239 33.516,61.691239 34.81,61.044239 C36.105,60.396239 38.694,61.044239 38.694,61.044239 C38.694,61.044239 38.91,62.122239 41.067,62.122239 C43.225,62.122239 44.304,61.259239 44.304,62.770239 C44.304,64.280239 44.519,66.006239 45.167,66.653239 C45.814,67.300239 43.441,72.694239 44.519,73.557239 C45.598,74.420239 47.108,76.362239 46.893,77.441239 C46.677,78.520239 46.03,81.109239 46.893,81.324239 C47.756,81.540239 47.971,80.030239 49.482,80.030239 C50.992,80.030239 52.286,80.246239 53.797,79.598239 C54.291,79.388239 54.732,79.467239 55.111,79.649239 C55.89,80.027239 56.386,80.893239 56.386,80.893239 C56.386,80.893239 56.817,82.403239 57.68,81.972239 C58.543,81.540239 60.917,80.893239 60.701,81.756239 C60.485,82.619239 61.348,84.561239 62.211,84.129239 C63.074,83.698239 65.232,85.424239 66.31,85.424239 C67.389,85.424239 68.468,85.424239 68.468,84.777239 C68.468,84.129239 69.763,83.051239 70.194,83.914239 C70.626,84.777239 71.704,86.718239 72.783,86.718239 C73.862,86.718239 76.451,86.718239 76.451,87.581239 C76.451,88.444239 77.314,90.818239 78.393,91.681239 C79.471,92.544239 81.845,91.681239 81.845,91.681239 C81.845,91.681239 82.708,91.033239 82.708,89.523239 C82.708,88.013239 82.708,86.071239 82.061,86.071239 C81.413,86.071239 80.334,87.581239 78.824,87.150239 C77.314,86.718239 76.235,83.698239 75.588,83.266239 C74.941,82.835239 76.667,80.030239 76.667,78.735239 C76.667,77.441239 77.745,73.773239 76.882,73.342239 C76.019,72.910239 76.451,71.616239 77.53,70.753239 C78.608,69.890239 77.098,67.516239 78.824,67.516239 C80.442,67.516239 83.739,67.691239 84.68,66.646239 C84.742,66.576239 84.825,66.518239 84.865,66.437239 C84.985,66.198239 85.086,65.942239 85.177,65.687239 C84.07,63.872239 82.962,61.448239 81.629,60.720239" id="Fill-28" fill="#ED1C24" sketch:type="MSShapeGroup"></path>
    </g>
</svg>