<?xml version="1.0" encoding="UTF-8" standalone="no"?>
<svg width="33px" height="28px" viewBox="0 0 33 28" version="1.1" xmlns="http://www.w3.org/2000/svg" xmlns:xlink="http://www.w3.org/1999/xlink" xmlns:sketch="http://www.bohemiancoding.com/sketch/ns">
    <!-- Generator: Sketch 3.4 (15588) - http://www.bohemiancoding.com/sketch -->
    <title>Fill 40</title>
    <desc>Created with Sketch.</desc>
    <defs></defs>
    <g id="Page-1" stroke="none" stroke-width="1" fill="none" fill-rule="evenodd" sketch:type="MSPage">
        <path d="M5.34890088,4.32 C4.44790088,5.222 2.34590088,5.522 2.64690088,7.024 C2.94690088,8.525 2.34590088,10.027 0.843900882,11.831 C-0.649099118,13.623 0.230900882,16.303 0.537900882,18.4 C2.34890088,18.272 4.22990088,18.239 4.60290088,18.614 C5.35890088,19.37 5.66390088,18.614 6.11690088,17.099 C6.56890088,15.586 7.47990088,15.737 8.38790088,16.495 C9.29690088,17.252 9.90290088,18.461 11.4179009,17.703 C12.9309009,16.946 12.7809009,17.4 13.5369009,17.703 C14.2929009,18.006 17.3229009,17.552 18.3839009,17.703 C19.4429009,17.855 28.6799009,27.7 28.6799009,27.7 C28.6799009,27.7 28.6579009,27.737 28.6159009,27.804 C29.7839009,27.935 30.5839009,28.114 30.9419009,27.636 C31.0919009,27.434 31.6159009,27.093 32.2589009,26.72 C31.0799009,25.61 29.3619009,23.794 27.0839009,20.915 C24.3529009,17.468 21.1209009,15.602 19.3969009,15.602 C17.6739009,15.602 17.3869009,12.656 16.3099009,12.512 C15.2319009,12.37 12.7899009,8.131 12.7179009,5.401 C12.6769009,3.864 11.4009009,1.728 9.98990088,0 C8.27990088,2.734 5.98690088,3.684 5.34890088,4.32" id="Fill-40" fill="#ED1C24" sketch:type="MSShapeGroup"></path>
    </g>
</svg>