<?xml version="1.0" encoding="utf-8"?>
<!-- Generator: Adobe Illustrator 17.1.0, SVG Export Plug-In . SVG Version: 6.00 Build 0)  -->
<!DOCTYPE svg PUBLIC "-//W3C//DTD SVG 1.0//EN" "http://www.w3.org/TR/2001/REC-SVG-20010904/DTD/svg10.dtd">
<svg version="1.0" id="Ebene_1" xmlns="http://www.w3.org/2000/svg" xmlns:xlink="http://www.w3.org/1999/xlink" x="0px" y="0px"
	 viewBox="0 0 1280 576" enable-background="new 0 0 1280 576" xml:space="preserve">
<pattern  x="129.3" y="-195.3" width="23" height="23" patternUnits="userSpaceOnUse" id="Neues_Musterfeld_16" viewBox="11.8 -34.5 23 23" overflow="visible">
	<g>
		<polygon fill="none" points="11.8,-34.5 34.8,-34.5 34.8,-11.5 11.8,-11.5 		"/>
		<g>
			<defs>
				<rect id="SVGID_1_" x="11.8" y="-34.5" width="23" height="23"/>
			</defs>
			<clipPath id="SVGID_2_">
				<use xlink:href="#SVGID_1_"  overflow="visible"/>
			</clipPath>
			<g clip-path="url(#SVGID_2_)">
				<polygon fill="#C1272D" points="11.8,-34.5 34.8,-34.5 34.8,-11.5 11.8,-11.5 				"/>
				<g>
					<line fill="none" stroke="#000000" stroke-width="2" x1="19.9" y1="-43.8" x2="43.8" y2="-19.9"/>
					<line fill="none" stroke="#000000" stroke-width="2" x1="16.1" y1="-39.9" x2="39.9" y2="-16.1"/>
					<line fill="none" stroke="#000000" stroke-width="2" x1="12.2" y1="-36.1" x2="36.1" y2="-12.2"/>
					<line fill="none" stroke="#000000" stroke-width="2" x1="8.4" y1="-32.2" x2="32.2" y2="-8.4"/>
					<line fill="none" stroke="#000000" stroke-width="2" x1="4.6" y1="-28.4" x2="28.4" y2="-4.6"/>
					<line fill="none" stroke="#000000" stroke-width="2" x1="0.7" y1="-24.6" x2="24.6" y2="-0.7"/>
				</g>
			</g>
		</g>
	</g>
</pattern>
<g>
	<path fill="url(#Neues_Musterfeld_16)" stroke="#FFFFCC" d="M880.3,87.3c0.5-1.8-7.5-1-5.4,0.7C875.6,88.6,879.8,89.1,880.3,87.3z
		 M883.4,95.8c2.3,1,1.4,1.6-1,1.6c-2.4,0-4.5,0.8-2.9,1.4c1.2,0.5,1.1,1.8,3.6,2.4c2.5,0.6,5-1.4,4.8-2.9
		c-0.2-1.4,8.8-2.8,11.2-3.4c2.4-0.6-1.6-3.1,1.1-3.4c2.6-0.2,1.6-1.4-1.7-1.9c-3.2-0.5-1.9-3.2-3-4.2c-1.1-1-1.7,1.2-5.9,2
		c-4.2,0.8-6.2,1.9-4.6,2.8c1.7,0.8,0,2.9-1.8,2.8C881.5,92.9,881.2,94.8,883.4,95.8z M794.8,157.1c1.6,0.2,5.8-0.6,6.2-1.4
		c0.5-0.8-1.7-1.8-4.4-1.8C793.8,153.9,793.4,156.9,794.8,157.1z M829.8,158.9c1.9,1,3.4,0.6,3.1-1.3
		C832.7,155.7,828.3,158.1,829.8,158.9z M889.8,99.2c0,1.3-3.9,2.6-2.8,3.6c1,0.8,1.8,0.6,3,0.8c1.2,0.2,1.8,3.2,4,2.8
		c2.2-0.5,8,2.4,11.5,2.4c3.5,0,3.8-2.9,2.8-3c-1.1-0.1-0.1-1.8,1.8-4.6c1.9-2.8-6-4.8-6-2.6c0,2.2-2.3-0.5-3-1.8
		C900.4,95.4,889.8,97.8,889.8,99.2z M1233.4,174.3c2.4,1.2,3.8-1.4,5.8-0.1c1.9,1.3,6.6-0.6,8.5-1c1.9-0.4,1-2.8-4.4-3.5
		C1237.8,169,1230.8,173,1233.4,174.3z M1099.5,140.7c2.9,0.2,4.3,3,9.8,3.4c5.5,0.4,9.6-0.7,9.7-1.9c0.1-1.2-5-3-6.6-2
		c-1.6,1-2.8-1.6-4.7-1c-1.9,0.6-4.6,0.5-5.5-1.2C1101.3,136.2,1098.1,140.6,1099.5,140.7z M908.4,116.1c1.7,1,7.1-1.2,10.7-1.1
		c3.6,0.1,13.7-2.8,14-4.7c0.4-1.9-3.7-1.8-5.3-3.5c-1.6-1.7-5-0.2-5.9,1.2c-0.8,1.4-1.8,0.1,0.5-2.2c2.3-2.3-2.3-4.1-2.4-2.6
		c-0.1,1.4-4.3,0.2-4.3,1.6c0,1.3-1.6,1.9-1.4,3.2c0.1,1.3-2.9-0.7-3,2.3C911.2,113.3,906.6,115.1,908.4,116.1z M771.6,90.4
		c4.5-0.5,4.4-3,2-3.5c-2.4-0.5-2.8,1.4-4,1.3c-1.2-0.1-5.7,0.8-4.8,1.8C766,91.2,769.3,90.6,771.6,90.4z M1088.2,156.1
		c2.2-0.5-1.6-4.4-5.3-5c-3.7-0.6-7.2,2.5-6.7,3.1C1077.3,155.8,1086.1,156.6,1088.2,156.1z M1078.6,148.2c0-1.8-6.5,0.7-3.8,1.6
		C1076.2,150.3,1078.6,150,1078.6,148.2z M1063.2,140.8c1.7,0.8,2.3,1.7,3.2,2.6c1,1,4.6-0.5,6-1c1.4-0.5,1.6,2.2,3.8,0.7
		c2.3-1.4,4.6-0.7,7.2-0.7c2.6,0-0.5-3.2-0.4-4.7c0.1-1.4,3.1-0.5,2.2,0.7c-1,1.2,1.4,4,5.3,3.7c3.8-0.2,1-2.6,2.9-3.5
		c1.9-0.8,1.7-1.8-1.1-3.5c-2.8-1.7-6.4-0.6-8.8-1.7c-2.6-1.2-5.6-1.2-5.8,1.4c-0.1,2.6-5.2-2.9-7.8-3.7
		C1067.4,130.5,1059.2,138.8,1063.2,140.8z M1087.3,294.7c-1.3-3.5,1.9-6.8-0.5-8.6c-2.4-1.8-1.4-5.5-2.6-4.8c-1.2,0.7,0,4-1.9,4.2
		c-1.9,0.2-0.1,2-0.8,4.4c-0.7,2.4,0.4,5.9,1.3,8c1,2.2-1.3,13.7-0.4,15.6c1,1.9-1.6,10.4-0.7,11.4c1.4,1.7,0.5-2.3,2.6-2.6
		c2.2-0.4,2.2,2.4,3.5,3c1.3,0.6,0.5-3.8-0.7-3.6c-1.2,0.2-2.2-2.9-2.8-4.8c-0.6-1.9,1.2-4.2,1.2-6.6c0-2.4,3-2.3,4.8-0.5
		c1.8,1.8,2,0.6,1.3-0.7C1090.9,307.8,1088.6,298.2,1087.3,294.7z M698.7,92c2.8-2.5,6.4-0.1,6.8-1.3c0.5-1.2-5.2-1.6-7.2-0.5
		c-2,1.1-6.8,0.2-6.2,1.6C692.4,92.6,695.9,94.5,698.7,92z M704.8,187.8c3.2,3,6-1.3,7.6-1.6c1.6-0.2-1-1.9-3.6-2.6
		C706.1,182.9,702.3,185.6,704.8,187.8z M762.9,91c0.8-1.1-1.6-1.1-1.8-2.2c-0.2-1.1-7-1.3-6.6-0.1c0.4,1.2-4.6,2.5-3.1,3.7
		C754.2,94.7,762,92.1,762.9,91z M710,90.9c1.7,1.2-4.7,0.8-5.5,2c-0.8,1.2-4.5,0.8-3.8,2.2c0.7,1.4,6.7,1.6,6.7,0.4
		c0-1.2,3.1-0.1,3.2-1.2c0.1-1.1,1.4-2.3,4.8-2.5c3.4-0.2,3.4-1.4,0.2-2.9C712.5,87.4,708.3,89.7,710,90.9z M1279.5,208.3
		c-1.2-0.4-5-2.9-6-4.3c-1-1.4-5.6-2-5.6-1.3s-1.5-0.2-1.9-1c-0.4-0.8-5.2-0.9-5.3-0.1c-0.1,0.8,1.1,0.9,1.9,1.9
		c0.7,1-1,1.5-0.6,2.6c0.4,1.1-1.8-0.5-2.6-1.1c-0.8-0.6-0.4-2.9-0.2-4.1c0.2-1.2-1.4-1-1.6-2.2c-0.2-1.2-5.6-3.7-7.9-4.6
		c-2.3-1-5.2-1.8-6-3c-0.8-1.2-4.9-1.3-6.4-2.9c-1.6-1.6-8.4-4.5-11.3-4.7c-2.9-0.2-2.3-1.8-3.7-1.6c-1.4,0.2-7.6-0.1-9.5-0.4
		c-1.9-0.3-2.3,1.1-3.7,0.6s-8.5-3.1-9.4-2.2c-0.8,1-0.5,2.3-1.3,2.6c-0.8,0.2,0,1.4,2,3.2c2,1.8,0.8,3.2-1,4
		c-1.8,0.8-4.7-0.7-5.6-2.1c-0.9-1.4-3.4-0.8-4-2.6c-0.6-1.8,0.7-2.1,1.9-1.1c1.2,1,2.8,0.2,3-1.1c0.2-1.3-3.2-2.2-5.1-2.1
		c-1.9,0.1-2.9,2.7-4.8,3.8c-1.9,1.1-9.4-0.4-10.1-1.1c-0.8-0.7-11.2,0-12.2,0.7c-1.1,0.7-0.3,3.5-0.8,3.8c-0.5,0.2-1.1-3.2-1.1-3.9
		c0-0.7-1.3-1.1-3.1-1.1c-1.9,0-2.9-0.1-2.2-0.8c0.8-0.8-0.7-1.6,0.7-2.6c1.4-1-2.6-4.2-6.6-5.8c-4-1.6-13-0.7-15.4,0.1
		c-2.4,0.7-7.2,0.5-9.5,0.5c-2.3,0.1-0.4-0.9-1.1-2c-0.7-1.1-4.6-2.4-5.1-1.5c-0.5,0.9-1.6,0-1.6-0.7c0-0.7-3.7-2-5.1-1.7
		c-1.4,0.3-2.1-1.3-0.4-1.3c1.7,0,4.6,0.4,3.3-1.6c-1.3-1.9-12.1-2.5-13.1-2.2c-1,0.4-0.1,1.7-2.4,4c-2.3,2.2-4.6,0.7-4.3-0.4
		c0.3-1.1,3.2-0.9,3.2-2s-4-0.5-4.6-1.4c-0.6-0.9,0.8-1.5,2.3-1.1c1.4,0.4,4,0.7,4.1,0c0.1-0.7-1.5-0.8-3.9-1.2
		c-2.4-0.4-8.2-1.8-11.3-1.5c-3.1,0.3-4.4-1.1-6.1-1.3c-1.7-0.1-1.7,0.9-0.9,1.9c0.8,1-1.6,1.6-3.6,1.3c-2-0.3-4.9,1.1-3.7,2.5
		c1.1,1.4,2.3-0.4,3.2,0.1c1,0.5-2.5,1.5-1.1,2.2c1.4,0.7,1.2,2,1.3,2.8c0.1,0.7-2.4,1.1-3.3,0s-2.2-0.1-3.8-0.2
		c-1.7-0.1-2.9,0.7-1.1,0.9c1.8,0.2,2.4,1.4,0,1.6c-2.4,0.2-1.8-2.2-3.2-1.9c-1.4,0.3-4.6-1.1-6.2-1.1c-1.7,0.1-2.5,1.4-4.7,1.6
		c-2.2,0.2-5.2-1.1-6.1-2.3c-0.9-1.2-1.2-1.6-2.3-0.2c-1.1,1.4-1.1,4-2.2,4.2c-1.1,0.2-1.5,2.5-2.6,3.1c-1.1,0.6-1.1-0.9-2.5-0.8
		c-1.4,0.1-5.8-4.2-6.1-5.5c-0.2-1.3-3-3.7-3.7-4.1c-0.7-0.5,0.7-0.7,1.6,0.1c0.9,0.8,2,0.8,2.9,0.3c0.9-0.5,0.8-2.7-0.8-2.8
		c-1.6-0.1-1-1.4-0.2-1.6c0.8-0.2-1.8-2.6-0.8-2.8c1-0.2,0.5-1.3-0.8-1.4c-1.3-0.2-2.7-1.3-2.8-1.9c-0.1-0.7-5.6-0.9-5.4,0.1
		c0.2,1-1.8,0.7-1.5-0.1c0.3-0.8-2-0.5-4.6-1.3c-2.6-0.7-2.7-2.6-3.6-2.7c-0.9-0.1-0.6,2.6-1.9,2c-1.3-0.6-2.8,0.5-2,2.1
		c0.7,1.6,0.1,1.8-0.1,3.1c-0.1,1.3-0.8,0.7-2.4,0.2c-1.6-0.5-1.6,1.3-4.9,0.5c-3.4-0.8-4.9,0.1-5.5-1c-0.6-1.1-1.6-1.2-1.7-0.3
		c-0.1,0.9-5.3,0.5-5.7-0.8c-0.4-1.3,0.9-1.6,1.7-1.9c0.8-0.4-0.8-0.9-3.7-0.7c-2.8,0.2-4.6-1.4-7.5-1.1c-2.9,0.3-9.3,0.9-10.2,1.3
		c-0.9,0.4,0.8,2-0.5,2.2c-1.4,0.1-0.4-2.6-0.7-4c-0.2-1.3-2.3-1.5-2-0.5c0.3,1-3.3,1.4-4.2,0.6c-0.9-0.8-2.3-1.8-4.7-2.4
		c-2.3-0.6-5.2,1.9-4.6,2.6c0.7,0.7,2.4,0.2,2.5,0.7c0.1,1-5,0.6-5,1.4c0,0.8-4.7,2-6.2,2.2c-3.9,0.5-4.8,0.5-6.7,2
		c-1.9,1.6-0.4-1.4,1-2.8c1.4-1.4,2.9-0.8,3.8-2c0.8-1.1,2.2-1,4.4-1.4c2.3-0.4,2.2-1.7,3.2-2.2c1.1-0.5,3.7-1.5,4.2-2.6
		c0.5-1.1,5.9-2.9,7-2.8c1.1,0.1,1.3-2.2,1.9-2.2c0.6,0,3.7-1.4,4.9-1.9c1.2-0.5,1.8-1.7,1.9-2.5c0.1-0.8-1.6-0.7-1.8-1.4
		c-0.2-0.7,0.8-0.2,2-0.7c1.3-0.5,0-2.2-1-1.9c-1,0.3,0.5-0.9-0.4-2c-0.9-1.1-2.7,0.7-2.6-0.5c0.1-1.1-0.1-2.6-0.8-3.3
		c-0.7-0.7-2,1.3-3.5,0.1c-1.5-1.1-5.9-1.9-5.9-1.4c0,0.5-2.1-0.7-2.5-0.2c-0.4,0.5-3.9,0.4-5,0.1c-1.1-0.3-2.6,0.4-2.6,1.5
		c-0.1,1.1-4.3,0.7-5.1,0.5c-0.8-0.2,2.9-3.2,2.9-3.8s-6.3,0.1-6.7-0.5c-0.4-0.6-3.4-0.8-4.8-0.7c-1.4,0.1-0.1-0.4,1.2-0.5
		c1.3-0.1,2.4-1.2,3.8-1.4c1.4-0.2,1.1-0.7,0.5-1.6c-0.6-0.8-2-0.4-3.4-0.8c-1.4-0.4-3.1-1-4.3-1.1c-1.2-0.1-2.5,0.6-5.3,1.1
		c-2.8,0.5-3.1,2.7-4.5,3.4c-1.4,0.7-4,3.3-2.8,3.5c1.2,0.2,0.6,1,0.8,1.7c0.2,0.8-0.9,1-2.3,0.7c-1.4-0.2-6.2-0.2-6.2,0.8
		c0.1,1,2.8,1.5,2.6,2c-0.2,0.5-2.1-0.1-3.1-0.6c-1-0.5-3.1-0.2-3.5,0.8c-0.4,1-2.1,0.8-2.6,0.5c-0.5-0.2-1.7,0.5-2.6,0.2
		c-0.9-0.3,1.8-1.6,1.1-2.3c-0.7-0.7-3.5-0.1-3.8,1c-0.3,1.1-2-0.8-2.7-0.4c-0.7,0.4-1.4,0.8-2.6,1.3c-1.3,0.5-3.4-0.6-3.9,0.4
		c-0.5,1,2.4,1.3,2.5,1.7c0.1,0.4-6.5,0.4-6.7,1c-0.2,0.7-2.4,0.7-5.1,0.7c-2.7,0.1-1.6,1.4-3.8,1.8c-2.2,0.4-3.1,0.5-3.8,1.6
		c-0.7,1.1-2.4,1.3-3.1,0.4c-0.7-0.8-2.7,0.4-1.6,0.5c1.1,0.1,0.1,1.2-0.6,1c-0.7-0.2-2.6,1.1-1.5,1c1.1-0.1,1.6,0.8,1.1,1.4
		c-0.5,0.7-2.9-0.8-3.5-0.2c-0.6,0.6,1.1,1.4,2.2,1.3c1.1-0.1,1.7,0.6,1.8,1.4c0.1,0.8-2.5-0.5-3.1,0.2c-0.5,0.7,0.4,1,1.6,1.1
		c1.1,0.1,0.3,0.5,1.3,1.4c0.1,0.1,0.1,0.1,0.2,0.2c0.6,0.7-0.5,1-0.4,1.7c0.1,0.8-1.1,1.1-1.1,0.4s-3.2-1-3.8-0.2
		c-0.7,0.8-1.1,1.4-1.9,0.7c-0.8-0.7-3.1,0.2-6,0.3c-2.9,0.1-9,0.4-10.5,0.9c-1.5,0.5-2.8,2.6-1.4,4c1.4,1.4,0.1,2,0.1,2.9
		s3.6,2.8,5.5,2.9c1.9,0.2,3.5,2.5,2.3,4c-1.1,1.4-4.6-0.4-6.9-2.2c-2.3-1.8-7.6-2.5-9.3-2.4c-1.7,0.1-0.7-1.6-2.9-1.5
		c-2.2,0.1-4.1,2-2.6,2c1.5,0,2.5-0.1,1.7,0.6c-0.8,0.7,0.4,0.5,2.2,1.3c1.8,0.8-1.5,1.9-3.4,0.6c-1.9-1.3-3.8-0.1-4.4,0.9
		c-0.5,1,2.2,3.7,5.4,4.2c3.2,0.5,2.2,1.5,3.7,2c1.5,0.5,0.4,1.1-0.6,1.2c-1,0.1-3.1-1.6-4.7-2.4c-1.6-0.8-6,0.4-6.9-0.6
		c-0.9-1,0.6-1.9-0.2-2.6c-0.8-0.7-0.1-2.3,1-4c1.1-1.7-0.2-4.6-1.7-5c-1.6-0.5-1.4,1.1-1.1,1.6c0.4,0.5,0.2,2.8-1,4.3
		c-1.2,1.5-4.9,1.5-4.9,2.5c0,1-2.5,1.8-1.6,2.5c0.8,0.7,4.1,4.4,4.6,5.6c0.5,1.1-2.9,4.7-2.4,6.8c0.5,2.1-0.5,3.1,0.2,4.1
		c0.7,1,2.2,0.1,3.1,0.5c1,0.4,2.5-0.6,4.7-1c2.2-0.4,6.3,1.9,7.8,2.6c1.5,0.7,0.7,1.9,1.5,3.1c0.8,1.2-1.8,1.2-1.9,3
		c-0.1,1.8,4.5,2.6,4.7,3.1c0.2,0.5-3.2,0.1-4.6-0.4c-1.3-0.5-1.4-2.2-1.9-2.6c-0.4-0.4,0.9-1.8,1-2.9c0.1-1.1-1.5-1.8-2-2.6
		c-0.5-0.8-1.5-1.9-2.6-1.7c-1.1,0.2-5,0.6-6.2,1.7c-1.2,1.1,0.2,4.1,0.8,5.6c0.7,1.5-3.5,3.6-3.4,4.8c0.1,1.2-1.3,1.7-3.1,2.7
		c-1.8,1-3.8,1.7-3.7,3.2c0.1,1.6-2.4,0.7-3.7,0c-1.3-0.7-2.9,0.4-4.7,0.4c-1.8-0.1-1.8-1.6-3.2-1c-1.4,0.5-2.4-0.7-2-1.7
		c0.4-1.1,2-0.2,2.2,0.5c0.1,0.8,1.1,0.4,2.3-0.2c1.2-0.7,0.6,0.8,2.3,1c1.7,0.1,0.8-0.9,2.1-0.8c1.3,0.1,1.4-0.3,1-1
		c-0.4-0.7,1-1.1,1.8-1.5c0.9-0.4,0.5-1.7,1.3-2.2c0.8-0.4,0.2-1.3,1.1-1.3c0.8-0.1,1.2-1.3,2-1.3c0.8,0,1.2-1.3,0.7-1.9
		c-0.5-0.7,0.3-2.5,1.1-2.7c0.8-0.2,0.8-1,0.1-1.5s-3.4-2.3-3.2-3.5c0.2-1.1-0.5-3.2-0.1-4.1c0.4-0.9,0.1-2.8-0.1-3.8
		c-0.1-1.1,0.7-2.3,1-4.3s-2.1-4.1-3.3-4.6c-1.2-0.5-0.4-1.6,1.3-3.1c1.7-1.4,1.9-5.9,1.7-6.9c-0.1-1-3.7-1.8-5-1.7
		c-1.4,0.1-6.5-0.1-7.7-0.4c-1.3-0.2-1.7,1.1-2.3,2.3c-0.6,1.2-1.9,3.1-2.7,5.8c-0.8,2.7-4,3.5-5.4,4.1c-1.4,0.6-2.3,2.6-1.7,3.5
		c0.7,1,1.6,0.2,2.3,0.5c0.7,0.4-0.1,2.9-0.5,3.2c-0.4,0.4,0.8,1.3-0.2,1.9c-1,0.7-2,2-1.4,2.8c0.6,0.7,3.5,1.1,4.8,1.8
		c1.3,0.7,0.8,2,1.7,3.3c1,1.3,2,0.5,2.5,1.3c0.5,0.8-1.7,3.9-2.5,4c-0.8,0.1-4-3.2-4.9-3.9c-1-0.7-4.7-1.9-6.5-2.8
		c-1.9-1-3.4-0.8-5.4-2.2c-2-1.4-3.8-2-7.5-2c-3.7,0.1-6.1-0.8-7.4-0.7c-1.3,0.2-0.8-1.3-3-2.2c-2.2-1-3.7-2.3-4.9-1.6
		c-1.3,0.7-0.8,3.1,1.1,3.4c1.9,0.3,1,1.3,3,1.2c2-0.1,2.6,0.6,2.6,1.9c-0.1,1.3,1,2.5,1.9,3.4c0.9,0.8,0.4,2.2-1.3,2.2
		c-1.6,0-3.5,0.2-2.8,1.4c0.7,1.1-0.5,1.4-2.1,0.8c-1.6-0.6-0.7-1.7,0-2.4c0.7-0.7-1.4-1.5-2.5-1.9c-1-0.4-5.1,2.6-6.2,3.1
		c-1.1,0.5-4-0.7-6.8,0s-2.7,3-3.8,2.8c-1.1-0.2-4.3,0.3-5.5-0.4c-1.2-0.7-0.2-1.1,1-1.1c1.3,0.1,1.7-0.4,1-1.2
		c-0.7-0.8,1-2.2,0.9-2.8c-0.1-0.6-4.7,1-5.5,1.6c-0.8,0.7,0.1,1.9-0.8,2.3c-0.8,0.4-0.8-0.7-1.8-1.1c-1-0.4-8,1.3-9.3,2.8
		c-1.3,1.5-3.9,1.6-3.9,2.4c0,0.8-3.2,0.8-4.4,1.4c-1.3,0.6-0.4,3.1-0.9,4.3c-0.5,1.2-5.4,0.8-6.9,0.9c-1.5,0.1-2-2.9-3.2-3.1
		c-1.2-0.2-0.5-1.9-0.1-2.6c0.4-0.7,1.3-0.1,2.8-1.1c1.5-1,3,0.5,3.6-0.2c0.6-0.7-2.3-2.4-2.5-3.9c-0.2-1.5-3.4-1.9-5.2-1.4
		c-1.8,0.5-3.8,0.1-5-0.5c-1.3-0.6-1.1,1.1,0.7,1.6c1.9,0.5,0.9,1.9,1.2,2.8c0.3,0.9-0.5,2.9-1.6,4.5c-1.1,1.6-0.3,1.5,1.3,1.4
		c1.6-0.1,1.5,2,1.5,3.6c0,1.6-1.3,2-1.3,3.1c0,1.1-1.3-0.5-1.7-0.1c-0.4,0.5-1-0.2-1.2-1.2c-0.2-1-2.7-0.4-4.1-0.8
		c-1.4-0.4-1.9,0.2-2.6,1.3c-0.7,1-2.6,1.4-3.6,1.6c-1.1,0.1-2.8,2.1-3.9,2.8c-1.1,0.7-1.3,2.1,0.2,3.5c1.5,1.4,1.8,2.4,1.7,3.2
		c-0.1,0.8-4.2,0.5-4.9-0.3c-0.7-0.8-3.3-1.1-4.2-1c-0.9,0.2-3.4-2.7-4.6-2.8c-1.3-0.1-2,1.5-2.5,2.3c-0.4,0.8,0.6,1,1.2,2.3
		c0.6,1.3,2.8,1.4,4,1.4c1.1,0,0.7,1.7,0.4,2.5c-0.4,0.7-2.5,1.3-3.1,0.5c-0.6-0.8-3.1,0-3.2-1c-0.1-1-1.9-2.4-3.7-2.1
		c-1.9,0.3-2.2-0.9-2.1-2.3c0.1-1.4-1-2.3-1-2.9c0.1-0.7-0.8-2,0.1-2.6c1-0.7,0.2-1.7,0.3-2.6c0.1-0.9-1.6-2.3-3.1-2.3
		c-1.5,0-1.2-1.5-2.5-1.8c-1.3-0.3-3.8-2.4-4-3.3c-0.2-0.9-2.1-1-1.4-1.3c0.7-0.3,2.2,0.1,3.2,1.2c1.1,1.1,2.8,2,5.6,2.4
		c2.8,0.4,4,1.7,7.1,2.2c3.1,0.5,5,0.9,9.5,1.6c4.5,0.7,10.5-3.9,11.8-5.2c1.3-1.3-0.4-3.8-0.4-4.8c0-1-2-1.1-2.3-1.8
		c-0.3-0.7-1.6-2-3.4-2c-1.7,0-2-2-3.4-1.9c-1.4,0.1-2.3-0.6-5.9-3c-3.6-2.4-8.6-4.1-9.5-3.7c-0.9,0.4-1.5,0.7-2.1-0.2
		c-0.6-0.9-2-0.8-2.9-0.1c-1,0.7-1.9-0.7-3.7-0.2c-1.8,0.4-2.8-0.8-2.3-1.3c0.5-0.5,3.1-0.1,3-1c-0.1-0.9-1.1,0-2.7-1.1
		c-1.6-1.1-2.5-0.4-2.9,0.5s-1.6,0.7-2.5-0.1c-0.1-0.1-0.2-0.1-0.3-0.2c-0.3,1.5-1.2,1.7-2.1,1.5c-1.1-0.2-2.2,1.6-3.4,1.6
		c-1.2,0-2.5,1.3-2.8,2.4c-0.2,1.1-1.6,0.5-1.6,1.2c0,0.7,0,1.4-0.6,2.2c-0.6,0.7,0,1.1,0.6,2.3c0.6,1.2,1.9,1.1,2.5,1.4
		c0.6,0.4,2.9,2.3,2.9,3s-1.8,2.5-2.5,3c-0.7,0.5-1.7,1.7-1.2,2.4c0.5,0.7,2.5,3.7,3.8,6.1c1.3,2.4-0.5,1.3-1.3,2.4
		c-0.8,1.1,0.4,2.4,0.6,3.1c0.2,0.7-1.1,0.6-1,1.2c0.1,0.6,1.9,0.8,2,1.3c0.1,0.5-1.2,1.1-0.6,2c0.6,1,2,1,2.2,2.2
		c0.1,1.2-2.6,1.3-2.5,2.3c0.1,1,3.6,2.2,5.2,4c1.6,1.8,1.4,2.3,1.1,3.2c-0.7,1.9-5,3.6-6,5.8c-1,2.2-4.6,3.4-6.2,5
		c-0.7,0.7-1.4,1.6-1.9,2.5c0.7-0.2,1.3-0.4,1.7-0.6c1-0.5,1.6,1.9,2.6,2.6c1,0.8,2.9,0.1,3.5,0.8c0.7,0.7-0.5,0.8-1.9,0.5
		c-1.4-0.2-1.7,0.6-3.9,1.3c-1.6,0.5-1.5,1.1-2,1.6c1,1.4-0.3,1.6-0.8,2.7c-0.5,1.2-1.3,1.3-1.3,2.1c-0.1,0.7,0.2,1.3,0.3,2.3
		c0.1,1.1,0.3,1.3,0.9,2.2c0.6,0.9-0.5,0.9-1.1,1.3c-0.5,0.4-0.2,1.4,0.5,2.2s0.7,1.6,0.4,2.2c-0.3,0.6,0.6,1.7,1.3,2.3
		c0.6,0.6,0.5,2.3,1.1,2.8c0.5,0.4,1.2,0.9,2.2,0.6c1-0.3,1.6,0.2,2.1,1c0.4,0.8,1.2,0.4,2.2,0c1-0.4,3.2,0.8,3.8,1.1
		c0.5,0.3,0.3,1.8,0.4,2.8c0.1,1-0.5,2.2,0.4,2.9c1,0.6,0.7,2.1,1.9,2.5c1.2,0.4,1.6,2.1,2.3,2.2s2.1,1.3,2.2,2.1s-1.3,1.5-2.1,1.9
		c-0.8,0.4-2.3-1.1-2.9-0.4c-0.5,0.6,0.2,1.8,0.6,3.8c0.4,2,0.8,2.2,1.7,2.2s1.3-0.6,1.9-1s2.1,0.2,2.7-0.1c0.6-0.3,2.9-0.4,3.3,0.4
		c0.4,0.7,0.9,2.4,0.5,3.1c-0.4,0.6,0.4,1.3,0.9,2.2s2.3,0.4,3,0.7c0.6,0.3,2.1,2.2,1.8,3.1s0.9,1.1,1.5,0.8c0.6-0.3,1.3,0.4,2,0.9
		s1.3,0.3,2.1-0.2s1.9-0.8,2.2-0.2s1.8,1.8,1.8,2.2s2.2,0,3.3,0.5s2.2,0.3,3.4,0.9c1.2,0.6,2.2,0.7,2.3,1.4s-1.2,1.3-1.2,1.7
		c0,0.4,1,0.6,1,1.2s-1.3,0.5-1.4,1c-0.2,0.4,0.7,1.1,0.9,1.5c0.2,0.4-0.7,2-0.7,2.4c0,0.4-2.7-0.1-3.3-0.1s-2.5,2.1-3.1,2.2
		c-0.5,0.1-0.3,1.1-0.1,1.9c1.9-0.4,3.9-0.5,4.1-0.1c0.4,0.7-4.2,2.6-5,2.9c-0.8,0.3,1.6,1.6,1.6,2.3c-0.1,0.7-2.6,0.9-2.4,2.3
		c0.2,1.4-0.8,1.7-2.2,1.7c-1.4,0-1.7,0.8-1.1,1c0.7,0.1,0.6,1.9,3.2,2.6c2.6,0.7,5.3,3.1,7.6,5.5c0.3,0.3,0.7,0.6,1.1,0.8
		c0.6-0.4,1.2-0.7,1.5-0.7c1.3-0.2,3.6,0.5,4.9,1.4c1.3,0.9,5.8-0.2,6.3,0.5c0.5,0.7,1.6,1.6,2.5,1.6c0.9,0,1.8,1.8,2.5,1.3
		s3.4-0.5,4.1-0.5c0.7,0,0.7,0.5,1.4,0.5s0.7,2.7,1.3,2.5c0.5-0.2,2.5,1.6,3.8,1.8s2.5,2.3,3.1,2.2c0.5-0.2,1.4,0.9,1.8,0
		c0.3-0.9,2.1-0.4,2.6-1.9c-2.3-2.8-4.7-5.9-4.7-7.1c0.1-2,1-3.4-1.6-5.5c-2.5-2.2,0.2-3.6,2-5.9c1.6-2,5-2.9,7.2-4.4
		c-0.4-0.3-0.9-0.6-1.3-0.8c-1.6-0.7-2.2-1.4-0.9-1.8c1.3-0.4,0.7-1.1-0.5-2.5s-1.8-2.9-2.5-2.9s-1.8-0.2-2.9,0.2
		c-1.1,0.4-0.9-0.9-0.7-2.2c0.2-1.3-2-1.1-2.3-1.6s0.5-2.3,0.9-2.5c0.4-0.2,1.4-0.7,1.4-1.3s-2-0.7-1.3-2s2.2-1.3,2.2-2.5
		s1.1-2.3,2.3-1.4c1.3,0.9,1.8,3.2,3.2,2.7s0.5-1.8,0.4-2.5c-0.2-0.7-0.5-1.8,1.1-2.2c1.6-0.4,0.9-2,2.2-2c1.3,0,3.6-1.6,4.3-2
		s2.3-1.3,3.1-0.9c0.7,0.4,1.6,1.3,2.2,0c0.5-1.3,2.7-0.7,2.9,0c0.2,0.7,3.6,0.7,4.7,1.4s3.4,2.2,3.4,2.9s1.1,1.8,1.1,0.5
		s0.9-0.9,2.3,0c1.4,0.9,3.4,0.5,3.8-0.4s3.1-2,4-1.3c0.9,0.7,1.3,1.3,2.3,0.2s3.6-0.9,4,0.2s1.6,1.3,2.7,1.3s1.3,1.6,2,1.3
		s0.5-2.2,1.4-2c0.9,0.2,1.6,1.3,3.1,1.3s2.5-0.4,2.5-1.4s-0.2-2.9-1.1-2.9c-0.9,0-1.8-0.9-2.9-0.9s-2.2-1.8-1.1-2.2
		s2.9-1.3,2.5-2.2s-0.7-2.7,0.7-2.9c1.4-0.2,4.5-0.2,4.3-0.7c-0.2-0.5-3.1-0.9-3.6-1.8c-0.5-0.9-0.7-3.1-0.2-3.4
		c0.5-0.4,2.3,0.2,3.4-0.2s3.4,0.5,4.9-0.5c1.4-1.1,4.5-1.3,6.1-1.3c1.6,0,2.9-1.1,4.1-1.3c1.3-0.2,4.9-0.7,5.8-1.1
		c0.9-0.4,5.8-1.1,5.9-2c0.2-0.9,4-1.6,5-1.2s2.2,0.8,3.1,0.4c0.9-0.4,2.8,0.6,2.6,1.6c-0.2,1,0.8,2.1,0.7,2.9
		c-0.1,0.8-1,1.1-0.4,1.7c0.5,0.6,3,0.2,3.7-0.6c0.7-0.8,1.5,0.4,1.5,1s1.2,1.1,1.2,0.3c0-0.8,1.4-0.3,1.9,0.3
		c0.4,0.5,2.2-0.6,2.2,0.3s-2.5,1.6-1.4,2.6c1.1,1,1.7-1.2,3.1-0.7c1.3,0.4,3.1-1.5,4.4-1.8c1.3-0.3,2.6-1.4,3.7-2.1
		c1.1-0.6,3.4-0.4,2.7,0.3s-1.5,2.1,1.2,3.1c2.7,1,5.8,6.2,7.5,8.8c1.7,2.6,3.3,7.3,4.2,7.3s1.2-2.3,2.3-2.6c1.2-0.3,1.9,2,3.1,2.2
		c1.3,0.3,3,1,4,0.6c1-0.4,3.2-1.6,4-1.2c0.8,0.4,1.9,0.4,2.6,2.2c0.7,1.7,1.8,2.1,2.5,2.1s0.9,0.8,0.9,1.5s1.3,1.7,2,1.7
		s2.6-0.2,3.2-0.6c0.6-0.4,1.3-0.7,1.4,0.1c0.1,0.8,1.2,2.2,1.9,2.2s2.2,0.6,2.3,0c0.1-0.6,2-1,2.8-1.1c0.7-0.1,3.2-0.6,3.7-1.7
		c0.5-1.1,2.5-1.1,3.1-1.8c0.6-0.7,2.3-1.1,2.6-1.8s2.5-0.6,2.8-1.2c0.2-0.6,2-0.7,2.9-0.5c0.8,0.2,5,1.1,5.6,1
		c0.6-0.1,0.7,2.2,1.3,2.3c0.6,0.1,2.8,1.8,3.4,1.3c0.6-0.5,2-1,3.2-0.2c1.2,0.7,2.4,1.7,2.9,0.8c0.5-0.8,3-1.2,3.4-1.7
		c0.4-0.5,0.7-1.9,0.1-2.4c-0.6-0.5-1.2-2.4-1.4-3.4c-0.2-1,1.4-1.2,1.7-2c0.2-0.8,1.7-1,2.2-1.4c0.5-0.5,0.6-1.6,1.4-1.3
		c0.8,0.2,2.6,0.8,3,1.2s1.7,0.6,2.5,0.6c0.8,0,2.2,0.7,3,1.2c0.8,0.5,3.5,0.5,4,1.2c0.5,0.7-0.1,2.8,0.5,3.5c0.6,0.7,2,2.3,2.5,1.9
		c0.5-0.4,2.8,1.2,3.6,1.1c0.8-0.1,2.2-1.4,2.9-1.4s3-0.6,3.7-0.5c0.7,0.1,3.4,1.1,3.7,0.8c0.4-0.2,2.8,0.1,3.1,0.8s3.4,0.7,3.4,1.6
		c0,0.8,1.7,1.3,2.2,2.3c0.5,1,4.4,0.4,5.2,1c0.7,0.6,5.3,0.5,5.4,0c0.1-0.5,4.4-0.7,5.3-1.3c0.8-0.6,3.1-0.4,3.2-1.2
		c0.1-0.8,2.3-1.4,3.2-2.2c1-0.7,4.8-0.6,5,0.2c0.2,0.8,2.5,1.1,3.5,0.7c1-0.4,3.5,0.1,3.8,1c0.4,0.8,3.2,1.3,4,1.1
		c0.7-0.2,3-1.9,3.8-2c0.8-0.1,2-1,1.8-1.8c-0.2-0.8,1.7-3.2,1.9-4.2c0.2-1,1.9-3.6,2.5-3.8c0.6-0.2,1.9-1.3,1.8-2
		c-0.1-0.7-0.5-2.9-1.2-2.9s-2,0.1-0.4-2.2c1.7-2.3,4.7-1.7,5.2-1.7c0.5,0,4.3-1,6-0.5c1.7,0.5,2.8-0.2,4.6,0.7
		c1.8,1,4.3,0.6,4.9,1.4c0.6,0.8,3,1.6,2.6,3s1.3,0.6,1.9,3.7c0.6,3.1,2,3.4,2.4,4.8s2.3,4.1,2,4.9c-0.2,0.8-0.5,2.2,1.6,2.3
		c2,0.1,3.5,1.7,4,1.4c0.5-0.2,2.9,0.6,4.1,1.8c1.2,1.2,3,0.6,2.9,1.9c-0.1,1.3,1,2.4,0.8,3.5c-0.1,1.1,2.3,1.8,4,1.6
		c1.7-0.2,2.9,0.6,3.6-0.8c0.7-1.4,3.1-0.8,4-1.4c0.8-0.6,3.4-1.3,3.2,0.8c-0.1,2.2,1.3,2.6,0.1,3.4c-1.2,0.7-1.8,3.8-2.2,5.2
		c-0.4,1.3-2.2,1.7-2.4,3.1c-0.2,1.4-1.9,1.6-1.9,2.6c0,1.1-2.4,0.8-3.6,0c-1.2-0.8-2.4,1.6-3.4,1.6s-0.8,2-0.6,2.9
		c0.2,0.8-0.4,1.9,0.2,3.4c0.3,0.8,0.1,2.2,0.3,3.9c1.5-1.1,2.8-1.8,3.4-1.8c1.5,0,3,2.6,4.7,2.6c1.7,0.1,9.3-5,9.4-5.9
		c0.1-0.8,4.5-5.1,6.6-7.3c2.1-2.2,4.9-5.5,5.9-8c0.7-1.6,3.6-4.6,4.3-5.8c0.7-1.2,1.2-1.3,2.5-4.1c1.3-2.8,1.3-10.2,1.7-10.7
		c0.4-0.5,0.2-1.7,0.8-2.5c0.6-0.8,0.3-1.9,1.5-2.9c1.2-1,1-1.9,0.7-2.7c-0.3-0.8,0.1-2.5-0.2-3.1c-0.3-0.5-0.2-0.8,0.5-1.2
		c0.7-0.4-0.5-1.5-1.5-2c-1-0.5-2.3-0.9-2.5-2c-0.1-1.1-1.9-2.5-3.2-2.4c-1.3,0.1-3.8-0.7-3.5,0.1c0.3,0.8-0.1,1.6-0.8,1.4
		s-1,0.4-1.7,1.6c-0.8,1.2-3.5,1.3-2.3,0.2c1.3-1.1-0.4-1.2-0.2-2.4c0.2-1.2,1.3-2.4-0.1-1.6c-1.4,0.8-1.4,2.6-2.5,2.9
		c-1.1,0.2-0.8-3.2-0.5-4.1c0.3-0.9-2.1,0.1-4.6-0.1c-2.5-0.2-1.9-1.9,0.2-3c2-1.1,1.7-2.1,2.7-2.5c1-0.4,3.7-2.2,5.2-3.1
		c1.6-0.9,1.9-1.9,2.2-2.9c0.4-1,3.2-2.3,5.8-4.4c2.6-2.1,3.8-3.3,4.4-4.6c0.6-1.3,4.4-2.8,4.5-3.8c0.1-1,4.6-3.4,7.6-4
		c3.1-0.6,7.9,0.2,8.8,1.1c0.9,0.9,1.6,0.5,2.1-0.1c0.5-0.6,1.7-0.3,3.8-0.1c2,0.2,2.5-1,3.9-0.5c1.4,0.4,2.5,0.7,3.4-1
		c0.8-1.6,4.8-1.3,5.7-0.7c0.9,0.7,1.6,1.6,3.1,0.6c1.4-1,1.4,1.3,2.8,1.4c1.4,0.2,0.5,1.4-0.7,1.3c-1.2-0.1-2.7,0.6-1.3,1.4
		c1.4,0.8,3-0.7,4.1-0.6c1.1,0.1,2.8,0.2,4.3-0.7c1.5-1,1.9,0.8,2.9-0.1c1-0.8,3.1-1.1,4.2-1c1.1,0.1,0.2-1.3-1.6-1.3
		c-1.8,0-1.7-1-0.3-3.4c1.4-2.5,4.2-3.8,5.9-5.3c1.7-1.5,3-0.8,3-1.7c0-1,0.8-3.7,2.2-3.7c1.3-0.1,4.6,0.5,6.7-0.6
		c2-1.1,1.9,0.8,2.7,1.1c0.8,0.3,2-1.7,2.9-1.1c1,0.6-1.4,2-2,3.8c-0.5,1.7,1.3,1.1,2.3,1.6c1,0.5-1.3,1.2-1.1,1.7
		c0.2,0.5,2.3,0.5,4.9-2.2c2.6-2.6,5-3.4,6.7-3.2c1.7,0.2,0.7-1.5,0.8-4c0.1-2.5,5.3-3.2,7-2.5c1.7,0.7,1.6,1.4-0.1,1
		c-1.6-0.4-3.1,1-3.1,3.1c0.1,2-1.4,2.7-0.7,3.5c0.8,0.8-1.1,1-1.2,1.8c-0.1,0.8,0,1.5-1.2,1.9c-1.2,0.4-5.2,0.8-5.3,2.3
		c-0.1,1.6-2.3,1.7-3.3,3.7c-1,1.9-4.9,3.1-7.5,6.9c-2.6,3.8-6.7,3.8-6.7,4.6s-2.8,0.7-3.8,0.8c-1,0.1,0.9,2.5-1.4,4.9
		c-2.3,2.5-3.8,5.9-3.7,9.3c0.1,3.4,1.2,13.3,2.2,15c1,1.7,0.4,6,1.3,6.9c0.8,0.9,0.5,2.4,1.1,2.9c0.5,0.5,2.8-2.4,4.3-3.7
		c1.5-1.3,1-1.7,2-2.3c1-0.7,0.6-3.4,0.9-4.1c0.3-0.7,2.2-1.1,2.8-1.9c0.6-0.8,2.2-0.3,3-0.6c0.8-0.3-0.1-2.3-0.4-3.4
		c-0.3-1.1,2.5-2.7,3.9-3.7c1.4-1,3.2,0.7,4.9-0.8c1.6-1.5-0.1-3.2-0.7-4c-0.6-0.8,1.6-4.6,2.9-4.9s1.9,0.9,3.1-0.2
		c1.2-1.1-1.1-2.8-1.9-2.7c-0.8,0.1-1.1-3.1,0.8-4.6c2-1.5,1.2-1.8-0.1-2.2c-1.3-0.4-1.6,0.1-2.6,0.2c-1,0.1-2-2.1-0.5-4.2
		c1.6-2.1,3.1-1.9,3.4-3.6c0.4-1.7,2.5-4.2,3.1-5.1s2.7,0,3.5-0.2c0.8-0.2,0.5,1.6,1.6,0.7c1-0.9,2.7-3.9,4.1-3.9
		c1.4,0,0.5,2.2,0.8,3.5c0.4,1.3,1.1-0.4,3.8-2.2c2.6-1.8,8.4-1.6,10.1-0.8c1.7,0.8,2,2.8,3,2.6c1.5-0.4,0.2-2,1.7-2.4
		c1.4-0.4,4-1.9,5.9-3.3c1.9-1.4,1.4-0.4,2.4-1.6c1-1.3,2-0.7,2.3-1.6c0.3-0.8,3.1-2.2,6.8-3.1c3.8-0.8,8.7-3.4,8.5-4.1
		c-0.2-0.8,1.4-1.1,1.6-0.4c0.2,0.8,1.6,0.5,3.6,0.9c2,0.4,2.9,1.2,4.4-0.4c1.6-1.6-0.2-2.1-0.1-3.3c0.1-1.2-2.7-2.5-2.3-3.7
		c0.4-1.3-2-4.6-2.8-4c-0.7,0.7-2.4-0.5-2.4-1.5c0-1-0.1-2.1-1.3-1.4c-1.1,0.7-3.1,0.4-3.4-0.7c-0.4-1.1,2.2-1.9,4-1.1
		c1.8,0.7,1.3,1.4,2.2,2s3.4,0.3,4.6-0.3c1.3-0.6,4.8-1.7,5.4-2.8c0.6-1-0.1-1.5,1.1-2.1c1.2-0.6,0.3-1.9-0.7-2.4
		c-1-0.5-0.8-2,0.3-2c1.1,0,0.8-1.3,1.5-1.3c0.7-0.1,0.8,0.5,2.2-0.1c1.3-0.7,0.1,1-0.5,2.2c-0.6,1.1,1.3,2.1,1.4,2.8
		c0.2,0.7,2.8,0.9,4.2,0.1c1.4-0.8,6.1,1,6.4,2.1c0.3,1.1,1,2.5,2.9,3.5c1.9,1,3.7,0.5,4,1.4c0.4,0.9,1.1,1.4,2.2,1.1
		c1.1-0.2,1.7,1,2.5,0.2c0.8-0.7,1.2,0.4,2.2-0.5c1-0.9-2.2-1.5-1.8-2.2c0.4-0.7,1.1,0.5,2,0.5c0.9-0.1-0.2-1.8,0.4-2
		c0.7-0.2,0.1-3.8-0.6-4c-0.7-0.2-0.1-1.5,1.3-0.5c1.4,1,3.5,1,4.6,1c1,0,0.1-1-1-1.1c-1-0.2,0.2-1,0.9-0.4c0.7,0.7,2.1,1,2.2,0.2
		c0.1-0.7,0.8-2.3,2.1-2.2C1280.3,209.4,1280.7,208.7,1279.5,208.3z M944.7,287c-3.4,3.1-10.3,3.8-10.3,6.3c0,2.5-8.3,3.8-9,2.7
		c-0.6-0.9,6.1-1.3,7.7-4.9c1.6-3.6,7.8-5.5,10.8-10.3c2.2-3.4,4-8.6,5.2-8.3C950.5,272.9,948.2,283.9,944.7,287z M960.2,146.1
		c-0.5,1-3.1,1-2.4,1.9c1.2,1.6,7.2,0.7,7.3-1.2C965.3,144.9,960.7,145.1,960.2,146.1z M741.7,86.8c2.9,0,2-1.8,4-1.6
		c1.9,0.2,4.4,0.1,3.5-1.1c-1-1.2-7.9-0.7-7.2,0.2c0.7,1-5.6,0.6-5.5,1C736.7,86.1,738.9,86.8,741.7,86.8z M726.9,94.8
		c0-1.9-6.2,0.2-5,0.6C722.9,95.8,726.9,96.8,726.9,94.8z M742.3,93.3c0.4,1-0.6,1.1-3,1.1c-2.4,0-3.7,1.4-2.4,2.4
		c1.4,1.2,7.8,0.7,8.9-0.7c1.1-1.4,3.8-0.2,4.3-1.7C750.6,92.9,742,92.3,742.3,93.3z M725.9,155.7c0.1,1.2-0.6,2-2.9,2
		c-2.3,0,1.1,1.4,1.3,2.8c0.2,1.3-2.3,0.4-2.4,2.4c-0.1,2-4.4,0-5,2.6c-0.6,2.6,2.2,2.3,4.1,2.4c1.9,0.1-0.7,1.9,0.7,3
		c1.4,1.1,2.5,0.7,1.6-1.3c-1-2,5,0.7,3.2,2.3c-1.8,1.6,2.9,2.8,5.2,2.9c2.3,0.1,10.4,1.9,10.6,0c0.1-1.2-3-2.3-5.5-4.9
		c-2.5-2.6-4.3-7-1.4-8.8c2.9-1.8,0.4-2.6,3.2-4.7c2.9-2,1.2-4,3.6-4.2c2.4-0.2-0.2-2.4,2.2-2.8c2.4-0.4,2.9-3,2.5-4
		c-0.4-1,2.5,0.1,3.8-1.3c1.3-1.4,4.4-0.5,5.4-2.5c1-2,14.8-6.7,22.6-8.5c7.8-1.8,13.2-5,10.4-7.2c-2.8-2.2-10.6,0.8-12.5,2.4
		c-1.9,1.6-4.7,0.5-6.6,1.6c-1.9,1.1-6,2-8,0.7c-2-1.3-4.4,1.6-6,1.4c-1.6-0.1-3.4,1.6-5,1.4c-1.7-0.1-5,1.3-5.3,2.3
		c-0.2,1-3.1,0.7-3.1,1.9c0,1.2-2.3,2.3-3.5,1.2c-1.2-1.1-2.6,1.2-1,2.8c1.7,1.6-3.1,1.7-2.3,2.6c0.8,1-1.8,1.6-1.2,2.6
		c0.6,1.1-1.7,1.4-3.5,1.8s-2.8,2.8-0.5,2.9c2.3,0.1-1.3,0.5-1.1,2.3C729.8,155.7,725.8,154.5,725.9,155.7z M743.8,89.1
		c0.4-2.5-3.8-0.5-7-1.8c-3.1-1.3-5-1.2-2.9,0.6c1,0.8-5.3,1.5-4.3,2.5C731.9,92.7,743.4,91.6,743.8,89.1z"/>
</g>
<path fill="url(#Neues_Musterfeld_16)" stroke="#FFFFCC" d="M231.5,318.6c-0.1-1.2-3.7-0.2-5.4-1.6c-1.7-1.3-4.6,4.7-5.2,7.2
	c-0.6,2.5-5,5.3-5,5.3s-12.8,0.1-13.9,0.1c-0.7,0-3.7,2.5-5.4,4.1c0.1,0.1,0.1,0.1,0.2,0.2c1.3,2.3-3.4,3.8-7.9,4
	c-1.4,0.1-2.4,0.2-3.2,0.3c0.2,0.5,0.3,1.2,0.2,1.6c0,0.3-0.5,0.6-1.2,1c-0.7,1.4-6.2,4.1-9.3,5.7c-3.4,1.8-8.1,0.9-8.1-1.8
	c0-2.7,2.5-2.2,3.1-0.9c0.2,0.5,0.8,0.1,1.6-0.5c-0.9-0.8-0.8-2.2-0.7-3.2c-1-0.4,0.6-4.5-1.5-5.2c-2.2-0.7-4.7,3.1-4.3,0.7
	c0.4-2.3,3.6-4.3,1.6-7.4c-2-3.1-5.6-3.1-6.3-0.7c-0.7,2.3-3.2,1.3-4.1,3.1c-0.9,1.8-1.8,5.8-1.1,8.6c0.7,2.9-0.2,4.3-2.9,5.9
	c-2.7,1.6-4.1-2.5-3.1-7.7c0.7-3.6,2.7-7,0.9-7c-1.8,0,2.3-4.3,6.1-5.2s8.5-0.5,8.5-1.6c0-0.2,0.2-0.4,0.5-0.5
	c-0.8-0.6-1.6-1.2-2.3-1.6c-0.1,0.2-0.2,0.4-0.5,0.6c-1.5,1-1.1-1.6-3.8-1.6c-2.7,0-5.4,2.5-7.6,1.4c-2.2-1.1-1.1-2.5-3.1-2.5
	c-2,0,1.4-3.8-1.4-2.2s-7.2,5.6-9.2,3.8c-2-1.8-3.8,0.5-5.2-0.9c-1.4-1.4,5-5.4,8.1-5.2c0.8,0,1.4-0.3,2.1-0.8
	c-1.6-0.6-4.9-1.9-5.8-0.8c-1.1,1.3-2.6,0.5-3.5-0.6s-1.9,0.4-3.4-1.3c-1.4-1.7-2.9-0.5-3.7-0.1c-0.8,0.4-1.9-0.6-3.5-1.2
	c-1.6-0.6-0.4-2.2-1.7-3.1c-1.3-1-1.4,1.8-1.4,1.8L7.9,309.5c0.1,0.2,0.3,0.4,0.4,0.5c1.3,1.4,0.3,2.5,0.7,4.2s0.1,4.1-1.3,4.1
	s-1.5-1.5-0.5-2.1s0.4-2.5-0.5-2.5c-0.6,0-0.8-0.7-0.8-1.5c-1.8,0.5-3.9,0.3-6.4,0c0,0.1,0.1,0.2,0.1,0.3c0.1,1.1,0.6,3.5,2.1,5.4
	c1.4,1.9,0.4,3.1,1.8,3.8s1.3,1.5,0,1.3s-0.4,1-0.8,3.7c-0.4,2.7-0.4,8.3-0.6,10c-0.3,1.7-2.2,4.5-1.1,6.3c1.2,1.8,2,4.3,1.3,6.6
	s-0.5,3.6,0.4,5.3c1,1.7,0.2,4.7,1.3,5.3c1.1,0.6,2.1,1.9,3.1,3.5c1,1.6,1.9,0.6,2.1,2.2c0.2,1.6,0.2,1.9,1.6,2.5
	c1.4,0.6,0.5,2.2,0.5,3.1s1.9,2.5,4.2,4.6s0.4,3.8,2.1,3.8s3.3,1,5,2.1c1.7,1.1,2.2,0.4,3.4,0.7c1.2,0.3,3.3,2.8,3.8,4.5
	c0.2,0.8,0.5,1.6,0.9,2.6l9.3-1.2c0,0,2.9,2,4.5,2.4c1.6,0.4,10.5,3.7,10.5,3.7l11.5-0.1l1.3-1.7h6.3c0,0,4,3.9,4.6,4.1
	c0.6,0.2,2.6,2,2.6,3.2c0,1.2,0.5,2.1,1.4,2.6c1,0.5,4.2,2.6,4.7,2.4c0.5-0.2,1.4-3.8,3.2-3.7c1.7,0.1,6.4,1.4,7.2,4.1
	c0.8,2.7,3.1,4.9,3.8,5.5c0.8,0.6,0.4,2.2,1,3.1c0.6,0.9,0.5,2.5,1.2,2.5s4.1,2.1,5.7,2c0.5,0,1.1,0.3,1.7,0.6
	c0.2-3.2-3.1-3.8-1.2-5.2c2.2-1.7-0.1-3.1,1-3.9c1.1-0.7,3-1.4,3-2.5s1-1.1,2.4-0.9s4.1-2.3,4-3.3s0.3-1.2,2-0.8s1.4-2,2.5-1.6
	s2,1,2.1,0.2c0.1-0.8,1.2-0.6,2,0.4c0.8,1.1,3.1,1.3,3.3,0.1s1.5,0,2.7,1.3c1.2,1.3,1.7,0.9,3.4,1c1.7,0.1,1.7-0.4,1.8-1.4
	s1.9,2.3,3.6,2.5c1.7,0.2,0.4-1.1-0.9-2.1c-1.3-1,0.3-1.4-0.8-2.2c-1.1-0.8,1.3-1.9,3.5-1.8c2.2,0.1,2.1,0.6,2.9-0.6
	c0.8-1.3,1.6,0,1.6,1.1s3.5-0.6,5.4-0.6c1.9,0,3.6,1.6,3.8,2.7s1.4,1.6,2.8,0.4c1.3-1.2,2.5-2.5,3.8-1.3c1.3,1.3,2.5,3,4,4.5
	c1.5,1.5-0.7,3.4,0.1,4.6c0.8,1.2-0.1,2.8,1.7,4c1.8,1.3,0.2,3.9,1.6,4.2c1.4,0.4,2.6,2.6,2.8,3.5c0.2,0.9,2.9,2.1,3.1,0.5
	c0.2-1.5,1.6-3.3,1.8-4.8s-1.1-6.6-2.2-8.2c-1.2-1.6,0.3-2-1.2-3.9s-2.3-5.2-2.2-7.9s3.2-7.1,4.8-8.5c1.5-1.3,3.2-0.6,3.6-2.1
	s2.2-3.2,3.3-3.2c1.1,0,2.2,0.3,2.4-0.9c0.2-1.2,2-2.6,4.3-3c2.3-0.4,1-1.6,0.4-2.7s0.5-2.2,1-1.4s1.9,0.8,2.8,0.2
	c0.9-0.6,3-2.3,1-2.4c-2-0.1-2.4-0.9-1.3-1.3c1.2-0.4,0.2-2.6-1.4-2.8c-1.6-0.2-1.1-1-0.1-2c1-1-1.4-2.6-2.6-3.4
	c-1.2-0.8,0.7-1.3,1.6-1.4s0.2-4.3,0.6-5.3c0.4-1,2-1,1.3,0c-0.6,1-1.5,2.6-0.4,4c1.2,1.3,1.5,2.8,1.1,4.9c-0.4,2.1,0.4,1.5,1.8-1.2
	c1.3-2.7,1.5-5,0.6-5.3c-0.9-0.3-0.8-3,0.2-1.7c1,1.3,1.3,1.4,2.9-0.2c1.5-1.6,3.1-4.4,2.2-5s0.4-1.3,2.2-1.2
	c1.8,0.1,5.7-1.1,5.9-1.6c0.9-1.8-6.2,0.8-6.2-0.2s4.5-2,6.6-2.1c2.1-0.1,1.1-2.9,2-1.7c0.9,1.2,2.2,1,3.4,0.3
	c1.2-0.7,0.3-2.8-1.1-3.1s1-1.3,0.5-2.1c-0.4-0.8,0.9-4,2.6-4.4c1.7-0.4,0.9-1.4,2.3-1.4c1.4,0,1.7-1.7,3-3c1.3-1.3,3.1,2,5,0.2
	c0.8-0.7,1.9-1.6,3-2.3C230.3,323.8,231.6,319.7,231.5,318.6z"/>
<path fill="url(#Neues_Musterfeld_16)" stroke="#FFFFCC" d="M516.5,289.7c0.1-1.8-3.8-3.1-4.3-2.1c-0.4,1-1.3,0.8-2-0.2
	c-0.7-1.1,0.6-2.1-0.1-2.2c-0.7-0.1-1.5-1.6-1.3-2.2c0.2-0.6-1-4.4-3.1-4.9c-2-0.5-2.3-3.4-2.7-4.9c-0.4-1.6-1.7-0.7-2.7-2
	c-1-1.3-2.8-0.7-3.7-0.6c-0.9,0.1,0-1.7,1.4-2.6c1.4-1,3.1-6.1,3.1-7.1c0-1-6.3-1-7.5-0.4c-1.2,0.6-2.4-0.9-1.4-1.3
	c1-0.4,3.2-2.5,3.1-3.4c-0.1-0.8,1.5-1.6,0.6-2.4c-0.9-0.8-1,1-1.8,1.6c-0.8,0.6-2.5,0.4-4.4,0.1c-1.9-0.4-2.6,2.3-2.5,3.4
	c0.1,1.1-2.2,1.8-1.8,2.8c0.4,1-0.4,1.7-1,1.1c-0.6-0.5-1.3-1.9-2.5-0.9c-1.2,1,1.4,2.2,2.9,2.4c1.6,0.2-1.2,1.3-1.5,3
	c-0.3,1.7,2,1,2.2,2.2c0.1,1.2-3.4,1.4-3.4,2.5c0,1.1,2-0.5,2.9-1c0.9-0.5-0.5,2.8,1.7,2.5s1.6-3.3,2.3-3.2c0.8,0.1-0.4,1.6,0.3,2.8
	c0.7,1.3-1.6,3.2-1.4,4.1c0.1,0.9,4.4,0.9,5.8-0.5c1.4-1.4,2,0.1,1.1,1.2c-1,1.1-0.5,2.1,0.7,2.5c1.2,0.4,1.6,0.5,1.1,1.5
	c-0.5,1-0.1,2.8-0.4,3.7c-0.3,0.9-4,0.8-4.1,0.2c-0.1-0.6-1.7-0.2-1.3,0.7c0.4,0.8-1.3,1.7-1.2,2.5c0.1,0.8,2.3,0.6,2.4,1.6
	c0.1,1-1.6,2.1-3.9,2.8c-2.3,0.7,0.5,2.5,1.6,1.7c1.1-0.8,0.8,0.5,2.4,0.5c1.6,0,2.5,1.3,4.3,0.6c1.7-0.7,1.7,0,0.4,1
	c-1.3,1-3.3-0.1-4.5,0.6c-1.2,0.7-6.1,5.2-5.2,6.4c0.5,0.7,1.3-1,3-1.7c1.7-0.7,2,0.5,3,0.6c1,0.1,1-2,1.8-1.8
	c0.8,0.2,1.5-0.7,2.9-0.4c1.4,0.2,2.5-0.3,3.2-0.9c0.7-0.6,2.6,1.2,3.2,0.8c0.6-0.4,3.2-0.9,4.6-0.8c1.3,0.1,4.7-1.5,5.6-2.3
	c0.9-0.8-0.5-1-1.7-0.8c-1.2,0.2-1-1.2,0.3-2.4C514.4,292.4,516.4,291.5,516.5,289.7z"/>
<path fill="none" stroke="#998675" stroke-width="0.1" d="M483.7,274.9c-1.5-1.5-3.5,0.8-5.1,0.8c-0.3,1.2-0.7,2-1.1,2.3
	c-0.6,0.5-1.8,2.2-0.9,2.4c0.9,0.2,2.4,1.6,2.5,0.5c0.2-1.1,0.8-2.5,2.4-0.7c0.4,0.4,0.8,0.8,1.3,1.2c0.2-0.8,2.1-1,3.1-2
	C487.2,278.2,485.4,276.5,483.7,274.9z"/>
<path fill="url(#Neues_Musterfeld_16)" stroke="#FFFFCC" d="M541.2,308.9c-0.5,0.1-1-0.7-2.2-0.7s-2.1-0.5-2.6-1.3
	c-0.5-0.7-3.3-0.9-4.2-0.7c-0.9,0.2-1.2-1.5-2.1-1.3c-0.9,0.2-1.2-1.2-1.2-1.9s-1,0.5-1.8,0.9s-1.1-0.8-1.2-1.3s-1.7-1.1-2.5-1.5
	c-0.8-0.4-1.7-1.9-2.1-1.3c-0.4,0.6-1.3-0.9-1.4-1.5c-0.1-0.4-0.3-0.3-0.5-0.5c-0.3,0.1-0.6,0.1-0.9,0.1c-1.4-0.1-2.7,1.1-2.5,3.5
	c0.2,2.4-1.7,2.6-4.2,2.8c-2.5,0.2-1.6,2.1-2.6,2.9c-1,0.8-4.6-0.4-5.1-1.7c-0.5-1.3-3.7,0-2.3,1.6c1.4,1.6,1.3,3.7,0.5,4.3
	c-0.8,0.6-2.5-1-3.5-0.2c-1.1,0.8-1.1-0.7-2.5-1.2c-1.3-0.5-1.9,0.6-4,0.4c-2.1-0.2-3.3,1-2.5,1.9c0.8,0.9-0.1,1.7,0.5,2.5
	c0.6,0.8,3.4,0.7,5.4,1.7c2,1.1,2.5,0.2,3.5,1c1,0.8,1.3,0.3,1.3,1.8c0.1,1.5,1.2,2.9,3.2,3.5c2,0.5,0.5,1.9,1.1,3.2
	c0.6,1.3-0.9,3.2-0.6,4.9c0.3,1.6-1,6.8-1.9,7.3c-0.1,0-0.2,0-0.2,0c0.9,0.4,1.8,0.8,2.3,1.1c0.9,0.6,2.8,1.2,3.9,1.9
	c1.2,0.7,3.2,0.6,3.2-0.3c0-0.9,1.2-0.3,1.9,0.4c0.7,0.7,3.5,0.9,4.8,1.2c1.1,0.2,2.7,0.1,4.2,0.1c-0.1-0.3-0.1-0.7-0.2-1
	c-0.7-2.3,1.4-3.7,3.4-4c2-0.3,6.3,0.9,7.4,1.6c1.1,0.7,2.7,0.5,4.7-1.6c1-1.1,1.8-1.4,2.5-1.7c0.1-0.5,0.3-1,0.5-1.4
	c0.3-0.7-1-0.5-1.9-0.6c-0.9-0.1-1.5-1-0.9-2s-0.5-1.1-1.2-2.1s0.3-0.7,0.8-1c0.5-0.3,1.3-1.3,0.8-1.6c-0.4-0.3-0.8-0.9-0.4-2
	s-0.7-1.2-0.7-2c0-0.8-1-1.2-1.8-0.2c-0.8,1-1.1,0.3-0.5-1.3c0.5-1.6,2.4-2.3,2.6-3.2c0.2-0.9,1.3-1.7,2.1-1.7
	c0.8,0,0.6-1.9,0.9-3.1c0.3-1.2,0.4-2.3,1.6-3.3C543.1,309.3,541.7,308.8,541.2,308.9z"/>
<path fill="url(#Neues_Musterfeld_16)" stroke="#FFFFCC" d="M538.5,287.4c-1,1.4-2.3,1.6-2,1.9c0.2,0.4,1.7,1.6,1.3,2.2
	c-0.4,0.6-0.8,0.2-0.8,1.3c0,1.1-1.7,1.1-2.3,1.1c-0.6,0,0.1,1.1-0.2,1.9c-0.4,0.8-0.4,2.5-0.5,3.2c-0.1,0.7,1.2,1.9,1.1,2.5
	c-0.1,0.6-1.1,1.1-0.8,1.6c0.2,0.5,1.1,1.1,1.3,3.4c0.4,0.1,0.8,0.3,0.9,0.5c0.5,0.7,1.4,1.3,2.6,1.3s1.6,0.8,2.2,0.7
	c0.5-0.1,2,0.4,0.8,1.3c-1.2,1-1.3,2.2-1.6,3.3c-0.2,0.8-0.2,1.8-0.4,2.5c1.1,0.1,2.8,0.2,3.4-0.1c1-0.5,1.6-0.5,2.8-0.1
	c0.7,0.2,1.7,0.7,2.3,1c0.1-0.2,0.2-0.4,0.4-0.5c0.8-0.1,1.8,1.5,2.3,0.6c0.5-0.9,1.8-0.7,2.4-0.4s1.6,0.5,2.3-0.2s3.5-1.1,4.1-0.8
	c0.6,0.3,2.2,1,1.6-1.2c-0.6-2.2,1.3-1.7,1.6-2.5c0.3-0.8,2.6-1.2,2.2-1.8c-0.4-0.6-3.3-2.5-4.2-3.1c-0.9-0.6-0.9-2.6-1.3-3.4
	c-0.4-0.8-1.4-1.9-0.3-2.2c1.2-0.3,3.2-0.7,4.2-1.6s2.8-1,3.3-1.5c0.5-0.5,1.8,0.4,2.2-0.1c0.4-0.5,0.6-1.6,0.1-2.2
	c-0.5-0.6-0.9-1.7-1-3.2c-0.1-1.5-0.5-1.4-0.5-2.2s-0.3-1.6-0.9-2c-0.6-0.4-0.9-0.6-0.3-1.6c0.6-1,0.4-3.5,0.1-4.2
	c-0.1-0.1,0-0.3,0-0.5c-0.2-0.1-0.3-0.2-0.3-0.5c-0.2-1-0.8-1.3-2.4-1.3c-1.6,0,1-1.6,0.4-2.3c-0.6-0.8-2.2,1.4-3.6,1
	c-1.4-0.5-3.3,1.7-4.6,2.6c-1.3,1-3.1-0.2-2.1-1.6c1-1.4,0-1.3-1.4-0.7s-3.2-0.1-3-1.4c0-0.3-0.1-0.6-0.2-0.9
	c-0.7,0.1-1.2,0.1-1.5,0c-0.6-0.2-2.1-0.3-3.7-0.4c0.5,0.7,1,1.4,0.7,1.9c-0.5,1,0.3,2,1.1,3.5c0.8,1.5-1.7,0.7-1.7,1.6
	c-0.1,1-2.3-0.1-3-0.4s-3.1-0.1-3.1,0.5c0,0.2,0,0.6-0.1,0.8C538.7,285.8,538.9,286.9,538.5,287.4z"/>
<path fill="url(#Neues_Musterfeld_16)" stroke="#FFFFCC" d="M522.4,342.4c-1.4,0-3.1,0.1-4.2-0.1c-1.3-0.3-4.1-0.4-4.8-1.2
	c-0.7-0.7-1.9-1.3-1.9-0.4c0,0.9-2,1-3.2,0.3c-1.2-0.7-3.1-1.3-3.9-1.9c-0.5-0.3-1.4-0.7-2.3-1.1c-1.2,0.2-4.7-1-7-0.8
	c-2.5,0.3-10.3-0.4-13.4-0.1c-3.1,0.2-3.2-1.3-4.9-1.3c-1.7,0-1,2-3.4,2.1c-2.4,0.1-2.6,1.6-0.9,2.9c1,0.8,0.9,2.4,0.7,4
	c0.5-0.1,0.9-0.2,1.1-0.5c0.7-0.9,1.5-0.7,1.5,0.1c0,0.9,1.6,0.6,2.5,0.6s0.6,0.7,1.6,0c1-0.7,2.5-0.4,2.5,0.4s2.2,0.4,1,1.6
	c-1.2,1.2-2.6,1.5-2.6,2.3c0,0.9,1.3,2.8,0.3,3.8c-1,1,0.3,2.8-0.7,2.8s-2.2,0.4-1,1.6c1.2,1.2,2,2.2,1.2,2.2c-0.9,0-1.5,1.8-1,2.2
	c0.4,0.4,2.5,1.8,0.9,2c-1.6,0.3-1.6,1.6-1.6,2.5c0,0.3,0.3,0.8,0.6,1.3c0.7-0.1,1.5-0.2,2.2,0.2c1.7,0.8,2.7,5,4.9,4.7
	c1-0.1,0.5-0.8,1-1.3c0.5-0.5,1.4-0.1,2.3-0.1c1,0,1.4-1.4,3.7-1.4c2.3-0.1,3.7-0.2,5.2-0.2c1.4,0.1,2.6-0.4,2.9-1.4
	c0.4-1,1.6-1.9,3.2-2.2c1.6-0.2,1.4-1.9,1.5-2.9c0.1-1,2.8-2.4,3-3.1s-1.6-3.5,0.1-5.9c1.6-2.5,3.4-2.6,3.4-4c0-1.3,1.7-1.7,3.7-2
	c2-0.2,2.7-1.6,4.4-2.3C522.2,345.2,522.7,344.1,522.4,342.4z"/>
<path fill="url(#Neues_Musterfeld_16)" stroke="#FFFFCC" d="M662.2,316.4c0.6-0.1,2.5-2.2,3.1-2.2s3.3,0.5,3.3,0.1
	c0-0.4,0.9-2,0.7-2.4c-0.2-0.4-1.1-1.1-0.9-1.5c0.2-0.4,1.4-0.4,1.4-1s-1-0.8-1-1.2c0-0.4,1.3-1,1.2-1.7s-1.2-0.8-2.3-1.4
	c-1.2-0.6-2.3-0.4-3.4-0.9s-3.3-0.2-3.3-0.5s-1.4-1.5-1.8-2.2s-1.5-0.3-2.2,0.2s-1.3,0.6-2.1,0.2s-1.3-1.2-2-0.9
	c-0.6,0.3-1.8,0.1-1.5-0.8s-1.2-2.9-1.8-3.1c-0.6-0.3-2.5,0.2-3-0.7s-1.3-1.6-0.9-2.2c0.4-0.6-0.1-2.3-0.5-3.1
	c-0.4-0.7-2.7-0.6-3.3-0.4c-0.6,0.3-2.1-0.3-2.7,0.1s-1,1-1.9,1c-0.5,0-0.8-0.1-1.1-0.5c-1,0.4-2.6,0.5-2.6,0.5s-2.4,1.9-2.4,2.6
	c0,0.7-0.1,1.9-0.7,1.3c-0.6-0.6-3.1-0.6-3.7-0.2c-0.6,0.4-1.6-1.4-2.6-0.8c-1.1,0.6-2.5-0.8-2.6-0.2c-0.1,0.6-1.7,0.1-2.8-0.4
	c-1.1-0.5-3,0.2-3.7-0.6c-0.7-0.8-5.4-0.8-7-0.8c-1.6,0-1.9,0.8-2.6,1.6c-0.7,0.7-1.4,0.5-2.2,0.5c0.1,0.6,0.2,1.1,0.3,1.4
	c0.4,0.5,2.1,3.1,1.6,4c-0.4,0.8-1.3,0.8-1.8,1.4c-0.5,0.6-3.7,3.4-3.8,3.9c-0.1,0.4,0.5,2.4,0.1,2.8s-1.8,2.2-1.8,3s1,1.7,1.8,2
	c0.3,0.1,0.6,0.3,0.7,0.5c0.6-0.1,1.2-0.1,1.6-0.1c0.6,0,3.2,0.7,4.1,0.7c0.8,0,2,0.4,2.4,0.7s1.2,0.1,1.8-0.5
	c0.6-0.6,1.3-0.2,2-0.2s1.9-0.6,2.3-1.2c0.4-0.6,4-1.6,4.9-1.7c1-0.1,2.4,1.8,3.2,1.8c0.8,0,2.4,0.6,2.9,2.2
	c0.5,1.6,1.9,3.5,2.5,4.1c0.6,0.6,1,2.2,1,2.6c0,0.5-1.3-0.1-2.8-0.5s-1.6,1.1-1.6,1.8s-2,3.2-2.4,3.7c-0.4,0.5,0.7,0.8,1.6,1
	c0.4,0.1,1.8-1,2.3-1c0.2,0,0.8,0.5,1.4,1c-0.1-1.9,0.3-1.8,1.9-3c1.7-1.3,1.9-3.8,3.5-4.1c1.6-0.3,2.2-1,4.5-0.7
	c2.3,0.4-1.1,1.8,0.4,2.6c1.6,0.8,6.4-0.2,6.6,1c0.2,1.2-5.5,2.4-5.4,3c0.1,0.6,3.1,1.2,4.1,1.9c1,0.7-0.3,2.5,0.2,3.1
	c0.5,0.6,2,0.1,3.3-0.8c1.3-0.9,2.3-0.6,3.9-1.7c1.6-1.1,5-0.1,5.4-0.8c0.4-0.7-1-1.3-4.1-1.1c-3.1,0.2-3.3-2.7-3.3-3.3
	c0-0.6,3.2-3.1,5.1-3.2c1.9-0.2,3.4-0.7,5.2-1.6c0.7-0.3,2-0.7,3.3-0.9C661.9,317.5,661.6,316.5,662.2,316.4z"/>
<path fill="url(#Neues_Musterfeld_16)" stroke="#FFFFCC" stroke-miterlimit="10" d="M648.2,402.1c0.1,0.1,0.3,0.2,0.4,0.2
	c0.3-2.4,0.9-5.3,1.3-5.9c0.2-0.3,0.4-1.1,0.5-2c-1.1-1.1-1.5-2.3-1.5-2.6c0-0.4,0.2-2.7,0.9-2.9c0.2-0.1,0.6-0.1,1.2,0
	c0.1-0.7,0.2-1.8,0.3-2.7l-2-0.9c-0.3,0.7-0.6,1.3-0.6,1.9c-0.3,2.2-2.3,5.7-3.2,7.2l2.9,7.1L648.2,402.1z"/>
<path fill="url(#Neues_Musterfeld_16)" stroke="#FFFFCC" d="M568.5,363c-2.5,0.5-3.5,0.7-4.9,0c-1.4-0.7-3.8,0.7-3.4,1.6
	c0.2,0.7,1.2,1.5,4.2,2.3c3,0.8,3.4,2.8,4.6,2.9c1.3,0.1,1.4-1.1,1.1-2.8c-0.3-1.6,1.5-3.5,1.7-3.8C571.9,363,571,362.5,568.5,363z
	 M545.3,349.4c-1.3,1.1-2.4-0.2-2.9,0.7c-0.7,1.1,2,2.9,1.5,5.2c-0.5,2.3,0.3,5.3,1.7,3.9c1.4-1.4,2-0.7,2.8-1.7
	c0.8-1,0.1-4.8,0.7-6.6S546.6,348.3,545.3,349.4z M574.7,347.5c-1.6-1-0.5-2.5-3-2.4c-2.5,0.1-5.4-2.9-6.3-6.5
	c-0.9-3.5-4.7-3.7-5.7-5.8c-1-2.1,0.9-2.3,0.1-4.1c-0.5-1,0.6-1.8,1.8-2.3c-0.1-1.9,0.1-4,0.2-5.4c-1-0.1-1.8-0.2-2.1-0.4
	c-0.4-0.3-0.5-1.7-0.8-1.7s-2.8,0-3.2,0.4c-0.4,0.4-1.8,1.3-2.5,0.8c-0.2-0.1-0.3-0.2-0.5-0.3l-0.8,0.7c0,0-0.1,1-0.6,1
	c-0.5,0-1.2-0.4-1.2,0.5c0,0.8-1.3,0.6-1.9,0.5c-0.6-0.1-1.4,0.1-1.4,0.8s-0.1,2.3-1.1,1.4c-1-0.8-1.9-3-2.3-2.8
	c-0.4,0.2-1.2,2.9-2,2.9c-0.5,0-2.2,0.1-3.5,0.2c-0.3,1,0,1.7,0.5,1.9c0.4,0.3-0.3,1.3-0.8,1.6c-0.5,0.3-1.4,0-0.8,1
	s1.8,1.1,1.2,2.1s0,1.9,0.9,2c0.9,0.1,2.2-0.1,1.9,0.6c-0.2,0.4-0.4,0.9-0.5,1.4c0.7-0.2,1.3-0.2,2-0.6c1.3-0.7,0.7-1.8,2.8-2.4
	c2.1-0.6,4.9,1.1,5.7,2.4c0.8,1.3,1.1,1.4,1.3,2.4c0.2,1,1,3.1,3.8,4.9c2.9,1.9,4,4,5.5,4.7c1.5,0.8,3,0.6,3.9,1.7
	c0.9,1.1,2.1,1.7,3.5,2.3c1.4,0.7,1.5,2.2,2.9,2.4c1.4,0.2,0.5,1.4,1.3,2.4c0.8,1,1.1,3.2,0.2,4.4c-0.9,1.2-0.4,3.2,0.2,3.2
	c0.6,0,1.9-2.2,2-3.4c0.2-1.2,1.4-1.1,2.3-2.4c1-1.3-1.4-1.6-1.9-3.2c-0.4-1.6,1.8-3.1,3.9-1.7c2.1,1.3,2.9,2.2,3.1,0.2
	C582.8,351.2,576.2,348.5,574.7,347.5z"/>
<path fill="url(#Neues_Musterfeld_16)" stroke="#FFFFCC" d="M1051,315.1c0.1-2.2-2.4-1.4-3.2-0.8c-0.8,0.6-3.2,0-4,1.4
	c-0.7,1.4-1.9,0.6-3.6,0.8c-1.7,0.2-4.1-0.5-4-1.6c0.1-1.1-1-2.2-0.8-3.5c0.1-1.3-1.7-0.7-2.9-1.9c-1.2-1.2-3.6-2-4.1-1.8
	c-0.5,0.2-1.9-1.3-4-1.4c-2-0.1-1.8-1.4-1.6-2.3c0.2-0.8-1.7-3.5-2-4.9s-1.8-1.7-2.4-4.8c-0.6-3.1-2.3-2.3-1.9-3.7s-2-2.2-2.6-3
	c-0.6-0.8-3.1-0.5-4.9-1.4c-1.8-1-2.9-0.2-4.6-0.7c-1.7-0.5-5.5,0.5-6,0.5c-0.5,0-3.5-0.6-5.2,1.7c-1.7,2.3-0.4,2.2,0.4,2.2
	s1.1,2.2,1.2,2.9c0.1,0.7-1.2,1.8-1.8,2c-0.6,0.2-2.3,2.9-2.5,3.8c-0.2,1-2.2,3.4-1.9,4.2c0.2,0.8-1,1.7-1.8,1.8
	c-0.8,0.1-3.1,1.8-3.8,2c-0.7,0.2-3.6-0.2-4-1.1c-0.1-0.3-0.5-0.5-0.9-0.7l-3.2,6.5l-0.3,2.1c0,0-2.1,0.5-0.5,2.1
	c1.6,1.6,1.8,0.3,4.2,0.3c2.4,0,3.4,1.8,3.9,0.5c0.5-1.3,2.6-2.1,3.9-0.5c1.3,1.6,5.5,4.2,5.2,5.5c-0.3,1.3-2.6,1-4.2,0.5
	c-1.6-0.5-3.7,1-5.2,1c-1.6,0-3.4,0.5-5,2.1c-1.6,1.6-1.3,3.1-3.7,3.4s-3.4,0-6,1.8c-2.6,1.8-5.5,1-6.5,0.5c-1-0.5-2.9-0.8-3.9,1
	c-1,1.8,1.3,2.6,1,4.7c-0.3,2.1-2.9,1.6-5,3.9c-2.1,2.4-5.5,3.4-7.3,3.1s-5.8-1.3-9.1,0.3c-3.4,1.6-5.8,3.9-7.1,3.7
	c-1.3-0.3-1.3-1.8-3.1-1.6c-1.8,0.3-2.9-0.3-4.2-1c-1.3-0.8-2.4,0.5-4.4-1c-2.1-1.6-5.8-1.3-7.3-1.6c-1.6-0.3-7.6,0-9.7-0.3
	c-2.1-0.3-5,0.5-5.2-0.5c-0.3-1-1.8-1.8-2.4-4.2c-0.5-2.4-1.8-3.1-3.1-3.4c-1.3-0.3-1.5-1.6-2.6-1.8c-0.6-0.1-1.2-1.8-3-1.8
	s-8.2-0.7-9.1-2.2c-0.9-1.5,0.9-1.8,0.9-3.3c0-1.5,1-3.5,0.3-4.1c-0.7-0.6-2-1.9-2.2-3.1c-0.2-1.2-2.2-2.7-3.5-2.8
	c-1.3-0.1-2.4-0.9-3.7-2c-1.2-1.1-2.4-1-2.9-3.7c0-0.2-0.1-0.3-0.1-0.5c-0.5-0.1-1.1-0.2-1.6-0.2c-0.3,0-0.7-0.3-1.1-0.6
	c-0.3,1.1-1.4,1.7-1.4,2.6c0,1-0.4,2.2-1.7,2.2c-1.3,0-2.6,1-2.7,3.1c-0.1,2.1,1.2,2.3,0.6,3.2c-0.6,0.9-3,1.8-3.8,1.4
	c-0.8-0.4-2.4-0.2-3.7-0.3c-1.3-0.2-2.3-1.8-2.7,0c-0.4,1.8-3.2,7.2-2.5,7.8c0.7,0.6,1.2,1.9,0,1.9c-1.2,0-2.3-0.2-2.9-0.7
	c-0.6-0.6-2.5,0.8-3.8,0.7c-0.6,0-3.2,1.1-2.3,1.6c0.9,0.4,0.9,2.6,0.9,3.5s2,3.6,1.6,4.5c-0.4,0.9-2.2,1.9-2.2,3.1s0.4,2.2-0.3,2.5
	c-0.6,0.3-2.6,1.1-3.6,1.8c-1,0.7-2.6,0.7-3.1,1.8c-0.5,1.1-1.4,2-3.2,1.8c-1.6-0.2-2.4-0.4-3.7,1.1c-1.3,1.5-1.5,0.9-2.4,1.6
	c-0.9,0.7-1.8-0.5-2.5-0.8c-0.7-0.3-1.7,0.8-2.4,0.8s-1.3,1.2-2.2,1.4c-0.9,0.3-1.8,0-1.8,1.1c0,0.7-0.2,1.4-0.7,2h0l0.6,3.5
	c0,0,3.8,1.3,4,2.6c0.2,1.3,0.8,5.4,0.8,5.4s0,0-0.1,0c1.6,1.2,3.7,2.5,3.7,3c0,0.5,0.2,2.2,2.1,3.1c1.2,0.6,2.4,1.2,3.2,1.7
	c0.1-0.2,0.2-0.4,0.2-0.4l1.6-0.2c0,0,0.5,0.3,0.9,0.8c0.4-1.3,3.2-2.7,4.6-2.6c1.5,0.1,5,2.9,4.7,3.9c-0.4,1-2.9,4.6-4,4.9
	c-0.4,0.1-1.1,0.2-1.7,0.2c-0.1,0.6-0.3,1.1-0.3,1.4c0,0.8,1.4,2.1,2.2,3.5c0.8,1.4-1.3,2.4-2.4,1.4c-1.1-1-1.6,1-1,1.8
	c0.6,0.8,0.3,3,1.4,3.2c1.1,0.2,2.1,2.4,3.4,2.4c1.3,0,2.4,2.1,2.4,2.1s1.8,1.1,1.8,1.8c0,0.1,0,0.2-0.1,0.2
	c1.4-0.1,2.3-0.2,2.5-0.8c0.2-0.6,2-0.6,3.2,0.6c1.3,1.3,6.4,4.5,8.3,6s6.3,3.2,7.8,3.1c1.5-0.1,3,1.1,5.3,1c0.4,0,0.7,0,0.9,0
	c0.3-0.4,0.9-0.4,1.3-1c0.6-1,1.6,0.8,1.3,2.1c-0.1,0.6,0,1.3,0.2,1.8c0.3-0.5,0.7-1.1,0.9-1.7c0.8-2,2.1-1.9,2.9-2.5
	c0.8-0.6,1.6-0.4,3.3,0.5c1.6,0.8,2.3-0.9,4.7,1.3c0.5-0.2,1.1-0.5,1.4-0.5c0.5,0,1.1-1,1.9-1.8c0.8-0.8,0.6-1.8,1.6-1.6
	c1,0.2,1.4-1.1,3.5-2.2c2.1-1.1,3.8,0.6,4.8-0.2c1-0.8,2.1-1.1,2.1-0.3c0,0.8,1.3,1.8,1.6,2.7c0.3,0.9,2,1.2,2.3,1.3
	c0.3-0.2,0.5-0.3,0.7-0.4c1-0.7,2.7,0.1,2.7,1.2s0.1,2.2,0.9,2.2c0.8,0,1.6,0,1.6,2s0.7,4.2-1,5.9s-3.7,4.8-3.3,5.7s-0.5,2.6,0.7,2
	c1.3-0.6,4.1,0,3.7,0.7s0.1,3.2,1.3,3.3c1.2,0.1,1.9,0.7,1.5,1.8s-1,2.7,0,2.7c1,0,2.4,0,2.2,1.1c-0.2,1.1,0.7,2.1,2.5,1.3
	c1.1-0.4,1.6-0.8,1.8-0.4c0.7,0,0.8,1.6,2,1.9c1.3,0.3,0.6-2.7,0.2-3.2c-0.5-0.5,0.2-2.6,0.6-2.1c0.5,0.5,1.9,0,2.7-1
	c0.8-1,2.4,0.8,3-0.3s2.1,0.8,3.5,0c1.4-0.8,2.1,0.6,2.7-0.5c0.6-1.1,2.7-2.6,3.2-2.1c0.5,0.5,0.8,1.4,3.4,1.8
	c2.6,0.3,1.1,1.6,1.1,2.4c0,0.8,2.9,2.9,4,3c0.2,0,0.5,0.3,0.8,0.7c0.8-0.4,2.2,0.3,2.5-0.7c0.4-1.1,1.7-0.8,2.2,0.1
	c0.5,0.9,1.1,1.1,2.3,0c1.2-1.1,1.8,1.1,1.1,1.7c-0.7,0.6-0.2,2.5,0.9,3.5c1.1,1.1,1.3-0.7,1.1-1.7c-0.2-1.1,1.9-2.2,5.7-3.4
	s7.9-4,7.9-4.6c0.1-0.6,2.7,1.1,4,0.1c1.3-1,5.8-1.1,7-1.1c1.2-0.1,1.1-1.1,2.4-2.1c1.3-1,1-1.5,2.4-1.9c1.4-0.4,2.3-1.7,2.3-2.5
	s2.7-1,2.8-1.7c0.1-0.8,2-1,2-2c0-1,1.2-0.8,1.7-1.5c0.5-0.7-0.4-2.8,0.5-3.1c1-0.3-0.4-1.4-0.5-2c-0.2-0.5,1.8-0.7,2.8-1.3
	c1-0.7,1.7-1.7,1.9-2.8c0.2-1.1,1.9-2.2,2.6-2.5c0.8-0.3,1.1-1.9,0.8-3.3c-0.2-1.4,1.4-1,0.7-1.6s0.3-2,1.7-2.5
	c1.4-0.4-0.9-1.1-1.7-0.5c-0.8,0.6-1.6-1.7-2.3-0.8s-2.8-0.5-1.4-0.8c1.3-0.3,3.4-1.8,4.3-2.1c0.9-0.3-1.3-2.3-2.5-2.2
	c-1.1,0.1-2.4-2.6-3.6-2.6c-1.2,0,0.9-0.8,2.3-0.1c1.4,0.7,3,1.3,3.6,0.7c0.6-0.6-2.3-3-3.4-3.8c-1.1-0.8-0.1-2-0.7-2.5
	c-0.7-0.5-2.1-3.5-2.6-4.9c-0.5-1.4-3-1.6-3.6-2.5c-0.6-0.9,0.1-3,1.9-3.8c1.9-0.8,1.1-2.3,1.9-2.2c0.8,0.2,1.6-0.2,2.2-1.6
	c0.7-1.4,1.8-0.5,2.5-1.3c0.7-0.7,3.6-0.7,4.6-1.4c1-0.7-1-2.9-2.3-2.6c-1.4,0.4-3-0.2-4-1.6c-1-1.4-3.5,2.6-5.4,3.5
	c-1.9,0.9-3.2-1.6-2.5-3.2c0.7-1.6-1.5-1.6-4.2-1.4c-2.7,0.1-1.7-4.8-0.1-5c1.6-0.2,4,1.5,5-1.5c1-3,2.5-0.7,4.7-3.3
	c2.3-2.6,4.9-4.3,6.9-2.7c2,1.6-2.1,4-2.8,5.5c-0.7,1.5,0.6,2-0.6,3.1c-1.2,1.1,0.5,1.4,2.8-0.1c2.3-1.5,5.2-3.3,7.5-4.2
	c0.6-0.2,1.3-0.3,2-0.2c0.3-0.9,0.7-1.6,1.1-1.8c1.6-0.8,6.8-3.1,7.6-4.2c0.8-1,1.6-2.9,2.6-2.9c1,0,1,1,2.6,1
	c1.6,0,3.4,0.5,2.6-0.8c-0.8-1.3-0.3-1.3,1.6-1.6c1.8-0.3,1.6-2.1,2.9-2.1c1.3,0,1-3.1,2.4-3.1c1.3,0,1.8,1.8,3.4,1.3
	c0.3-0.1,0.7,0,1.1,0.2c0.3-0.3,0.7-0.5,1-0.7c-0.2-1.6,0-3.1-0.3-3.9c-0.6-1.4,0-2.5-0.2-3.4c-0.2-0.8-0.4-2.9,0.6-2.9
	s2.2-2.4,3.4-1.6c1.2,0.8,3.6,1.1,3.6,0c0-1.1,1.7-1.2,1.9-2.6c0.2-1.4,2-1.8,2.4-3.1c0.4-1.3,1-4.4,2.2-5.2
	C1052.4,317.8,1050.9,317.3,1051,315.1z M992.3,428.7c-1.3,4.8,1.8,7.2,2.2,7c1.2-0.8,6.1-11.2,5-12.6
	C998.4,421.6,993.6,423.9,992.3,428.7z M949.4,445c-1.6,0-5.5,2.3-4,5.5c1.6,3.2,6.7,1.1,6.8-0.4c0.1-1.4,2.5-3.7,2.2-4.8
	C954.2,444.6,951,445,949.4,445z"/>
</svg>
