<?xml version="1.0" encoding="utf-8"?>
<!-- Generator: Adobe Illustrator 17.1.0, SVG Export Plug-In . SVG Version: 6.00 Build 0)  -->
<!DOCTYPE svg PUBLIC "-//W3C//DTD SVG 1.0//EN" "http://www.w3.org/TR/2001/REC-SVG-20010904/DTD/svg10.dtd">
<?xml-stylesheet href="style.css" type="text/css"?>

<svg class= "export_Country" version="1.0" xmlns="http://www.w3.org/2000/svg" xmlns:xlink="http://www.w3.org/1999/xlink" x="0px" y="0px"
   viewBox="0 0 1280 800" enable-background="new 0 0 1280 800" xml:space="preserve">

   <pattern x="129.3" y="-195.3" width="23" height="23" patternUnits="userSpaceOnUse" id="muster_export" viewBox="11.8 -34.5 23 23" overflow="visible">
     <path fill="none" d="M11.8-34.5h23v23h-23z"/>
     <defs>
       <path id="a" d="M11.8-34.5h23v23h-23z"/>
     </defs>
     <clipPath id="b">
       <use xlink:href="#a" overflow="visible"/>
     </clipPath>
     <g clip-path="url(#b)">
       <path fill="#C1272D" d="M11.8-34.5h23v23h-23z"/>
       <g fill="none" stroke="#000" stroke-width="2">
         <path d="M19.9-43.8l23.9 23.9M16.1-39.9l23.8 23.8M12.2-36.1l23.9 23.9M8.4-32.2L32.2-8.4M4.6-28.4L28.4-4.6M.7-24.6L24.6-.7"/>
       </g>
     </g>
   </pattern>
<g id="exportCountrys">
  <g>
<path onclick="openWindow('russia')" onmouseover="showTooltip('russia')" onmouseout="hideTooltip()" class="export russia" fill="url(#muster_export)" stroke="#FFC" d="M973.3,90.3c0.5-1.8-7.5-1-5.4,0.7C968.6,91.6,972.8,92.1,973.3,90.3z
       M976.4,98.8c2.3,1,1.4,1.6-1,1.6c-2.4,0-4.5,0.8-2.9,1.4c1.2,0.5,1.1,1.8,3.6,2.4c2.5,0.6,5-1.4,4.8-2.9
      c-0.2-1.4,8.8-2.8,11.2-3.4c2.4-0.6-1.6-3.1,1.1-3.4c2.6-0.2,1.6-1.4-1.7-1.9c-3.2-0.5-1.9-3.2-3-4.2c-1.1-1-1.7,1.2-5.9,2
      c-4.2,0.8-6.2,1.9-4.6,2.8c1.7,0.8,0,2.9-1.8,2.8C974.5,95.9,974.2,97.8,976.4,98.8z M887.8,160.1c1.6,0.2,5.8-0.6,6.2-1.4
      c0.5-0.8-1.7-1.8-4.4-1.8C886.8,156.9,886.4,159.9,887.8,160.1z M922.8,161.9c1.9,1,3.4,0.6,3.1-1.3
      C925.7,158.7,921.3,161.1,922.8,161.9z M982.8,102.2c0,1.3-3.9,2.6-2.8,3.6c1,0.8,1.8,0.6,3,0.8c1.2,0.2,1.8,3.2,4,2.8
      c2.2-0.5,8,2.4,11.5,2.4c3.5,0,3.8-2.9,2.8-3c-1.1-0.1-0.1-1.8,1.8-4.6c1.9-2.8-6-4.8-6-2.6c0,2.2-2.3-0.5-3-1.8
      C993.4,98.4,982.8,100.8,982.8,102.2z M1326.4,177.3c2.4,1.2,3.8-1.4,5.8-0.1c1.9,1.3,6.6-0.6,8.5-1c1.9-0.4,1-2.8-4.4-3.5
      C1330.8,172,1323.8,176,1326.4,177.3z M1192.5,143.7c2.9,0.2,4.3,3,9.8,3.4c5.5,0.4,9.6-0.7,9.7-1.9c0.1-1.2-5-3-6.6-2
      c-1.6,1-2.8-1.6-4.7-1c-1.9,0.6-4.6,0.5-5.5-1.2C1194.3,139.2,1191.1,143.6,1192.5,143.7z M1001.4,119.1c1.7,1,7.1-1.2,10.7-1.1
      c3.6,0.1,13.7-2.8,14-4.7c0.4-1.9-3.7-1.8-5.3-3.5c-1.6-1.7-5-0.2-5.9,1.2c-0.8,1.4-1.8,0.1,0.5-2.2c2.3-2.3-2.3-4.1-2.4-2.6
      c-0.1,1.4-4.3,0.2-4.3,1.6c0,1.3-1.6,1.9-1.4,3.2c0.1,1.3-2.9-0.7-3,2.3C1004.2,116.3,999.6,118.1,1001.4,119.1z M864.6,93.4
      c4.5-0.5,4.4-3,2-3.5c-2.4-0.5-2.8,1.4-4,1.3c-1.2-0.1-5.7,0.8-4.8,1.8C859,94.2,862.3,93.6,864.6,93.4z M1181.2,159.1
      c2.2-0.5-1.6-4.4-5.3-5c-3.7-0.6-7.2,2.5-6.7,3.1C1170.3,158.8,1179.1,159.6,1181.2,159.1z M1171.6,151.2c0-1.8-6.5,0.7-3.8,1.6
      C1169.2,153.3,1171.6,153,1171.6,151.2z M1156.2,143.8c1.7,0.8,2.3,1.7,3.2,2.6c1,1,4.6-0.5,6-1c1.4-0.5,1.6,2.2,3.8,0.7
      s4.6-0.7,7.2-0.7c2.6,0-0.5-3.2-0.4-4.7c0.1-1.4,3.1-0.5,2.2,0.7c-1,1.2,1.4,4,5.3,3.7c3.8-0.2,1-2.6,2.9-3.5
      c1.9-0.8,1.7-1.8-1.1-3.5c-2.8-1.7-6.4-0.6-8.8-1.7c-2.6-1.2-5.6-1.2-5.8,1.4c-0.1,2.6-5.2-2.9-7.8-3.7
      C1160.4,133.5,1152.2,141.8,1156.2,143.8z M1180.3,297.7c-1.3-3.5,1.9-6.8-0.5-8.6c-2.4-1.8-1.4-5.5-2.6-4.8c-1.2,0.7,0,4-1.9,4.2
      c-1.9,0.2-0.1,2-0.8,4.4c-0.7,2.4,0.4,5.9,1.3,8c1,2.2-1.3,13.7-0.4,15.6c1,1.9-1.6,10.4-0.7,11.4c1.4,1.7,0.5-2.3,2.6-2.6
      c2.2-0.4,2.2,2.4,3.5,3c1.3,0.6,0.5-3.8-0.7-3.6c-1.2,0.2-2.2-2.9-2.8-4.8c-0.6-1.9,1.2-4.2,1.2-6.6c0-2.4,3-2.3,4.8-0.5
      c1.8,1.8,2,0.6,1.3-0.7C1183.9,310.8,1181.6,301.2,1180.3,297.7z M791.7,95c2.8-2.5,6.4-0.1,6.8-1.3c0.5-1.2-5.2-1.6-7.2-0.5
      c-2,1.1-6.8,0.2-6.2,1.6C785.4,95.6,788.9,97.5,791.7,95z M797.8,190.8c3.2,3,6-1.3,7.6-1.6c1.6-0.2-1-1.9-3.6-2.6
      C799.1,185.9,795.3,188.6,797.8,190.8z M855.9,94c0.8-1.1-1.6-1.1-1.8-2.2c-0.2-1.1-7-1.3-6.6-0.1c0.4,1.2-4.6,2.5-3.1,3.7
      C847.2,97.7,855,95.1,855.9,94z M803,93.9c1.7,1.2-4.7,0.8-5.5,2c-0.8,1.2-4.5,0.8-3.8,2.2c0.7,1.4,6.7,1.6,6.7,0.4
      c0-1.2,3.1-0.1,3.2-1.2c0.1-1.1,1.4-2.3,4.8-2.5c3.4-0.2,3.4-1.4,0.2-2.9C805.5,90.4,801.3,92.7,803,93.9z M1372.5,211.3
      c-1.2-0.4-5-2.9-6-4.3c-1-1.4-5.6-2-5.6-1.3c0,0.7-1.5-0.2-1.9-1c-0.4-0.8-5.2-0.9-5.3-0.1c-0.1,0.8,1.1,0.9,1.9,1.9
      c0.7,1-1,1.5-0.6,2.6c0.4,1.1-1.8-0.5-2.6-1.1c-0.8-0.6-0.4-2.9-0.2-4.1c0.2-1.2-1.4-1-1.6-2.2c-0.2-1.2-5.6-3.7-7.9-4.6
      c-2.3-1-5.2-1.8-6-3c-0.8-1.2-4.9-1.3-6.4-2.9c-1.6-1.6-8.4-4.5-11.3-4.7c-2.9-0.2-2.3-1.8-3.7-1.6c-1.4,0.2-7.6-0.1-9.5-0.4
      c-1.9-0.3-2.3,1.1-3.7,0.6s-8.5-3.1-9.4-2.2c-0.8,1-0.5,2.3-1.3,2.6c-0.8,0.2,0,1.4,2,3.2c2,1.8,0.8,3.2-1,4
      c-1.8,0.8-4.7-0.7-5.6-2.1c-0.9-1.4-3.4-0.8-4-2.6c-0.6-1.8,0.7-2.1,1.9-1.1c1.2,1,2.8,0.2,3-1.1c0.2-1.3-3.2-2.2-5.1-2.1
      c-1.9,0.1-2.9,2.7-4.8,3.8c-1.9,1.1-9.4-0.4-10.1-1.1c-0.8-0.7-11.2,0-12.2,0.7c-1.1,0.7-0.3,3.5-0.8,3.8
      c-0.5,0.2-1.1-3.2-1.1-3.9c0-0.7-1.3-1.1-3.1-1.1c-1.9,0-2.9-0.1-2.2-0.8c0.8-0.8-0.7-1.6,0.7-2.6c1.4-1-2.6-4.2-6.6-5.8
      c-4-1.6-13-0.7-15.4,0.1c-2.4,0.7-7.2,0.5-9.5,0.5c-2.3,0.1-0.4-0.9-1.1-2c-0.7-1.1-4.6-2.4-5.1-1.5c-0.5,0.9-1.6,0-1.6-0.7
      c0-0.7-3.7-2-5.1-1.7c-1.4,0.3-2.1-1.3-0.4-1.3c1.7,0,4.6,0.4,3.3-1.6c-1.3-1.9-12.1-2.5-13.1-2.2c-1,0.4-0.1,1.7-2.4,4
      c-2.3,2.2-4.6,0.7-4.3-0.4c0.3-1.1,3.2-0.9,3.2-2c0-1.1-4-0.5-4.6-1.4c-0.6-0.9,0.8-1.5,2.3-1.1c1.4,0.4,4,0.7,4.1,0
      c0.1-0.7-1.5-0.8-3.9-1.2c-2.4-0.4-8.2-1.8-11.3-1.5c-3.1,0.3-4.4-1.1-6.1-1.3c-1.7-0.1-1.7,0.9-0.9,1.9c0.8,1-1.6,1.6-3.6,1.3
      c-2-0.3-4.9,1.1-3.7,2.5c1.1,1.4,2.3-0.4,3.2,0.1c1,0.5-2.5,1.5-1.1,2.2c1.4,0.7,1.2,2,1.3,2.8c0.1,0.7-2.4,1.1-3.3,0
      c-0.9-1.1-2.2-0.1-3.8-0.2c-1.7-0.1-2.9,0.7-1.1,0.9c1.8,0.2,2.4,1.4,0,1.6c-2.4,0.2-1.8-2.2-3.2-1.9c-1.4,0.3-4.6-1.1-6.2-1.1
      c-1.7,0.1-2.5,1.4-4.7,1.6c-2.2,0.2-5.2-1.1-6.1-2.3c-0.9-1.2-1.2-1.6-2.3-0.2c-1.1,1.4-1.1,4-2.2,4.2c-1.1,0.2-1.5,2.5-2.6,3.1
      c-1.1,0.6-1.1-0.9-2.5-0.8c-1.4,0.1-5.8-4.2-6.1-5.5c-0.2-1.3-3-3.7-3.7-4.1c-0.7-0.5,0.7-0.7,1.6,0.1c0.9,0.8,2,0.8,2.9,0.3
      c0.9-0.5,0.8-2.7-0.8-2.8c-1.6-0.1-1-1.4-0.2-1.6c0.8-0.2-1.8-2.6-0.8-2.8c1-0.2,0.5-1.3-0.8-1.4c-1.3-0.2-2.7-1.3-2.8-1.9
      c-0.1-0.7-5.6-0.9-5.4,0.1c0.2,1-1.8,0.7-1.5-0.1c0.3-0.8-2-0.5-4.6-1.3c-2.6-0.7-2.7-2.6-3.6-2.7c-0.9-0.1-0.6,2.6-1.9,2
      c-1.3-0.6-2.8,0.5-2,2.1c0.7,1.6,0.1,1.8-0.1,3.1c-0.1,1.3-0.8,0.7-2.4,0.2c-1.6-0.5-1.6,1.3-4.9,0.5c-3.4-0.8-4.9,0.1-5.5-1
      c-0.6-1.1-1.6-1.2-1.7-0.3c-0.1,0.9-5.3,0.5-5.7-0.8c-0.4-1.3,0.9-1.6,1.7-1.9c0.8-0.4-0.8-0.9-3.7-0.7s-4.6-1.4-7.5-1.1
      c-2.9,0.3-9.3,0.9-10.2,1.3c-0.9,0.4,0.8,2-0.5,2.2c-1.4,0.1-0.4-2.6-0.7-4c-0.2-1.3-2.3-1.5-2-0.5c0.3,1-3.3,1.4-4.2,0.6
      c-0.9-0.8-2.3-1.8-4.7-2.4c-2.3-0.6-5.2,1.9-4.6,2.6c0.7,0.7,2.4,0.2,2.5,0.7c0.1,1-5,0.6-5,1.4c0,0.8-4.7,2-6.2,2.2
      c-3.9,0.5-4.8,0.5-6.7,2c-1.9,1.6-0.4-1.4,1-2.8c1.4-1.4,2.9-0.8,3.8-2c0.8-1.1,2.2-1,4.4-1.4c2.3-0.4,2.2-1.7,3.2-2.2
      c1.1-0.5,3.7-1.5,4.2-2.6c0.5-1.1,5.9-2.9,7-2.8c1.1,0.1,1.3-2.2,1.9-2.2c0.6,0,3.7-1.4,4.9-1.9c1.2-0.5,1.8-1.7,1.9-2.5
      c0.1-0.8-1.6-0.7-1.8-1.4c-0.2-0.7,0.8-0.2,2-0.7c1.3-0.5,0-2.2-1-1.9c-1,0.3,0.5-0.9-0.4-2c-0.9-1.1-2.7,0.7-2.6-0.5
      c0.1-1.1-0.1-2.6-0.8-3.3c-0.7-0.7-2,1.3-3.5,0.1c-1.5-1.1-5.9-1.9-5.9-1.4c0,0.5-2.1-0.7-2.5-0.2c-0.4,0.5-3.9,0.4-5,0.1
      c-1.1-0.3-2.6,0.4-2.6,1.5c-0.1,1.1-4.3,0.7-5.1,0.5s2.9-3.2,2.9-3.8c0-0.5-6.3,0.1-6.7-0.5c-0.4-0.6-3.4-0.8-4.8-0.7
      c-1.4,0.1-0.1-0.4,1.2-0.5c1.3-0.1,2.4-1.2,3.8-1.4c1.4-0.2,1.1-0.7,0.5-1.6c-0.6-0.8-2-0.4-3.4-0.8c-1.4-0.4-3.1-1-4.3-1.1
      c-1.2-0.1-2.5,0.6-5.3,1.1c-2.8,0.5-3.1,2.7-4.5,3.4c-1.4,0.7-4,3.3-2.8,3.5c1.2,0.2,0.6,1,0.8,1.7c0.2,0.8-0.9,1-2.3,0.7
      c-1.4-0.2-6.2-0.2-6.2,0.8c0.1,1,2.8,1.5,2.6,2c-0.2,0.5-2.1-0.1-3.1-0.6c-1-0.5-3.1-0.2-3.5,0.8c-0.4,1-2.1,0.8-2.6,0.5
      c-0.5-0.2-1.7,0.5-2.6,0.2c-0.9-0.3,1.8-1.6,1.1-2.3c-0.7-0.7-3.5-0.1-3.8,1c-0.3,1.1-2-0.8-2.7-0.4c-0.7,0.4-1.4,0.8-2.6,1.3
      c-1.3,0.5-3.4-0.6-3.9,0.4c-0.5,1,2.4,1.3,2.5,1.7c0.1,0.4-6.5,0.4-6.7,1c-0.2,0.7-2.4,0.7-5.1,0.7c-2.7,0.1-1.6,1.4-3.8,1.8
      c-2.2,0.4-3.1,0.5-3.8,1.6c-0.7,1.1-2.4,1.3-3.1,0.4c-0.7-0.8-2.7,0.4-1.6,0.5c1.1,0.1,0.1,1.2-0.6,1c-0.7-0.2-2.6,1.1-1.5,1
      c1.1-0.1,1.6,0.8,1.1,1.4c-0.5,0.7-2.9-0.8-3.5-0.2c-0.6,0.6,1.1,1.4,2.2,1.3c1.1-0.1,1.7,0.6,1.8,1.4c0.1,0.8-2.5-0.5-3.1,0.2
      c-0.5,0.7,0.4,1,1.6,1.1c1.1,0.1,0.3,0.5,1.3,1.4c0.1,0.1,0.1,0.1,0.2,0.2c0.6,0.7-0.5,1-0.4,1.7c0.1,0.8-1.1,1.1-1.1,0.4
      c0-0.7-3.2-1-3.8-0.2c-0.7,0.8-1.1,1.4-1.9,0.7c-0.8-0.7-3.1,0.2-6,0.3c-2.9,0.1-9,0.4-10.5,0.9c-1.5,0.5-2.8,2.6-1.4,4
      c1.4,1.4,0.1,2,0.1,2.9s3.6,2.8,5.5,2.9c1.9,0.2,3.5,2.5,2.3,4c-1.1,1.4-4.6-0.4-6.9-2.2c-2.3-1.8-7.6-2.5-9.3-2.4
      c-1.7,0.1-0.7-1.6-2.9-1.5c-2.2,0.1-4.1,2-2.6,2c1.5,0,2.5-0.1,1.7,0.6c-0.8,0.7,0.4,0.5,2.2,1.3c1.8,0.8-1.5,1.9-3.4,0.6
      c-1.9-1.3-3.8-0.1-4.4,0.9c-0.5,1,2.2,3.7,5.4,4.2c3.2,0.5,2.2,1.5,3.7,2c1.5,0.5,0.4,1.1-0.6,1.2c-1,0.1-3.1-1.6-4.7-2.4
      c-1.6-0.8-6,0.4-6.9-0.6c-0.9-1,0.6-1.9-0.2-2.6c-0.8-0.7-0.1-2.3,1-4c1.1-1.7-0.2-4.6-1.7-5c-1.6-0.5-1.4,1.1-1.1,1.6
      c0.4,0.5,0.2,2.8-1,4.3c-1.2,1.5-4.9,1.5-4.9,2.5c0,1-2.5,1.8-1.6,2.5c0.8,0.7,4.1,4.4,4.6,5.6c0.5,1.1-2.9,4.7-2.4,6.8
      c0.5,2.1-0.5,3.1,0.2,4.1c0.7,1,2.2,0.1,3.1,0.5c1,0.4,2.5-0.6,4.7-1c2.2-0.4,6.3,1.9,7.8,2.6c1.5,0.7,0.7,1.9,1.5,3.1
      c0.8,1.2-1.8,1.2-1.9,3c-0.1,1.8,4.5,2.6,4.7,3.1c0.2,0.5-3.2,0.1-4.6-0.4c-1.3-0.5-1.4-2.2-1.9-2.6c-0.4-0.4,0.9-1.8,1-2.9
      c0.1-1.1-1.5-1.8-2-2.6c-0.5-0.8-1.5-1.9-2.6-1.7c-1.1,0.2-5,0.6-6.2,1.7c-1.2,1.1,0.2,4.1,0.8,5.6c0.7,1.5-3.5,3.6-3.4,4.8
      c0.1,1.2-1.3,1.7-3.1,2.7c-1.8,1-3.8,1.7-3.7,3.2c0.1,1.6-2.4,0.7-3.7,0c-1.3-0.7-2.9,0.4-4.7,0.4c-1.8-0.1-1.8-1.6-3.2-1
      c-1.4,0.5-2.4-0.7-2-1.7c0.4-1.1,2-0.2,2.2,0.5c0.1,0.8,1.1,0.4,2.3-0.2c1.2-0.7,0.6,0.8,2.3,1c1.7,0.1,0.8-0.9,2.1-0.8
      c1.3,0.1,1.4-0.3,1-1c-0.4-0.7,1-1.1,1.8-1.5c0.9-0.4,0.5-1.7,1.3-2.2c0.8-0.4,0.2-1.3,1.1-1.3c0.8-0.1,1.2-1.3,2-1.3
      c0.8,0,1.2-1.3,0.7-1.9c-0.5-0.7,0.3-2.5,1.1-2.7c0.8-0.2,0.8-1,0.1-1.5s-3.4-2.3-3.2-3.5c0.2-1.1-0.5-3.2-0.1-4.1
      s0.1-2.8-0.1-3.8c-0.1-1.1,0.7-2.3,1-4.3c0.4-2-2.1-4.1-3.3-4.6c-1.2-0.5-0.4-1.6,1.3-3.1c1.7-1.4,1.9-5.9,1.7-6.9
      c-0.1-1-3.7-1.8-5-1.7c-1.4,0.1-6.5-0.1-7.7-0.4c-1.3-0.2-1.7,1.1-2.3,2.3c-0.6,1.2-1.9,3.1-2.7,5.8c-0.8,2.7-4,3.5-5.4,4.1
      c-1.4,0.6-2.3,2.6-1.7,3.5c0.7,1,1.6,0.2,2.3,0.5c0.7,0.4-0.1,2.9-0.5,3.2c-0.4,0.4,0.8,1.3-0.2,1.9c-1,0.7-2,2-1.4,2.8
      c0.6,0.7,3.5,1.1,4.8,1.8c1.3,0.7,0.8,2,1.7,3.3c1,1.3,2,0.5,2.5,1.3c0.5,0.8-1.7,3.9-2.5,4c-0.8,0.1-4-3.2-4.9-3.9
      c-1-0.7-4.7-1.9-6.5-2.8c-1.9-1-3.4-0.8-5.4-2.2c-2-1.4-3.8-2-7.5-2c-3.7,0.1-6.1-0.8-7.4-0.7c-1.3,0.2-0.8-1.3-3-2.2
      c-2.2-1-3.7-2.3-4.9-1.6c-1.3,0.7-0.8,3.1,1.1,3.4c1.9,0.3,1,1.3,3,1.2c2-0.1,2.6,0.6,2.6,1.9c-0.1,1.3,1,2.5,1.9,3.4
      c0.9,0.8,0.4,2.2-1.3,2.2c-1.6,0-3.5,0.2-2.8,1.4c0.7,1.1-0.5,1.4-2.1,0.8c-1.6-0.6-0.7-1.7,0-2.4c0.7-0.7-1.4-1.5-2.5-1.9
      c-1-0.4-5.1,2.6-6.2,3.1c-1.1,0.5-4-0.7-6.8,0s-2.7,3-3.8,2.8c-1.1-0.2-4.3,0.3-5.5-0.4c-1.2-0.7-0.2-1.1,1-1.1
      c1.3,0.1,1.7-0.4,1-1.2c-0.7-0.8,1-2.2,0.9-2.8c-0.1-0.6-4.7,1-5.5,1.6c-0.8,0.7,0.1,1.9-0.8,2.3c-0.8,0.4-0.8-0.7-1.8-1.1
      c-1-0.4-8,1.3-9.3,2.8c-1.3,1.5-3.9,1.6-3.9,2.4c0,0.8-3.2,0.8-4.4,1.4c-1.3,0.6-0.4,3.1-0.9,4.3c-0.5,1.2-5.4,0.8-6.9,0.9
      c-1.5,0.1-2-2.9-3.2-3.1c-1.2-0.2-0.5-1.9-0.1-2.6s1.3-0.1,2.8-1.1c1.5-1,3,0.5,3.6-0.2c0.6-0.7-2.3-2.4-2.5-3.9
      c-0.2-1.5-3.4-1.9-5.2-1.4c-1.8,0.5-3.8,0.1-5-0.5c-1.3-0.6-1.1,1.1,0.7,1.6c1.9,0.5,0.9,1.9,1.2,2.8c0.3,0.9-0.5,2.9-1.6,4.5
      c-1.1,1.6-0.3,1.5,1.3,1.4c1.6-0.1,1.5,2,1.5,3.6c0,1.6-1.3,2-1.3,3.1c0,1.1-1.3-0.5-1.7-0.1c-0.4,0.5-1-0.2-1.2-1.2
      c-0.2-1-2.7-0.4-4.1-0.8c-1.4-0.4-1.9,0.2-2.6,1.3c-0.7,1-2.6,1.4-3.6,1.6c-1.1,0.1-2.8,2.1-3.9,2.8s-1.3,2.1,0.2,3.5
      c1.5,1.4,1.8,2.4,1.7,3.2c-0.1,0.8-4.2,0.5-4.9-0.3c-0.7-0.8-3.3-1.1-4.2-1c-0.9,0.2-3.4-2.7-4.6-2.8c-1.3-0.1-2,1.5-2.5,2.3
      c-0.4,0.8,0.6,1,1.2,2.3c0.6,1.3,2.8,1.4,4,1.4c1.1,0,0.7,1.7,0.4,2.5s-2.5,1.3-3.1,0.5c-0.6-0.8-3.1,0-3.2-1
      c-0.1-1-1.9-2.4-3.7-2.1c-1.9,0.3-2.2-0.9-2.1-2.3c0.1-1.4-1-2.3-1-2.9c0.1-0.7-0.8-2,0.1-2.6c1-0.7,0.2-1.7,0.3-2.6
      c0.1-0.9-1.6-2.3-3.1-2.3c-1.5,0-1.2-1.5-2.5-1.8c-1.3-0.3-3.8-2.4-4-3.3c-0.2-0.9-2.1-1-1.4-1.3c0.7-0.3,2.2,0.1,3.2,1.2
      s2.8,2,5.6,2.4c2.8,0.4,4,1.7,7.1,2.2c3.1,0.5,5,0.9,9.5,1.6c4.5,0.7,10.5-3.9,11.8-5.2c1.3-1.3-0.4-3.8-0.4-4.8
      c0-1-2-1.1-2.3-1.8c-0.3-0.7-1.6-2-3.4-2c-1.7,0-2-2-3.4-1.9c-1.4,0.1-2.3-0.6-5.9-3c-3.6-2.4-8.6-4.1-9.5-3.7
      c-0.9,0.4-1.5,0.7-2.1-0.2c-0.6-0.9-2-0.8-2.9-0.1c-1,0.7-1.9-0.7-3.7-0.2c-1.8,0.4-2.8-0.8-2.3-1.3c0.5-0.5,3.1-0.1,3-1
      c-0.1-0.9-1.1,0-2.7-1.1c-1.6-1.1-2.5-0.4-2.9,0.5c-0.4,0.9-1.6,0.7-2.5-0.1c-0.1-0.1-0.2-0.1-0.3-0.2c-0.3,1.5-1.2,1.7-2.1,1.5
      c-1.1-0.2-2.2,1.6-3.4,1.6c-1.2,0-2.5,1.3-2.8,2.4c-0.2,1.1-1.6,0.5-1.6,1.2c0,0.7,0,1.4-0.6,2.2c-0.6,0.7,0,1.1,0.6,2.3
      c0.6,1.2,1.9,1.1,2.5,1.4c0.6,0.4,2.9,2.3,2.9,3c0,0.7-1.8,2.5-2.5,3c-0.7,0.5-1.7,1.7-1.2,2.4c0.5,0.7,2.5,3.7,3.8,6.1
      c1.3,2.4-0.5,1.3-1.3,2.4c-0.8,1.1,0.4,2.4,0.6,3.1c0.2,0.7-1.1,0.6-1,1.2c0.1,0.6,1.9,0.8,2,1.3c0.1,0.5-1.2,1.1-0.6,2
      c0.6,1,2,1,2.2,2.2c0.1,1.2-2.6,1.3-2.5,2.3c0.1,1,3.6,2.2,5.2,4c1.6,1.8,1.4,2.3,1.1,3.2c-0.7,1.9-5,3.6-6,5.8
      c-1,2.2-4.6,3.4-6.2,5c-0.7,0.7-1.4,1.6-1.9,2.5c0.7-0.2,1.3-0.4,1.7-0.6c1-0.5,1.6,1.9,2.6,2.6c1,0.8,2.9,0.1,3.5,0.8
      c0.7,0.7-0.5,0.8-1.9,0.5c-1.4-0.2-1.7,0.6-3.9,1.3c-1.6,0.5-1.5,1.1-2,1.6c1,1.4-0.3,1.6-0.8,2.7c-0.5,1.2-1.3,1.3-1.3,2.1
      c-0.1,0.7,0.2,1.3,0.3,2.3c0.1,1.1,0.3,1.3,0.9,2.2c0.6,0.9-0.5,0.9-1.1,1.3c-0.5,0.4-0.2,1.4,0.5,2.2s0.7,1.6,0.4,2.2
      c-0.3,0.6,0.6,1.7,1.3,2.3c0.6,0.6,0.5,2.3,1.1,2.8c0.5,0.4,1.2,0.9,2.2,0.6c1-0.3,1.6,0.2,2.1,1c0.4,0.8,1.2,0.4,2.2,0
      c1-0.4,3.2,0.8,3.8,1.1c0.5,0.3,0.3,1.8,0.4,2.8c0.1,1-0.5,2.2,0.4,2.9c1,0.6,0.7,2.1,1.9,2.5c1.2,0.4,1.6,2.1,2.3,2.2
      s2.1,1.3,2.2,2.1c0.2,0.8-1.3,1.5-2.1,1.9c-0.8,0.4-2.3-1.1-2.9-0.4c-0.5,0.6,0.2,1.8,0.6,3.8c0.4,2,0.8,2.2,1.7,2.2
      s1.3-0.6,1.9-1s2.1,0.2,2.7-0.1c0.6-0.3,2.9-0.4,3.3,0.4c0.4,0.7,0.9,2.4,0.5,3.1c-0.4,0.6,0.4,1.3,0.9,2.2c0.4,0.9,2.3,0.4,3,0.7
      c0.6,0.3,2.1,2.2,1.8,3.1s0.9,1.1,1.5,0.8c0.6-0.3,1.3,0.4,2,0.9c0.7,0.4,1.3,0.3,2.1-0.2c0.7-0.4,1.9-0.8,2.2-0.2
      c0.4,0.6,1.8,1.8,1.8,2.2s2.2,0,3.3,0.5s2.2,0.3,3.4,0.9c1.2,0.6,2.2,0.7,2.3,1.4c0.1,0.7-1.2,1.3-1.2,1.7s1,0.6,1,1.2
      s-1.3,0.5-1.4,1c-0.2,0.4,0.7,1.1,0.9,1.5c0.2,0.4-0.7,2-0.7,2.4c0,0.4-2.7-0.1-3.3-0.1s-2.5,2.1-3.1,2.2
      c-0.5,0.1-0.3,1.1-0.1,1.9c1.9-0.4,3.9-0.5,4.1-0.1c0.4,0.7-4.2,2.6-5,2.9c-0.8,0.3,1.6,1.6,1.6,2.3c-0.1,0.7-2.6,0.9-2.4,2.3
      c0.2,1.4-0.8,1.7-2.2,1.7c-1.4,0-1.7,0.8-1.1,1c0.7,0.1,0.6,1.9,3.2,2.6c2.6,0.7,5.3,3.1,7.6,5.5c0.3,0.3,0.7,0.6,1.1,0.8
      c0.6-0.4,1.2-0.7,1.5-0.7c1.3-0.2,3.6,0.5,4.9,1.4c1.3,0.9,5.8-0.2,6.3,0.5c0.5,0.7,1.6,1.6,2.5,1.6c0.9,0,1.8,1.8,2.5,1.3
      s3.4-0.5,4.1-0.5c0.7,0,0.7,0.5,1.4,0.5s0.7,2.7,1.3,2.5c0.5-0.2,2.5,1.6,3.8,1.8s2.5,2.3,3.1,2.2c0.5-0.2,1.4,0.9,1.8,0
      c0.3-0.9,2.1-0.4,2.6-1.9c-2.3-2.8-4.7-5.9-4.7-7.1c0.1-2,1-3.4-1.6-5.5c-2.5-2.2,0.2-3.6,2-5.9c1.6-2,5-2.9,7.2-4.4
      c-0.4-0.3-0.9-0.6-1.3-0.8c-1.6-0.7-2.2-1.4-0.9-1.8c1.3-0.4,0.7-1.1-0.5-2.5s-1.8-2.9-2.5-2.9s-1.8-0.2-2.9,0.2s-0.9-0.9-0.7-2.2
      c0.2-1.3-2-1.1-2.3-1.6s0.5-2.3,0.9-2.5s1.4-0.7,1.4-1.3s-2-0.7-1.3-2s2.2-1.3,2.2-2.5c0-1.3,1.1-2.3,2.3-1.4
      c1.3,0.9,1.8,3.2,3.2,2.7s0.5-1.8,0.4-2.5c-0.2-0.7-0.5-1.8,1.1-2.2c1.6-0.4,0.9-2,2.2-2c1.3,0,3.6-1.6,4.3-2
      c0.7-0.4,2.3-1.3,3.1-0.9s1.6,1.3,2.2,0c0.5-1.3,2.7-0.7,2.9,0c0.2,0.7,3.6,0.7,4.7,1.4c1.1,0.7,3.4,2.2,3.4,2.9s1.1,1.8,1.1,0.5
      s0.9-0.9,2.3,0c1.4,0.9,3.4,0.5,3.8-0.4s3.1-2,4-1.3c0.9,0.7,1.3,1.3,2.3,0.2s3.6-0.9,4,0.2s1.6,1.3,2.7,1.3s1.3,1.6,2,1.3
      s0.5-2.2,1.4-2s1.6,1.3,3.1,1.3s2.5-0.4,2.5-1.4s-0.2-2.9-1.1-2.9c-0.9,0-1.8-0.9-2.9-0.9s-2.2-1.8-1.1-2.2
      c1.1-0.4,2.9-1.3,2.5-2.2s-0.7-2.7,0.7-2.9s4.5-0.2,4.3-0.7c-0.2-0.5-3.1-0.9-3.6-1.8c-0.5-0.9-0.7-3.1-0.2-3.4
      c0.5-0.4,2.3,0.2,3.4-0.2s3.4,0.5,4.9-0.5c1.4-1.1,4.5-1.3,6.1-1.3c1.6,0,2.9-1.1,4.1-1.3c1.3-0.2,4.9-0.7,5.8-1.1
      c0.9-0.4,5.8-1.1,5.9-2c0.2-0.9,4-1.6,5-1.2c1,0.4,2.2,0.8,3.1,0.4c0.9-0.4,2.8,0.6,2.6,1.6c-0.2,1,0.8,2.1,0.7,2.9
      c-0.1,0.8-1,1.1-0.4,1.7c0.5,0.6,3,0.2,3.7-0.6c0.7-0.8,1.5,0.4,1.5,1c0,0.6,1.2,1.1,1.2,0.3c0-0.8,1.4-0.3,1.9,0.3
      s2.2-0.6,2.2,0.3c0,0.9-2.5,1.6-1.4,2.6c1.1,1,1.7-1.2,3.1-0.7c1.3,0.4,3.1-1.5,4.4-1.8c1.3-0.3,2.6-1.4,3.7-2.1
      c1.1-0.6,3.4-0.4,2.7,0.3s-1.5,2.1,1.2,3.1c2.7,1,5.8,6.2,7.5,8.8c1.7,2.6,3.3,7.3,4.2,7.3s1.2-2.3,2.3-2.6c1.2-0.3,1.9,2,3.1,2.2
      c1.3,0.3,3,1,4,0.6c1-0.4,3.2-1.6,4-1.2c0.8,0.4,1.9,0.4,2.6,2.2c0.7,1.7,1.8,2.1,2.5,2.1s0.9,0.8,0.9,1.5s1.3,1.7,2,1.7
      s2.6-0.2,3.2-0.6c0.6-0.4,1.3-0.7,1.4,0.1c0.1,0.8,1.2,2.2,1.9,2.2s2.2,0.6,2.3,0c0.1-0.6,2-1,2.8-1.1c0.7-0.1,3.2-0.6,3.7-1.7
      c0.5-1.1,2.5-1.1,3.1-1.8c0.6-0.7,2.3-1.1,2.6-1.8s2.5-0.6,2.8-1.2c0.2-0.6,2-0.7,2.9-0.5c0.8,0.2,5,1.1,5.6,1
      c0.6-0.1,0.7,2.2,1.3,2.3c0.6,0.1,2.8,1.8,3.4,1.3c0.6-0.5,2-1,3.2-0.2c1.2,0.7,2.4,1.7,2.9,0.8c0.5-0.8,3-1.2,3.4-1.7
      c0.4-0.5,0.7-1.9,0.1-2.4c-0.6-0.5-1.2-2.4-1.4-3.4c-0.2-1,1.4-1.2,1.7-2c0.2-0.8,1.7-1,2.2-1.4c0.5-0.5,0.6-1.6,1.4-1.3
      c0.8,0.2,2.6,0.8,3,1.2s1.7,0.6,2.5,0.6c0.8,0,2.2,0.7,3,1.2c0.8,0.5,3.5,0.5,4,1.2c0.5,0.7-0.1,2.8,0.5,3.5
      c0.6,0.7,2,2.3,2.5,1.9c0.5-0.4,2.8,1.2,3.6,1.1c0.8-0.1,2.2-1.4,2.9-1.4s3-0.6,3.7-0.5c0.7,0.1,3.4,1.1,3.7,0.8
      c0.4-0.2,2.8,0.1,3.1,0.8c0.4,0.7,3.4,0.7,3.4,1.6c0,0.8,1.7,1.3,2.2,2.3c0.5,1,4.4,0.4,5.2,1c0.7,0.6,5.3,0.5,5.4,0
      c0.1-0.5,4.4-0.7,5.3-1.3c0.8-0.6,3.1-0.4,3.2-1.2c0.1-0.8,2.3-1.4,3.2-2.2c1-0.7,4.8-0.6,5,0.2c0.2,0.8,2.5,1.1,3.5,0.7
      c1-0.4,3.5,0.1,3.8,1c0.4,0.8,3.2,1.3,4,1.1c0.7-0.2,3-1.9,3.8-2c0.8-0.1,2-1,1.8-1.8c-0.2-0.8,1.7-3.2,1.9-4.2
      c0.2-1,1.9-3.6,2.5-3.8c0.6-0.2,1.9-1.3,1.8-2c-0.1-0.7-0.5-2.9-1.2-2.9s-2,0.1-0.4-2.2c1.7-2.3,4.7-1.7,5.2-1.7s4.3-1,6-0.5
      c1.7,0.5,2.8-0.2,4.6,0.7c1.8,1,4.3,0.6,4.9,1.4c0.6,0.8,3,1.6,2.6,3c-0.4,1.4,1.3,0.6,1.9,3.7c0.6,3.1,2,3.4,2.4,4.8
      c0.4,1.4,2.3,4.1,2,4.9c-0.2,0.8-0.5,2.2,1.6,2.3c2,0.1,3.5,1.7,4,1.4c0.5-0.2,2.9,0.6,4.1,1.8c1.2,1.2,3,0.6,2.9,1.9
      c-0.1,1.3,1,2.4,0.8,3.5c-0.1,1.1,2.3,1.8,4,1.6c1.7-0.2,2.9,0.6,3.6-0.8c0.7-1.4,3.1-0.8,4-1.4c0.8-0.6,3.4-1.3,3.2,0.8
      c-0.1,2.2,1.3,2.6,0.1,3.4c-1.2,0.7-1.8,3.8-2.2,5.2c-0.4,1.3-2.2,1.7-2.4,3.1c-0.2,1.4-1.9,1.6-1.9,2.6c0,1.1-2.4,0.8-3.6,0
      c-1.2-0.8-2.4,1.6-3.4,1.6s-0.8,2-0.6,2.9c0.2,0.8-0.4,1.9,0.2,3.4c0.3,0.8,0.1,2.2,0.3,3.9c1.5-1.1,2.8-1.8,3.4-1.8
      c1.5,0,3,2.6,4.7,2.6c1.7,0.1,9.3-5,9.4-5.9c0.1-0.8,4.5-5.1,6.6-7.3c2.1-2.2,4.9-5.5,5.9-8c0.7-1.6,3.6-4.6,4.3-5.8
      c0.7-1.2,1.2-1.3,2.5-4.1c1.3-2.8,1.3-10.2,1.7-10.7c0.4-0.5,0.2-1.7,0.8-2.5c0.6-0.8,0.3-1.9,1.5-2.9c1.2-1,1-1.9,0.7-2.7
      c-0.3-0.8,0.1-2.5-0.2-3.1c-0.3-0.5-0.2-0.8,0.5-1.2c0.7-0.4-0.5-1.5-1.5-2c-1-0.5-2.3-0.9-2.5-2c-0.1-1.1-1.9-2.5-3.2-2.4
      c-1.3,0.1-3.8-0.7-3.5,0.1c0.3,0.8-0.1,1.6-0.8,1.4s-1,0.4-1.7,1.6c-0.8,1.2-3.5,1.3-2.3,0.2c1.3-1.1-0.4-1.2-0.2-2.4
      c0.2-1.2,1.3-2.4-0.1-1.6c-1.4,0.8-1.4,2.6-2.5,2.9c-1.1,0.2-0.8-3.2-0.5-4.1c0.3-0.9-2.1,0.1-4.6-0.1c-2.5-0.2-1.9-1.9,0.2-3
      c2-1.1,1.7-2.1,2.7-2.5c1-0.4,3.7-2.2,5.2-3.1c1.6-0.9,1.9-1.9,2.2-2.9c0.4-1,3.2-2.3,5.8-4.4c2.6-2.1,3.8-3.3,4.4-4.6
      c0.6-1.3,4.4-2.8,4.5-3.8c0.1-1,4.6-3.4,7.6-4c3.1-0.6,7.9,0.2,8.8,1.1s1.6,0.5,2.1-0.1c0.5-0.6,1.7-0.3,3.8-0.1
      c2,0.2,2.5-1,3.9-0.5c1.4,0.4,2.5,0.7,3.4-1c0.8-1.6,4.8-1.3,5.7-0.7c0.9,0.7,1.6,1.6,3.1,0.6c1.4-1,1.4,1.3,2.8,1.4
      c1.4,0.2,0.5,1.4-0.7,1.3c-1.2-0.1-2.7,0.6-1.3,1.4c1.4,0.8,3-0.7,4.1-0.6c1.1,0.1,2.8,0.2,4.3-0.7c1.5-1,1.9,0.8,2.9-0.1
      c1-0.8,3.1-1.1,4.2-1c1.1,0.1,0.2-1.3-1.6-1.3c-1.8,0-1.7-1-0.3-3.4c1.4-2.5,4.2-3.8,5.9-5.3c1.7-1.5,3-0.8,3-1.7
      c0-1,0.8-3.7,2.2-3.7c1.3-0.1,4.6,0.5,6.7-0.6c2-1.1,1.9,0.8,2.7,1.1c0.8,0.3,2-1.7,2.9-1.1c1,0.6-1.4,2-2,3.8
      c-0.5,1.7,1.3,1.1,2.3,1.6c1,0.5-1.3,1.2-1.1,1.7c0.2,0.5,2.3,0.5,4.9-2.2c2.6-2.6,5-3.4,6.7-3.2c1.7,0.2,0.7-1.5,0.8-4
      c0.1-2.5,5.3-3.2,7-2.5c1.7,0.7,1.6,1.4-0.1,1c-1.6-0.4-3.1,1-3.1,3.1c0.1,2-1.4,2.7-0.7,3.5c0.8,0.8-1.1,1-1.2,1.8
      c-0.1,0.8,0,1.5-1.2,1.9c-1.2,0.4-5.2,0.8-5.3,2.3c-0.1,1.6-2.3,1.7-3.3,3.7c-1,1.9-4.9,3.1-7.5,6.9c-2.6,3.8-6.7,3.8-6.7,4.6
      s-2.8,0.7-3.8,0.8c-1,0.1,0.9,2.5-1.4,4.9c-2.3,2.5-3.8,5.9-3.7,9.3c0.1,3.4,1.2,13.3,2.2,15c1,1.7,0.4,6,1.3,6.9
      c0.8,0.9,0.5,2.4,1.1,2.9c0.5,0.5,2.8-2.4,4.3-3.7c1.5-1.3,1-1.7,2-2.3c1-0.7,0.6-3.4,0.9-4.1c0.3-0.7,2.2-1.1,2.8-1.9
      c0.6-0.8,2.2-0.3,3-0.6c0.8-0.3-0.1-2.3-0.4-3.4c-0.3-1.1,2.5-2.7,3.9-3.7c1.4-1,3.2,0.7,4.9-0.8c1.6-1.5-0.1-3.2-0.7-4
      c-0.6-0.8,1.6-4.6,2.9-4.9s1.9,0.9,3.1-0.2c1.2-1.1-1.1-2.8-1.9-2.7c-0.8,0.1-1.1-3.1,0.8-4.6c2-1.5,1.2-1.8-0.1-2.2
      c-1.3-0.4-1.6,0.1-2.6,0.2c-1,0.1-2-2.1-0.5-4.2c1.6-2.1,3.1-1.9,3.4-3.6c0.4-1.7,2.5-4.2,3.1-5.1s2.7,0,3.5-0.2
      c0.8-0.2,0.5,1.6,1.6,0.7c1-0.9,2.7-3.9,4.1-3.9c1.4,0,0.5,2.2,0.8,3.5c0.4,1.3,1.1-0.4,3.8-2.2c2.6-1.8,8.4-1.6,10.1-0.8
      c1.7,0.8,2,2.8,3,2.6c1.5-0.4,0.2-2,1.7-2.4c1.4-0.4,4-1.9,5.9-3.3c1.9-1.4,1.4-0.4,2.4-1.6c1-1.3,2-0.7,2.3-1.6
      c0.3-0.8,3.1-2.2,6.8-3.1c3.8-0.8,8.7-3.4,8.5-4.1c-0.2-0.8,1.4-1.1,1.6-0.4c0.2,0.8,1.6,0.5,3.6,0.9c2,0.4,2.9,1.2,4.4-0.4
      c1.6-1.6-0.2-2.1-0.1-3.3c0.1-1.2-2.7-2.5-2.3-3.7c0.4-1.3-2-4.6-2.8-4c-0.7,0.7-2.4-0.5-2.4-1.5c0-1-0.1-2.1-1.3-1.4
      c-1.1,0.7-3.1,0.4-3.4-0.7c-0.4-1.1,2.2-1.9,4-1.1s1.3,1.4,2.2,2c0.9,0.5,3.4,0.3,4.6-0.3c1.3-0.6,4.8-1.7,5.4-2.8
      c0.6-1-0.1-1.5,1.1-2.1c1.2-0.6,0.3-1.9-0.7-2.4c-1-0.5-0.8-2,0.3-2c1.1,0,0.8-1.3,1.5-1.3c0.7-0.1,0.8,0.5,2.2-0.1
      c1.3-0.7,0.1,1-0.5,2.2c-0.6,1.1,1.3,2.1,1.4,2.8c0.2,0.7,2.8,0.9,4.2,0.1c1.4-0.8,6.1,1,6.4,2.1c0.3,1.1,1,2.5,2.9,3.5
      c1.9,1,3.7,0.5,4,1.4c0.4,0.9,1.1,1.4,2.2,1.1c1.1-0.2,1.7,1,2.5,0.2c0.8-0.7,1.2,0.4,2.2-0.5c1-0.9-2.2-1.5-1.8-2.2
      c0.4-0.7,1.1,0.5,2,0.5c0.9-0.1-0.2-1.8,0.4-2c0.7-0.2,0.1-3.8-0.6-4c-0.7-0.2-0.1-1.5,1.3-0.5c1.4,1,3.5,1,4.6,1c1,0,0.1-1-1-1.1
      c-1-0.2,0.2-1,0.9-0.4c0.7,0.7,2.1,1,2.2,0.2c0.1-0.7,0.8-2.3,2.1-2.2C1373.3,212.4,1373.7,211.7,1372.5,211.3z M1037.7,290
      c-3.4,3.1-10.3,3.8-10.3,6.3s-8.3,3.8-9,2.7c-0.6-0.9,6.1-1.3,7.7-4.9c1.6-3.6,7.8-5.5,10.8-10.3c2.2-3.4,4-8.6,5.2-8.3
      C1043.5,275.9,1041.2,286.9,1037.7,290z M1053.2,149.1c-0.5,1-3.1,1-2.4,1.9c1.2,1.6,7.2,0.7,7.3-1.2
      C1058.3,147.9,1053.7,148.1,1053.2,149.1z M834.7,89.8c2.9,0,2-1.8,4-1.6c1.9,0.2,4.4,0.1,3.5-1.1c-1-1.2-7.9-0.7-7.2,0.2
      c0.7,1-5.6,0.6-5.5,1C829.7,89.1,831.9,89.8,834.7,89.8z M819.9,97.8c0-1.9-6.2,0.2-5,0.6C815.9,98.8,819.9,99.8,819.9,97.8z
       M835.3,96.3c0.4,1-0.6,1.1-3,1.1c-2.4,0-3.7,1.4-2.4,2.4c1.4,1.2,7.8,0.7,8.9-0.7s3.8-0.2,4.3-1.7
      C843.6,95.9,835,95.3,835.3,96.3z M818.9,158.7c0.1,1.2-0.6,2-2.9,2c-2.3,0,1.1,1.4,1.3,2.8c0.2,1.3-2.3,0.4-2.4,2.4
      c-0.1,2-4.4,0-5,2.6c-0.6,2.6,2.2,2.3,4.1,2.4c1.9,0.1-0.7,1.9,0.7,3s2.5,0.7,1.6-1.3c-1-2,5,0.7,3.2,2.3
      c-1.8,1.6,2.9,2.8,5.2,2.9c2.3,0.1,10.4,1.9,10.6,0c0.1-1.2-3-2.3-5.5-4.9c-2.5-2.6-4.3-7-1.4-8.8c2.9-1.8,0.4-2.6,3.2-4.7
      c2.9-2,1.2-4,3.6-4.2c2.4-0.2-0.2-2.4,2.2-2.8c2.4-0.4,2.9-3,2.5-4c-0.4-1,2.5,0.1,3.8-1.3c1.3-1.4,4.4-0.5,5.4-2.5
      c1-2,14.8-6.7,22.6-8.5c7.8-1.8,13.2-5,10.4-7.2c-2.8-2.2-10.6,0.8-12.5,2.4c-1.9,1.6-4.7,0.5-6.6,1.6c-1.9,1.1-6,2-8,0.7
      c-2-1.3-4.4,1.6-6,1.4c-1.6-0.1-3.4,1.6-5,1.4c-1.7-0.1-5,1.3-5.3,2.3c-0.2,1-3.1,0.7-3.1,1.9c0,1.2-2.3,2.3-3.5,1.2
      c-1.2-1.1-2.6,1.2-1,2.8c1.7,1.6-3.1,1.7-2.3,2.6c0.8,1-1.8,1.6-1.2,2.6c0.6,1.1-1.7,1.4-3.5,1.8c-1.8,0.4-2.8,2.8-0.5,2.9
      c2.3,0.1-1.3,0.5-1.1,2.3C822.8,158.7,818.8,157.5,818.9,158.7z M836.8,92.1c0.4-2.5-3.8-0.5-7-1.8c-3.1-1.3-5-1.2-2.9,0.6
      c1,0.8-5.3,1.5-4.3,2.5C824.9,95.7,836.4,94.6,836.8,92.1z"/>
        </g>
  <path onclick="openWindow('usa')" onmouseover="showTooltip('usa')" onmouseout="hideTooltip()" class="export usa" fill="url(#muster_export)" stroke="#FFC" d="M324.5,321.6c-0.1-1.2-3.7-0.2-5.4-1.6c-1.7-1.3-4.6,4.7-5.2,7.2
    c-0.6,2.5-5,5.3-5,5.3s-12.8,0.1-13.9,0.1c-0.7,0-3.7,2.5-5.4,4.1c0.1,0.1,0.1,0.1,0.2,0.2c1.3,2.3-3.4,3.8-7.9,4
    c-1.4,0.1-2.4,0.2-3.2,0.3c0.2,0.5,0.3,1.2,0.2,1.6c0,0.3-0.5,0.6-1.2,1c-0.7,1.4-6.2,4.1-9.3,5.7c-3.4,1.8-8.1,0.9-8.1-1.8
    c0-2.7,2.5-2.2,3.1-0.9c0.2,0.5,0.8,0.1,1.6-0.5c-0.9-0.8-0.8-2.2-0.7-3.2c-1-0.4,0.6-4.5-1.5-5.2c-2.2-0.7-4.7,3.1-4.3,0.7
    c0.4-2.3,3.6-4.3,1.6-7.4c-2-3.1-5.6-3.1-6.3-0.7s-3.2,1.3-4.1,3.1c-0.9,1.8-1.8,5.8-1.1,8.6c0.7,2.9-0.2,4.3-2.9,5.9
    c-2.7,1.6-4.1-2.5-3.1-7.7c0.7-3.6,2.7-7,0.9-7c-1.8,0,2.3-4.3,6.1-5.2c3.8-0.9,8.5-0.5,8.5-1.6c0-0.2,0.2-0.4,0.5-0.5
    c-0.8-0.6-1.6-1.2-2.3-1.6c-0.1,0.2-0.2,0.4-0.5,0.6c-1.5,1-1.1-1.6-3.8-1.6s-5.4,2.5-7.6,1.4s-1.1-2.5-3.1-2.5
    c-2,0,1.4-3.8-1.4-2.2c-2.9,1.6-7.2,5.6-9.2,3.8s-3.8,0.5-5.2-0.9c-1.4-1.4,5-5.4,8.1-5.2c0.8,0,1.4-0.3,2.1-0.8
    c-1.6-0.6-4.9-1.9-5.8-0.8c-1.1,1.3-2.6,0.5-3.5-0.6s-1.9,0.4-3.4-1.3c-1.4-1.7-2.9-0.5-3.7-0.1c-0.8,0.4-1.9-0.6-3.5-1.2
    c-1.6-0.6-0.4-2.2-1.7-3.1c-1.3-1-1.4,1.8-1.4,1.8l-111.8,0.6c0.1,0.2,0.3,0.4,0.4,0.5c1.3,1.4,0.3,2.5,0.7,4.2
    c0.4,1.7,0.1,4.1-1.3,4.1c-1.3,0-1.5-1.5-0.5-2.1c1-0.5,0.4-2.5-0.5-2.5c-0.6,0-0.8-0.7-0.8-1.5c-1.8,0.5-3.9,0.3-6.4,0
    c0,0.1,0.1,0.2,0.1,0.3c0.1,1.1,0.6,3.5,2.1,5.4s0.4,3.1,1.8,3.8s1.3,1.5,0,1.3c-1.3-0.2-0.4,1-0.8,3.7c-0.4,2.7-0.4,8.3-0.6,10
    c-0.3,1.7-2.2,4.5-1.1,6.3c1.2,1.8,2,4.3,1.3,6.6c-0.6,2.2-0.5,3.6,0.4,5.3c1,1.7,0.2,4.7,1.3,5.3c1.1,0.6,2.1,1.9,3.1,3.5
    c1,1.6,1.9,0.6,2.1,2.2c0.2,1.6,0.2,1.9,1.6,2.5c1.4,0.6,0.5,2.2,0.5,3.1s1.9,2.5,4.2,4.6c2.3,2.1,0.4,3.8,2.1,3.8s3.3,1,5,2.1
    s2.2,0.4,3.4,0.7c1.2,0.3,3.3,2.8,3.8,4.5c0.2,0.8,0.5,1.6,0.9,2.6l9.3-1.2c0,0,2.9,2,4.5,2.4c1.6,0.4,10.5,3.7,10.5,3.7l11.5-0.1
    l1.3-1.7h6.3c0,0,4,3.9,4.6,4.1c0.6,0.2,2.6,2,2.6,3.2c0,1.2,0.5,2.1,1.4,2.6c1,0.5,4.2,2.6,4.7,2.4s1.4-3.8,3.2-3.7
    c1.7,0.1,6.4,1.4,7.2,4.1c0.8,2.7,3.1,4.9,3.8,5.5c0.8,0.6,0.4,2.2,1,3.1c0.6,0.9,0.5,2.5,1.2,2.5c0.7,0,4.1,2.1,5.7,2
    c0.5,0,1.1,0.3,1.7,0.6c0.2-3.2-3.1-3.8-1.2-5.2c2.2-1.7-0.1-3.1,1-3.9c1.1-0.7,3-1.4,3-2.5s1-1.1,2.4-0.9c1.4,0.2,4.1-2.3,4-3.3
    c-0.2-1,0.3-1.2,2-0.8c1.7,0.4,1.4-2,2.5-1.6c1.1,0.4,2,1,2.1,0.2s1.2-0.6,2,0.4c0.8,1.1,3.1,1.3,3.3,0.1c0.2-1.3,1.5,0,2.7,1.3
    c1.2,1.3,1.7,0.9,3.4,1c1.7,0.1,1.7-0.4,1.8-1.4s1.9,2.3,3.6,2.5c1.7,0.2,0.4-1.1-0.9-2.1c-1.3-1,0.3-1.4-0.8-2.2
    c-1.1-0.8,1.3-1.9,3.5-1.8c2.2,0.1,2.1,0.6,2.9-0.6c0.8-1.3,1.6,0,1.6,1.1s3.5-0.6,5.4-0.6c1.9,0,3.6,1.6,3.8,2.7
    c0.2,1.1,1.4,1.6,2.8,0.4c1.3-1.2,2.5-2.5,3.8-1.3c1.3,1.3,2.5,3,4,4.5c1.5,1.5-0.7,3.4,0.1,4.6c0.8,1.2-0.1,2.8,1.7,4
    s0.2,3.9,1.6,4.2s2.6,2.6,2.8,3.5s2.9,2.1,3.1,0.5s1.6-3.3,1.8-4.8s-1.1-6.6-2.2-8.2s0.3-2-1.2-3.9c-1.4-1.9-2.3-5.2-2.2-7.9
    c0.1-2.7,3.2-7.1,4.8-8.5c1.5-1.3,3.2-0.6,3.6-2.1s2.2-3.2,3.3-3.2s2.2,0.3,2.4-0.9c0.2-1.2,2-2.6,4.3-3c2.3-0.4,1-1.6,0.4-2.7
    c-0.6-1.1,0.5-2.2,1-1.4c0.4,0.7,1.9,0.8,2.8,0.2c0.9-0.6,3-2.3,1-2.4c-2-0.1-2.4-0.9-1.3-1.3c1.2-0.4,0.2-2.6-1.4-2.8
    c-1.6-0.2-1.1-1-0.1-2s-1.4-2.6-2.6-3.4c-1.2-0.8,0.7-1.3,1.6-1.4c0.9-0.2,0.2-4.3,0.6-5.3c0.4-1,2-1,1.3,0c-0.6,1-1.5,2.6-0.4,4
    c1.2,1.3,1.5,2.8,1.1,4.9c-0.4,2.1,0.4,1.5,1.8-1.2c1.3-2.7,1.5-5,0.6-5.3c-0.9-0.3-0.8-3,0.2-1.7c1,1.3,1.3,1.4,2.9-0.2
    c1.5-1.6,3.1-4.4,2.2-5c-1-0.6,0.4-1.3,2.2-1.2c1.8,0.1,5.7-1.1,5.9-1.6c0.9-1.8-6.2,0.8-6.2-0.2s4.5-2,6.6-2.1
    c2.1-0.1,1.1-2.9,2-1.7c0.9,1.2,2.2,1,3.4,0.3s0.3-2.8-1.1-3.1s1-1.3,0.5-2.1s0.9-4,2.6-4.4s0.9-1.4,2.3-1.4s1.7-1.7,3-3
    s3.1,2,5,0.2c0.8-0.7,1.9-1.6,3-2.3C323.3,326.8,324.6,322.7,324.5,321.6z"

/>
  <path onclick="openWindow('uk')" onmouseover="showTooltip('united kindom')" onmouseout="hideTooltip()" class="export uk" fill="url(#muster_export)" stroke="#FFC" d="M609.5,292.7c0.1-1.8-3.8-3.1-4.3-2.1c-0.4,1-1.3,0.8-2-0.2
    c-0.7-1.1,0.6-2.1-0.1-2.2c-0.7-0.1-1.5-1.6-1.3-2.2c0.2-0.6-1-4.4-3.1-4.9c-2-0.5-2.3-3.4-2.7-4.9c-0.4-1.6-1.7-0.7-2.7-2
    c-1-1.3-2.8-0.7-3.7-0.6c-0.9,0.1,0-1.7,1.4-2.6c1.4-1,3.1-6.1,3.1-7.1c0-1-6.3-1-7.5-0.4c-1.2,0.6-2.4-0.9-1.4-1.3
    c1-0.4,3.2-2.5,3.1-3.4c-0.1-0.8,1.5-1.6,0.6-2.4c-0.9-0.8-1,1-1.8,1.6c-0.8,0.6-2.5,0.4-4.4,0.1c-1.9-0.4-2.6,2.3-2.5,3.4
    c0.1,1.1-2.2,1.8-1.8,2.8c0.4,1-0.4,1.7-1,1.1c-0.6-0.5-1.3-1.9-2.5-0.9c-1.2,1,1.4,2.2,2.9,2.4c1.6,0.2-1.2,1.3-1.5,3
    c-0.3,1.7,2,1,2.2,2.2c0.1,1.2-3.4,1.4-3.4,2.5c0,1.1,2-0.5,2.9-1c0.9-0.5-0.5,2.8,1.7,2.5s1.6-3.3,2.3-3.2
    c0.8,0.1-0.4,1.6,0.3,2.8c0.7,1.3-1.6,3.2-1.4,4.1c0.1,0.9,4.4,0.9,5.8-0.5c1.4-1.4,2,0.1,1.1,1.2c-1,1.1-0.5,2.1,0.7,2.5
    c1.2,0.4,1.6,0.5,1.1,1.5c-0.5,1-0.1,2.8-0.4,3.7c-0.3,0.9-4,0.8-4.1,0.2c-0.1-0.6-1.7-0.2-1.3,0.7c0.4,0.8-1.3,1.7-1.2,2.5
    c0.1,0.8,2.3,0.6,2.4,1.6c0.1,1-1.6,2.1-3.9,2.8c-2.3,0.7,0.5,2.5,1.6,1.7c1.1-0.8,0.8,0.5,2.4,0.5c1.6,0,2.5,1.3,4.3,0.6
    c1.7-0.7,1.7,0,0.4,1c-1.3,1-3.3-0.1-4.5,0.6c-1.2,0.7-6.1,5.2-5.2,6.4c0.5,0.7,1.3-1,3-1.7c1.7-0.7,2,0.5,3,0.6c1,0.1,1-2,1.8-1.8
    c0.8,0.2,1.5-0.7,2.9-0.4c1.4,0.2,2.5-0.3,3.2-0.9c0.7-0.6,2.6,1.2,3.2,0.8c0.6-0.4,3.2-0.9,4.6-0.8c1.3,0.1,4.7-1.5,5.6-2.3
    c0.9-0.8-0.5-1-1.7-0.8c-1.2,0.2-1-1.2,0.3-2.4C607.4,295.4,609.4,294.5,609.5,292.7z
    M576.7,277.9c-1.5-1.5-3.5,0.8-5.1,0.8c-0.3,1.2-0.7,2-1.1,2.3
      c-0.6,0.5-1.8,2.2-0.9,2.4c0.9,0.2,2.4,1.6,2.5,0.5c0.2-1.1,0.8-2.5,2.4-0.7c0.4,0.4,0.8,0.8,1.3,1.2c0.2-0.8,2.1-1,3.1-2
      C580.2,281.2,578.4,279.5,576.7,277.9z"/>

  <path onclick="openWindow('france')" onmouseover="showTooltip('france')" onmouseout="hideTooltip()" class="export france" fill="url(#muster_export)" stroke="#FFC" d="M634.2,311.9c-0.5,0.1-1-0.7-2.2-0.7s-2.1-0.5-2.6-1.3
    c-0.5-0.7-3.3-0.9-4.2-0.7c-0.9,0.2-1.2-1.5-2.1-1.3c-0.9,0.2-1.2-1.2-1.2-1.9c0-0.7-1,0.5-1.8,0.9s-1.1-0.8-1.2-1.3
    s-1.7-1.1-2.5-1.5c-0.8-0.4-1.7-1.9-2.1-1.3c-0.4,0.6-1.3-0.9-1.4-1.5c-0.1-0.4-0.3-0.3-0.5-0.5c-0.3,0.1-0.6,0.1-0.9,0.1
    c-1.4-0.1-2.7,1.1-2.5,3.5c0.2,2.4-1.7,2.6-4.2,2.8c-2.5,0.2-1.6,2.1-2.6,2.9c-1,0.8-4.6-0.4-5.1-1.7c-0.5-1.3-3.7,0-2.3,1.6
    c1.4,1.6,1.3,3.7,0.5,4.3c-0.8,0.6-2.5-1-3.5-0.2c-1.1,0.8-1.1-0.7-2.5-1.2c-1.3-0.5-1.9,0.6-4,0.4c-2.1-0.2-3.3,1-2.5,1.9
    c0.8,0.9-0.1,1.7,0.5,2.5c0.6,0.8,3.4,0.7,5.4,1.7c2,1.1,2.5,0.2,3.5,1c1,0.8,1.3,0.3,1.3,1.8c0.1,1.5,1.2,2.9,3.2,3.5
    c2,0.5,0.5,1.9,1.1,3.2c0.6,1.3-0.9,3.2-0.6,4.9c0.3,1.6-1,6.8-1.9,7.3c-0.1,0-0.2,0-0.2,0c0.9,0.4,1.8,0.8,2.3,1.1
    c0.9,0.6,2.8,1.2,3.9,1.9c1.2,0.7,3.2,0.6,3.2-0.3c0-0.9,1.2-0.3,1.9,0.4c0.7,0.7,3.5,0.9,4.8,1.2c1.1,0.2,2.7,0.1,4.2,0.1
    c-0.1-0.3-0.1-0.7-0.2-1c-0.7-2.3,1.4-3.7,3.4-4c2-0.3,6.3,0.9,7.4,1.6c1.1,0.7,2.7,0.5,4.7-1.6c1-1.1,1.8-1.4,2.5-1.7
    c0.1-0.5,0.3-1,0.5-1.4c0.3-0.7-1-0.5-1.9-0.6c-0.9-0.1-1.5-1-0.9-2c0.6-1-0.5-1.1-1.2-2.1s0.3-0.7,0.8-1c0.5-0.3,1.3-1.3,0.8-1.6
    c-0.4-0.3-0.8-0.9-0.4-2s-0.7-1.2-0.7-2c0-0.8-1-1.2-1.8-0.2c-0.8,1-1.1,0.3-0.5-1.3c0.5-1.6,2.4-2.3,2.6-3.2
    c0.2-0.9,1.3-1.7,2.1-1.7c0.8,0,0.6-1.9,0.9-3.1s0.4-2.3,1.6-3.3S634.7,311.8,634.2,311.9z"/>
  <path onclick="openWindow('germany')" onmouseover="showTooltip('germany')" onmouseout="hideTooltip()" class="export germany" fill="url(#muster_export)" stroke="#FFC" d="M631.5,290.4c-1,1.4-2.3,1.6-2,1.9c0.2,0.4,1.7,1.6,1.3,2.2
    c-0.4,0.6-0.8,0.2-0.8,1.3s-1.7,1.1-2.3,1.1c-0.6,0,0.1,1.1-0.2,1.9c-0.4,0.8-0.4,2.5-0.5,3.2c-0.1,0.7,1.2,1.9,1.1,2.5
    c-0.1,0.6-1.1,1.1-0.8,1.6c0.2,0.5,1.1,1.1,1.3,3.4c0.4,0.1,0.8,0.3,0.9,0.5c0.5,0.7,1.4,1.3,2.6,1.3s1.6,0.8,2.2,0.7
    c0.5-0.1,2,0.4,0.8,1.3s-1.3,2.2-1.6,3.3c-0.2,0.8-0.2,1.8-0.4,2.5c1.1,0.1,2.8,0.2,3.4-0.1c1-0.5,1.6-0.5,2.8-0.1
    c0.7,0.2,1.7,0.7,2.3,1c0.1-0.2,0.2-0.4,0.4-0.5c0.8-0.1,1.8,1.5,2.3,0.6c0.5-0.9,1.8-0.7,2.4-0.4c0.6,0.4,1.6,0.5,2.3-0.2
    c0.7-0.7,3.5-1.1,4.1-0.8c0.6,0.3,2.2,1,1.6-1.2c-0.6-2.2,1.3-1.7,1.6-2.5c0.3-0.8,2.6-1.2,2.2-1.8c-0.4-0.6-3.3-2.5-4.2-3.1
    c-0.9-0.6-0.9-2.6-1.3-3.4c-0.4-0.8-1.4-1.9-0.3-2.2c1.2-0.3,3.2-0.7,4.2-1.6c1-0.9,2.8-1,3.3-1.5c0.5-0.5,1.8,0.4,2.2-0.1
    s0.6-1.6,0.1-2.2c-0.5-0.6-0.9-1.7-1-3.2c-0.1-1.5-0.5-1.4-0.5-2.2s-0.3-1.6-0.9-2c-0.6-0.4-0.9-0.6-0.3-1.6c0.6-1,0.4-3.5,0.1-4.2
    c-0.1-0.1,0-0.3,0-0.5c-0.2-0.1-0.3-0.2-0.3-0.5c-0.2-1-0.8-1.3-2.4-1.3c-1.6,0,1-1.6,0.4-2.3c-0.6-0.8-2.2,1.4-3.6,1
    c-1.4-0.5-3.3,1.7-4.6,2.6c-1.3,1-3.1-0.2-2.1-1.6c1-1.4,0-1.3-1.4-0.7s-3.2-0.1-3-1.4c0-0.3-0.1-0.6-0.2-0.9
    c-0.7,0.1-1.2,0.1-1.5,0c-0.6-0.2-2.1-0.3-3.7-0.4c0.5,0.7,1,1.4,0.7,1.9c-0.5,1,0.3,2,1.1,3.5c0.8,1.5-1.7,0.7-1.7,1.6
    c-0.1,1-2.3-0.1-3-0.4s-3.1-0.1-3.1,0.5c0,0.2,0,0.6-0.1,0.8C631.7,288.8,631.9,289.9,631.5,290.4z"/>
  <path onclick="openWindow('spain')" onmouseover="showTooltip('spain')" onmouseout="hideTooltip()" class="export spain" fill="url(#muster_export)" stroke="#FFC" d="M615.4,345.4c-1.4,0-3.1,0.1-4.2-0.1c-1.3-0.3-4.1-0.4-4.8-1.2
    c-0.7-0.7-1.9-1.3-1.9-0.4c0,0.9-2,1-3.2,0.3c-1.2-0.7-3.1-1.3-3.9-1.9c-0.5-0.3-1.4-0.7-2.3-1.1c-1.2,0.2-4.7-1-7-0.8
    c-2.5,0.3-10.3-0.4-13.4-0.1c-3.1,0.2-3.2-1.3-4.9-1.3c-1.7,0-1,2-3.4,2.1c-2.4,0.1-2.6,1.6-0.9,2.9c1,0.8,0.9,2.4,0.7,4
    c0.5-0.1,0.9-0.2,1.1-0.5c0.7-0.9,1.5-0.7,1.5,0.1c0,0.9,1.6,0.6,2.5,0.6s0.6,0.7,1.6,0c1-0.7,2.5-0.4,2.5,0.4c0,0.9,2.2,0.4,1,1.6
    c-1.2,1.2-2.6,1.5-2.6,2.3c0,0.9,1.3,2.8,0.3,3.8c-1,1,0.3,2.8-0.7,2.8c-1,0-2.2,0.4-1,1.6c1.2,1.2,2,2.2,1.2,2.2s-1.5,1.8-1,2.2
    c0.4,0.4,2.5,1.8,0.9,2c-1.6,0.3-1.6,1.6-1.6,2.5c0,0.3,0.3,0.8,0.6,1.3c0.7-0.1,1.5-0.2,2.2,0.2c1.7,0.8,2.7,5,4.9,4.7
    c1-0.1,0.5-0.8,1-1.3c0.5-0.5,1.4-0.1,2.3-0.1c1,0,1.4-1.4,3.7-1.4c2.3-0.1,3.7-0.2,5.2-0.2c1.4,0.1,2.6-0.4,2.9-1.4
    c0.4-1,1.6-1.9,3.2-2.2c1.6-0.2,1.4-1.9,1.5-2.9c0.1-1,2.8-2.4,3-3.1c0.2-0.7-1.6-3.5,0.1-5.9c1.6-2.5,3.4-2.6,3.4-4
    c0-1.3,1.7-1.7,3.7-2c2-0.2,2.7-1.6,4.4-2.3C615.2,348.2,615.7,347.1,615.4,345.4z"/>
  <path onclick="openWindow('ukraine')" onmouseover="showTooltip('ukraine')" onmouseout="hideTooltip()" class="export ukraine" fill="url(#muster_export)" stroke="#FFC" d="M755.2,319.4c0.6-0.1,2.5-2.2,3.1-2.2s3.3,0.5,3.3,0.1
    c0-0.4,0.9-2,0.7-2.4c-0.2-0.4-1.1-1.1-0.9-1.5c0.2-0.4,1.4-0.4,1.4-1s-1-0.8-1-1.2s1.3-1,1.2-1.7c-0.1-0.7-1.2-0.8-2.3-1.4
    c-1.2-0.6-2.3-0.4-3.4-0.9s-3.3-0.2-3.3-0.5s-1.4-1.5-1.8-2.2c-0.4-0.6-1.5-0.3-2.2,0.2c-0.7,0.4-1.3,0.6-2.1,0.2
    c-0.7-0.4-1.3-1.2-2-0.9c-0.6,0.3-1.8,0.1-1.5-0.8s-1.2-2.9-1.8-3.1c-0.6-0.3-2.5,0.2-3-0.7c-0.4-0.9-1.3-1.6-0.9-2.2
    c0.4-0.6-0.1-2.3-0.5-3.1c-0.4-0.7-2.7-0.6-3.3-0.4c-0.6,0.3-2.1-0.3-2.7,0.1s-1,1-1.9,1c-0.5,0-0.8-0.1-1.1-0.5
    c-1,0.4-2.6,0.5-2.6,0.5s-2.4,1.9-2.4,2.6s-0.1,1.9-0.7,1.3c-0.6-0.6-3.1-0.6-3.7-0.2c-0.6,0.4-1.6-1.4-2.6-0.8
    c-1.1,0.6-2.5-0.8-2.6-0.2c-0.1,0.6-1.7,0.1-2.8-0.4c-1.1-0.5-3,0.2-3.7-0.6c-0.7-0.8-5.4-0.8-7-0.8c-1.6,0-1.9,0.8-2.6,1.6
    c-0.7,0.7-1.4,0.5-2.2,0.5c0.1,0.6,0.2,1.1,0.3,1.4c0.4,0.5,2.1,3.1,1.6,4s-1.3,0.8-1.8,1.4c-0.5,0.6-3.7,3.4-3.8,3.9
    c-0.1,0.4,0.5,2.4,0.1,2.8s-1.8,2.2-1.8,3s1,1.7,1.8,2c0.3,0.1,0.6,0.3,0.7,0.5c0.6-0.1,1.2-0.1,1.6-0.1c0.6,0,3.2,0.7,4.1,0.7
    c0.8,0,2,0.4,2.4,0.7s1.2,0.1,1.8-0.5c0.6-0.6,1.3-0.2,2-0.2s1.9-0.6,2.3-1.2c0.4-0.6,4-1.6,4.9-1.7c1-0.1,2.4,1.8,3.2,1.8
    c0.8,0,2.4,0.6,2.9,2.2c0.5,1.6,1.9,3.5,2.5,4.1c0.6,0.6,1,2.2,1,2.6c0,0.5-1.3-0.1-2.8-0.5s-1.6,1.1-1.6,1.8c0,0.7-2,3.2-2.4,3.7
    c-0.4,0.5,0.7,0.8,1.6,1c0.4,0.1,1.8-1,2.3-1c0.2,0,0.8,0.5,1.4,1c-0.1-1.9,0.3-1.8,1.9-3c1.7-1.3,1.9-3.8,3.5-4.1
    c1.6-0.3,2.2-1,4.5-0.7c2.3,0.4-1.1,1.8,0.4,2.6c1.6,0.8,6.4-0.2,6.6,1c0.2,1.2-5.5,2.4-5.4,3c0.1,0.6,3.1,1.2,4.1,1.9
    c1,0.7-0.3,2.5,0.2,3.1c0.5,0.6,2,0.1,3.3-0.8c1.3-0.9,2.3-0.6,3.9-1.7c1.6-1.1,5-0.1,5.4-0.8c0.4-0.7-1-1.3-4.1-1.1
    c-3.1,0.2-3.3-2.7-3.3-3.3c0-0.6,3.2-3.1,5.1-3.2c1.9-0.2,3.4-0.7,5.2-1.6c0.7-0.3,2-0.7,3.3-0.9
    C754.9,320.5,754.6,319.5,755.2,319.4z"/>
  <path onclick="openWindow('china')" onmouseover="showTooltip('china')" onmouseout="hideTooltip()" class="export china" fill="url(#muster_export)" stroke="#FFC" d="M1144,318.1c0.1-2.2-2.4-1.4-3.2-0.8
    c-0.8,0.6-3.2,0-4,1.4c-0.7,1.4-1.9,0.6-3.6,0.8c-1.7,0.2-4.1-0.5-4-1.6c0.1-1.1-1-2.2-0.8-3.5c0.1-1.3-1.7-0.7-2.9-1.9
    c-1.2-1.2-3.6-2-4.1-1.8c-0.5,0.2-1.9-1.3-4-1.4c-2-0.1-1.8-1.4-1.6-2.3c0.2-0.8-1.7-3.5-2-4.9c-0.4-1.4-1.8-1.7-2.4-4.8
    c-0.6-3.1-2.3-2.3-1.9-3.7c0.4-1.4-2-2.2-2.6-3c-0.6-0.8-3.1-0.5-4.9-1.4c-1.8-1-2.9-0.2-4.6-0.7c-1.7-0.5-5.5,0.5-6,0.5
    s-3.5-0.6-5.2,1.7c-1.7,2.3-0.4,2.2,0.4,2.2s1.1,2.2,1.2,2.9c0.1,0.7-1.2,1.8-1.8,2c-0.6,0.2-2.3,2.9-2.5,3.8
    c-0.2,1-2.2,3.4-1.9,4.2c0.2,0.8-1,1.7-1.8,1.8c-0.8,0.1-3.1,1.8-3.8,2c-0.7,0.2-3.6-0.2-4-1.1c-0.1-0.3-0.5-0.5-0.9-0.7l-3.2,6.5
    l-0.3,2.1c0,0-2.1,0.5-0.5,2.1c1.6,1.6,1.8,0.3,4.2,0.3c2.4,0,3.4,1.8,3.9,0.5s2.6-2.1,3.9-0.5c1.3,1.6,5.5,4.2,5.2,5.5
    c-0.3,1.3-2.6,1-4.2,0.5c-1.6-0.5-3.7,1-5.2,1s-3.4,0.5-5,2.1c-1.6,1.6-1.3,3.1-3.7,3.4c-2.4,0.3-3.4,0-6,1.8
    c-2.6,1.8-5.5,1-6.5,0.5c-1-0.5-2.9-0.8-3.9,1c-1,1.8,1.3,2.6,1,4.7c-0.3,2.1-2.9,1.6-5,3.9c-2.1,2.4-5.5,3.4-7.3,3.1
    s-5.8-1.3-9.1,0.3c-3.4,1.6-5.8,3.9-7.1,3.7c-1.3-0.3-1.3-1.8-3.1-1.6c-1.8,0.3-2.9-0.3-4.2-1c-1.3-0.8-2.4,0.5-4.4-1
    c-2.1-1.6-5.8-1.3-7.3-1.6c-1.6-0.3-7.6,0-9.7-0.3c-2.1-0.3-5,0.5-5.2-0.5c-0.3-1-1.8-1.8-2.4-4.2c-0.5-2.4-1.8-3.1-3.1-3.4
    c-1.3-0.3-1.5-1.6-2.6-1.8c-0.6-0.1-1.2-1.8-3-1.8s-8.2-0.7-9.1-2.2c-0.9-1.5,0.9-1.8,0.9-3.3c0-1.5,1-3.5,0.3-4.1
    c-0.7-0.6-2-1.9-2.2-3.1c-0.2-1.2-2.2-2.7-3.5-2.8c-1.3-0.1-2.4-0.9-3.7-2c-1.2-1.1-2.4-1-2.9-3.7c0-0.2-0.1-0.3-0.1-0.5
    c-0.5-0.1-1.1-0.2-1.6-0.2c-0.3,0-0.7-0.3-1.1-0.6c-0.3,1.1-1.4,1.7-1.4,2.6c0,1-0.4,2.2-1.7,2.2c-1.3,0-2.6,1-2.7,3.1
    c-0.1,2.1,1.2,2.3,0.6,3.2c-0.6,0.9-3,1.8-3.8,1.4c-0.8-0.4-2.4-0.2-3.7-0.3c-1.3-0.2-2.3-1.8-2.7,0c-0.4,1.8-3.2,7.2-2.5,7.8
    c0.7,0.6,1.2,1.9,0,1.9c-1.2,0-2.3-0.2-2.9-0.7c-0.6-0.6-2.5,0.8-3.8,0.7c-0.6,0-3.2,1.1-2.3,1.6c0.9,0.4,0.9,2.6,0.9,3.5
    s2,3.6,1.6,4.5s-2.2,1.9-2.2,3.1c0,1.2,0.4,2.2-0.3,2.5c-0.6,0.3-2.6,1.1-3.6,1.8c-1,0.7-2.6,0.7-3.1,1.8s-1.4,2-3.2,1.8
    c-1.6-0.2-2.4-0.4-3.7,1.1c-1.3,1.5-1.5,0.9-2.4,1.6c-0.9,0.7-1.8-0.5-2.5-0.8c-0.7-0.3-1.7,0.8-2.4,0.8s-1.3,1.2-2.2,1.4
    c-0.9,0.3-1.8,0-1.8,1.1c0,0.7-0.2,1.4-0.7,2h0l0.6,3.5c0,0,3.8,1.3,4,2.6c0.2,1.3,0.8,5.4,0.8,5.4s0,0-0.1,0
    c1.6,1.2,3.7,2.5,3.7,3c0,0.5,0.2,2.2,2.1,3.1c1.2,0.6,2.4,1.2,3.2,1.7c0.1-0.2,0.2-0.4,0.2-0.4l1.6-0.2c0,0,0.5,0.3,0.9,0.8
    c0.4-1.3,3.2-2.7,4.6-2.6c1.5,0.1,5,2.9,4.7,3.9c-0.4,1-2.9,4.6-4,4.9c-0.4,0.1-1.1,0.2-1.7,0.2c-0.1,0.6-0.3,1.1-0.3,1.4
    c0,0.8,1.4,2.1,2.2,3.5c0.8,1.4-1.3,2.4-2.4,1.4c-1.1-1-1.6,1-1,1.8c0.6,0.8,0.3,3,1.4,3.2c1.1,0.2,2.1,2.4,3.4,2.4
    c1.3,0,2.4,2.1,2.4,2.1s1.8,1.1,1.8,1.8c0,0.1,0,0.2-0.1,0.2c1.4-0.1,2.3-0.2,2.5-0.8c0.2-0.6,2-0.6,3.2,0.6c1.3,1.3,6.4,4.5,8.3,6
    s6.3,3.2,7.8,3.1c1.5-0.1,3,1.1,5.3,1c0.4,0,0.7,0,0.9,0c0.3-0.4,0.9-0.4,1.3-1c0.6-1,1.6,0.8,1.3,2.1c-0.1,0.6,0,1.3,0.2,1.8
    c0.3-0.5,0.7-1.1,0.9-1.7c0.8-2,2.1-1.9,2.9-2.5c0.8-0.6,1.6-0.4,3.3,0.5c1.6,0.8,2.3-0.9,4.7,1.3c0.5-0.2,1.1-0.5,1.4-0.5
    c0.5,0,1.1-1,1.9-1.8c0.8-0.8,0.6-1.8,1.6-1.6c1,0.2,1.4-1.1,3.5-2.2c2.1-1.1,3.8,0.6,4.8-0.2c1-0.8,2.1-1.1,2.1-0.3
    c0,0.8,1.3,1.8,1.6,2.7c0.3,0.9,2,1.2,2.3,1.3c0.3-0.2,0.5-0.3,0.7-0.4c1-0.7,2.7,0.1,2.7,1.2s0.1,2.2,0.9,2.2c0.8,0,1.6,0,1.6,2
    s0.7,4.2-1,5.9c-1.7,1.7-3.7,4.8-3.3,5.7s-0.5,2.6,0.7,2c1.3-0.6,4.1,0,3.7,0.7c-0.4,0.7,0.1,3.2,1.3,3.3c1.2,0.1,1.9,0.7,1.5,1.8
    s-1,2.7,0,2.7c1,0,2.4,0,2.2,1.1c-0.2,1.1,0.7,2.1,2.5,1.3c1.1-0.4,1.6-0.8,1.8-0.4c0.7,0,0.8,1.6,2,1.9c1.3,0.3,0.6-2.7,0.2-3.2
    c-0.5-0.5,0.2-2.6,0.6-2.1c0.5,0.5,1.9,0,2.7-1c0.8-1,2.4,0.8,3-0.3c0.6-1.1,2.1,0.8,3.5,0c1.4-0.8,2.1,0.6,2.7-0.5
    c0.6-1.1,2.7-2.6,3.2-2.1c0.5,0.5,0.8,1.4,3.4,1.8c2.6,0.3,1.1,1.6,1.1,2.4c0,0.8,2.9,2.9,4,3c0.2,0,0.5,0.3,0.8,0.7
    c0.8-0.4,2.2,0.3,2.5-0.7c0.4-1.1,1.7-0.8,2.2,0.1c0.5,0.9,1.1,1.1,2.3,0c1.2-1.1,1.8,1.1,1.1,1.7c-0.7,0.6-0.2,2.5,0.9,3.5
    c1.1,1.1,1.3-0.7,1.1-1.7c-0.2-1.1,1.9-2.2,5.7-3.4c3.8-1.3,7.9-4,7.9-4.6c0.1-0.6,2.7,1.1,4,0.1c1.3-1,5.8-1.1,7-1.1
    c1.2-0.1,1.1-1.1,2.4-2.1c1.3-1,1-1.5,2.4-1.9c1.4-0.4,2.3-1.7,2.3-2.5s2.7-1,2.8-1.7c0.1-0.8,2-1,2-2c0-1,1.2-0.8,1.7-1.5
    c0.5-0.7-0.4-2.8,0.5-3.1c1-0.3-0.4-1.4-0.5-2c-0.2-0.5,1.8-0.7,2.8-1.3c1-0.7,1.7-1.7,1.9-2.8c0.2-1.1,1.9-2.2,2.6-2.5
    c0.8-0.3,1.1-1.9,0.8-3.3c-0.2-1.4,1.4-1,0.7-1.6c-0.7-0.5,0.3-2,1.7-2.5c1.4-0.4-0.9-1.1-1.7-0.5c-0.8,0.6-1.6-1.7-2.3-0.8
    s-2.8-0.5-1.4-0.8c1.3-0.3,3.4-1.8,4.3-2.1c0.9-0.3-1.3-2.3-2.5-2.2c-1.1,0.1-2.4-2.6-3.6-2.6c-1.2,0,0.9-0.8,2.3-0.1
    c1.4,0.7,3,1.3,3.6,0.7c0.6-0.6-2.3-3-3.4-3.8c-1.1-0.8-0.1-2-0.7-2.5c-0.7-0.5-2.1-3.5-2.6-4.9c-0.5-1.4-3-1.6-3.6-2.5
    c-0.6-0.9,0.1-3,1.9-3.8c1.9-0.8,1.1-2.3,1.9-2.2c0.8,0.2,1.6-0.2,2.2-1.6c0.7-1.4,1.8-0.5,2.5-1.3c0.7-0.7,3.6-0.7,4.6-1.4
    c1-0.7-1-2.9-2.3-2.6c-1.4,0.4-3-0.2-4-1.6c-1-1.4-3.5,2.6-5.4,3.5c-1.9,0.9-3.2-1.6-2.5-3.2c0.7-1.6-1.5-1.6-4.2-1.4
    c-2.7,0.1-1.7-4.8-0.1-5c1.6-0.2,4,1.5,5-1.5c1-3,2.5-0.7,4.7-3.3c2.3-2.6,4.9-4.3,6.9-2.7c2,1.6-2.1,4-2.8,5.5
    c-0.7,1.5,0.6,2-0.6,3.1c-1.2,1.1,0.5,1.4,2.8-0.1c2.3-1.5,5.2-3.3,7.5-4.2c0.6-0.2,1.3-0.3,2-0.2c0.3-0.9,0.7-1.6,1.1-1.8
    c1.6-0.8,6.8-3.1,7.6-4.2c0.8-1,1.6-2.9,2.6-2.9c1,0,1,1,2.6,1c1.6,0,3.4,0.5,2.6-0.8c-0.8-1.3-0.3-1.3,1.6-1.6
    c1.8-0.3,1.6-2.1,2.9-2.1c1.3,0,1-3.1,2.4-3.1c1.3,0,1.8,1.8,3.4,1.3c0.3-0.1,0.7,0,1.1,0.2c0.3-0.3,0.7-0.5,1-0.7
    c-0.2-1.6,0-3.1-0.3-3.9c-0.6-1.4,0-2.5-0.2-3.4c-0.2-0.8-0.4-2.9,0.6-2.9s2.2-2.4,3.4-1.6c1.2,0.8,3.6,1.1,3.6,0
    c0-1.1,1.7-1.2,1.9-2.6c0.2-1.4,2-1.8,2.4-3.1c0.4-1.3,1-4.4,2.2-5.2C1145.4,320.8,1143.9,320.3,1144,318.1z"/>
  <path onclick="openWindow('israel')" onmouseover="showTooltip('israel')" onmouseout="hideTooltip()" class="export israel" fill="url(#muster_export)" stroke="#FFC" d="M741.2,405.1c0.1,0.1,0.3,0.2,0.4,0.2c0.3-2.4,0.9-5.3,1.3-5.9
    c0.2-0.3,0.4-1.1,0.5-2c-1.1-1.1-1.5-2.3-1.5-2.6c0-0.4,0.2-2.7,0.9-2.9c0.2-0.1,0.6-0.1,1.2,0c0.1-0.7,0.2-1.8,0.3-2.7l-2-0.9
    c-0.3,0.7-0.6,1.3-0.6,1.9c-0.3,2.2-2.3,5.7-3.2,7.2l2.9,7.1L741.2,405.1z"/>
  <path onclick="openWindow('italy')" onmouseover="showTooltip('italy')" onmouseout="hideTooltip()" class="export italy" fill="url(#muster_export)" stroke="#FFC" d="M661.5,366c-2.5,0.5-3.5,0.7-4.9,0c-1.4-0.7-3.8,0.7-3.4,1.6
    c0.2,0.7,1.2,1.5,4.2,2.3c3,0.8,3.4,2.8,4.6,2.9c1.3,0.1,1.4-1.1,1.1-2.8c-0.3-1.6,1.5-3.5,1.7-3.8C664.9,366,664,365.5,661.5,366z
     M638.3,352.4c-1.3,1.1-2.4-0.2-2.9,0.7c-0.7,1.1,2,2.9,1.5,5.2c-0.5,2.3,0.3,5.3,1.7,3.9c1.4-1.4,2-0.7,2.8-1.7
    c0.8-1,0.1-4.8,0.7-6.6C642.6,352.1,639.6,351.3,638.3,352.4z M667.7,350.5c-1.6-1-0.5-2.5-3-2.4c-2.5,0.1-5.4-2.9-6.3-6.5
    c-0.9-3.5-4.7-3.7-5.7-5.8c-1-2.1,0.9-2.3,0.1-4.1c-0.5-1,0.6-1.8,1.8-2.3c-0.1-1.9,0.1-4,0.2-5.4c-1-0.1-1.8-0.2-2.1-0.4
    c-0.4-0.3-0.5-1.7-0.8-1.7s-2.8,0-3.2,0.4s-1.8,1.3-2.5,0.8c-0.2-0.1-0.3-0.2-0.5-0.3l-0.8,0.7c0,0-0.1,1-0.6,1
    c-0.5,0-1.2-0.4-1.2,0.5c0,0.8-1.3,0.6-1.9,0.5c-0.6-0.1-1.4,0.1-1.4,0.8s-0.1,2.3-1.1,1.4c-1-0.8-1.9-3-2.3-2.8
    c-0.4,0.2-1.2,2.9-2,2.9c-0.5,0-2.2,0.1-3.5,0.2c-0.3,1,0,1.7,0.5,1.9c0.4,0.3-0.3,1.3-0.8,1.6c-0.5,0.3-1.4,0-0.8,1
    s1.8,1.1,1.2,2.1c-0.6,1,0,1.9,0.9,2c0.9,0.1,2.2-0.1,1.9,0.6c-0.2,0.4-0.4,0.9-0.5,1.4c0.7-0.2,1.3-0.2,2-0.6
    c1.3-0.7,0.7-1.8,2.8-2.4c2.1-0.6,4.9,1.1,5.7,2.4c0.8,1.3,1.1,1.4,1.3,2.4c0.2,1,1,3.1,3.8,4.9c2.9,1.9,4,4,5.5,4.7
    c1.5,0.8,3,0.6,3.9,1.7c0.9,1.1,2.1,1.7,3.5,2.3c1.4,0.7,1.5,2.2,2.9,2.4c1.4,0.2,0.5,1.4,1.3,2.4c0.8,1,1.1,3.2,0.2,4.4
    c-0.9,1.2-0.4,3.2,0.2,3.2c0.6,0,1.9-2.2,2-3.4c0.2-1.2,1.4-1.1,2.3-2.4c1-1.3-1.4-1.6-1.9-3.2c-0.4-1.6,1.8-3.1,3.9-1.7
    c2.1,1.3,2.9,2.2,3.1,0.2C675.8,354.2,669.2,351.5,667.7,350.5z"/>

  </g>
</svg>
