<?xml version="1.0" encoding="UTF-8" standalone="no"?>
<svg width="292px" height="200px" viewBox="0 0 292 200" version="1.1" xmlns="http://www.w3.org/2000/svg" xmlns:xlink="http://www.w3.org/1999/xlink" xmlns:sketch="http://www.bohemiancoding.com/sketch/ns">
    <!-- Generator: Sketch 3.4 (15588) - http://www.bohemiancoding.com/sketch -->
    <title>Shape</title>
    <desc>Created with Sketch.</desc>
    <defs></defs>
    <g id="Page-1" stroke="none" stroke-width="1" fill="none" fill-rule="evenodd" sketch:type="MSPage">
        <path d="M290.408071,35.5810512 C290.527975,32.9489627 287.530369,33.9060858 286.571135,34.6239281 C285.611902,35.3417704 282.7342,34.6239281 281.774966,36.2988935 C280.935636,37.9738589 279.496785,37.0167358 277.458413,37.2560166 C275.420041,37.4952974 272.542339,36.6578147 272.662244,35.3417704 C272.782148,34.0257261 271.463201,32.7096819 271.70301,31.1543568 C271.822914,29.5990318 269.664637,30.3168741 268.225787,28.8811895 C266.786936,27.4455048 263.909234,26.4883817 263.309713,26.7276625 C262.710192,26.9669433 261.031532,25.1723375 258.513543,25.0526971 C256.115458,24.9330567 256.355267,23.3777317 256.595075,22.3009682 C256.834884,21.3438451 254.556703,18.1135546 254.19699,16.4385892 C253.717373,14.7636238 252.038714,14.4047026 251.319289,10.6958506 C250.599863,6.98699862 248.561491,7.94412172 249.041108,6.26915629 C249.520725,4.59419087 246.643023,3.63706777 245.923598,2.67994467 C245.204172,1.72282158 242.206566,2.08174274 240.04829,1.00497925 C237.890014,-0.19142462 236.571067,0.765698479 234.532695,0.167496542 C232.494323,-0.430705394 227.937962,0.765698479 227.33844,0.765698479 C226.738919,0.765698479 223.141792,0.0478561549 221.10342,2.79958506 C219.065048,5.55131397 220.623803,5.43167358 221.583037,5.43167358 C222.542271,5.43167358 222.901984,8.0637621 223.021888,8.90124481 C223.141792,9.73872752 221.583037,11.0547718 220.863611,11.2940526 C220.144186,11.5333333 218.105814,14.7636238 217.866005,15.8403873 C217.626197,17.0367911 215.228112,19.9081604 215.587825,20.8652835 C215.827633,21.8224066 214.388782,22.8991701 213.429549,23.0188105 C212.470315,23.1384509 209.712517,25.1723375 208.873187,25.4116183 C208.033858,25.650899 204.556635,25.1723375 204.077018,24.095574 C203.957114,23.7366528 203.477497,23.4973721 202.99788,23.2580913 L199.160944,31.0347165 L198.801231,33.5471646 C198.801231,33.5471646 196.283242,34.1453665 198.20171,36.0596127 C200.120178,37.9738589 200.359986,36.4185339 203.237688,36.4185339 C206.11539,36.4185339 207.314432,38.5720609 207.913953,37.0167358 C208.513475,35.4614108 211.031464,34.5042877 212.590219,36.4185339 C214.148974,38.3327801 219.184952,41.4434302 218.825239,42.9987552 C218.465527,44.5540802 215.707729,44.1951591 213.789261,43.5969571 C211.870793,42.9987552 209.352804,44.793361 207.554241,44.793361 C205.755677,44.793361 203.477497,45.3915629 201.559029,47.3058091 C199.640561,49.2200553 200.000274,51.0146611 197.122572,51.3735823 C194.24487,51.7325035 193.045828,51.3735823 189.928317,53.5271093 C186.810807,55.6806362 183.333584,54.7235131 182.134542,54.1253112 C180.935499,53.5271093 178.657319,53.1681881 177.458276,55.3217151 C176.259234,57.475242 179.017031,58.4323651 178.657319,60.9448133 C178.297606,63.4572614 175.180096,62.8590595 172.662107,65.6107884 C170.144118,68.4821577 166.067373,69.6785615 163.909097,69.3196404 C161.750821,68.9607192 156.954651,67.7643154 152.997811,69.6785615 C148.921067,71.5928077 146.043365,74.3445367 144.48461,74.1052559 C142.925855,73.7463347 142.925855,71.9517289 140.767579,72.1910097 C138.609302,72.5499308 137.290356,71.8320885 135.731601,70.9946058 C134.172845,70.0374827 132.853899,71.5928077 130.455814,69.7982019 C127.937825,67.8839557 123.501368,68.2428769 121.702804,67.8839557 C119.784337,67.5250346 112.590082,67.8839557 110.072093,67.5250346 C107.554104,67.1661134 104.076881,68.1232365 103.837073,66.9268326 C103.47736,65.7304288 101.678796,64.7733057 100.959371,61.9019364 C100.35985,59.0305671 98.8010944,58.1930844 97.2423393,57.8341632 C95.6835841,57.475242 95.4437756,55.919917 94.124829,55.6806362 C93.4054036,55.5609959 92.6859781,53.5271093 90.5277018,53.5271093 C88.3694254,53.5271093 80.695554,52.6896266 79.6164159,50.8950207 C78.5372777,49.1004149 80.695554,48.7414938 80.695554,46.946888 C80.695554,45.1522822 81.8945964,42.7594744 81.0552668,42.0416321 C80.2159371,41.3237898 78.6571819,39.7684647 78.4173735,38.3327801 C78.177565,36.8970954 75.7794802,35.1024896 74.220725,34.9828492 C72.6619699,34.8632089 71.3430233,33.9060858 69.7842681,32.5900415 C68.3454172,31.2739972 66.9065663,31.3936376 66.3070451,28.1633472 C66.3070451,27.9240664 66.1871409,27.804426 66.1871409,27.5651452 C65.5876197,27.4455048 64.8681943,27.3258645 64.2686731,27.3258645 C63.9089603,27.3258645 63.4293434,26.9669433 62.9497264,26.6080221 C62.5900137,27.9240664 61.271067,28.6419087 61.271067,29.7186722 C61.271067,30.9150761 60.7914501,32.3507607 59.2326949,32.3507607 C57.6739398,32.3507607 56.1151847,33.5471646 55.9952804,36.0596127 C55.8753762,38.5720609 57.4341313,38.8113416 56.7147059,39.8881051 C55.9952804,40.9648686 53.1175787,42.0416321 52.1583447,41.5630705 C51.1991108,41.084509 49.280643,41.3237898 47.7218878,41.2041494 C46.1631327,40.9648686 44.9640903,39.0506224 44.4844733,41.2041494 C44.0048564,43.3576763 40.6475376,49.8182573 41.4868673,50.5360996 C42.326197,51.2539419 42.9257182,52.8092669 41.4868673,52.8092669 C40.0480164,52.8092669 38.7290698,52.5699862 38.0096443,51.9717842 C37.2902189,51.2539419 35.0120383,52.9289073 33.4532832,52.8092669 C32.7338577,52.8092669 29.6163475,54.1253112 30.6954856,54.7235131 C31.7746238,55.2020747 31.7746238,57.8341632 31.7746238,58.9109267 C31.7746238,59.9876902 34.1727086,63.2179806 33.6930917,64.2947441 C33.2134747,65.3715076 31.0551984,66.5679115 31.0551984,68.0035961 C31.0551984,69.4392808 31.5348153,70.6356846 30.6954856,70.9946058 C29.9760602,71.353527 27.5779754,72.3106501 26.378933,73.1481328 C25.1798906,73.9856155 23.2614227,73.9856155 22.6619015,75.3016598 C22.0623803,76.617704 20.9832421,77.6944675 18.8249658,77.4551867 C16.9064979,77.2159059 15.947264,76.9766252 14.3885089,78.771231 C12.8297538,80.5658368 12.5899453,79.8479945 11.5108071,80.6854772 C10.4316689,81.5229599 9.35253078,80.0872752 8.51320109,79.7283541 C7.67387141,79.3694329 6.474829,80.6854772 5.63549932,80.6854772 C4.79616963,80.6854772 4.07674419,82.1211618 2.99760602,82.3604426 C1.91846785,82.7193638 0.839329685,82.3604426 0.839329685,83.6764869 C0.839329685,84.5139696 0.599521204,85.3514523 0,86.0692946 L0,86.0692946 L0.719425445,90.2567082 C0.719425445,90.2567082 5.27578659,91.8120332 5.51559508,93.3673582 C5.75540356,94.9226833 6.474829,99.8279391 6.474829,99.8279391 C6.474829,99.8279391 6.474829,99.8279391 6.35492476,99.8279391 C8.27339261,101.263624 10.7913817,102.818949 10.7913817,103.417151 C10.7913817,104.015353 11.0311902,106.049239 13.3093707,107.126003 C14.7482216,107.843845 16.1870725,108.561687 17.1463064,109.159889 C17.2662107,108.920609 17.3861149,108.681328 17.3861149,108.681328 L19.3045828,108.442047 C19.3045828,108.442047 19.904104,108.800968 20.3837209,109.39917 C20.8633379,107.843845 24.2206566,106.16888 25.899316,106.28852 C27.6978796,106.40816 31.894528,109.758091 31.5348153,110.954495 C31.0551984,112.150899 28.0575923,116.457953 26.7386457,116.816874 C26.2590287,116.936515 25.419699,117.056155 24.7002736,117.056155 C24.5803694,117.773997 24.3405609,118.372199 24.3405609,118.73112 C24.3405609,119.688243 26.0192202,121.243568 26.9784542,122.918534 C27.9376881,124.593499 25.419699,125.789903 24.1007524,124.593499 C22.7818057,123.397095 22.1822845,125.789903 22.90171,126.747026 C23.6211354,127.704149 23.2614227,130.336238 24.5803694,130.575519 C25.899316,130.814799 27.0983584,133.446888 28.6571135,133.446888 C30.2158687,133.446888 31.5348153,135.959336 31.5348153,135.959336 C31.5348153,135.959336 33.6930917,137.27538 33.6930917,138.112863 C33.6930917,138.232503 33.6930917,138.352144 33.5731874,138.352144 C35.2518468,138.232503 36.330985,138.112863 36.5707934,137.395021 C36.8106019,136.677178 38.9688782,136.677178 40.4077291,138.112863 C41.9664843,139.668188 48.0816005,143.49668 50.3597811,145.291286 C52.6379617,147.085892 57.9137483,149.119779 59.7123119,149.000138 C61.5108755,148.880498 63.3094391,150.316183 66.0672367,150.196542 L67.1463748,150.196542 C67.5060876,149.717981 68.225513,149.717981 68.70513,149.000138 C69.4245554,147.803734 70.6235978,149.957261 70.2638851,151.512586 C70.1439808,152.230429 70.2638851,153.067911 70.5036936,153.666113 C70.8634063,153.067911 71.3430233,152.350069 71.5828317,151.632227 C72.5420657,149.239419 74.1008208,149.359059 75.0600547,148.641217 C76.0192886,147.923375 76.9785226,148.162656 79.0168947,149.239419 C80.9353625,150.196542 81.7746922,148.162656 84.652394,150.794744 C85.2519152,150.555463 85.9713406,150.196542 86.3310534,150.196542 C86.9305746,150.196542 87.65,149.000138 88.6092339,148.043015 C89.5684679,147.085892 89.3286594,145.889488 90.5277018,146.128769 C91.7267442,146.36805 92.2063611,144.812725 94.7243502,143.49668 C97.2423393,142.180636 99.2807114,144.214523 100.479754,143.2574 C101.678796,142.300277 102.997743,141.941355 102.997743,142.898479 C102.997743,143.855602 104.556498,145.052006 104.916211,146.128769 C105.275923,147.205533 107.314295,147.564454 107.674008,147.684094 C108.033721,147.444813 108.273529,147.325173 108.513338,147.205533 C109.71238,146.36805 111.750752,147.325173 111.750752,148.641217 C111.750752,149.957261 111.870657,151.273306 112.829891,151.273306 C113.789124,151.273306 114.748358,151.273306 114.748358,153.666113 C114.748358,156.058921 115.587688,158.69101 113.549316,160.724896 C111.510944,162.758783 109.112859,166.467635 109.592476,167.544398 C110.072093,168.621162 108.992955,170.655048 110.431806,169.937206 C111.990561,169.219364 115.34788,169.937206 114.868263,170.774689 C114.388646,171.612172 114.988167,174.603181 116.427018,174.722822 C117.865869,174.842462 118.705198,175.560304 118.225581,176.876349 C117.745964,178.192393 117.026539,180.106639 118.225581,180.106639 C119.424624,180.106639 121.103283,180.106639 120.863475,181.422683 C120.623666,182.738728 121.702804,183.935131 123.861081,182.978008 C125.180027,182.499447 125.779549,182.020885 126.019357,182.499447 C126.858687,182.499447 126.978591,184.413693 128.417442,184.772614 C129.976197,185.131535 129.136867,181.542324 128.65725,180.944122 C128.057729,180.34592 128.897059,177.833472 129.376676,178.431674 C129.976197,179.029876 131.654856,178.431674 132.61409,177.23527 C133.573324,176.038866 135.491792,178.192393 136.211218,176.876349 C136.930643,175.560304 138.729207,177.833472 140.407866,176.876349 C142.086525,175.919225 142.925855,177.594191 143.64528,176.278147 C144.364706,174.962102 146.882695,173.167497 147.482216,173.765698 C148.081737,174.3639 148.44145,175.440664 151.55896,175.919225 C154.676471,176.278147 152.877907,177.833472 152.877907,178.790595 C152.877907,179.747718 156.35513,182.260166 157.674077,182.379806 C157.913885,182.379806 158.273598,182.738728 158.633311,183.217289 C159.592544,182.738728 161.271204,183.57621 161.630917,182.379806 C162.110534,181.063762 163.669289,181.422683 164.26881,182.499447 C164.868331,183.57621 165.587756,183.815491 167.026607,182.499447 C168.465458,181.183402 169.184884,183.815491 168.345554,184.533333 C167.506224,185.251176 168.105746,187.524343 169.424692,188.720747 C170.743639,190.036791 170.983447,187.883264 170.743639,186.68686 C170.50383,185.370816 173.021819,184.054772 177.578181,182.619087 C182.134542,181.063762 187.050616,177.833472 187.050616,177.115629 C187.17052,176.397787 190.28803,178.431674 191.846785,177.23527 C193.40554,176.038866 198.801231,175.919225 200.240082,175.919225 C201.678933,175.799585 201.559029,174.603181 203.117784,173.406777 C204.676539,172.210373 204.316826,171.612172 205.995486,171.13361 C207.674145,170.655048 208.753283,169.099723 208.753283,168.1426 C208.753283,167.185477 211.990698,166.946196 212.110602,166.108714 C212.230506,165.151591 214.508687,164.91231 214.508687,163.715906 C214.508687,162.519502 215.947538,162.758783 216.547059,161.9213 C217.14658,161.083817 216.067442,158.571369 217.14658,158.212448 C218.345622,157.853527 216.666963,156.537483 216.547059,155.81964 C216.30725,155.221438 218.705335,154.982158 219.904378,154.264315 C221.10342,153.426833 221.94275,152.230429 222.182558,150.914385 C222.422367,149.59834 224.460739,148.282296 225.300068,147.923375 C226.259302,147.564454 226.619015,145.650207 226.259302,143.975242 C226.019494,142.300277 227.937962,142.778838 227.098632,142.060996 C226.259302,141.462794 227.458345,139.668188 229.137004,139.069986 C230.815663,138.591425 228.057866,137.753942 227.098632,138.471784 C226.139398,139.189627 225.180164,136.437898 224.340834,137.514661 C223.501505,138.591425 220.983516,136.916459 222.662175,136.557538 C224.22093,136.198617 226.738919,134.404011 227.818057,134.04509 C228.897196,133.686169 226.259302,131.293361 224.820451,131.413001 C223.501505,131.532642 221.94275,128.302351 220.503899,128.302351 C219.065048,128.302351 221.583037,127.345228 223.261696,128.182711 C224.940356,129.020194 226.858824,129.738036 227.578249,129.020194 C228.297674,128.302351 224.820451,125.430982 223.501505,124.473859 C222.182558,123.516736 223.381601,122.081051 222.662175,121.482849 C221.822845,120.884647 220.144186,117.295436 219.544665,115.62047 C218.945144,113.945505 215.947538,113.706224 215.228112,112.629461 C214.508687,111.552697 215.348016,109.040249 217.506293,108.083126 C219.784473,107.126003 218.825239,105.331397 219.784473,105.451037 C220.743707,105.690318 221.702941,105.211757 222.422367,103.536791 C223.261696,101.861826 224.580643,102.938589 225.419973,101.981466 C226.259302,101.143983 229.736525,101.143983 230.935568,100.306501 C232.13461,99.469018 229.736525,96.8369295 228.17777,97.1958506 C226.499111,97.6744122 224.580643,96.9565698 223.381601,95.2816044 C222.182558,93.606639 219.184952,98.3922545 216.906772,99.469018 C214.628591,100.545781 213.069836,97.5547718 213.909166,95.6405256 C214.748495,93.7262794 212.110602,93.7262794 208.873187,93.9655602 C205.635773,94.0852006 206.834815,88.2228216 208.753283,87.9835408 C210.671751,87.74426 213.549453,89.7781466 214.748495,86.188935 C215.947538,82.5997234 217.746101,85.3514523 220.383995,82.2408022 C223.141792,79.1301521 226.259302,77.0962656 228.657387,79.0105118 C231.055472,80.924758 226.139398,83.7961272 225.300068,85.5907331 C224.460739,87.3853389 226.019494,87.9835408 224.580643,89.2995851 C223.141792,90.6156293 225.180164,90.9745505 227.937962,89.1799447 C230.695759,87.3853389 234.172982,85.2318119 236.93078,84.1550484 C237.650205,83.9157676 238.489535,83.7961272 239.328865,83.9157676 C239.688577,82.8390041 240.168194,82.0015214 240.647811,81.7622407 C242.566279,80.8051176 248.8013,78.0533887 249.760534,76.7373444 C250.719767,75.5409405 251.679001,73.2677732 252.878044,73.2677732 C254.077086,73.2677732 254.077086,74.464177 255.995554,74.464177 C257.914022,74.464177 260.072298,75.062379 259.113064,73.5070539 C258.15383,71.9517289 258.753352,71.9517289 261.031532,71.5928077 C263.189808,71.2338866 262.95,69.0803596 264.508755,69.0803596 C266.06751,69.0803596 265.707798,65.3715076 267.386457,65.3715076 C268.945212,65.3715076 269.544733,67.5250346 271.463201,66.9268326 C271.822914,66.8071923 272.302531,66.9268326 272.782148,67.1661134 C273.14186,66.8071923 273.621477,66.5679115 273.98119,66.3286307 C273.741382,64.4143845 273.98119,62.6197787 273.621477,61.6626556 C272.902052,59.9876902 273.621477,58.6716459 273.381669,57.5948824 C273.14186,56.6377593 272.902052,54.1253112 274.101094,54.1253112 C275.300137,54.1253112 276.738988,51.2539419 278.177839,52.211065 C279.616689,53.1681881 282.494391,53.5271093 282.494391,52.211065 C282.494391,50.8950207 284.532763,50.7753804 284.772572,49.1004149 C285.01238,47.4254495 287.170657,46.946888 287.650274,45.3915629 C288.129891,43.8362379 288.849316,40.1273859 290.288167,39.1702628 C292.086731,38.8113416 290.288167,38.2131397 290.408071,35.5810512 L290.408071,35.5810512 Z M220.024282,171.492531 C218.465527,177.23527 222.182558,180.106639 222.662175,179.867358 C224.101026,178.910235 229.976334,166.467635 228.657387,164.792669 C227.33844,162.998064 221.583037,165.749793 220.024282,171.492531 L220.024282,171.492531 Z M168.585363,190.993914 C166.666895,190.993914 161.990629,193.745643 163.789193,197.574136 C165.707661,201.402628 171.822777,198.89018 171.942681,197.095574 C172.062585,195.420609 174.940287,192.66888 174.580575,191.352835 C174.340766,190.515353 170.50383,190.993914 168.585363,190.993914 L168.585363,190.993914 Z" id="Shape" fill="#ED1C24" sketch:type="MSShapeGroup"></path>
    </g>
</svg>