<?xml version="1.0" encoding="UTF-8" standalone="no"?>
<svg width="91px" height="36px" viewBox="0 0 91 36" version="1.1" xmlns="http://www.w3.org/2000/svg" xmlns:xlink="http://www.w3.org/1999/xlink" xmlns:sketch="http://www.bohemiancoding.com/sketch/ns">
    <!-- Generator: Sketch 3.4 (15588) - http://www.bohemiancoding.com/sketch -->
    <title>Shape</title>
    <desc>Created with Sketch.</desc>
    <defs></defs>
    <g id="Page-1" stroke="none" stroke-width="1" fill="none" fill-rule="evenodd" sketch:type="MSPage">
        <path d="M88.1113292,24.5347778 C87.3919038,24.295497 88.471042,20.1080835 88.1113292,19.3902412 C87.7516165,18.6723988 86.7923826,15.322468 87.8715208,15.322468 C88.9506589,15.322468 87.7516165,12.9296603 89.1904674,12.8100199 C88.9506589,11.9725372 88.5909462,11.2546948 88.3511377,11.0154141 C87.6317123,10.4172121 85.4734359,11.613616 84.6341063,9.46008903 C83.7947766,7.30656205 84.6341063,7.06728128 83.3151596,5.27267547 C81.996213,3.59771005 81.3966918,1.80310424 79.8379366,2.52094656 C79.1185112,2.87986773 76.9602348,2.87986773 74.8019585,2.64058695 C72.5237779,4.79411392 67.3678956,6.22979857 65.8091405,5.63159663 C63.8906726,4.91375431 60.1736411,5.87087741 57.2959394,5.87087741 C54.5381418,5.87087741 53.6988121,3.83699082 51.5405358,3.95663121 C49.3822595,4.0762716 49.3822595,2.04238501 47.2239831,2.04238501 C45.0657068,2.04238501 46.7443662,0.965621529 39.9098245,0.128138818 C33.195187,-0.709343893 27.3198792,2.76022734 25.1616028,4.67447353 C23.0033265,6.58871973 15.2095509,4.79411392 14.4901254,5.27267547 C13.7707,5.75123702 14.6100296,8.02440438 12.0920406,8.98152748 C9.4541473,9.93865057 3.81864798,8.98152748 1.90018013,9.81901019 C-0.018287725,10.6564929 -0.73771317,13.5278622 0.940946201,13.4082218 C2.61960557,13.2885814 3.45893526,14.0064237 2.97931829,14.7242661 C2.49970133,15.4421084 4.29826494,17.475995 3.45893526,18.3134777 C2.49970133,19.1509604 2.49970133,20.8259258 3.5788395,21.6634085 C4.77788191,22.5008912 4.89778615,24.0562163 3.5788395,24.295497 C2.25989285,24.5347778 5.97692431,26.0901029 5.97692431,26.8079452 C6.09682855,27.5257875 9.09443457,27.8847087 9.09443457,28.7221914 C9.09443457,29.5596741 10.0536685,29.9185952 11.4925194,29.4400337 C12.9313703,28.9614722 13.5308915,31.1149991 14.4901254,32.5506838 C15.4493593,33.9863684 20.7251459,33.0292453 20.7251459,31.3542799 C20.7251459,29.7989549 22.2839011,29.3203933 24.6819859,29.5596741 C27.0800707,29.7989549 30.1975809,33.0292453 31.2767191,33.3881665 C32.4757615,33.866728 34.7539421,32.5506838 36.3126972,32.5506838 C37.8714524,32.5506838 40.0297287,30.157876 40.8690584,29.6793145 C41.7083881,29.2007529 43.2671432,31.3542799 44.5860898,30.6364376 C45.9050365,29.9185952 47.4637916,29.0811125 48.3031213,29.6793145 C49.142451,30.157876 46.2647492,32.4310434 46.9841747,33.5078069 C47.3438874,33.9863684 47.2239831,34.5845704 47.1040789,35.1827723 C50.1016849,34.8238511 49.7419722,32.6703242 49.9817807,31.8328414 C50.2215892,30.8757183 50.9410146,29.9185952 51.9002485,30.6364376 C52.8594825,31.3542799 54.1784291,31.5935607 56.3367054,30.6364376 C58.4949818,29.6793145 58.614886,29.0811125 59.4542157,30.0382356 C60.1736411,30.9953587 61.9722048,30.2775164 64.9698108,30.2775164 C68.087321,30.2775164 68.566938,28.1239894 71.4446398,28.3632702 C74.3223415,28.602551 76.8403306,27.6454279 76.8403306,27.6454279 L78.6388942,28.2436298 C79.3583197,27.5257875 79.3583197,26.8079452 80.7971706,26.5686644 C83.0753511,26.3293836 83.9146808,28.0043491 85.1137232,27.4061471 C86.3127656,26.8079452 89.9098928,30.756078 90.2696056,28.2436298 C90.6293183,27.8847087 88.8307547,24.7740586 88.1113292,24.5347778 L88.1113292,24.5347778 Z" id="Shape" fill="#ED1C24" sketch:type="MSShapeGroup"></path>
    </g>
</svg>