<?xml version="1.0" encoding="UTF-8" standalone="no"?>
<svg width="18px" height="23px" viewBox="0 0 18 23" version="1.1" xmlns="http://www.w3.org/2000/svg" xmlns:xlink="http://www.w3.org/1999/xlink" xmlns:sketch="http://www.bohemiancoding.com/sketch/ns">
    <!-- Generator: Sketch 3.4 (15588) - http://www.bohemiancoding.com/sketch -->
    <title>Shape</title>
    <desc>Created with Sketch.</desc>
    <defs></defs>
    <g id="Page-1" stroke="none" stroke-width="1" fill="none" fill-rule="evenodd" sketch:type="MSPage">
        <path d="M3.57567655,2.03388658 C3.09605958,2.51244813 1.77711294,3.23029046 0.697974769,4.18741355 C1.29749597,5.14453665 1.17759173,6.69986169 2.2567299,6.69986169 C3.81548503,6.81950207 3.57567655,9.09266943 2.01692142,8.73374827 C0.338262046,8.37482711 0.338262046,11.0069156 1.77711294,13.1604426 C3.21596382,15.43361 -0.980684602,17.9460581 0.218357806,19.0228216 C1.41740021,20.2192254 0.458166287,21.5352697 0.93778325,22.253112 C1.41740021,22.9709544 7.53251649,22.0138313 10.1704098,19.2621024 C12.8083031,16.5103734 13.5277285,16.8692946 14.9665794,17.2282158 C16.2855261,17.5871369 17.724377,16.2710927 17.0049515,15.1943292 C16.2855261,14.1175657 15.4461964,11.4854772 15.6860049,8.13554633 C15.8059091,6.22130014 13.1680158,2.75172891 10.6500268,0 C9.81069707,0.598201936 9.09127162,0.957123098 8.1320377,0.957123098 C6.21356984,1.07676349 4.29510199,1.31604426 3.57567655,2.03388658 L3.57567655,2.03388658 Z" id="Shape" fill="#ED1C24" sketch:type="MSShapeGroup"></path>
    </g>
</svg>