<?xml version="1.0" encoding="UTF-8" standalone="no"?>
<svg width="135px" height="142px" viewBox="0 0 135 142" version="1.1" xmlns="http://www.w3.org/2000/svg" xmlns:xlink="http://www.w3.org/1999/xlink" xmlns:sketch="http://www.bohemiancoding.com/sketch/ns">
    <!-- Generator: Sketch 3.4 (15588) - http://www.bohemiancoding.com/sketch -->
    <title>Shape</title>
    <desc>Created with Sketch.</desc>
    <defs></defs>
    <g id="Page-1" stroke="none" stroke-width="1" fill="none" fill-rule="evenodd" sketch:type="MSPage">
        <path d="M96.6428181,64.1272476 C95.8034884,62.093361 95.2039672,58.2648686 95.4437756,56.829184 C95.6835841,55.3934993 97.4821477,56.5899032 98.0816689,54.7952974 C98.6811902,53.0006916 93.1655951,53.0006916 94.8442544,50.7275242 C96.6428181,48.4543568 96.6428181,50.7275242 98.9209986,50.7275242 C101.199179,50.7275242 102.158413,51.9239281 102.158413,53.3596127 C102.158413,54.7952974 104.436594,55.6327801 104.436594,55.6327801 C104.436594,55.6327801 108.273529,55.3934993 109.952189,55.3934993 C111.630848,55.3934993 113.429412,55.3934993 113.429412,56.5899032 C113.429412,57.7863071 111.39104,61.4951591 109.592476,61.4951591 C107.793912,61.4951591 107.793912,66.4004149 109.352668,66.7593361 C110.791518,66.9986169 111.990561,62.9308437 112.829891,62.9308437 C113.429412,62.9308437 113.909029,67.5968188 114.748358,72.2627939 C114.988167,72.0235131 115.227975,71.7842324 115.467784,71.7842324 C116.666826,71.7842324 116.067305,67.7164592 116.786731,66.6396957 C117.506156,65.4432918 117.146443,61.8540802 117.745964,61.8540802 C118.345486,61.8540802 121.822709,63.0504841 121.5829,62.093361 C121.343092,61.1362379 123.741176,57.9059474 123.26156,56.1113416 C122.901847,54.4363762 124.580506,52.2828492 124.580506,50.1293223 C124.580506,47.9757953 126.498974,47.4972337 127.817921,46.3008299 C129.136867,45.104426 131.415048,43.6687414 131.894665,44.6258645 C132.254378,45.5829876 135.132079,46.3008299 134.052941,44.6258645 C132.853899,42.950899 132.853899,41.7544952 133.693228,41.395574 C134.412654,41.0366528 134.892271,39.1224066 134.892271,39.1224066 C134.892271,39.1224066 132.374282,38.7634855 132.014569,37.5670816 C131.654856,36.3706777 130.096101,35.2939142 130.096101,34.3367911 C130.096101,33.379668 128.777155,33.7385892 127.578112,34.6957123 C126.37907,35.6528354 124.340698,33.4993084 121.822709,34.9349931 C119.30472,36.2510373 118.705198,37.8063624 117.62606,37.5670816 C116.427018,37.3278008 116.666826,38.5242047 115.707592,39.4813278 C114.748358,40.4384509 114.028933,41.6348548 113.429412,41.6348548 C112.829891,41.6348548 110.911423,42.5919779 110.911423,42.5919779 C110.911423,42.5919779 112.949795,46.3008299 111.510944,46.7793914 C109.71238,47.3775934 107.793912,46.0615491 106.714774,47.3775934 C105.395828,49.0525588 103.597264,46.659751 102.158413,47.0186722 C100.599658,47.3775934 99.6404241,46.0615491 98.9209986,46.3008299 C98.2015732,46.5401107 97.0025308,44.6258645 97.3622435,43.0705394 C97.7219562,41.5152144 96.6428181,39.4813278 95.8034884,40.5580913 C95.0840629,41.7544952 93.8850205,41.1562932 93.8850205,42.8312586 C93.8850205,44.5062241 94.8442544,46.659751 93.645212,47.8561549 C92.4461696,49.0525588 86.3310534,49.5311203 85.2519152,48.5739972 C84.0528728,47.6168741 79.1367989,47.0186722 78.8969904,46.0615491 C78.6571819,45.104426 77.2183311,43.4294606 76.2590971,43.4294606 C75.2998632,43.4294606 72.4221614,44.7455048 71.702736,44.1473029 C70.9833105,43.549101 69.0648427,41.9937759 67.6259918,41.8741355 C66.1871409,41.7544952 64.1487688,40.6777317 64.0288646,39.9598893 C63.7890561,39.242047 60.7914501,38.7634855 60.1919289,38.0456432 C59.5924077,37.3278008 57.6739398,37.0885201 57.6739398,36.131397 C57.6739398,35.1742739 58.3933653,33.6189488 58.3933653,32.5421853 C58.3933653,31.3457815 60.6715458,30.269018 60.6715458,29.4315353 C60.6715458,28.7136929 58.5132695,27.2780083 58.5132695,27.2780083 C58.5132695,27.2780083 57.1943228,24.7655602 55.6355677,24.7655602 C54.0768126,24.7655602 52.9976744,22.1334716 51.5588235,21.8941909 C50.2398769,21.6549101 50.5995896,19.0228216 49.8801642,18.0656985 C49.1607387,17.1085754 49.6403557,14.835408 51.0792066,15.9121715 C52.3981532,17.1085754 54.9161423,15.9121715 53.9569083,14.2372061 C52.9976744,12.5622407 51.319015,11.0069156 51.319015,10.0497925 C51.319015,9.09266943 52.5180575,6.22130014 51.0792066,5.50345781 C49.7602599,4.78561549 48.5612175,3.58921162 48.2015048,2.27316736 C47.8417921,0.957123098 46.2830369,0 46.2830369,0 L44.3645691,0.239280775 C44.3645691,0.239280775 43.1655267,3.34993084 42.4461012,3.70885201 C41.7266758,4.06777317 38.9688782,4.6659751 37.6499316,5.6230982 C36.330985,6.5802213 32.4940492,4.30705394 30.3357729,4.30705394 C28.1774966,4.30705394 26.8585499,6.46058091 27.8177839,6.93914246 C28.7770178,7.5373444 28.5372093,11.4854772 28.5372093,11.4854772 C28.5372093,11.4854772 29.7362517,16.5103734 31.4149111,16.0318119 C33.0935705,15.6728907 35.2518468,17.7067773 33.6930917,18.1853389 C32.1343365,18.54426 31.4149111,20.3388658 31.1751026,21.7745505 C30.9352941,23.3298755 31.4149111,25.2441217 30.2158687,25.3637621 C29.0168263,25.6030429 27.9376881,25.961964 27.9376881,27.9958506 C27.9376881,30.1493776 25.419699,29.5511757 25.0599863,30.269018 C24.7002736,30.9868603 23.7410397,34.8153527 23.1415185,35.4135546 C22.5419973,36.0117566 19.3045828,36.131397 19.0647743,37.9260028 C18.8249658,39.6009682 17.3861149,41.7544952 16.426881,41.5152144 C15.4676471,41.2759336 13.7889877,40.5580913 13.1894665,41.7544952 C12.5899453,42.950899 10.0719562,40.7973721 9.59233926,41.395574 C8.99281806,41.9937759 5.99521204,44.5062241 5.99521204,45.9419087 C5.99521204,47.3775934 9.23262654,47.4972337 9.1127223,49.4114799 C8.87291382,51.3257261 10.3117647,53.4792531 11.2709986,54.4363762 C12.2302326,55.3934993 13.7889877,57.6666667 12.949658,58.8630705 C12.2302326,60.0594744 11.0311902,60.1791148 9.35253078,59.8201936 C7.67387141,59.4612725 7.79377565,60.538036 4.79616963,60.0594744 C1.67865937,59.4612725 1.55875513,61.7344398 0.359712722,63.1701245 C0.239808482,63.2897649 0.239808482,63.4094053 -1.42108547e-13,63.5290456 C1.43885089,64.7254495 2.03837209,66.7593361 4.43645691,67.5968188 C7.19425445,68.6735823 9.7122435,65.802213 9.7122435,67.8360996 C9.7122435,69.8699862 3.11751026,69.511065 2.99760602,70.1092669 C2.87770178,70.7074689 9.83214774,79.2019364 13.3093707,78.4840941 C16.7865937,77.8858921 19.424487,74.0573997 18.4652531,73.4591978 C17.5060192,72.8609959 19.0647743,70.4681881 20.0240082,70.9467497 C20.9832421,71.4253112 20.5036252,74.775242 21.2230506,75.9716459 C22.3021888,77.8858921 21.9424761,79.3215768 21.2230506,80.3983402 C20.0240082,82.0733057 21.9424761,86.3803596 22.1822845,88.5338866 C22.422093,90.8070539 24.4604651,93.917704 24.4604651,97.2676349 C24.3405609,100.258645 26.8585499,106.479945 29.0168263,110.308437 C31.0551984,113.897649 32.4940492,121.195712 33.8129959,122.870678 C35.1319425,124.545643 38.369357,129.80982 38.369357,133.040111 C38.369357,136.270401 41.84658,140.816736 43.1655267,141.654219 C44.3645691,142.491701 47.0024624,140.697095 47.7218878,138.663209 C48.321409,136.629322 52.0384405,135.91148 52.278249,134.116874 C52.5180575,132.322268 52.8777702,131.006224 54.1967168,130.766943 C55.5156635,130.527663 55.5156635,129.211618 55.5156635,127.297372 C55.5156635,125.383126 55.6355677,122.751037 56.9545144,121.076072 C58.273461,119.401107 59.2326949,114.495851 57.6739398,113.179806 C56.2350889,111.983402 56.9545144,109.231674 58.0336525,107.078147 C58.8729822,105.403181 58.5132695,103.249654 59.8322161,103.010373 C61.1511628,102.890733 63.1895349,101.694329 64.6283858,99.6604426 C66.0672367,97.7461964 70.5036936,95.1141079 72.0624487,93.7980636 C73.6212038,92.4820194 78.4173735,88.2946058 79.8562244,85.9017981 C81.2950752,83.5089903 85.3718194,82.791148 87.2902873,80.7572614 C89.2087551,78.8430152 88.4893297,77.7662517 88.8490424,75.7323651 C89.2087551,73.6984786 95.2039672,72.7413555 97.602052,72.7413555 C98.0816689,72.7413555 98.4413817,72.7413555 98.8010944,72.6217151 C98.3214774,69.6307054 97.3622435,65.6825726 96.6428181,64.1272476 L96.6428181,64.1272476 Z" id="Shape" fill="#ED1C24" sketch:type="MSShapeGroup"></path>
    </g>
</svg>