<?xml version="1.0" encoding="UTF-8" standalone="no"?>
<svg width="282px" height="139px" viewBox="0 0 282 139" version="1.1" xmlns="http://www.w3.org/2000/svg" xmlns:xlink="http://www.w3.org/1999/xlink" xmlns:sketch="http://www.bohemiancoding.com/sketch/ns">
    <!-- Generator: Sketch 3.4 (15588) - http://www.bohemiancoding.com/sketch -->
    <title>Shape</title>
    <desc>Created with Sketch.</desc>
    <defs></defs>
    <g id="Page-1" stroke="none" stroke-width="1" fill="none" fill-rule="evenodd" sketch:type="MSPage">
        <path d="M278.177839,14.1364621 C278.057934,12.7007774 273.741382,13.8971813 271.70301,12.2222159 C269.664637,10.6668908 266.187415,17.8453141 265.467989,20.8363238 C264.748564,23.8273334 259.472777,27.1772643 259.472777,27.1772643 C259.472777,27.1772643 244.125034,27.2969047 242.806088,27.2969047 C241.966758,27.2969047 238.369631,30.2879144 236.331259,32.2021605 C236.451163,32.3218009 236.451163,32.3218009 236.571067,32.4414413 C238.129822,35.1931702 232.494323,36.987776 227.098632,37.2270568 C225.419973,37.3466972 224.22093,37.4663376 223.261696,37.585978 C223.501505,38.1841799 223.621409,39.0216626 223.501505,39.5002242 C223.501505,39.8591453 222.901984,40.2180665 222.062654,40.696628 C221.223324,42.3715935 214.628591,45.6018839 210.91156,47.5161301 C206.834815,49.6696571 201.199316,48.5928936 201.199316,45.3626031 C201.199316,42.1323127 204.196922,42.7305146 204.916347,44.2858397 C205.156156,44.8840416 205.875581,44.40548 206.834815,43.6876377 C205.755677,42.7305146 205.875581,41.0555492 205.995486,39.8591453 C204.796443,39.3805838 206.714911,34.4753279 204.196922,33.6378452 C201.559029,32.8003625 198.561423,37.3466972 199.04104,34.4753279 C199.520657,31.723599 203.357592,29.3307913 200.959508,25.6219392 C198.561423,21.9130872 194.24487,21.9130872 193.40554,24.7844565 C192.566211,27.6558258 189.568605,26.3397816 188.489466,28.4933085 C187.410328,30.6468355 186.33119,35.432451 187.17052,38.7823818 C188.00985,42.2519531 186.930711,43.9269185 183.693297,45.8411647 C180.455882,47.7554109 178.777223,42.850155 179.976265,36.6288549 C180.815595,32.3218009 183.21368,28.2540278 181.055404,28.2540278 C178.897127,28.2540278 183.813201,23.1094911 188.369562,22.0327276 C192.925923,20.9559641 198.561423,21.4345257 198.561423,20.1184814 C198.561423,19.8792007 198.801231,19.6399199 199.160944,19.5202795 C198.20171,18.8024372 197.242476,18.0845948 196.403146,17.6060333 C196.283242,17.8453141 196.163338,18.0845948 195.803625,18.3238756 C194.005062,19.5202795 194.484679,16.4096294 191.247264,16.4096294 C188.00985,16.4096294 184.772435,19.4006391 182.134542,18.0845948 C179.496648,16.7685506 180.815595,15.0935852 178.41751,15.0935852 C176.019425,15.0935852 180.09617,10.5472504 176.738851,12.4614966 C173.261628,14.3757428 168.105746,19.1613583 165.707661,17.0078314 C163.309576,14.8543044 161.1513,17.6060333 159.47264,15.9310679 C157.793981,14.2561025 165.467852,9.47048696 169.184884,9.70976774 C170.144118,9.70976774 170.863543,9.35084658 171.702873,8.75264464 C169.784405,8.03480232 165.827565,6.47947728 164.748427,7.79552154 C163.42948,9.35084658 161.630917,8.39372348 160.551778,7.07767922 C159.47264,5.76163496 158.273598,7.55624077 156.475034,5.52235418 C154.796375,3.4884676 152.997811,4.92415225 152.038577,5.4027138 C151.079343,5.88127535 149.760397,4.68487147 147.841929,3.96702915 C145.923461,3.24918683 147.362312,1.33494063 145.803557,0.258177144 C144.244802,-0.938226728 144.124897,2.41170412 144.124897,2.41170412 L10.0719562,3.12954644 C10.1918605,3.36882721 10.4316689,3.60810799 10.5515732,3.72774838 C12.1103283,5.4027138 10.9112859,6.71875806 11.3909029,8.75264464 C11.8705198,10.7865312 11.5108071,13.6579005 9.83214774,13.6579005 C8.27339261,13.6579005 8.03358413,11.8632947 9.23262654,11.1454524 C10.4316689,10.5472504 9.7122435,8.1544427 8.63310534,8.1544427 C7.91367989,8.1544427 7.67387141,7.31695999 7.67387141,6.3598369 C5.51559508,6.95803883 2.99760602,6.71875806 2.84217094e-14,6.3598369 C2.84217094e-14,6.47947728 0.119904241,6.59911767 0.119904241,6.71875806 C0.239808482,8.03480232 0.839329685,10.9061716 2.6378933,13.179339 C4.43645691,15.4525063 3.11751026,16.888191 4.79616963,17.7256737 C6.35492476,18.5631564 6.35492476,19.5202795 4.79616963,19.2809987 C3.2374145,19.0417179 4.31655267,20.4774026 3.8369357,23.7076931 C3.35731874,26.9379835 3.35731874,33.6378452 3.11751026,35.6717318 C2.75779754,37.7056184 0.479616963,41.0555492 1.79856361,43.2090762 C3.2374145,45.3626031 4.19664843,48.3536128 3.35731874,51.1053417 C2.51798906,53.8570706 2.75779754,55.4123957 3.8369357,57.4462823 C5.03597811,59.4801688 4.07674419,63.0693805 5.39569083,63.7872228 C6.71463748,64.5050651 7.91367989,66.0603901 9.1127223,67.9746363 C10.3117647,69.8888825 11.3909029,68.6924787 11.6307114,70.6067249 C11.8705198,72.5209711 11.8705198,72.8798922 13.5491792,73.5977345 C15.2278386,74.3155769 14.1487004,76.2298231 14.1487004,77.3065865 C14.1487004,78.38335 16.426881,80.2975962 19.1846785,82.8100444 C21.9424761,85.3224925 19.6642955,87.3563791 21.7026676,87.3563791 C23.7410397,87.3563791 25.6595075,88.552783 27.6978796,89.8688272 C29.7362517,91.1848715 30.3357729,90.3473888 31.7746238,90.7063099 C33.2134747,91.0652311 35.7314637,94.0562408 36.330985,96.0901274 C36.5707934,97.0472504 36.9305062,98.0043735 37.4101231,99.2007774 L48.5612175,97.7650928 C48.5612175,97.7650928 52.0384405,100.157901 53.9569083,100.636462 C55.8753762,101.115024 66.5468536,105.063156 66.5468536,105.063156 L80.3358413,104.943516 L81.8945964,102.909629 L89.4485636,102.909629 C89.4485636,102.909629 94.2447332,107.575605 94.9641587,107.814885 C95.6835841,108.054166 98.0816689,110.207693 98.0816689,111.643378 C98.0816689,113.079062 98.6811902,114.155826 99.7603283,114.754028 C100.959371,115.35223 104.796306,117.864678 105.395828,117.625397 C105.995349,117.386116 107.074487,113.079062 109.232763,113.198703 C111.271135,113.318343 116.906635,114.873668 117.865869,118.103959 C118.825103,121.334249 121.5829,123.966338 122.42223,124.68418 C123.381464,125.402022 122.901847,127.316268 123.621272,128.393032 C124.340698,129.469795 124.220793,131.384042 125.060123,131.384042 C125.899453,131.384042 129.976197,133.89649 131.894665,133.776849 C132.494186,133.776849 133.213611,134.135771 133.933037,134.494692 C134.172845,130.666199 130.216005,129.948357 132.494186,128.273392 C135.132079,126.239505 132.374282,124.56454 133.693228,123.607416 C135.012175,122.650293 137.290356,121.932451 137.290356,120.616407 C137.290356,119.300362 138.489398,119.300362 140.168057,119.539643 C141.846717,119.778924 145.084131,116.787914 144.964227,115.59151 C144.724419,114.395107 145.32394,114.155826 147.362312,114.634387 C149.400684,115.112949 149.040971,112.24158 150.359918,112.720141 C151.678865,113.198703 152.758003,113.916545 152.877907,112.959422 C152.997811,112.002299 154.316758,112.24158 155.275992,113.437984 C156.235226,114.754028 158.993023,114.993309 159.232832,113.557624 C159.47264,112.121939 161.031395,113.557624 162.470246,115.112949 C163.909097,116.668274 164.508618,116.189712 166.54699,116.309353 C168.585363,116.428993 168.585363,115.830791 168.705267,114.634387 C168.825171,113.318343 170.983447,117.386116 173.021819,117.625397 C175.060192,117.864678 173.501436,116.309353 171.942681,115.112949 C170.383926,113.916545 172.302394,113.437984 170.983447,112.48086 C169.664501,111.523737 172.542202,110.207693 175.180096,110.327333 C177.817989,110.446974 177.698085,111.045176 178.657319,109.609491 C179.616553,108.054166 180.575787,109.609491 180.575787,110.925535 C180.575787,112.24158 184.772435,110.207693 187.050616,110.207693 C189.328796,110.207693 191.367168,112.121939 191.606977,113.437984 C191.846785,114.754028 193.285636,115.35223 194.964295,113.916545 C196.642955,112.48086 197.961902,110.925535 199.520657,112.36122 C201.079412,113.916545 202.518263,115.950432 204.316826,117.745037 C206.11539,119.539643 203.477497,121.812811 204.436731,123.248495 C205.395964,124.68418 204.316826,126.598426 206.475103,128.034111 C208.633379,129.469795 206.714911,132.700086 208.39357,133.059007 C210.07223,133.417928 211.511081,136.169657 211.750889,137.246421 C211.990698,138.323184 215.228112,139.758869 215.467921,137.844623 C215.707729,135.930376 217.386389,133.89649 217.626197,132.101884 C217.866005,130.307278 216.30725,124.205618 214.988304,122.291372 C213.669357,120.377126 215.348016,119.898564 213.549453,117.625397 C211.870793,115.35223 210.791655,111.404097 210.91156,108.173806 C211.031464,104.943516 214.748495,99.679339 216.666963,98.0043735 C218.465527,96.4490485 220.503899,97.2865312 220.983516,95.4919254 C221.463133,93.6973196 223.621409,91.663433 224.940356,91.663433 C226.259302,91.663433 227.578249,92.0223542 227.818057,90.5866695 C228.057866,89.1509849 230.216142,87.4760195 232.97394,86.9974579 C235.731737,86.5188964 234.172982,85.0832117 233.453557,83.7671675 C232.734131,82.4511232 234.053078,81.1350789 234.652599,82.092202 C235.132216,82.9296848 236.93078,83.0493251 238.009918,82.3314828 C239.089056,81.6136405 241.607045,79.5797539 239.20896,79.4601135 C236.810876,79.3404731 236.331259,78.38335 237.650205,77.9047885 C239.089056,77.4262269 237.890014,74.7941384 235.971546,74.5548576 C234.053078,74.3155769 234.652599,73.3584538 235.851642,72.1620499 C237.050684,70.965646 234.172982,69.0513998 232.734131,68.0942767 C231.29528,67.1371536 233.573461,66.5389517 234.652599,66.4193113 C235.731737,66.1800305 234.892408,61.2747747 235.372025,60.0783708 C235.851642,58.8819669 237.770109,58.8819669 236.93078,60.0783708 C236.211354,61.2747747 235.132216,63.1890209 236.451163,64.8639863 C237.890014,66.4193113 238.249726,68.2139171 237.770109,70.7263652 C237.290492,73.2388134 238.249726,72.5209711 239.928386,69.2906806 C241.487141,66.0603901 241.726949,63.3086612 240.647811,62.9497401 C239.568673,62.5908189 239.688577,59.3605285 240.88762,60.9158535 C242.086662,62.4711785 242.446375,62.5908189 244.364843,60.6765727 C246.163406,58.7623265 248.081874,55.4123957 247.002736,54.6945534 C245.803694,53.976711 247.482353,53.1392283 249.640629,53.2588687 C251.798906,53.3785091 256.475171,51.9428244 256.714979,51.3446225 C257.794118,49.1910955 249.280917,52.3017456 249.280917,51.1053417 C249.280917,49.9089379 254.676607,48.712534 257.194596,48.5928936 C259.712585,48.4732532 258.513543,45.1233224 259.592681,46.559007 C260.671819,47.9946917 262.230575,47.7554109 263.669425,46.9179282 C265.108276,46.0804455 264.029138,43.5679973 262.350479,43.2090762 C260.671819,42.850155 263.549521,41.6537511 262.95,40.696628 C262.350479,39.7395049 264.029138,35.9110126 266.06751,35.432451 C268.105882,34.9538895 267.146648,33.7574856 268.825308,33.7574856 C270.503967,33.7574856 270.86368,31.723599 272.422435,30.168274 C273.98119,28.6129489 276.139466,32.5610817 278.417647,30.4075547 C279.376881,29.570072 280.695828,28.4933085 282.014774,27.6558258 C276.738988,20.3577622 278.297743,15.4525063 278.177839,14.1364621 L278.177839,14.1364621 Z" id="Shape" fill="#ED1C24" sketch:type="MSShapeGroup"></path>
    </g>
</svg>