<?xml version="1.0" encoding="UTF-8" standalone="no"?>
<svg width="81px" height="73px" viewBox="0 0 81 73" version="1.1" xmlns="http://www.w3.org/2000/svg" xmlns:xlink="http://www.w3.org/1999/xlink" xmlns:sketch="http://www.bohemiancoding.com/sketch/ns">
    <!-- Generator: Sketch 3.4 (15588) - http://www.bohemiancoding.com/sketch -->
    <title>Shape</title>
    <desc>Created with Sketch.</desc>
    <defs></defs>
    <g id="Page-1" stroke="none" stroke-width="1" fill="none" fill-rule="evenodd" sketch:type="MSPage">
        <path d="M76.6188098,7.65698479 C74.3406293,6.5802213 74.1008208,4.6659751 74.1008208,3.94813278 C74.1008208,3.34993084 71.5828317,1.79460581 69.6643639,0.358921162 C69.4245554,0.358921162 68.8250342,0.478561549 68.225513,0.598201936 C67.9857045,0.358921162 67.6259918,0.239280775 67.3861833,7.10542736e-14 C65.9473324,1.55532503 63.5492476,1.9142462 62.4701094,1.43568465 C61.1511628,0.957123098 57.6739398,2.03388658 55.8753762,3.34993084 C55.275855,3.82849239 54.3166211,4.06777317 53.3573871,4.18741355 C53.1175787,4.30705394 52.8777702,4.42669433 52.6379617,4.54633472 C51.319015,4.6659751 50.9593023,5.98201936 51.9185363,6.93914246 C52.8777702,7.89626556 52.6379617,8.61410788 52.7578659,9.81051176 C52.8777702,11.0069156 51.1991108,12.0836791 50.4796854,13.280083 C49.7602599,14.4764869 50.5995896,15.9121715 50.0000684,17.1085754 C49.4005472,18.4246196 45.0839945,16.3907331 44.4844733,16.988935 C43.8849521,17.5871369 45.9233242,19.2621024 46.0432285,20.0995851 C46.1631327,20.9370678 44.4844733,22.0138313 42.6859097,22.1334716 C41.0072503,22.253112 41.2470588,24.406639 41.1271546,27.2780083 C41.0072503,30.1493776 39.2086867,30.6279391 38.848974,29.4315353 C38.369357,28.2351314 33.6930917,29.9100968 33.6930917,31.1065007 C33.6930917,32.3029046 32.1343365,32.0636238 30.3357729,31.9439834 C28.6571135,31.824343 26.6187415,33.4993084 26.4988372,34.2171508 C26.378933,34.9349931 27.2182627,38.5242047 26.9784542,39.1224066 C26.7386457,39.7206086 10.5515732,42.1134163 7.43406293,41.5152144 C4.91607387,41.0366528 2.15827633,40.7973721 1.3500312e-13,40.6777317 C0.839329685,41.5152144 1.91846785,42.3526971 2.27818057,43.3098202 C2.87770178,44.9847856 4.91607387,46.5401107 7.31415869,47.4972337 C9.59233926,48.4543568 8.51320109,52.52213 9.59233926,52.8810512 C10.7913817,53.2399723 12.2302326,56.3506224 10.7913817,56.4702628 C9.23262654,56.7095436 7.91367989,57.0684647 6.35492476,57.7863071 C4.79616963,58.5041494 3.11751026,60.4183956 3.2374145,62.8112033 C3.2374145,63.1701245 3.35731874,63.5290456 3.35731874,64.0076072 C7.31415869,64.1272476 11.9904241,63.8879668 12.470041,63.4094053 C13.3093707,62.5719225 15.1079343,62.093361 16.1870725,62.8112033 C17.2662107,63.5290456 22.0623803,63.7683264 23.9808482,62.6915629 C26.378933,61.3755187 27.8177839,62.6915629 27.8177839,63.8879668 C27.9376881,65.0843707 29.0168263,65.5629322 30.0959644,66.5200553 C31.1751026,67.4771784 30.3357729,68.6735823 31.0551984,69.8699862 C31.7746238,71.06639 33.2134747,70.8271093 35.2518468,71.7842324 C35.4916553,71.9038728 35.7314637,72.0235131 35.9712722,72.2627939 C36.0911765,72.1431535 36.2110807,72.0235131 36.330985,71.9038728 C37.5300274,70.5878285 37.6499316,68.3146611 40.7674419,68.7932227 C43.8849521,69.3914246 43.6451436,68.1950207 45.323803,68.5539419 C47.0024624,68.9128631 48.2015048,68.7932227 48.9209302,67.5968188 C49.6403557,66.4004149 48.2015048,64.1272476 47.2422709,63.1701245 C46.2830369,62.2130014 44.9640903,60.0594744 45.0839945,58.1452282 C45.323803,56.230982 41.9664843,56.230982 41.9664843,54.675657 C41.9664843,53.120332 45.0839945,50.6078838 45.5636115,50.1293223 C46.1631327,49.5311203 48.6811218,51.6846473 49.1607387,50.4882434 C49.7602599,49.2918396 51.4389193,50.1293223 52.3981532,50.2489627 C53.3573871,50.4882434 54.9161423,48.3347165 55.0360465,46.659751 C55.275855,44.9847856 58.5132695,44.7455048 59.1127907,44.1473029 C59.7123119,43.549101 60.6715458,39.7206086 61.0312585,39.0027663 C61.3909713,38.2849239 63.9089603,38.7634855 63.9089603,36.7295989 C63.9089603,34.5760719 65.1080027,34.2171508 66.1871409,34.0975104 C67.3861833,33.8582296 66.9065663,31.9439834 67.1463748,30.5082988 C67.3861833,28.9529737 68.1056088,27.2780083 69.6643639,26.9190871 C71.223119,26.560166 69.0648427,24.406639 67.3861833,24.7655602 C65.7075239,25.1244813 64.5084815,20.2192254 64.5084815,20.2192254 C64.5084815,20.2192254 64.74829,16.1514523 63.7890561,15.6728907 C62.8298222,15.0746888 64.1487688,13.0408022 66.3070451,13.0408022 C68.4653215,13.0408022 72.3022572,15.3139696 73.6212038,14.3568465 C74.9401505,13.3997234 77.697948,12.8015214 78.4173735,12.4426003 C79.0168947,12.2033195 79.8562244,10.2890733 80.2159371,9.45159059 C79.6164159,9.09266943 78.0576607,8.37482711 76.6188098,7.65698479 L76.6188098,7.65698479 Z" id="Shape" fill="#ED1C24" sketch:type="MSShapeGroup"></path>
    </g>
</svg>