<?xml version="1.0" encoding="UTF-8" standalone="no"?>
<svg width="199px" height="176px" viewBox="0 0 199 176" version="1.1" xmlns="http://www.w3.org/2000/svg" xmlns:xlink="http://www.w3.org/1999/xlink" xmlns:sketch="http://www.bohemiancoding.com/sketch/ns">
    <!-- Generator: Sketch 3.4 (15588) - http://www.bohemiancoding.com/sketch -->
    <title>Shape</title>
    <desc>Created with Sketch.</desc>
    <defs></defs>
    <g id="Page-1" stroke="none" stroke-width="1" fill="none" fill-rule="evenodd" sketch:type="MSPage">
        <path d="M197.992718,88.0194771 C198.832047,87.4212752 197.513101,83.9517039 196.793675,84.4302655 C196.07425,84.908827 196.07425,79.046448 196.553867,76.4143595 C197.033484,73.782271 196.793675,74.0215518 195.354824,75.4572364 C193.915974,76.8929211 192.477123,72.8251479 192.11741,71.7483844 C191.757697,70.6716209 190.198942,67.6806113 188.400378,68.0395324 C186.601815,68.518094 187.800857,65.4074439 186.002294,65.7663651 C184.323634,66.1252862 183.963922,63.2539169 184.323634,60.7414688 C184.683347,58.1093803 183.124592,60.2629072 182.405166,59.1861438 C181.685741,58.1093803 180.846411,58.946863 179.647369,59.4254245 C178.448326,59.9039861 178.088614,57.1522572 178.448326,56.0754937 C178.808039,54.9987302 178.208518,53.6826859 176.649763,52.4862821 C175.091008,51.2898782 174.971103,50.3327551 175.091008,48.8970705 C175.210912,47.4613858 165.978285,42.7954107 163.820009,42.3168492 C161.781637,41.8382876 163.460296,39.6847606 162.620967,38.9669183 C161.781637,38.249076 161.421924,35.3777067 161.421924,33.1045393 C161.421924,30.7117316 158.424318,29.9938893 158.544222,28.0796431 C158.664127,26.1653969 157.704893,24.3707911 157.944701,22.2172641 C158.18451,20.0637371 154.827191,19.5851756 154.707287,18.3887717 C154.587383,17.1923678 152.788819,18.2691313 150.990255,18.5084121 C149.191692,18.7476929 149.311596,16.1156043 149.4315,13.7227966 C149.671309,11.2103485 148.712075,7.14257529 147.15332,5.94617142 C145.594564,4.74976755 145.594564,0.681994378 144.755235,0.0837924421 C144.035809,-0.514409494 141.51782,2.23731941 141.637725,3.67300406 C141.757629,5.10868871 141.397916,6.66401374 140.438682,7.50149645 C139.479448,8.33897916 141.038203,11.68891 139.839161,12.8853139 C138.520214,14.0817178 139.719257,18.7476929 139.359544,21.4994218 C138.999831,24.2511507 139.119735,27.12252 137.800789,28.9171258 C136.481842,30.7117316 136.242034,33.7027413 133.724045,34.6598644 C131.086151,35.6169875 127.728833,33.5831009 127.848737,32.1474162 C127.968641,30.7117316 125.090939,29.8742489 123.532184,30.1135296 C121.973429,30.3528104 121.134099,28.1992835 118.736015,26.4046776 C116.33793,24.6100718 114.539366,26.8832392 113.819941,24.7297122 C113.100515,22.5761852 112.261186,22.2172641 110.582526,21.0208602 C108.903867,19.8244563 109.383484,19.8244563 111.062143,18.6280525 C112.620898,17.4316486 112.38109,15.9959639 111.54176,14.5602793 C110.70243,13.1245947 112.500994,13.4835158 114.65927,12.2871119 C116.817547,11.0907081 114.65927,9.65502342 116.218025,9.05682149 C117.776781,8.45861955 116.817547,7.0229349 115.138887,6.66401374 C113.460228,6.30509258 113.939845,8.33897916 113.340324,8.57825994 C112.740803,8.81754071 112.021377,5.94617142 111.54176,5.94617142 C111.062143,6.06581181 108.903867,8.81754071 107.824729,7.50149645 C106.74559,6.06581181 100.750378,4.86940793 98.3522936,4.63012716 C95.9542088,4.271206 95.2347834,1.28019631 93.7959325,1.87839825 C92.3570816,2.3569598 94.035741,3.43372329 95.5944961,5.10868871 C97.1532512,6.78365413 90.1988053,7.980058 88.1604332,7.38185607 C86.1220611,6.78365413 88.5201459,8.9371811 86.7215823,8.81754071 C84.9230187,8.69790033 84.6832102,11.68891 83.2443593,13.244235 C81.8055084,14.7995601 82.7647423,15.8763236 81.3258914,16.8334467 C79.7671363,17.7905698 79.7671363,18.8673332 81.5656999,20.9012198 C83.3642635,22.9351064 80.7263702,23.0547468 79.0477109,21.3797814 C77.4889557,19.8244563 75.8102964,19.8244563 75.9302006,21.6190622 C76.0501048,23.413668 74.0117327,22.5761852 74.3714455,20.5422987 C74.7311582,18.5084121 72.0932649,19.4655352 71.7335522,18.2691313 C71.2539352,17.0727274 69.0956589,15.1584812 67.656808,15.2781216 C66.2179571,15.397762 66.2179571,16.8334467 64.8990104,16.8334467 C63.4601596,16.8334467 63.2203511,17.551289 63.3402553,19.106614 C63.5800638,20.6619391 61.181979,18.9869736 59.6232239,19.2262544 C58.0644687,19.4655352 59.6232239,21.260141 58.7838942,21.3797814 C57.9445645,21.4994218 57.9445645,22.9351064 56.5057136,22.9351064 C55.0668627,22.9351064 55.3066712,26.0457565 55.5464797,27.7207219 C55.7862882,29.2760469 53.3882033,27.0028796 51.9493524,27.3618007 C50.5105016,27.8403623 52.3090652,29.1564065 52.6687779,31.0706527 C53.1483949,32.8652586 51.9493524,32.7456182 51.1100228,33.5831009 C50.2706931,34.4205836 49.1915549,31.5492143 49.1915549,29.8742489 C49.1915549,28.3189238 47.3929913,29.7546085 45.4745234,31.7884951 C43.5560556,33.8223817 46.0740446,36.9330317 45.234715,37.5312337 C44.3953853,38.1294356 40.4385453,41.7186472 38.280269,44.4703761 C36.0020884,47.1024646 31.2059188,45.5471396 29.6471637,46.8631839 C28.0884085,48.1792281 26.5296534,47.222105 24.9708983,48.4185089 C23.4121431,49.6149128 20.6543456,51.8880801 20.2946329,50.4523955 C19.9349202,49.0167108 16.0979845,50.0934743 14.4193251,51.8880801 C12.7406657,53.6826859 10.2226767,55.1183706 8.42411305,55.238011 C6.62554944,55.3576514 6.62554944,58.1093803 5.78621975,58.8272226 C5.06679431,59.4254245 5.30660279,56.5540552 5.30660279,55.8362129 C5.30660279,55.1183706 3.62794342,57.1522572 2.78861373,59.4254245 C1.94928405,61.6985919 4.58717734,62.5360746 3.02842221,64.9288823 C1.46966708,67.3216901 -0.0890880453,69.7144978 2.18909253,72.7055075 C4.4672731,75.6965172 5.78621975,77.6107634 4.94689007,79.1660884 C4.22746462,80.7214135 2.54880525,76.1750787 2.06918829,76.6536403 C1.58957133,77.1322018 4.10756038,79.1660884 3.50803918,80.1232115 C2.90851797,81.0803346 0.510433158,76.4143595 0.0308161954,77.491123 C-0.448800768,78.4482461 4.82698583,85.7463097 4.94689007,88.4980386 C5.06679431,91.1301272 9.26344273,93.7622157 9.02363425,97.5907081 C8.78382577,101.4192 12.7406657,107.760141 13.3401869,108.717264 C13.9397081,109.674387 11.7814318,112.306476 12.2610488,115.177845 C12.7406657,118.049214 11.3018148,119.125978 9.50325122,119.125978 C7.7046876,119.125978 8.78382577,122.116987 10.8221979,122.356268 C12.86057,122.595549 12.1411445,123.911593 14.4193251,125.466918 C16.6975057,127.022243 22.0931965,126.424041 23.8917601,126.424041 C25.6903237,126.424041 26.2898449,123.672312 28.6879297,123.552672 C31.0860146,123.433032 30.9661103,122.715189 32.1651527,121.159864 C33.3641951,119.604539 38.9996944,120.083101 44.6351938,120.442022 C50.2706931,120.800943 52.7886821,119.006337 53.7479161,116.73317 C54.4673415,114.699283 58.5440857,114.579643 60.2227451,113.024318 C61.7815002,111.468993 63.2203511,111.468993 67.4169995,111.588633 C71.6136479,111.827914 75.4505836,109.554747 78.2083812,108.477983 C80.8462745,107.40122 85.8822526,107.879781 88.4002416,107.161939 C91.0381349,106.563737 91.3978477,110.39223 94.2755494,110.033308 C97.1532512,109.674387 98.4721979,110.870791 100.030953,110.751151 C101.589708,110.63151 101.3499,111.827914 102.788751,112.186835 C104.347506,112.545756 104.107697,113.74216 103.148463,115.177845 C102.189229,116.61353 105.426644,116.493889 107.465016,119.245618 C109.503388,121.997347 107.58492,122.475909 108.664058,124.629436 C109.743196,126.782963 110.462622,126.184761 112.620898,123.193751 C114.779175,120.202741 117.177259,122.116987 117.417068,119.484899 C117.776781,116.85281 120.054961,113.861801 121.493812,115.177845 C122.932663,116.493889 120.414674,117.092091 119.45544,122.116987 C118.496206,127.141884 116.817547,124.509795 116.457834,125.825839 C116.098121,127.261524 121.014195,127.979366 121.014195,125.347278 C121.014195,122.715189 121.853525,121.638426 123.652088,123.911593 C125.450652,126.304401 122.57295,128.218647 123.052567,129.295411 C123.532184,130.372174 125.570556,128.93649 126.649694,129.05613 C128.568162,129.295411 131.206056,133.482824 130.726439,135.755992 C130.246822,138.029159 129.6473,140.182686 133.364332,141.977292 C137.081363,143.771898 135.642513,144.130819 138.280406,144.130819 C140.918299,144.130819 146.553798,146.284346 148.112554,147.60039 C149.671309,148.916434 153.508244,146.643267 154.22767,144.011178 C154.947095,141.37909 157.824797,143.891538 156.266042,144.729021 C154.707287,145.566503 156.985467,147.60039 157.105372,146.284346 C157.225276,144.968301 157.824797,143.652257 158.424318,145.327223 C158.903935,146.882548 160.942307,146.882548 161.661733,148.198592 C162.381158,149.514636 163.220488,150.471759 163.220488,149.394996 C163.220488,148.318232 163.700105,147.361109 165.378764,146.762907 C167.057424,146.164705 168.136562,144.968301 170.05503,143.412976 C171.853593,141.857651 179.40756,141.618371 180.24689,141.618371 C181.08622,141.618371 181.445932,135.15779 181.805645,131.807859 C182.285262,128.457928 185.04306,127.979366 185.522677,124.390155 C186.002294,120.800943 189.719325,114.220722 190.678559,113.981441 C191.637793,113.62252 193.436357,112.665397 193.556261,110.63151 C193.676165,108.597624 196.194154,106.324456 196.194154,103.812008 C196.194154,101.29956 197.633005,98.4281908 197.393196,97.7103485 C197.153388,96.9925061 196.314058,94.5996984 197.872813,92.924733 C199.431569,91.2497675 197.153388,88.617679 197.992718,88.0194771 L197.992718,88.0194771 Z M89.9589968,3.67300406 C89.7191883,2.3569598 82.0453169,3.91228483 83.7239763,5.22832909 C84.8031144,6.06581181 90.1988053,4.98904832 89.9589968,3.67300406 L89.9589968,3.67300406 Z M114.179653,131.209657 C115.378696,132.28642 119.335536,131.927499 120.054961,130.491815 C120.654482,128.93649 113.100515,130.252534 114.179653,131.209657 L114.179653,131.209657 Z M162.980679,161.119754 C160.102978,161.478675 155.666521,158.487665 154.707287,158.726946 C153.508244,159.085867 158.424318,166.503571 156.985467,168.417817 C155.426712,170.332064 161.421924,175.596241 163.460296,175.955162 C165.498668,176.314083 164.779243,173.921275 166.09819,174.040916 C167.537041,174.160556 166.937519,172.605231 167.177328,171.528467 C167.417136,170.451704 168.736083,172.724871 169.935125,172.007029 C171.134168,171.408827 169.575413,166.742852 171.373976,166.742852 C173.17254,166.742852 171.733689,161.119754 171.134168,159.325148 C170.534647,157.530542 165.858381,160.760833 162.980679,161.119754 L162.980679,161.119754 Z" id="Shape" fill="#ED1C24" sketch:type="MSShapeGroup"></path>
    </g>
</svg>