<?xml version="1.0" encoding="UTF-8" standalone="no"?>
<svg width="48px" height="47px" viewBox="0 0 48 47" version="1.1" xmlns="http://www.w3.org/2000/svg" xmlns:xlink="http://www.w3.org/1999/xlink" xmlns:sketch="http://www.bohemiancoding.com/sketch/ns">
    <!-- Generator: Sketch 3.4 (15588) - http://www.bohemiancoding.com/sketch -->
    <title>irak_border</title>
    <desc>Created with Sketch.</desc>
    <defs></defs>
    <g id="Page-1" stroke="none" stroke-width="1" fill="none" fill-rule="evenodd" sketch:type="MSPage">
        <g id="irak_border" sketch:type="MSLayerGroup" fill="#ED1C24">
            <path d="M40.1,42.1 C40.7,41.4 40.8,40.5 42.3,40.3 C43.5,40.1 44.2,40.9 45.5,42.1 C46,41.6 46.8,41.2 47.6,41 C46.3,39.7 44.7,38.1 44.9,37.2 C45.1,35.7 43.4,34.9 43.2,33.9 C43,32.9 44.4,31.4 43.6,30.6 C42.8,29.8 42.6,27.9 41.3,27.7 C40,27.5 35.7,25.4 35.9,24.1 C36.1,22.8 34.4,21.8 33.6,21.4 C32.8,21 32.1,17.6 33,17 C34,16.4 33.8,13.2 34.9,13.2 C36.1,13.2 35.1,11.5 35.5,10.3 C35.9,9.1 34.5,8.6 33.6,8.6 C32.6,8.6 30.9,7.1 30.9,5.7 C30.9,4.3 29,2.4 29.2,1.9 C28.9,4.4 25.2,0.5 24.1,1.1 C22.9,1.7 22.1,6.0756955e-14 19.8,0.2 C18.3,0.4 18.4,1.2 17.6,1.8 L17.7,1.8 L14.8,3.9 C14.8,3.9 12.3,4.7 11.7,6.2 C11.1,7.7 12.9,9.3 12.1,10.2 C11.3,11.2 11.5,13.3 11.7,14 C11.9,14.8 10.5,16.9 10.5,16.9 C10.5,16.9 4.8,20 0,22.4 C0.1,23.3 0.2,24.1 0.4,24.8 C0.7,25.9 1.2,27.9 1.5,29.6 C3.3,29.6 3.6,29.4 5.3,29.6 C7,29.8 13.4,34.4 14.9,35.2 C16.4,36 24.9,42.3 26.6,43.8 C28.3,45.3 31.2,45.7 32.4,45.7 C33.1,45.7 35.8,46 38,46.3 C38.7,44.8 39.7,42.5 40.1,42.1" id="Shape" sketch:type="MSShapeGroup"></path>
        </g>
    </g>
</svg>