<?xml version="1.0" encoding="UTF-8" standalone="no"?>
<svg width="42px" height="91px" viewBox="0 0 42 91" version="1.1" xmlns="http://www.w3.org/2000/svg" xmlns:xlink="http://www.w3.org/1999/xlink" xmlns:sketch="http://www.bohemiancoding.com/sketch/ns">
    <!-- Generator: Sketch 3.4 (15588) - http://www.bohemiancoding.com/sketch -->
    <title>Fill 36</title>
    <desc>Created with Sketch.</desc>
    <defs></defs>
    <g id="Page-1" stroke="none" stroke-width="1" fill="none" fill-rule="evenodd" sketch:type="MSPage">
        <path d="M32.09,79.3818122 C32.09,77.8438122 32.09,75.1558122 30.17,73.4278122 C28.25,71.6988122 27.289,69.2008122 28.442,68.2398122 C29.593,67.2828122 28.634,64.5928122 29.209,64.7848122 C29.784,64.9768122 30.554,63.0548122 29.401,62.4788122 C28.248,61.9018122 29.401,59.5998122 28.442,59.2158122 C27.481,58.8308122 24.791,55.7568122 24.791,54.7958122 C24.791,53.8378122 25.56,48.4578122 25.752,47.1128122 C25.944,45.7708122 27.866,45.5788122 28.442,45.5788122 C29.019,45.5788122 31.321,45.7708122 32.09,44.4258122 C32.858,43.0808122 36.123,42.8888122 36.507,41.9298122 C36.892,40.9668122 39.004,40.9668122 39.004,39.8158122 C39.004,38.6608122 41.502,35.7828122 41.502,35.7828122 C41.31,35.2848122 40.679,35.7458122 39.412,36.2508122 C37.254,37.1138122 36.176,35.9278122 36.391,34.6328122 C36.607,33.3388122 34.881,33.3388122 33.695,33.3388122 C32.508,33.3388122 33.263,31.3968122 33.695,30.1018122 C34.126,28.8078122 33.263,28.0528122 31.861,27.9448122 C30.458,27.8368122 29.811,24.8158122 30.35,23.9528122 C30.89,23.0898122 27.438,22.3348122 25.927,23.0898122 C24.417,23.8448122 25.496,21.7958122 25.064,20.7168122 C24.633,19.6378122 27.006,15.9698122 29.056,13.9208122 C31.105,11.8708122 30.242,9.17381223 30.242,6.80081223 C30.242,4.42781223 29.272,4.42781223 28.301,4.42781223 C27.33,4.42781223 27.222,3.02481223 27.222,1.73081223 C27.222,0.435812228 25.172,-0.535187772 23.986,0.327812228 C23.819,0.449812228 23.527,0.617812228 23.163,0.809812228 C23.254,0.828812228 22.87,2.74681223 22.103,3.13281223 C21.336,3.51681223 21.334,4.66681223 22.485,6.39581223 C23.638,8.12581223 20.757,7.35681223 20.375,6.39581223 C19.991,5.43481223 17.685,6.97281223 16.34,8.12581223 C14.996,9.27881223 13.076,9.85481223 13.076,11.9648122 C13.076,14.0788122 11.347,16.1908122 11.731,17.9188122 C12.116,19.6478122 9.81,22.9148122 10.002,23.8758122 C10.194,24.8358122 6.737,23.6828122 6.162,23.6828122 C5.586,23.6828122 5.97,27.3308122 5.201,28.4838122 C4.433,29.6368122 5.009,33.6688122 3.856,33.6688122 C2.703,33.6688122 1.742,37.3198122 1.742,37.3198122 C1.742,37.3198122 0.807,37.9498122 0,38.7388122 C0.944,40.6668122 2.663,42.7708122 4.568,43.5528122 C7.372,44.7028122 9.242,50.3828122 10.105,53.4038122 C10.968,56.4238122 10.393,59.5188122 9.387,61.2448122 C8.379,62.9708122 9.746,63.0418122 11.399,63.9048122 C13.054,64.7678122 14.924,65.0538122 16.146,63.3278122 C17.369,61.6018122 19.886,60.3818122 20.245,58.4398122 C20.606,56.4978122 21.756,59.3738122 22.763,60.3818122 C23.771,61.3868122 24.489,63.3278122 24.705,65.7758122 C24.921,68.2198122 25.137,74.3318122 27.222,76.2738122 C29.307,78.2148122 29.667,82.4598122 29.091,83.9698122 C28.518,85.4798122 30.17,88.0688122 29.738,89.7238122 C29.652,90.0528122 29.556,90.5228122 29.455,91.0428122 C31.33,91.4068122 33.627,83.0308122 33.627,83.0308122 C33.627,81.1078122 32.09,80.9168122 32.09,79.3818122 Z" id="Fill-36" fill="#ED1C24" sketch:type="MSShapeGroup"></path>
    </g>
</svg>