<?xml version="1.0" encoding="utf-8"?>
<!-- Generator: Adobe Illustrator 17.1.0, SVG Export Plug-In . SVG Version: 6.00 Build 0)  -->
<!DOCTYPE svg PUBLIC "-//W3C//DTD SVG 1.0//EN" "http://www.w3.org/TR/2001/REC-SVG-20010904/DTD/svg10.dtd">
<svg version="1.0" id="Ebene_1" xmlns="http://www.w3.org/2000/svg" xmlns:xlink="http://www.w3.org/1999/xlink" x="0px" y="0px"
	 viewBox="0 0 42.2 52.3" enable-background="new 0 0 42.2 52.3" xml:space="preserve">
<g>
	<ellipse fill="#FFFFCC" cx="21.7" cy="6.3" rx="3.7" ry="4.1"/>
	<path fill="#FFFFCC" d="M16.4,40.9c0,0.8,0.1,0.6-0.5,1.1l-5.2,4.4c-0.7,0.5-0.7,1.6,0,2.2l0.7,0.6c0.4,0.4,1,0.4,1.4,0.1l9.5-6.2
		c0.6-0.4,1.6-0.3,1.6-1.1l-0.3-2.7l-6.2-4.6L16.4,40.9z M14.7,44.7c-0.8,0.7-3.7,2.8-3.7,2.8l5.6-4.8C16.6,42.7,15.5,44,14.7,44.7z
		"/>
	<path fill="#FFFFCC" d="M11.5,21.8c0.4-0.8,0.3-1.5,1-1.9l3.8-2.3l-0.1,11.9c0,1.4,0.5,2.8,1.5,3.7l8,6.4l0,9
		c0,0.7,0.5,1.3,1.2,1.4l1.2,0.1c0.7,0,1.2-0.5,1.3-1.3l0.6-9.7c0-2.6,0.3-2.1-1.5-3.9L26,32.7c-1.2-1.2-1.7-3-1.3-4.8l1.8-8.3
		l2.9,4.2c0.8,1,0.6,0.9,1.7,0.9l5.6,0.1c0.6,0,1.2-0.5,1.2-1.3c0-0.6-0.3-1.1-0.9-1.3l-4.7-1.1c-0.5-0.2-0.9-0.5-1.2-1l-3-5
		c-1.2-2-0.5-1.8-3.2-2.1l-7.1-0.8c-1.9-0.1-1.3-0.4-3.1,1l-5.5,4.7c-0.6,0.6-0.5,0.4-0.7,1.2l-2.1,8.7c0,0-0.3,1.3,0.9,1.7
		c0.9,0.3,0.7,0.2,0.9,0.3c0,0,0.9,0.3,1.2-0.5L11.5,21.8z M12.9,15.5c-0.8,0.7-3.3,2.6-3.3,2.6l5.9-5
		C15.5,13.1,13.7,14.8,12.9,15.5z"/>
</g>
</svg>
