<?xml version="1.0" encoding="UTF-8" standalone="no"?>
<svg width="103px" height="82px" viewBox="0 0 103 82" version="1.1" xmlns="http://www.w3.org/2000/svg" xmlns:xlink="http://www.w3.org/1999/xlink" xmlns:sketch="http://www.bohemiancoding.com/sketch/ns">
    <!-- Generator: Sketch 3.4 (15588) - http://www.bohemiancoding.com/sketch -->
    <title>Shape</title>
    <desc>Created with Sketch.</desc>
    <defs></defs>
    <g id="Page-1" stroke="none" stroke-width="1" fill="none" fill-rule="evenodd" sketch:type="MSPage">
        <path d="M61.3909713,17.095282 C61.3909713,17.095282 53.9569083,16.1381589 52.7578659,16.1381589 C51.5588235,16.1381589 48.6811218,15.7792377 47.0024624,14.2239127 C45.323803,12.6685877 36.8106019,6.32764715 35.2518468,5.60980483 C33.6930917,4.8919625 27.3381669,0.225987398 25.6595075,0.106347011 C23.9808482,-0.132933764 23.7410397,0.106347011 21.5827633,0.106347011 C19.424487,0.106347011 20.3837209,1.42239127 16.5467852,1.66167205 C12.7098495,1.90095282 10.5515732,4.29376057 11.7506156,4.77232211 C12.949658,5.13124328 16.5467852,8.36153373 15.3477428,8.95973567 C14.1487004,9.55793761 14.0287962,11.232903 12.470041,11.232903 C10.9112859,11.232903 9.35253078,11.4721838 9.35253078,12.5489473 C9.35253078,13.7453512 7.19425445,15.6595974 5.51559508,15.4203166 C4.55636115,15.3006762 2.39808482,14.2239127 0.719425445,13.2667896 L0.239808482,14.7024743 L0,16.0185185 C0.359712722,17.095282 -0.119904241,21.1630552 0.839329685,21.5219763 C1.91846785,21.8808975 2.51798906,23.7951437 4.79616963,26.3075918 C7.07435021,28.82004 11.7506156,35.5199016 11.8705198,37.1948671 C11.9904241,38.8698325 12.7098495,40.6644383 15.5875513,42.5786845 C18.4652531,44.4929307 18.4652531,46.8857384 20.0240082,48.0821423 C21.5827633,49.2785462 21.2230506,50.5945904 21.2230506,53.4659597 C21.3429549,56.337329 22.5419973,60.046181 25.1798906,61.6015061 C27.8177839,63.1568311 29.6163475,64.9514369 30.8153899,67.9424466 C32.0144323,71.0530967 33.5731874,73.6851852 35.2518468,75.3601506 C36.9305062,77.035116 35.9712722,77.8725987 36.9305062,79.0690026 C37.4101231,79.6672045 38.1295486,80.743968 38.4892613,81.9403719 C39.8082079,81.34217 40.6475376,80.8636084 40.7674419,80.743968 C41.0072503,80.1457661 40.1679207,78.7100815 40.6475376,78.1118795 C41.0072503,77.5136776 41.84658,76.5565545 42.6859097,76.3172737 C43.5252394,76.0779929 44.4844733,77.1547564 46.2830369,76.9154756 C48.0816005,76.6761949 51.798632,77.035116 52.278249,77.5136776 C52.6379617,77.8725987 57.793844,77.633318 59.1127907,78.5904411 C60.3118331,79.5475642 61.6307798,79.3082834 62.4701094,77.3940372 C63.3094391,75.479791 69.1847469,71.2923774 70.0240766,70.9334563 C70.8634063,70.5745351 77.0984268,70.9334563 79.6164159,70.3352543 C82.1344049,69.7370524 98.5612859,64.4728754 99.1608071,63.9943138 C99.8802326,63.3961119 102.518126,54.782004 102.518126,53.8248809 C102.518126,52.8677578 101.319083,50.2356693 100.000137,50.3553097 C98.8010944,50.4749501 88.4893297,49.3981866 87.7699042,48.919625 C87.170383,48.5607039 84.5324897,46.5268173 84.0528728,43.655448 C83.2135431,43.057246 82.2543092,41.7412018 82.0145007,40.5447979 C80.8154583,40.6644383 79.0168947,40.4251575 77.9377565,37.793069 C76.9785226,37.1948671 74.4605335,33.6056554 75.2998632,32.528892 C76.3790014,31.3324881 74.700342,28.7003996 73.1415869,27.2647149 C71.5828317,25.8290303 68.3454172,23.1969418 68.225513,21.5219763 C68.225513,21.0434148 67.9857045,20.3255725 67.6259918,19.4880897 L63.7890561,19.248809 L61.3909713,17.095282 L61.3909713,17.095282 Z" id="Shape" fill="#ED1C24" sketch:type="MSShapeGroup"></path>
    </g>
</svg>