<?xml version="1.0" encoding="UTF-8" standalone="no"?>
<svg width="51px" height="68px" viewBox="0 0 51 68" version="1.1" xmlns="http://www.w3.org/2000/svg" xmlns:xlink="http://www.w3.org/1999/xlink" xmlns:sketch="http://www.bohemiancoding.com/sketch/ns">
    <!-- Generator: Sketch 3.4 (15588) - http://www.bohemiancoding.com/sketch -->
    <title>Fill 16</title>
    <desc>Created with Sketch.</desc>
    <defs></defs>
    <g id="Page-1" stroke="none" stroke-width="1" fill="none" fill-rule="evenodd" sketch:type="MSPage">
        <path d="M14.976,15.077615 C15.947,15.292615 21.341,17.126615 24.793,18.529615 C28.245,19.931615 30.403,20.039615 31.481,20.039615 C32.56,20.039615 34.178,20.363615 33.207,21.118615 C32.237,21.873615 21.665,32.553615 20.262,34.063615 C18.86,35.573615 17.997,35.034615 14.868,35.034615 C11.74,35.034615 9.367,38.486615 8.504,38.378615 C7.991,38.314615 6.154,38.631615 4.559,38.988615 L2.24,42.393615 L0,45.879615 L0.248,63.304615 L2.661,67.127615 C4.563,64.585615 9.683,59.694615 13.466,55.712615 C17.565,51.397615 19.652,50.389615 21.951,49.240615 C24.254,48.087615 30.079,42.406615 34.035,37.373615 C36.528,34.201615 39.286,30.685615 39.645,28.382615 C40.004,26.080615 42.306,23.060615 44.032,20.831615 C45.758,18.603615 48.634,12.919615 48.563,11.193615 C48.49,9.46761498 50.001,5.79961498 50.216,2.70861498 C50.432,-0.383385018 47.843,-0.672385018 47.053,1.05361498 C46.261,2.77961498 40.076,3.93261498 36.12,4.00261498 C32.164,4.07361498 29.792,4.43461498 28.353,5.79961498 C26.913,7.16861498 23.32,5.44261498 22.025,6.95261498 C20.731,8.46261498 15.624,9.75761498 13.97,6.30561498 C13.274,4.84961498 12.348,4.03961498 11.47,3.52761498 C10.078,4.95361498 8.416,7.06061498 8.719,7.74161498 C9.151,8.71261498 10.877,11.732615 11.74,12.164615 C12.603,12.595615 14.005,14.861615 14.976,15.077615 Z" id="Fill-16" fill="#ED1C24" sketch:type="MSShapeGroup"></path>
    </g>
</svg>