<?xml version="1.0" encoding="UTF-8" standalone="no"?>
<svg width="60px" height="39px" viewBox="0 0 60 39" version="1.1" xmlns="http://www.w3.org/2000/svg" xmlns:xlink="http://www.w3.org/1999/xlink" xmlns:sketch="http://www.bohemiancoding.com/sketch/ns">
    <!-- Generator: Sketch 3.4 (15588) - http://www.bohemiancoding.com/sketch -->
    <title>Fill 20</title>
    <desc>Created with Sketch.</desc>
    <defs></defs>
    <g id="Page-1" stroke="none" stroke-width="1" fill="none" fill-rule="evenodd" sketch:type="MSPage">
        <path d="M1.62883673,8.34102047 L8.46583673,8.06402047 C8.46583673,8.06402047 9.49783673,5.29102047 11.3038367,5.29102047 C13.1088367,5.29102047 15.4948367,7.87102047 15.9468367,7.87102047 C16.3978367,7.87102047 17.0428367,9.54702047 19.1708367,9.67602047 C21.2988367,9.80502047 25.6188367,7.54802047 26.3288367,7.48402047 C27.0378367,7.41902047 31.0358367,8.58002047 31.6158367,9.41802047 C32.1968367,10.2570205 35.4848367,9.22502047 35.4848367,9.22502047 L39.9988367,3.29202047 C39.9988367,3.29202047 40.2568367,-1.35097953 42.5138367,0.391020473 C44.7708367,2.13202047 47.0918367,8.25802047 48.1888367,8.58002047 C49.2848367,8.90202047 51.0178367,7.66002047 51.0178367,7.66002047 L51.1698367,7.68102047 C51.1648367,8.18102047 51.1308367,9.17502047 51.1018367,9.68402047 C51.0048367,11.4000205 50.7778367,13.3460205 50.5498367,13.5740205 C50.2478367,13.8760205 46.6408367,12.9710205 46.6408367,14.4740205 C46.6408367,15.9780205 45.1368367,15.9780205 45.7368367,17.1810205 C46.3408367,18.3850205 49.6478367,18.0850205 50.2478367,19.5880205 C50.8498367,21.0920205 53.5568367,22.5960205 54.4578367,25.0020205 C55.3618367,27.4060205 57.7668367,28.6100205 58.9688367,28.6100205 C59.8658367,28.6100205 59.2588367,30.1200205 58.8918367,32.8810205 C58.3958367,32.6750205 57.9288367,32.4460205 57.6778367,32.1460205 C57.1388367,31.4990205 55.8438367,31.6070205 54.7648367,31.8220205 C53.6868367,32.0380205 51.0978367,33.5480205 50.8818367,34.4110205 C50.8128367,34.6880205 50.5608367,34.9510205 50.2578367,35.2070205 C49.6068367,35.7570205 48.6898367,36.2720205 48.6158367,36.7850205 C48.5078367,37.5400205 46.4588367,37.4320205 45.5958367,37.0000205 C44.7328367,36.5690205 42.4668367,37.5400205 42.0358367,38.1870205 C41.6038367,38.8340205 40.0938367,37.0000205 39.0148367,37.1080205 C38.0208367,37.2090205 35.7648367,38.0340205 35.4178367,38.1600205 C33.0958367,36.0350205 30.4098367,33.8280205 29.7978367,33.4200205 C28.8948367,32.8200205 27.3928367,34.0240205 27.3928367,34.0240205 C27.3928367,34.0240205 25.8898367,32.5170205 24.6858367,33.7200205 C23.4828367,34.9240205 21.6788367,33.7200205 21.6788367,33.7200205 C21.6788367,33.7200205 20.1758367,32.8200205 19.5738367,31.3170205 C19.3278367,30.7030205 18.8758367,30.3420205 18.3128367,30.0460205 L17.1898367,27.2410205 C17.1898367,27.2410205 13.8898367,25.7420205 13.8898367,24.8410205 C13.8898367,23.9410205 13.8898367,23.0400205 12.0898367,21.5400205 C10.2898367,20.0400205 8.65783673,19.6300205 9.08983673,18.8400205 C9.36483673,18.3350205 9.06483673,18.4620205 6.99083673,15.8400205 C5.53683673,14.0020205 3.09083673,14.0390205 3.09083673,14.0390205 L2.49183673,12.5390205 L0.391836735,12.2390205 C0.391836735,12.2390205 -0.808163265,11.3420205 0.991836735,10.4420205 C1.89083673,9.99202047 1.89083673,9.16702047 1.62883673,8.34102047" id="Fill-20" fill="#ED1C24" sketch:type="MSShapeGroup"></path>
    </g>
</svg>