<svg width="80" height="71" viewBox="0 0 80 71" xmlns="http://www.w3.org/2000/svg"><title>Fill 633</title><path d="M8.824 69.148l6.837-.277S16.694 66.1 18.5 66.1c1.804 0 4.19 2.58 4.642 2.58.45 0 1.096 1.676 3.224 1.805 2.128.13 6.448-2.128 7.158-2.192.71-.064 4.707 1.097 5.287 1.935.582.84 3.87-.193 3.87-.193l4.514-5.933s.258-4.644 2.515-2.902c2.256 1.74 4.577 7.867 5.674 8.19 1.096.32 2.896-.92 2.896-.92l.22.02v-.12c0-1.804 2.32-3.01 1.417-3.91-.902-.905.87-1.205 2.072-2.105 1.2-.904.284-3.61 1.485-4.814 1.202-1.203 2.097-3.608 3-3.608.9 0 2.1-1.204 2.1-2.407 0-1.204 2.104-3.607 1.802-5.714-.3-2.103-1.203-4.81.3-6.614 1.504-1.806 2.105-3.31 1.805-4.813-.3-1.504 1.803-1.804 2.705-2.708.64-.637 2.935-1.587 4.647-4.325-1.094-1.34-2.27-2.444-3.022-2.79-1.726-.79-2.877-3.81-2.877-7.623s-.934-6.833-1.08-8.054c-.144-1.224-2.012-3.813-4.242-5.036C67.04 2.984 66.16 1.69 65.898.192c-.05.064-.118.142-.162.203-1.44 2.012-1.15 1.726-2.59 1.726s-.862 3.453-3.165 3.453c-2.3 0-1.435 2.003-2.874 2.003-1.44 0-2.59-1.74-2.59-1.74H48.19s-1.44-1.08-2.303-.507c-.863.576-1.726 1.507-1.726 1.507H14.5v10h-4V32.85s.042 4.8-.856 5.1c-.9.3-4.33 1.2-4.33 2.7 0 1.5-.363 2.7-1.863 3-1.5.3-.03 3.6-2.132 3.6-2.1 0 .884 2.4-.316 3.597-1.2 1.2-.908 2.7.592 2.7s.896 1.8.896 3.603c0 1.798 2.4 2.998 2.4 2.998l-.602 2.1s3.3 3.9 3.6 4.8c.15.45.674 1.274.936 2.1" fill="#ED1C24" fill-rule="evenodd"/></svg>