<?xml version="1.0" encoding="UTF-8" standalone="no"?>
<svg width="34px" height="27px" viewBox="0 0 34 27" version="1.1" xmlns="http://www.w3.org/2000/svg" xmlns:xlink="http://www.w3.org/1999/xlink" xmlns:sketch="http://www.bohemiancoding.com/sketch/ns">
    <!-- Generator: Sketch 3.4 (15588) - http://www.bohemiancoding.com/sketch -->
    <title>Shape</title>
    <desc>Created with Sketch.</desc>
    <defs></defs>
    <g id="Page-1" stroke="none" stroke-width="1" fill="none" fill-rule="evenodd" sketch:type="MSPage">
        <path d="M3.722,17.436 C3.627,17.055 1.535,19.878 -1.42108547e-14,22.557 L0.25,22.665 L0.634,24.391 L5.052,26.696 C5.052,26.696 8.317,24.391 9.66,24.198 C11.005,24.008 26.371,15.75 26.371,15.75 C26.371,15.75 27.713,13.637 27.522,12.868 C27.332,12.099 27.138,9.986 27.907,9.025 C28.675,8.067 26.946,6.532 27.522,4.993 C28.099,3.456 30.595,2.689 30.595,2.689 L33.477,0.577 L31.556,1.77635684e-15 C31.556,1.77635684e-15 29.058,0.961 26.179,0.771 C23.297,0.577 22.722,2.689 19.649,2.689 C16.574,2.689 14.847,3.456 14.078,2.498 C13.31,1.538 13.119,2.114 11.005,3.075 C8.892,4.032 7.546,3.844 6.587,3.075 C5.628,2.306 4.86,3.267 4.668,4.224 C4.486,5.13 4.77,7.194 1.789,7.602 C1.585,8.489 1.234,9.409 1.748,10.053 C2.508,11.004 1.597,12.123 1.367,13.654 C5.177,13.485 4.016,18.62 3.722,17.436" id="Shape" fill="#ED1C24" sketch:type="MSShapeGroup"></path>
    </g>
</svg>