<?xml version="1.0" encoding="utf-8"?>
<!-- Generator: Adobe Illustrator 17.1.0, SVG Export Plug-In . SVG Version: 6.00 Build 0)  -->
<!DOCTYPE svg PUBLIC "-//W3C//DTD SVG 1.1//EN" "http://www.w3.org/Graphics/SVG/1.1/DTD/svg11.dtd">
<svg version="1.1" id="Ebene_1" xmlns="http://www.w3.org/2000/svg" xmlns:xlink="http://www.w3.org/1999/xlink" x="0px" y="0px"
	 viewBox="0 0 1280 800" enable-background="new 0 0 1280 800" xml:space="preserve">
<g>
	<defs>
		<rect id="SVGID_1_" x="2" width="1276.1" height="800"/>
	</defs>
	<clipPath id="SVGID_2_">
		<use xlink:href="#SVGID_1_"  overflow="visible"/>
	</clipPath>
	<g clip-path="url(#SVGID_2_)">
		<path fill="#010101" d="M-718.6,385l6.3,34.8c0,0,15.4-13,21.1,14c50.1,237.2,222.8,483,431.8,615.2c4.6,2.9,11.7,10.9,13.4,8.4
			c4.3-6.2,12.8-6.3,16.9-11.9C-219,1032-138.3,899-115.2,860c10-16.9-3.3-16.8-12.1-22.1c-210.8-128.3-301.9-351.7-311.9-464.2
			c-0.7-8,4.2-9.9,12.4-15.1l-274.2,12L-718.6,385z M355.9,64.3c29.2,0.6,17.4,87.5,16.7,110.4H354c0,0,2.8-6.7-2-7.5
			c-4.7-0.8-138.3-12.6-161.2,0c-30,0-84.2-2.4-84.2-2.4s-3.2-5.5-10.7-5.5c-7.5,0-84.6-2.4-92.9,5.5c-18.6,0.4-25.7,1.2-25.7,1.2
			S-21.9,69.2-36,57C-31.7,55.9,304.2,63.3,355.9,64.3 M-173.2,370.5c-45.8,0.5-44.8-10-44.8-10l4.2-179H-2.1l7.9,11.9h99.6
			l12.3-11.9h83l13.4,9.5h97.2l13.8-9.5h50.4c0,0-1.1,43.7-2.2,81.4c21.6,2.9,25.4,39.3,19.4,52.6c-53.7-0.8-204.5,22.9-357.3,22.4
			C-117.3,337.3-127.3,370-173.2,370.5 M-1320.9,698.8c6.3-17.4,59.6-144.4,72.2-185.5c12.6-41.1-22-66.2-11.6-97.5
			c3.3-7.4,169.1,9.1,252,15.4c0,0,14.6,35.2,0,45.4c-14.6,10.3-41.9,30.8-47.8,45.1c-23.1,55.6-82.2,190.5-91.7,264.8
			c-2.3,18.2-20.6,23.7-44.3,23.7c-33.2,0-104,0.8-132-69.6C-1329,728.2-1327.2,716.2-1320.9,698.8 M-2267.4,340.6
			c83.4-14.8,510.8-90.6,545-96.3c37.9-6.3,60.1,22.1,82.2,26.9c22.1,4.7,89.3-13.4,89.3-13.4l26.9,1.6l124.5-29.3l34.9,176.3
			c-218.7,88.5-529.7,225.9-809.4,374.1c-6.5,1-12.2,1.3-17.4,1.3L-2267.4,340.6 M-2299.4,385.4c-8.8-22.9,4.3-36.8,17.9-42.3
			c0,0-0.1,0,9-1.6l77.7,440.2c-34.7-1.4-39.2-30.5-41.4-55C-2240.1,683.5-2274.6,449.5-2299.4,385.4 M-341.5,107.5l13.4,3.9
			l-0.7,34H-1245c8.6-18.1,42.8-57.2,62.5-59.3c9.5,0,812.3-4,837.1-4.5L-341.5,107.5z M-1314.4,215.6l-1.5,90.9l40.4,84.3
			l-78.6,13.2l-37.5-174.7L-1314.4,215.6z M-328.1,151.5l-1,12.9c0,0,7.4,2.3,5.9,12.9c-1.5,10.6-11.4,9.4-17.6,9.4
			c-6.2,0-132.8,0.6-139.6,0.9c-6.8,0.2-16.4,0.6-16.8,11.1c-0.4,10.4,3.8,17.4-27.3,19.1c-31.1,1.7-746.6,1.6-756.4,1.6
			c-9.9,0-14.5-9.1-14.1-11.5c1.6-12.2,14.2-29.3,43-57.6l9.1-0.5L-328.1,151.5z M-1300.7,211.5c0,0,2.4,13.4,14.9,14.5
			c10.7,0.2,734.2-2.4,763.3-2.8c29.1-0.3,29.4-11.8,29.4-16.9c0-5.1-0.6-15,11.2-15.3c11.8-0.3,115.5,0,146.2,0.1
			c21.7,0.1,18.6-26,11.9-27.9l0.3-11.6l76.8,1.1l-2.1,86.6l-1060.9,3.6l0.3-29.5L-1300.7,211.5 M-248.9,241.7l-1060.9,5.9
			l-0.5,56.3l40.6,85l11.1,4.8l248.5-12.7l203.1-7.9l4.3,13.8l79.1-3.1c0,0,18.7-18.5,21.8-20.6c3.1-2.1,450.5-22.3,450.5-22.3
			L-248.9,241.7z M-1009.4,424.5l-249.2-18.2v-9.5l248.5-12L-1009.4,424.5z M-243.9,146.7l-80.4-1.2l0.5-36.8l-15-6.3v-30l25.7-1.6
			l-0.8-9.5l-38.3-2l-3.2-32h11.9l15,15.8l17.4,1.2c0,0,3.4-12.3,19.5-12.2c18.6,0.2,16.4,9.7,21.9,9.7c5.5,0,68.5,0,68.5,0l2-5.5
			l30.8,0.4c0,0,12.3-8.9,17.5-9c5.2-0.1,15.6,7.8,15.6,7.8l20.4,2.6l2.9,5.7c0,0,31.4-13.2,40.4,10.6l1.9,123l-171.5,3.9
			L-243.9,146.7z M-1017.9,490.7c0,0,6.6-7.7,11.4-10.9c4.2,10.3,25.6,23.8,36.4,24c11.6,0.2,122.4,0,136.1-3.2
			c13.7-3.2,29-13.7,32.7-20.5c3.7-6.9-2.1-89.1-2.1-89.1l80.9-2.1c0,0,18.2,76.3-13,89.3c-4.7,20.2-17.4,51.4-17.4,51.4h-6.7
			l3.2-35.6c0,0-3.6-5.5-5.9-5.9c-2.4-0.4,3.6-9.3,0-11.1c-8.7-4.3-14.2,7.5-14.2,7.5l-9.5,0.8c0,0-8.3,27.4-46.2,27.9
			c-38,0.5-122.2,5.4-136.5,5.3C-998.8,518.4-1017.9,490.7-1017.9,490.7 M-923.1,381.3c-15,5.1-44.9,66.8,19.2,86.8
			c23.8,5.8,0.4,15.3-8.2,12.5c-8.7-2.8-45.4-12.6-54.9-64c-10.3-22-29.5-4.3-39.4-32.4C-996.8,382.9-923.1,381.3-923.1,381.3
			 M369.8,66.8c20,12.6,8.7,115.7,9.9,189.8l15.5,12.2l3.8,30l300.4-3.2l6.3,7.9h30l11.1-8.7l384.1-4.5c0,0,11.6,7.9,26.9,7.9
			c15.3,0,29.5-6.9,32.7-17.9c3.2-11.1,20-19,27.9-20.6c5.8-5.8,13.2,0,13.2,0h16.9l10-28.5v-24.8l-10-12.6h-21.9l-18.2-18
			l-2.8-27.3l-6.7-3.2c0,0-0.5-47.4,2.2-81.4c4.8-6.7,5.3-19.6,3.1-25.3c-6.9-12.5-17.4-16.7-17.4-16.7L1146,19l-7.5,5.9
			c0,0-21.7-1.2-22,22.9c-0.2,15.3,12.1,16.3,7.8,25.3c-4.4,9.1-54.5,108.7-54.5,108.7s3.2,12.2-3.2,15.8
			c-6.3,3.6-225.3,0.2-225.3,0.2l-15.8-11.3l-23.3-4.7l-34.4-30.4l-18.2-39.5l-29.2-24.1l-260.4,0.4l-5.5-4.7l-53.3,1.2L387.2,68
			L369.8,66.8 M834.3,259.8h236.1l4.5,6.5l40.7-0.3l3.6,6.7H834.3V259.8z M682.4,170l-2,26.5H463.4V170H682.4z M457.6,276l9.5-11.4
			h215.4v9L457.6,276z M-218,184.6l-3.4,173.9c0,0-15-11.1-23.7-10.7c0.4-16.6,2.8-163.2,2.8-163.2H-218z M-40.4,56.9
			c15.8,11.7,12.6,117.9,12.6,117.9h-37.5l-2.4-99.2l7.5-0.4l4.8-18.3C-55.4,56.9-53.8,57.4-40.4,56.9"/>
	</g>
</g>
</svg>
