<?xml version="1.0" encoding="utf-8"?>
<!-- Generator: Adobe Illustrator 17.1.0, SVG Export Plug-In . SVG Version: 6.00 Build 0)  -->
<!DOCTYPE svg PUBLIC "-//W3C//DTD SVG 1.0//EN" "http://www.w3.org/TR/2001/REC-SVG-20010904/DTD/svg10.dtd">
<svg version="1.0" id="wordmap" xmlns="http://www.w3.org/2000/svg" xmlns:xlink="http://www.w3.org/1999/xlink" x="0px" y="0px"
	 viewBox="0 0 1280 800" enable-background="new 0 0 1280 800" xml:space="preserve">
<g>
	<g>
		<defs>
			<rect id="SVGID_1_" x="-1" width="1280" height="800"/>
		</defs>
		<clipPath id="SVGID_2_">
			<use xlink:href="#SVGID_1_"  overflow="visible"/>
		</clipPath>
		<g clip-path="url(#SVGID_2_)">
			<path d="M349.2,489.2c0.5,0.4,2.3,0,3.1-0.4c0.8-0.3,0.7-1.6-0.2-2.4c-0.9-0.8-3.9,0.4-3,0.8C350,487.7,348.6,488.7,349.2,489.2z
				 M282.8,425.6c-0.8-1.4-1.5-0.5-1.5,1.2c0,1.6,1.4,1.8,1.4,2.7c0,0.9,1.4,2.2,1.6,1.6c0.5-0.9-1-1.8-1.1-2.5
				C283.1,427.9,283.6,427,282.8,425.6z M175.3,125.9c1.4-1.8-5.8-7.6-6.1-4.9C168.8,123.7,173.7,127.8,175.3,125.9z M174,110.7
				c2.2-1.4,6.1,0.9,5.4,2.5s-6.9-0.3-6.5,1.1c0.2,0.5,0.9,2.7,5.2,1.4c4.3-1.3,7.9-0.4,10.8,2c2.9,2.3,5.6,3.2,7.6,0.9
				c2-2.3-2.5-2.7-1.6-4.5s-2.9-2.9-4.9-2.9s-2.7-3.6-4.3-2.9s-2.7,2-2.7-0.4c0-2.3-9.4-2.5-11.7-1.6
				C169,107.3,171.8,112.2,174,110.7z M198.6,102.3c1.3-2.2-7.6-3.9-5.4-2C194.5,101.4,197.4,104.4,198.6,102.3z M152.8,119.7
				c2.3-0.4,1.3-2.2-2.5-1.6c-3.8,0.5-10.3,0.5-10.3,3.2c0,2.2,1.3,3.2,5.4,3.6c4.1,0.4,7.7-3.6,5.8-3.6
				C149.2,121.4,150.4,120.1,152.8,119.7z M128.5,133.6c-2.5,0.2-2.3,2.7,0.5,2.7c2.9,0,3.8,0.9-0.4,0.7s-5.9,3.4-3.1,2.7
				c2.8-0.7,6.3-0.7,4.1,0s-8,1.2-7.2,2.3c0.5,0.7,2.9,0.5,5.2,1.4c2.3,0.9,3.8,1.4,5.6-0.5c1.8-2,4.1-4,3.2-1.3
				c-0.9,2.7,2.9,0.7,7.7,0.5c4.9-0.2-0.9,2.9-5.9,3.2c-5,0.4-4.1,2.9-0.2,3.8s12.4-2.5,14.4-4.5s3.8,1.1,5.8-0.4
				c2-1.4,5.8,0.2,9.2-0.5s4-7.2,1.4-8.3s-2.5,1.3-4.5,1.6c-2,0.4-3.1-2.2-4.7-3.8c-1.6-1.6-0.5-4.7-2.9-4.3
				c-2.3,0.4-7.4,4.1-4.3,4.5s2,2,0.4,2.7s3.8,2,3.1,3.1s-9,0.2-9.4-1.6s-6.8-5-9.5-4.3s-1.6-2.2-4.3-2.3S131,133.4,128.5,133.6z
				 M137.8,120.6c0.9-2.2-6-1.8-5.4-1.1C133.7,121.2,136.9,122.8,137.8,120.6z M143.9,116.3c1.8,0.7,3.6-1.6,4.9-0.5s6.8,2,6.8-0.9
				s-7-3.2-8.8-2.2c-1.8,1.1-10.1,1.4-7.7,3.2C140.5,117.1,142.1,115.6,143.9,116.3z M183.7,183.8c1.1-1.3,5.6,2.5,5.8-0.2
				s-5-4-7.2-5.4s-3.1-0.7-6.5-3.2s0.9-3.8-1.6-5.8s-3.4-7.4-1.6-9.2c1.8-1.8,3.8-4.5,0.5-5.8c-3.2-1.3-8.5,1.1-7.9,1.8s5,3.2,5,4.3
				s-4.1-3.1-5.6-2.2c-1.4,0.9-3.1-1.8-4.3,0c-1.3,1.8,1.6,8.1,2.7,9.9c1.1,1.8-1.1,1.8-2.5,2.2s-1.6-5-3.1-7
				c-1.4-2-7.2-4.3-7.6-2.9c-0.4,1.4,3.6,1.4,3.1,3.4s-2.7-1.3-4.7,0.4c-2,1.6-1.6,0.5-1.3-1.1c0.4-1.6-2.9-3.4-6.5-3.1
				c-3.6,0.4-1.6,2.9-2.7,3.8c-1.1,0.9-6.5-0.5-3.1-1.3s2-2.7,0.7-4.7s-4.7,0.4-10.3,2.3c-5.6,2-8.1,4.1-7.4,4.3s0.9,1.1-1.3,2.9
				c-2.2,1.8,0,3.4,2,3.4s0.2,1.6,1.6,2c1.3,0.4,7.7-2.5,9.5-1.3c1.8,1.3-10.6,2-10.6,4.1c0,2.2,6.8,3.4,11.9,2.5
				c5-0.9,13.9,0.7,13.9,2s-5.9,0.9-10.4,0.7s-12.2,1.3-11.9,2.7c0.4,1.6,0.9,1.6,5.6,3.8s9.5-1.1,9.4,2s2.5,3.8,8.8,4
				s9.2-2.9,12.2-2.7s4.5-0.4,5.9-2.5c1.4-2.2,2.7-0.9,3.1,0.2c0.4,1.1,4.3,0.9,5.2,1.8c2.3,2.3,9.9,1.6,12.8,0.2s-1.3-5.4-2.7-3.6
				c-1.4,1.8-2.7,0.7-3.1-0.2S182.6,185.1,183.7,183.8z M220.8,120.8c-0.4-1.1-14,0.6-11.9,2.2C212.5,125.7,221.1,121.9,220.8,120.8
				z M635.4,353.1c-0.7,1.1,2,2.9,1.5,5.2c-0.5,2.3,0.3,5.3,1.7,3.9s2-0.7,2.8-1.7s0.1-4.8,0.7-6.6c0.5-1.8-2.4-2.6-3.7-1.5
				C637,353.6,635.9,352.2,635.4,353.1z M218.8,147.1c3.2-0.2,1.6-4.1-2-6.8s-11.7,2.8-10.3,4C208.2,145.5,215.6,147.3,218.8,147.1z
				 M178.3,143.1c1.3-1.4-2.7-4.5-3.8-2C173.5,143.7,177,144.6,178.3,143.1z M100.4,134.5c1.3,0.5,0,3.1,1.4,2.3s1.8-0.9,2.9-0.5
				c1.9,0.6,2.3-1.1,3.2-2c0.9-0.9,0.5,3.2,2.9,3.2c2,0,1.6-4.3,3.4-3.1c1.8,1.3,2.3-0.5,2.7-1.8s0.4-3.4,2.3-3.8
				c2-0.4,0.4,2,1.3,3.6c1.3,2.4,3.6,0.2,3.8-0.9c0.2-1.1,3.4-0.4,3.2-1.6c-0.2-1.3,0.9-1.6,0-3.1c-0.9-1.4,1.4-1.1,2.5-2.2
				c1.1-1.1-1.4-0.2-3.2-1.8s-2.5,0.5-2.5,1.6s-3.4,0.2-5.4-0.5s-4.5,2.3-7.4,3.8s-3.1,4-5.8,3.8C103.1,131.4,99.1,134,100.4,134.5z
				 M208.4,102.1c2.7,1.3,1.1,3.1,4,4.3c2.9,1.3,11.2-1.6,11.9,0.4s-8.5,2.2-7.2,3.4s6.5,3.2,5.8,4.3c-0.7,1.1,8.6,4.1,9.5,2.7
				s3.4-1.1,5.8-0.2c2.3,0.9,2.5-5.6,4.1-4.5s1.4-2.3,4.1-3.4c2.7-1.1,6.6-1.1,6.8-2.3c0.2-0.9-0.7-2.2-4-1.8
				c-3.2,0.4-5.4-0.9-4-2.7c1.4-1.8-3.6-2.3-1.8-3.8c1.8-1.4-3.4-2.9-2.9-0.7c0.5,2.2-3.2,0.2-3.8-1.8c-0.5-2-7.9-2.7-12.8-7
				c-4.9-4.3-9.9-1.4-7-0.9s2.7,2,0.4,1.8s-6.5,0.2-2.7,1.6s-0.4,2-3.4,2s-3.2,4,0.7,4.5c4,0.5,1.1,2.9-2.2,2
				C206.6,99,205.5,100.7,208.4,102.1z M206.2,119.9c2.7,0,4.9-0.4,7.2-1.3s-1.3-0.9,0.4-3.1c1.6-2.2-4-2.3-4.3-1.6
				s-7.4-4.3-8.5-2.7C199.9,112.9,203.5,119.9,206.2,119.9z M198.6,130.5c-0.2,1.8-4.3-0.4-7.6-1.6c-3.2-1.3-1.3,2.5,1.3,4.7
				c2.5,2.2-1.3,1.1-4.7-1.3s-3.1,1.6-1.4,2.9c1.6,1.3-0.4,3.1-2.5,0.2c-2.2-2.9-3.2-5.9-6.7-6.1s-1.9,3.3-0.5,5
				c1.8,2.3,3.6,2.9,6.5,4.5s7.6-0.7,9.7-0.2c2.2,0.5-2.3,3.2-0.9,5c1.4,1.8,5.4,0.5,8.5,0.4s1.6-2,3.4-3.2c1.8-1.3-1.8-1.1-0.4-4.1
				S198.8,128.7,198.6,130.5z M234.3,122.3c-3.2-1.6-7.3,1.8-4,3.1C233.2,126.4,237.5,123.9,234.3,122.3z M271,154.5
				c-1.1,2.3,2.3,2.3,2.5,5s3.6,3.6,6.1,2s9.7,0.5,9.7-1.6c0-2-7.6-5.6-10.3-5C276.4,155.4,272.1,152.1,271,154.5z M58.8,285.3
				c-3.2,1.7,4.5,9.9,6.2,8.9c1.1-0.7-1.9-4.1-1.9-6.3C63.1,285.8,62.1,283.6,58.8,285.3z M-20.6,259.3c0.1-1-1.3-0.9-3.1,1.2
				s-3.3,3.1-3.6,4.1c-0.3,1-2.3-0.2-3,1.1c-0.6,1.3,0.4,4.1,1.7,3.1c1.3-0.9,1.3,0,2.2,0s4.5-2.5,5.3-3.8s-1.4-1.6-1.5-2.4
				s1.9-0.8,2.9-1.3C-18.8,260.7-20.7,260.3-20.6,259.3z M115.3,139.5c3.2,0.4,6.5-2.5,6.3-4.1C121.4,133.8,113.7,139.4,115.3,139.5
				z M-78,248.7c-0.2-1.4-4-0.1-3.6,1.3c0.4,1.3,4.1,2.2,5.7,1.7c1.3-0.4,1.8-1.9,0.8-2.8S-77.8,250.1-78,248.7z M-81.6,288.5
				c2.2-0.9,3.1-2,2.2-3.1C-80.3,284.4-83.2,289.2-81.6,288.5z M1370.1,228.3c-0.8,0.6-6.1,0.3-5,1.6c1,1.1,5.5,0.5,7.6,1.7
				c2,1.2,4.9,0.2,4.9-0.7C1377.5,229.8,1370.9,227.7,1370.1,228.3z M-66.3,280.4c-2-0.7-7.2,2.4-5.4,2.7c1.3,0.2,1.8-1.1,3.2-1.1
				S-64.3,281.2-66.3,280.4z M93.7,169c3.2,0.7,3.6,6.5,5.8,6.5c1.4,0,0.4-1.8,2.7-1.8c2.3,0,1.8-1.3,4-1.1s4-0.5,4-3.1
				s1.6-3.4,3.8-4c2.2-0.5,0.2-3.2,3.2-4c3.1-0.7,11.5-4.3,13-5.4c1.4-1.1-1.8-2.5-5-4.5s-5.8-2.5-8.3-0.9s-0.5-1.8-2.5-0.9
				c-2,0.9-7.4-1.4-8.1-2.3c-0.7-0.9-10.4,2-12.8,2c-2.3,0,0.2,2.5,1.8,3.8c1.6,1.3-4,5.2-2.9,6.1c1.1,0.9-1.1,3.2-3.6,6.1
				C86.2,168.5,90.5,168.3,93.7,169z M864.6,93.4c4.5-0.5,4.4-3,2-3.5s-2.8,1.4-4,1.3s-5.7,0.8-4.8,1.8
				C859,94.2,862.3,93.6,864.6,93.4z M855.9,94c0.8-1.1-1.6-1.1-1.8-2.2s-7-1.3-6.6-0.1c0.4,1.2-4.6,2.5-3.1,3.7
				C847.2,97.7,855,95.1,855.9,94z M887.8,160.1c1.6,0.2,5.8-0.6,6.2-1.4c0.5-0.8-1.7-1.8-4.4-1.8
				C886.8,156.9,886.4,159.9,887.8,160.1z M922.8,161.9c1.9,1,3.4,0.6,3.1-1.3C925.7,158.7,921.3,161.1,922.8,161.9z M834.7,89.8
				c2.9,0,2-1.8,4-1.6c1.9,0.2,4.4,0.1,3.5-1.1c-1-1.2-7.9-0.7-7.2,0.2c0.7,1-5.6,0.6-5.5,1C829.7,89.1,831.9,89.8,834.7,89.8z
				 M835.3,96.3c0.4,1-0.6,1.1-3,1.1s-3.7,1.4-2.4,2.4c1.4,1.2,7.8,0.7,8.9-0.7s3.8-0.2,4.3-1.7C843.6,95.9,835,95.3,835.3,96.3z
				 M836.8,92.1c0.4-2.5-3.8-0.5-7-1.8c-3.1-1.3-5-1.2-2.9,0.6c1,0.8-5.3,1.5-4.3,2.5C824.9,95.7,836.4,94.6,836.8,92.1z
				 M973.3,90.3c0.5-1.8-7.5-1-5.4,0.7C968.6,91.6,972.8,92.1,973.3,90.3z M1171.6,151.2c0-1.8-6.5,0.7-3.8,1.6
				C1169.2,153.3,1171.6,153,1171.6,151.2z M1181.2,159.1c2.2-0.5-1.6-4.4-5.3-5c-3.7-0.6-7.2,2.5-6.7,3.1
				C1170.3,158.8,1179.1,159.6,1181.2,159.1z M1192.5,143.7c2.9,0.2,4.3,3,9.8,3.4s9.6-0.7,9.7-1.9s-5-3-6.6-2s-2.8-1.6-4.7-1
				c-1.9,0.6-4.6,0.5-5.5-1.2C1194.3,139.2,1191.1,143.6,1192.5,143.7z M1156.2,143.8c1.7,0.8,2.3,1.7,3.2,2.6c1,1,4.6-0.5,6-1
				s1.6,2.2,3.8,0.7s4.6-0.7,7.2-0.7s-0.5-3.2-0.4-4.7c0.1-1.4,3.1-0.5,2.2,0.7c-1,1.2,1.4,4,5.3,3.7c3.8-0.2,1-2.6,2.9-3.5
				c1.9-0.8,1.7-1.8-1.1-3.5c-2.8-1.7-6.4-0.6-8.8-1.7c-2.6-1.2-5.6-1.2-5.8,1.4c-0.1,2.6-5.2-2.9-7.8-3.7
				C1160.4,133.5,1152.2,141.8,1156.2,143.8z M1326.4,177.3c2.4,1.2,3.8-1.4,5.8-0.1c1.9,1.3,6.6-0.6,8.5-1s1-2.8-4.4-3.5
				C1330.8,172,1323.8,176,1326.4,177.3z M818.9,158.7c0.1,1.2-0.6,2-2.9,2c-2.3,0,1.1,1.4,1.3,2.8c0.2,1.3-2.3,0.4-2.4,2.4
				c-0.1,2-4.4,0-5,2.6s2.2,2.3,4.1,2.4c1.9,0.1-0.7,1.9,0.7,3s2.5,0.7,1.6-1.3c-1-2,5,0.7,3.2,2.3s2.9,2.8,5.2,2.9
				c2.3,0.1,10.4,1.9,10.6,0c0.1-1.2-3-2.3-5.5-4.9c-2.5-2.6-4.3-7-1.4-8.8c2.9-1.8,0.4-2.6,3.2-4.7c2.9-2,1.2-4,3.6-4.2
				c2.4-0.2-0.2-2.4,2.2-2.8c2.4-0.4,2.9-3,2.5-4s2.5,0.1,3.8-1.3c1.3-1.4,4.4-0.5,5.4-2.5s14.8-6.7,22.6-8.5s13.2-5,10.4-7.2
				s-10.6,0.8-12.5,2.4c-1.9,1.6-4.7,0.5-6.6,1.6c-1.9,1.1-6,2-8,0.7s-4.4,1.6-6,1.4c-1.6-0.1-3.4,1.6-5,1.4c-1.7-0.1-5,1.3-5.3,2.3
				c-0.2,1-3.1,0.7-3.1,1.9s-2.3,2.3-3.5,1.2s-2.6,1.2-1,2.8c1.7,1.6-3.1,1.7-2.3,2.6c0.8,1-1.8,1.6-1.2,2.6
				c0.6,1.1-1.7,1.4-3.5,1.8c-1.8,0.4-2.8,2.8-0.5,2.9c2.3,0.1-1.3,0.5-1.1,2.3C822.8,158.7,818.8,157.5,818.9,158.7z M982.8,102.2
				c0,1.3-3.9,2.6-2.8,3.6c1,0.8,1.8,0.6,3,0.8c1.2,0.2,1.8,3.2,4,2.8c2.2-0.5,8,2.4,11.5,2.4s3.8-2.9,2.8-3
				c-1.1-0.1-0.1-1.8,1.8-4.6c1.9-2.8-6-4.8-6-2.6c0,2.2-2.3-0.5-3-1.8C993.4,98.4,982.8,100.8,982.8,102.2z M1001.4,119.1
				c1.7,1,7.1-1.2,10.7-1.1c3.6,0.1,13.7-2.8,14-4.7c0.4-1.9-3.7-1.8-5.3-3.5s-5-0.2-5.9,1.2c-0.8,1.4-1.8,0.1,0.5-2.2
				c2.3-2.3-2.3-4.1-2.4-2.6c-0.1,1.4-4.3,0.2-4.3,1.6c0,1.3-1.6,1.9-1.4,3.2c0.1,1.3-2.9-0.7-3,2.3
				C1004.2,116.3,999.6,118.1,1001.4,119.1z M976.4,98.8c2.3,1,1.4,1.6-1,1.6s-4.5,0.8-2.9,1.4c1.2,0.5,1.1,1.8,3.6,2.4
				s5-1.4,4.8-2.9c-0.2-1.4,8.8-2.8,11.2-3.4s-1.6-3.1,1.1-3.4c2.6-0.2,1.6-1.4-1.7-1.9c-3.2-0.5-1.9-3.2-3-4.2s-1.7,1.2-5.9,2
				s-6.2,1.9-4.6,2.8c1.7,0.8,0,2.9-1.8,2.8C974.5,95.9,974.2,97.8,976.4,98.8z M676.3,99.7c0.8,0.6-1.3,0.6-0.4,1.5
				c2.7,2.7,13.3-0.4,14.8,0.4c1.4,0.8-8.9,1.8-8.5,2.9s8.9,2,9.5,1.3s2.1,1.4,4.9,1.6c2.8,0.2,2.5-1.1,4.6-1.2s5.1-1.1,5.2-2.2
				s6.1-2.6,5.6-4.6s-6.4-0.6-8-1.4s-5.4-1.9-6-0.6s-1.7,1.6-2.2,1.1s0.3-3.4-2.3-2.6s-0.2,3.6-0.7,4s-3.1-0.5-3.2-1.8
				c-0.2-1.3-3,1.3-3.3-0.2c-0.4-1.5-3.7-2.6-4.4-2.5s0.7,1.1,0.3,1.8c-0.4,0.7-2.2-0.7-3-0.8s0.4,1.5,0.1,2.2s-1.8-2.2-3.1-2.2
				s-0.8,1.4-1.7,1.5C673.3,98,675.5,99,676.3,99.7z M293.5,201.3c2.2-0.4,1.8-3.7,0.5-5.4c-0.9-1.3-3.2-1.4-5.2-1.3
				s-5.4,3.2-3.6,6.3C287,204,291.3,201.6,293.5,201.3z M230.1,84.3c2.5-1.6,4.5-0.5,2.3,0.5c-2.2,1.1-1.4,1.8,1.6,1.6
				s-1.3,0.9-1.3,2.7c0,1.8,3.6,0.7,3.8,2.5s7.9,2.5,10.3,0.4c2.3-2.2,1.4,0.5,1.3,2s11,2.7,11.5,0.9s2.2-1.1,4.3-0.5
				c2.2,0.5,12.8-2,13-4.1s3.4,1.1,0,3.4s-10.3,2-13.3,2.9c-3.1,0.9,2,3.1,5,5.4c3.1,2.3-4,1.1-6.8-2c-2.9-3.1-9.4-3.1-12.8-2.9
				s-2.3,6.5,0.2,6.5s5,0.9,7.6,4.9c2.5,4,7.9,3.1,7.9,4.9s-7-1.4-11-2.2c-4-0.7-10.3,1.8-10.4,4.7s5.8,2.5,9.7,0.2
				c4-2.3,1.1,0.7-0.9,2.5s4.7,3.2,4.7,5.4s-4.9,1.4-5.4-0.5c-0.5-2-2.3-4-7-3.6s-3.4,3.6-0.5,4s3.1,2.5-0.2,2.5s-10.5,2-8.3,4.1
				c2.5,2.3,11.7,0,13.3,1.4s6.1,2,7.2,0.4c1.1-1.6,4.7-0.9,8.3-0.9c3.6,0,4.5,0.5,6.1,2c1.6,1.4,4.5,0.9,6.5-0.5s2-1.4,4.5-1.4
				s3.1-1.6,1.8-3.6s-4.5,1.4-4.9,0c-0.4-1.8-3.4-2.3-8.5-1.6c-5,0.7-2.9-3.2,0.2-2.3c3.1,0.9,7.2,0.5,10.6-0.4s0.7-2.5,0.7-4
				s4.3-0.5,7.6-0.5c3.2,0,7.9-5.2,8.1-8.3s-7.2-2.3-10.8-2.3c-3.6,0,2.3-2.7,9.2-2.3c6.8,0.4,3.8-2.7,5-3.8s4.5,1.3,7.9,0.5
				c3.4-0.7,1.1-3.6,3.4-3.6c1.7,0,5.4-2.5,12.8-6.7c7.4-4.1,13.1-3.4,13.5-5.8s-10.3,0-12.1-0.7c-1.8-0.7,7.4-2.7,9.5-2.2
				c2.2,0.5,5,0,12.4-3.6s4.1-4.5,1.1-4c-3.1,0.5-6.5-0.5-6.3-2.5s-4.5-0.2-4.7-1.3c-0.2-1.1-4.5-0.5-9.2,1.3s-0.4-1.8,1.6-2.5
				s-11.9,0-14.2-1.6s-5,2.7-7.2,0.5s-7.7-0.4-7,1.3s-0.9,1.6-3.1-0.2c-2.2-1.8-6.3,0.2-10.1-0.4c-3.8-0.5-2.2,3.1-6.3,1.3
				c-4.1-1.8-8.6-0.9-7.4-0.4s-0.4,1.6-2.2,1.1c-1.8-0.5-3.4,0.2-2.5,2s-6.7-0.5-6.7,1.4s-2.7,3.1-4.9,1.3c-2.2-1.8-9-2.3-7-0.7
				c2,1.6-6.1,0.7-4,2.3c2.2,1.6-2.7,2.9-2.7,2s-4.5-2.5-6.3-0.9s-2.3,3.6-3.2,2.5s-4.9-0.7-8.6,0.7S227.6,85.9,230.1,84.3z
				 M306.3,175.5c1.8-0.2,4-1.6,3.4-3.2c-0.5-1.6-5.2-1.8-6.1,0.2s-4.7-2.2-4.7-3.8s-5.8-0.2-5-2.9s-6.7-3.4-8.6-3.4
				c-2,0-4.9,1.6-4.5,3.4c0.4,1.8-2.2,1.1-2.5-0.9c-0.4-2-5.2,2.2-6.7,2.2c-1.4,0,0.9-5.2,0.2-6.8c-0.7-1.6-1.8-2.2-2.9-4.9
				s-6.5-1.6-7.9,0s-6.1,0.9-8.6,3.4s0.2,5,1.3,5.9s-3.8,2.3-2.2,3.8c1.6,1.4,4.1,0.7,4.3,3.1c0.2,2.3-5.9-0.7-6.8-2.7
				c-0.9-2,0.4-3.8-0.9-5.2c-1.3-1.4-0.2-3.2,2.2-5.8c2.3-2.5,4.1-2.2,4.1-3.6c0-1.4-10.1-1.4-16,4s-4.1,12.6-3.8,14
				c0.4,1.4,5.6,0.7,8.6,1.6s1.4,2.2-0.9,1.8c-2.3-0.4-6.3-1.1-6.1,0.5s5,4.7,7.9,4s2.9-0.7,4.1,0.9c1.3,1.6,4.7,1.1,8.1,1.3
				c3.4,0.2,7.4,1.4,9,1.6c1.6,0.2,3.6-0.9,4.1-1.8c0.5-0.9,7.2,1.4,9.2,1.3c2-0.2,0.7-2-0.5-2.5c-1.3-0.5-0.7-2.9,0.9-2
				s4.3,1.4,4.9,3.1c0.5,1.4,2,0.7,2.2,2s5.9,2.7,6.1,4.1c0.2,1.4-5.6,2.2-4,3.4c1.6,1.3,4.1-1.6,6.3-1.8s2.2,4.7,3.8,4
				c2.2-1,4,0.9,6.1,4c2.2,3.1-0.2,5.9,0,7s4.3,0.7,6.7-0.5c2.3-1.3,4.5,1.4,6.3,3.1c1.8,1.6-6.7,4.3-5.9,2.9
				c0.7-1.4-5-5.8-10.3-3.8c-5.2,2-1.6,5-1.1,6.8s-4.7,3.6-9.5,2c-4.9-1.6-3.4,1.1-5.4,1.1s-4.1,3.1-2.3,5c1.8,2,5.8,0.2,9,0.4
				s3.6,1.1,4-0.7s3.8-0.9,6.1-0.4s1.8,3.8,4.7,4.1c2.9,0.4,0.5,3.2,2.3,5.2s7.6,0.9,9.7,3.1c2.2,2.2,11.3,6.5,12.6,4.9
				c1.4-1.8-7.9-10.1-10.6-10.8s2.7-1.6,6.1,1.1c3.4,2.7,8.5,4,11,0.7c2.5-3.2-2.2-2.3-2.2-4.7s-1.6-5.6-4.1-5.6s-9-5-6.7-6.1
				s-0.7-2.5,1.1-4.5c1.8-2,3.6,1.8,5.8,2c2.2,0.2,2.5,2.9,5.9,5.8c3.4,2.9,3.8,0.9,4.3-1.1s4.3-0.4,4.1-2.3c-0.2-2,3.1-4.3,5.2-5.2
				c2.2-0.9-1.8-3.1-4.7-2.9c-2.9,0.2-3.4-1.8-3.4-3.1s-5.4-4.3-7.2-3.8s-4.9-2.3-7.2-2.5s-5.8-2-5.4-4.5s4.7,0.7,5.6-1.3
				s-4.5-0.9-4.7-2.3s1.3-0.9,2.3-1.8c1.1-0.9-0.9-2.7-2.2-3.4c-1.3-0.7-1.6,1.4-2.9,1.4s-0.2-2,0.7-3.2c0.9-1.3-4.1-2.7-6.3-2
				s-2.9-0.5-2.9-2c0-1.4-3.8,0-5.2,1.1S304.5,175.7,306.3,175.5z M573.4,262.6c1.6-0.1,3.5-2.8,2.7-3.6
				C575.4,258.2,572.2,262.7,573.4,262.6z M563.9,298.3c1.5,0,5-1,7-2.9s3.1-0.1,5-1c1.9-1,0.7-8,0-9.4s1.9-1.4,3.1-2.6
				c1.2-1.2-0.6-2.9-2.3-4.6c-1.7-1.6-3.9,1.4-5.6,0.7c-1.7-0.7-4-0.7-4.1,0.8s1.9,1,1.9,1.9c0.1,1-1.9,0.7-3.3,1.7
				c-1.4,1-2.9-0.7-4.3,0.1s1.6,1.6,0.5,3.1s0.1,1.4,1.9,2.9s-1.1,1.8-1.1,3.4s-2.2,1.6-2.7,2.6
				C559.4,296.2,561.8,298.3,563.9,298.3z M259.7,235.6c2.9,1.8,7.2-3.1,6.8-4.5S256.2,233.5,259.7,235.6z M272.6,225.7
				c0.4-1.8-5.9-2.5-5.6-4.5c0.4-2-5.9-3.6-7.9-4.7c-2-1.1-5-1.6-5-3.8s-4.3-0.5-4.5,2.7s-2,2.5-1.1,5.6s-4,3.8-3.4,5.4
				c0.5,1.6,2.9-0.2,5-0.2c2.2,0-0.6,3,2.2,3.2c2.2,0.2,5.9-2.3,6.8-3.8c0.9-1.4,2.7-2,5.2-0.2C266.9,227.4,272.2,227.5,272.6,225.7
				z M275.5,239.6c1.3-0.2,3.8-4.7,0.5-4.5C272.8,235.3,273.5,239.9,275.5,239.6z M803,93.9c1.7,1.2-4.7,0.8-5.5,2s-4.5,0.8-3.8,2.2
				c0.7,1.4,6.7,1.6,6.7,0.4s3.1-0.1,3.2-1.2c0.1-1.1,1.4-2.3,4.8-2.5c3.4-0.2,3.4-1.4,0.2-2.9C805.5,90.4,801.3,92.7,803,93.9z
				 M791.7,95c2.8-2.5,6.4-0.1,6.8-1.3c0.5-1.2-5.2-1.6-7.2-0.5s-6.8,0.2-6.2,1.6C785.4,95.6,788.9,97.5,791.7,95z M797.8,190.8
				c3.2,3,6-1.3,7.6-1.6c1.6-0.2-1-1.9-3.6-2.6C799.1,185.9,795.3,188.6,797.8,190.8z M575.1,264.4c-1.2,1,1.4,2.2,2.9,2.4
				c1.6,0.2-1.2,1.3-1.5,3s2,1,2.2,2.2c0.1,1.2-3.4,1.4-3.4,2.5s2-0.5,2.9-1s-0.5,2.8,1.7,2.5s1.6-3.3,2.3-3.2
				c0.8,0.1-0.4,1.6,0.3,2.8c0.7,1.3-1.6,3.2-1.4,4.1c0.1,0.9,4.4,0.9,5.8-0.5c1.4-1.4,2,0.1,1.1,1.2c-1,1.1-0.5,2.1,0.7,2.5
				s1.6,0.5,1.1,1.5s-0.1,2.8-0.4,3.7c-0.3,0.9-4,0.8-4.1,0.2c-0.1-0.6-1.7-0.2-1.3,0.7c0.4,0.8-1.3,1.7-1.2,2.5s2.3,0.6,2.4,1.6
				c0.1,1-1.6,2.1-3.9,2.8c-2.3,0.7,0.5,2.5,1.6,1.7s0.8,0.5,2.4,0.5c1.6,0,2.5,1.3,4.3,0.6c1.7-0.7,1.7,0,0.4,1s-3.3-0.1-4.5,0.6
				s-6.1,5.2-5.2,6.4c0.5,0.7,1.3-1,3-1.7s2,0.5,3,0.6s1-2,1.8-1.8s1.5-0.7,2.9-0.4c1.4,0.2,2.5-0.3,3.2-0.9s2.6,1.2,3.2,0.8
				c0.6-0.4,3.2-0.9,4.6-0.8c1.3,0.1,4.7-1.5,5.6-2.3c0.9-0.8-0.5-1-1.7-0.8s-1-1.2,0.3-2.4c1.3-1.2,3.2-2.1,3.4-3.9
				c0.1-1.8-3.8-3.1-4.3-2.1c-0.4,1-1.3,0.8-2-0.2c-0.7-1.1,0.6-2.1-0.1-2.2c-0.7-0.1-1.5-1.6-1.3-2.2s-1-4.4-3.1-4.9
				c-2-0.5-2.3-3.4-2.7-4.9c-0.4-1.6-1.7-0.7-2.7-2s-2.8-0.7-3.7-0.6s0-1.7,1.4-2.6c1.4-1,3.1-6.1,3.1-7.1s-6.3-1-7.5-0.4
				s-2.4-0.9-1.4-1.3s3.2-2.5,3.1-3.4c-0.1-0.8,1.5-1.6,0.6-2.4s-1,1-1.8,1.6s-2.5,0.4-4.4,0.1c-1.9-0.4-2.6,2.3-2.5,3.4
				s-2.2,1.8-1.8,2.8s-0.4,1.7-1,1.1C577,264.8,576.3,263.5,575.1,264.4z M819.9,97.8c0-1.9-6.2,0.2-5,0.6
				C815.9,98.8,819.9,99.8,819.9,97.8z M225.1,143.5c1.3,3.6,2.7,1.1,4.7,2.5s5,2.3,6.7,0.9c1.6-1.4,2.3-2.5,2.9-1.3
				c0.9,2,4.9,2.3,13.5,2.5s6.5-3.6,9-2.2s8.3,1.4,10.8,0.9s3.8-4.5,3.6-6.5c-0.2-2-19.4-3.6-22.9-1.6c-3.4,2-8.8-0.9-11.5,0.5
				s-1.8-1.8-6.7-2s0.4-2.7,1.3-3.8c0.9-1.1-7.4-4-10.8-3.2c-3.4,0.7-5.4-1.1-8.6-2.5s-12-1.1-10.3,1.4c1.3,1.8,11.7,5.6,12.8,3.8
				s3.8,2.2,5.4,4.1C226.5,139.2,223.8,139.9,225.1,143.5z M647.6,114.2c1.1,0.3,1.9,2.1,2.9,2c0.4,0-1.5-2.2-2.7-3.5
				s-1.1-2.5-2.7-2.1C643.5,111.1,646.6,114,647.6,114.2z M651.3,107c1.7,0.4-1.8,2.2-2.3,4c-0.5,1.7,2.7,3.2,4,4.5s4.6,1.1,5.8,0.4
				s0.8-3.2,2.3-3.1s0.7-1.3,2-1.8c1.3-0.4,1.4,1.2,0.4,2.4c-1.1,1.3,1.9,1.2,3.5-0.4c1.6-1.5,2-0.1,1.6,1.3s-3.7,0.6-4.9,2.2
				s-4.8,0.4-6.4,2.2c-1.6,1.8,1.4,1.9,3.7,1.4c2.2-0.4,6.5-0.7,8.1-0.4c1.6,0.4-1,0.9-3.7,0.9s-3.6,0.8-3.5,1.5s-3.8-0.8-4,0.8
				c-0.2,1.6,3.6,2.2,4,3.2s3,0.1,4,0.4c1,0.4-1.6,1.1-2,1.5c-0.4,0.4,2.8,1.1,3.3,2s2.8,0.4,2.7-0.8c-0.1-1.6,2-6.3,4.7-7.3
				s1.2-1.9,1.5-3.4s2.5-0.3,1.9-1.5s-0.3-1.8,1.4-3.4s2.8-0.4,4.9-1.4c2.1-1,3.1,0.7,0.8,0.9c-2,0.2-1,2.4,0.6,3.1
				c1.6,0.6,0.2,1.2,1.4,1.4c1.3,0.3,0.9,2.2-0.7,3.9s0.4,2.1,3.9,0.8c3.4-1.3,1.3,1.1,2.2,2.1c1,1,3.7-0.7,5.1-2.4s3.6-1.4,3.5-2.3
				c-0.1-1-1.6-1.3-2.9-0.7s-4.4,0.2-3.3-0.8c1.1-1,0.9-1.8-0.7-1.6c-1.6,0.2-4.5-0.6-3.1-1.2c1.3-0.5-1-2.3-2.2-2.2
				c-1.3,0.1-0.9-1.3-0.8-2.3c0.1-1-3.6-1.4-2.9-1.8c0.7-0.4-1.5-1.2-2.1-0.4c-0.5,0.7-1.6,0.5-1.6-0.5c0-1.1-2.7-0.8-3.8-0.7
				s-0.5-2.3-1.6-3.1c-1.1-0.8-2.5,1.6-3.3,1.4s0.6-1.8,1.1-2.9c0.4-1.1-3.8-2.5-4.2-1.4s-1.3-1.6-2.2-1.9s-0.2,1.8-1,2
				s-1.9,1-0.5,1.9c1.3,0.9,2.7,5.4,2.5,6.1s-4.3-3.2-4.5-5.1s-2.2-3.4-2.8-2.1c-0.5,1.3-2.1,1.9-1.6,3.2s-1.1,1.8-1.1,0.7
				c0-1.1-2.2-2.3-3.1-2.4s2.1-0.6,3.4-1.3c1.3-0.6-1.2-1.5-2.3-0.8c-1.2,0.7-2.7-0.4-3.4,0.5s-1.6,0-2.9-0.3
				c-1.3-0.3-2.3,1.8-3.2,1.4s-1.4,1.8,0,4S649.6,106.6,651.3,107z M195.8,172.3c4,2.7,2.7-2.2,7.2-2s4.7-7.2,5.4-9.9
				s-3.6-2.5-2.5-0.5s-0.2,4-0.5,1.6c-0.4-2.3-3.8-0.2-5-2c-1.3-1.8,4-2,5.2-4.3c1.3-2.3-4.1-2-2.9-3.8c1.3-1.8-7.9,0.2-5.2,1.3
				s0.2,2.5-2.3,0.7s-9.5,1.2-7,3.2c2,1.6,7.9-1.1,4.5,3.6c-3.4,4.7-4.9-1.3-8.1-0.7s-1.8,4.5,3.1,5.9
				C192.3,166.9,191.8,169.6,195.8,172.3z M1196,559c2.2,0.1,2.5-1.1,0.8-2.6c-1.7-1.6-7.8-2.2-8-4.4c-0.2-2.3-11.2-7.7-16-8.8
				s-15.1-5.9-16.9-5.8c-1.8,0.1-2,3.2-3.6,3.2s-3.7,3.2-6.6,4.2s-3-8.3-4.3-10.1s-8.5-3.2-9.2-1.2s-3.2,1-3.5,2.6
				c-0.2,1.6,0.6,1.1,2.2,1.1s1.6,1.2,2.3,2.8c0.7,1.6,5,0.5,6.5,0.4c1.4-0.1,1.7,1.9-0.4,1.2c-2-0.7-2,1-3.5,0.6
				c-1.4-0.4-3.4-0.2-2.4,0.6s2.5,1.7,2.5,3.6c0,1.9,2.8,1.6,2.8,0s1.4,0.5,4.2,1.2c2.8,0.7,0.8,1.8,3.6,1.9c2.8,0.1,9,2.2,11.4,4
				s0.7,3,2.3,4.7c1.6,1.7,2,3.6-0.1,3.6s-4.4,2.2-3.8,3.2c0.6,1.1,7.7-0.5,9.4-0.5c1.7,0,3.4,4.6,8.6,4.8c5.3,0.2,4-2.8,4.9-2.8
				c1,0,1.3-1.7,2.4-3s5.8-0.2,8.5,1.9c2.8,2.2,6,8.5,8.9,7.9s5.9,1.7,8.5,1.6c2.6-0.1,0.2-2.2-0.6-2.5c-0.8-0.4-3-1.8-2.9-2.8
				s-2.4-0.8-4.1-1.9c-1.7-1.1-1.1-4.6-2.9-5.4C1195.2,561.5,1193.8,558.9,1196,559z M1213.6,551.1c0,1.1-1.9,1.7-4.9,2.9
				s-8.4-1.4-8.6,0.4c-0.1,1.1,3.4,3,6.6,3s8.4-3.2,8.4-4.2s2-2.6,1.2-3.6C1215.4,548.6,1213.6,550,1213.6,551.1z M1216.5,546.8
				c2.4,2.3,1.1,4.2,2.5,3.8c2.3-0.6,0.6-2.9-1.3-4.1C1215.8,545.3,1214.1,544.5,1216.5,546.8z M1175.7,301c1,2.2-1.3,13.7-0.4,15.6
				c1,1.9-1.6,10.4-0.7,11.4c1.4,1.7,0.5-2.3,2.6-2.6c2.2-0.4,2.2,2.4,3.5,3s0.5-3.8-0.7-3.6c-1.2,0.2-2.2-2.9-2.8-4.8
				c-0.6-1.9,1.2-4.2,1.2-6.6s3-2.3,4.8-0.5s2,0.6,1.3-0.7c-0.7-1.3-3-10.9-4.3-14.4s1.9-6.8-0.5-8.6c-2.4-1.8-1.4-5.5-2.6-4.8
				s0,4-1.9,4.2s-0.1,2-0.8,4.4C1173.7,295.3,1174.8,298.8,1175.7,301z M1125.4,579.8c0.9,0.7,5.4-0.2,5.2-1.3
				C1130.4,577.5,1124,578.7,1125.4,579.8z M1168.8,342.7c-1.4,0.2,0.1,1.7-1.6,2.4c-1.7,0.7-1.6,1.9-0.7,2.4c0.8,0.5,0.2,2,0,3.1
				s1.1,0.2,2-0.8s2,0.5,2.2-0.5c0.2-1.2-2.5-1.8-2.4-3s1.9,0.4,3.4-0.4c1.4-0.7,4.3-0.1,6.1,1.4c1.8,1.6,2.3,1,2.6-1
				c0.4-1.9,3.1-2.8,5.9-2.8s3-1.3,2.2-1.9s4.6-4.1,4.4-5c-0.1-1-2.9,2.2-3.7,1.1c-0.8-1.1-2.3,0.6-4.1,1c-1.8,0.4-7.4-4.3-8.9-6.5
				c-1.4-2.2-3.8-0.4-2.6,1.2c1.2,1.6-0.2,2-0.2,4.2s-1.4,2.2-1.2,3.6S1170.2,342.5,1168.8,342.7z M1125.9,388.9
				c-1.8,1.3-2.4,1.6-1.7,2.9c0.7,1.3,1.8,0.1,2.3-1.2c0.5-1.3,1.7,1.9,0.6,4.1s0.1,5.2,1.6,4.9c1.2-0.2,2.8-4.6,4.6-6.8
				c1.8-2.3-0.8-1.4-0.8-2.6s-2.6-1-2.8-2C1129.5,387,1127.7,387.6,1125.9,388.9z M1138.5,390.8c0.4-1.4,2.3-1.9,3.5-1.3
				s2.8-1.8,2.8-3.6c0-1.8-3.6-1.8-4.1-0.5s-1.9,0.7-3.8,1.1s-2,4.9-0.6,5.4C1137.3,392.3,1138.2,392.3,1138.5,390.8z M1150.8,685.1
				c1,0.9,4.3,0.6,4.9-0.6C1156.2,683.2,1149.9,684.3,1150.8,685.1z M1086,476c0.4,1.7,1.2,5.2,3.8,4.3
				C1092.5,479.5,1085.7,474.8,1086,476z M1082.3,533.8c-1.1,0.6-1.1,4.3-3.2,7.8c-2.2,3.5,0.7,4,2.5,4.1s1.6,2.8,1.2,4.3
				c-0.4,1.6-1.1,5.3,0.5,4.7c1.9-0.7,3.1-3.1,2-4c-1.1-0.8-1-6.1-0.5-7.4c0.5-1.3,3.7-0.4,2.6,1.7c-1.1,2,2,1.8,2,4.1
				s1.8,1.1,3.7,0.5c1.9-0.6,1.6-1.7,0.2-3.1c-1.3-1.4,1-3.5-0.8-4.7s-3-3-1.3-3.4s6.7-3.2,6.1-4.4s-7.7,0.2-8.3,2.4
				c-0.6,2.2-5.6-0.2-5-4c0.6-3.7,10.6-4.3,13.4-3c2.9,1.3,6-2.2,7.1-4.2s-2.3,0.4-4.3,1.7s-7.4-0.1-10.2-1.1c-2.8-1-2.6,1.7-4.9,2
				C1082.9,528.2,1083.3,533.2,1082.3,533.8z M1102.9,490.4c-1-1.2-3.4,1-3,1.9C1100.4,493.5,1103.9,491.6,1102.9,490.4z
				 M1147.4,378.7c0.1-1.1-2.2-0.5-4.9,0.6c-2.8,1.1-4.4-1.2-6,0.4s-4.2,4.3-6.2,4.7c-2,0.4-0.9,2.8,0,2.4c1.4-0.7,3.7,0,4.4-1.1
				s6.6-2.4,10.2-2.5s1.4,1.7,1.7,3.6c0.2,1.9,3.2,1.6,4.8-0.2c1.6-1.8,2.8-1.7,1.4-2.8c-1.3-1.1,0.2-2,1.2-0.6s4,1.6,5.2-0.4
				c1.2-1.9,1.6,0.4,3,0.2c1.4-0.1,2.3-3.7,2.4-2.4c0.1,1.3,2.4,1,3.8-0.6s0.1-4.3,1.1-5.8c1-1.4,1.9-4.4,1-6.2
				c-1-1.8,2.2-3,3.7-4.4c1.6-1.4-1.8-8.6-1.9-10.8c-0.1-2.2-4,0.8-5.2,1.4s-2,4.3-0.7,5.4s-2.2,3.1-2,5.4c0.1,2.3-2.2,2.3-2.5,4
				c-0.4,1.7-1.7,1.3-3.7,2.9s-3.1-0.2-2.6-1.3c0.5-1.1-3.1,0.6-3,3.2s-3.4,2.9-2.5,4.1C1150.8,379.1,1147.3,379.8,1147.4,378.7z
				 M1078.5,489.9c-1.7,2.2-5.7,5.7-5.2,6.7c0.7,1.3,5.2-5.3,7.3-6.8c2.2-1.6,1.8-2.9,1.1-4.3C1081.1,484,1080.2,487.8,1078.5,489.9
				z M1220.7,649c0.7-0.5-0.4-3.4-1-3s-0.6-4.5-0.2-6.7s0.2-2-1-0.8s-2.4-2.2-2.7-3.1c-0.3-0.9-1.6-3.4-3.1-3.1
				c-1.5,0.4-0.5-2.2-2-1.9c-1.4,0.3-1.7-2.1-1.4-4.2c0.3-2.2-1-0.4-1.6-1.3c-0.6-0.9-1.3-0.2-2.3,0.2s-1.3-1.9-1-2.8
				c0.3-0.9-0.2-2-1.5-3s-1.4-1.8-1.3-3s-7.6-5.1-9.4-5.5c-1.7-0.4-0.3-2.2-1-2.8s-1-3-1-4.9c0-2-2.5-2.6-2.4-4.2
				c0.1-1.6-0.7-3.1-0.5-4.9s-2.6-2.2-2.7-3.2s-1.6-0.1-3.1,0.1c-1.5,0.2-1.4-2-1.3-4c0.2-2.1-0.6-5.5-1.9-6.5s-1.3-4.4-2-4.9
				c-0.6-0.5-2.7,1.8-2.6,3s-0.2,2.5-1,3.2s0.5,3.5-0.5,4.5c-1.1,1-0.1,4.9-0.4,7.2s-0.2,4.7-1.3,6.2c-1.1,1.5-1.3,4-3.4,4.8
				c-2.2,0.8-5-0.9-4.9-2.1s-2.3-1.9-3.6-1.7c-1.3,0.2-2-1.6-4-3.1s-3.5,0.4-4.1-1.4s-1.3-2.1-2.7-3.1c-1.4-1-1-1,0.4-2
				c1.3-1,1.1-2.2,0.4-3.4s0.8-0.9,2.6-1.9s0-2.2,1.3-2.7s0.5-1.7-0.9-2s-1,1.4-1.5,1.6c-0.5,0.2-1.1-2.2-1.5-2.2
				c-0.4,0.1-2.2,2.4-3.1,1.3c-0.9-1.2-5.9-2.2-7.9-2.4c-2-0.3-2.6-2.8-3.8-2.3c-1.2,0.4,0.2,1.3,1.5,2.7s-4.5,2.4-6.2,1.9
				s0.3,1.3-1.2,1.2s-1.7,2.4-2.9,3.7c-1.2,1.3-0.4,2.2-1.6,3c-1.3,0.8-1.3,1.7,0.2,3.4s-0.7,1.8-2.1,0.4c-1.3-1.3-2.7-1.3-2.6,0.2
				s-1.6,0.8-1.3-0.9c0.3-1.7-1.9-0.9-2.2-1.9c-0.4-1-2.2-2.6-3.4-2.5c-1.2,0.1-1.2,1.3-2.3,1.3c-1.2,0-1.4,0.6-1.3,1.9
				c0.2,1.3-1.8-0.1-3.1,0.1c-1.3,0.2,0,1.7-0.7,1.8s-0.7,1.3-1.9,1.3c-1.2,0-1,2.6-0.8,4c0.2,1.3-1.8-0.6-3-0.3
				c-1.2,0.4,0.3,1.5,0.6,3.1c0.4,1.5-0.6,1.4-1.3,2.1s-1.6-1.7-1.6-3.1c0-1.3-1.5-0.1-3.1,1.6s0.5,4.3-0.2,4.8s-4,3.5-5.8,5.8
				c-1.9,2.2-5.9,0.9-7.2,2s-2.6,0.3-3.9,1.3s-3.6,2.9-3.9,1.7s-3.5-0.3-4.9,1.2s-3.5,2.7-5,2.8s-1.5,2.4-2.2,3
				c-0.6,0.5-0.4-1.9-0.4-2.5s-1.4,1.1-2.1,3s1.5,2.6,0.2,4.6s-2.6,4-0.7,6.5s3,4.1,2.3,5.4c-0.6,1.3-2-2.5-2.4-2.1s1.7,2.1,1.2,2.9
				c-0.5,0.8-2.5-3.1-2.9-2.2c-0.4,0.8,4,6.9,4.1,9.2c0.1,2.2,3.6,4.4,3.4,7.6s3.1,8.5,3.6,9.3s-1.3,3-0.9,5.4s-0.8,3.3-2.3,3.3
				s-0.6,2.5,1.1,2.7s1.1,1.3,3,2.6s6.4,0.8,7.9,0.8s2-2.3,4-2.4s1.9-0.7,2.9-2s5.7-0.9,10.4-0.6s6.8-1.2,7.6-3.1
				c0.6-1.7,4-1.8,5.4-3.1c1.3-1.3,2.5-1.3,6-1.2c3.5,0.2,6.7-1.7,9-2.6c2.2-0.9,6.4-0.5,8.5-1.1c2.2-0.5,2.5,2.7,4.9,2.4
				s3.5,0.7,4.8,0.6c1.3-0.1,1.1,0.9,2.3,1.2c1.3,0.3,1.1,1.3,0.3,2.5s1.9,1.1,3.6,3.4c1.7,2.3,0.1,2.7,1,4.5s1.5,1.3,3.3-1.2
				s3.8-0.9,4-3.1c0.3-2.2,2.2-4.7,3.4-3.6s-0.9,1.6-1.7,5.8s-2.2,2-2.5,3.1c-0.3,1.2,3.8,1.8,3.8-0.4s0.7-3.1,2.2-1.2
				c1.5,2-0.9,3.6-0.5,4.5s2.1-0.3,3-0.2c1.6,0.2,3.8,3.7,3.4,5.6c-0.4,1.9-0.9,3.7,2.2,5.2s1.9,1.8,4.1,1.8s6.9,1.8,8.2,2.9
				s4.5-0.8,5.1-3s3-0.1,1.7,0.6c-1.3,0.7,0.6,2.4,0.7,1.3s0.6-2.2,1.1-0.8c0.4,1.3,2.1,1.3,2.7,2.4s1.3,1.9,1.3,1s0.4-1.7,1.8-2.2
				s2.3-1.5,3.9-2.8c1.5-1.3,7.8-1.5,8.5-1.5s1-5.4,1.3-8.2c0.4-2.8,2.7-3.2,3.1-6.2s3.5-8.5,4.3-8.7c0.8-0.3,2.3-1.1,2.4-2.8
				s2.2-3.6,2.2-5.7c0-2.1,1.2-4.5,1-5.1s-0.9-2.6,0.4-4S1220,649.5,1220.7,649z M1191.5,710.1c-2.4,0.3-6.1-2.2-6.9-2
				c-1,0.3,3.1,6.5,1.9,8.1c-1.3,1.6,3.7,6,5.4,6.3c1.7,0.3,1.1-1.7,2.2-1.6c1.2,0.1,0.7-1.2,0.9-2.1c0.2-0.9,1.3,1,2.3,0.4
				c1-0.5-0.3-4.4,1.2-4.4s0.3-4.7-0.2-6.2S1193.9,709.8,1191.5,710.1z M1116.8,544.4c0.5,1.4,3,0.8,5.5,0.8s3.8,1.8,5.2,1.8
				c1.3,0,0.4-3.1-2.8-4.1C1121.6,542,1116.3,542.8,1116.8,544.4z M737.5,380.4c-0.1-0.7,0.8-2,2.2-2.6c1.4-0.5,0.8-1.6-0.1-0.8
				c-0.9,0.8-3.1,1.6-5.8,1.7s-3.5,1.9-1.9,2.9C734.2,383,737.6,381.1,737.5,380.4z M639.7,350c1.7-0.2,1.5-7.5,0.8-7.6
				s-0.8,1.1-2.5,2.2C636.4,345.6,638.1,350.3,639.7,350z M707.1,378.9c-0.1-0.6-1.6,0.4-2.5-0.2c-1-0.5-5.3,0.4-6.4-0.7
				c-1.1-1.1-3.5,0.9-2.5,1c1.4,0.2,3.6,1.5,5.9,1.6C704,380.7,707.2,379.5,707.1,378.9z M661.5,366c-2.5,0.5-3.5,0.7-4.9,0
				s-3.8,0.7-3.4,1.6c0.2,0.7,1.2,1.5,4.2,2.3s3.4,2.8,4.6,2.9c1.3,0.1,1.4-1.1,1.1-2.8c-0.3-1.6,1.5-3.5,1.7-3.8
				C664.9,366,664,365.5,661.5,366z M1247.3,566.2c1-0.6-5.6-4.2-5.7-3.1C1241.5,564.2,1246.3,566.8,1247.3,566.2z M1092.5,482.1
				c-1.8,0.4-1.2,5.8,0.2,5.5c0.6-0.1,2,0,2.2-1.2c0.1-1.2,1.4,2.2,0.4,3.2c-1.1,1.1-1.1,4.1,0.6,4.4c1.7,0.4,4.8-5.4,4.3-6.5
				s-1.9,0.7-1.6-0.7C1098.9,485.5,1094.3,481.8,1092.5,482.1z M1233.8,559c-0.1,0.4,2.8,3.2,3.4,2.8
				C1237.8,561.4,1233.9,558.2,1233.8,559z M1226.1,554c-0.2,1.1,3.6,6.8,5,5.9C1233.8,558.2,1226.3,552.9,1226.1,554z
				 M1117.4,525.5c0-0.8-0.8-4.2-2.8-1.6c-1.9,2.6,0.6,9.2,2.2,8.9c1.3-0.2-1.1-3.5,1.6-3.2c2.6,0.2,1.4-1.3,1.4-3
				C1119.8,524.9,1117.4,526.4,1117.4,525.5z M1246.6,570.1c0.4,1.8,3.1,2.9,4.1,2.2C1251.8,571.7,1246.2,568.2,1246.6,570.1z
				 M1253.9,574c0.2,0.4,2.5,2.6,3.7,1.8C1258.8,575,1253.6,573.3,1253.9,574z M1250.8,566c-0.9,2,2.7,5.4,3.2,5.5
				C1254.6,571.6,1251.5,564.5,1250.8,566z M540.1,222.5c2.3-0.1,2.3-2.7,3.2-2.6c1,0.1,2.5-1.8,3.1-3s-0.7-3.4-2.1-3.4
				s-2.5-1.1-2.2-2c0.3-0.8-0.8-1.9-0.7-2.5s-1.8-0.1-2.8,0.2c-1,0.2-3-2.3-3.9-1.9c-0.9,0.5-0.2,1.7-0.5,2.5
				c-0.2,0.7-2.4-0.7-2.4,0.2c0,0.8-0.9,1-1.6,0.1s-2.4-0.4-2.3,0.4c0.1,0.7-0.7,0.1-2.1-0.7c-1.4-0.8-2.8,1-2.7,1.9
				s-0.5,1.1-1.6-0.8c-1.1-2-2.5,0.2-1.9,1.3s0.4,2.4-0.5,1.9s-2.1,0.4-2.6,1.2s-2.5-2.5-1.1-3.2c1.4-0.8-4.4-4.1-6.2-4.1
				c-1.8,0-0.6,1.3,0.6,2.3s-0.8,0.7-1.5-0.1s-1.9-0.2-2.6,1s-1.9,1.9-2,2.7s2,1.7,3.9,1c1.9-0.8,4-0.9,4.9,0c1,0.9-1.7,1.3-0.8,2
				c1,0.7,0.2,1.3-2.1,1.1c-2.3-0.2-5,0.5-4.6,1.3s5.8-0.7,5.9,0.1s0,2.1,1.4,1.5c1.4-0.6,0.5,1.1,1.2,1.4c0.7,0.3,0.5,1.7-1.4,1.9
				c-1.9,0.1-2.9,0.5-2,1.3c1,1,3.1,0.3,5.2-0.2c2-0.5,5,2,7.4,2.9c2.4,1,6.5-0.4,7-1.6c0.5-1.3,3.7-0.8,5-1.7
				C536,223.7,537.8,222.6,540.1,222.5z M302.1,455.5c2.7-0.9,4.5,0.2,5.9,0.9s1.8-0.7,5-1.8c3.2-1.1,8.5,0.9,8.5-1.6
				s-8.6-5.2-10.8-4.5c-2.2,0.7-6.8-2.5-8.6-1.3c-1.8,1.3,2.7,4,2.7,5.6s-7.2-0.3-7.9,1.4C296.5,455.2,299.4,456.4,302.1,455.5z
				 M297.6,446.7c0.7-0.9-4.9-4.5-7.6-4.5s-11.5-6.1-19.6-7.9s-15.2,4-14.4,5c1.1,1.4,5-1.8,7-3.2c2-1.4,3.8,0.7,4,1.6
				s2.7,1.4,6.8,1.6c4.1,0.2,4.7,3.6,8.6,4.5c4,0.9,0,2.5,2,3.2C286.5,447.8,296.9,447.6,297.6,446.7z M280.9,454.6
				c0.7,1.3,7.6,3.1,8.3,1.4C289.9,454.5,280,453.1,280.9,454.6z M1363.2,214.9c1.4,1,3.5,1,4.6,1c1,0,0.1-1-1-1.1
				c-1-0.2,0.2-1,0.9-0.4c0.7,0.7,2.1,1,2.2,0.2c0.1-0.7,0.8-2.3,2.1-2.2c1.3,0.1,1.7-0.7,0.5-1.1c-1.2-0.4-5-2.9-6-4.3
				c-1-1.4-5.6-2-5.6-1.3s-1.5-0.2-1.9-1s-5.2-0.9-5.3-0.1c-0.1,0.8,1.1,0.9,1.9,1.9c0.7,1-1,1.5-0.6,2.6s-1.8-0.5-2.6-1.1
				c-0.8-0.6-0.4-2.9-0.2-4.1c0.2-1.2-1.4-1-1.6-2.2s-5.6-3.7-7.9-4.6c-2.3-1-5.2-1.8-6-3s-4.9-1.3-6.4-2.9
				c-1.6-1.6-8.4-4.5-11.3-4.7s-2.3-1.8-3.7-1.6c-1.4,0.2-7.6-0.1-9.5-0.4c-1.9-0.3-2.3,1.1-3.7,0.6s-8.5-3.1-9.4-2.2
				c-0.8,1-0.5,2.3-1.3,2.6c-0.8,0.2,0,1.4,2,3.2s0.8,3.2-1,4s-4.7-0.7-5.6-2.1c-0.9-1.4-3.4-0.8-4-2.6s0.7-2.1,1.9-1.1
				c1.2,1,2.8,0.2,3-1.1s-3.2-2.2-5.1-2.1c-1.9,0.1-2.9,2.7-4.8,3.8s-9.4-0.4-10.1-1.1c-0.8-0.7-11.2,0-12.2,0.7
				c-1.1,0.7-0.3,3.5-0.8,3.8c-0.5,0.2-1.1-3.2-1.1-3.9s-1.3-1.1-3.1-1.1c-1.9,0-2.9-0.1-2.2-0.8c0.8-0.8-0.7-1.6,0.7-2.6
				c1.4-1-2.6-4.2-6.6-5.8s-13-0.7-15.4,0.1c-2.4,0.7-7.2,0.5-9.5,0.5c-2.3,0.1-0.4-0.9-1.1-2s-4.6-2.4-5.1-1.5s-1.6,0-1.6-0.7
				s-3.7-2-5.1-1.7s-2.1-1.3-0.4-1.3s4.6,0.4,3.3-1.6c-1.3-1.9-12.1-2.5-13.1-2.2c-1,0.4-0.1,1.7-2.4,4c-2.3,2.2-4.6,0.7-4.3-0.4
				c0.3-1.1,3.2-0.9,3.2-2s-4-0.5-4.6-1.4s0.8-1.5,2.3-1.1c1.4,0.4,4,0.7,4.1,0s-1.5-0.8-3.9-1.2s-8.2-1.8-11.3-1.5
				c-3.1,0.3-4.4-1.1-6.1-1.3c-1.7-0.1-1.7,0.9-0.9,1.9c0.8,1-1.6,1.6-3.6,1.3s-4.9,1.1-3.7,2.5c1.1,1.4,2.3-0.4,3.2,0.1
				c1,0.5-2.5,1.5-1.1,2.2s1.2,2,1.3,2.8c0.1,0.7-2.4,1.1-3.3,0s-2.2-0.1-3.8-0.2c-1.7-0.1-2.9,0.7-1.1,0.9s2.4,1.4,0,1.6
				c-2.4,0.2-1.8-2.2-3.2-1.9c-1.4,0.3-4.6-1.1-6.2-1.1c-1.7,0.1-2.5,1.4-4.7,1.6c-2.2,0.2-5.2-1.1-6.1-2.3s-1.2-1.6-2.3-0.2
				c-1.1,1.4-1.1,4-2.2,4.2s-1.5,2.5-2.6,3.1s-1.1-0.9-2.5-0.8c-1.4,0.1-5.8-4.2-6.1-5.5c-0.2-1.3-3-3.7-3.7-4.1
				c-0.7-0.5,0.7-0.7,1.6,0.1s2,0.8,2.9,0.3s0.8-2.7-0.8-2.8c-1.6-0.1-1-1.4-0.2-1.6c0.8-0.2-1.8-2.6-0.8-2.8s0.5-1.3-0.8-1.4
				c-1.3-0.2-2.7-1.3-2.8-1.9c-0.1-0.7-5.6-0.9-5.4,0.1s-1.8,0.7-1.5-0.1s-2-0.5-4.6-1.3c-2.6-0.7-2.7-2.6-3.6-2.7
				c-0.9-0.1-0.6,2.6-1.9,2s-2.8,0.5-2,2.1c0.7,1.6,0.1,1.8-0.1,3.1c-0.1,1.3-0.8,0.7-2.4,0.2s-1.6,1.3-4.9,0.5
				c-3.4-0.8-4.9,0.1-5.5-1s-1.6-1.2-1.7-0.3s-5.3,0.5-5.7-0.8c-0.4-1.3,0.9-1.6,1.7-1.9c0.8-0.4-0.8-0.9-3.7-0.7s-4.6-1.4-7.5-1.1
				c-2.9,0.3-9.3,0.9-10.2,1.3c-0.9,0.4,0.8,2-0.5,2.2c-1.4,0.1-0.4-2.6-0.7-4c-0.2-1.3-2.3-1.5-2-0.5s-3.3,1.4-4.2,0.6
				c-0.9-0.8-2.3-1.8-4.7-2.4c-2.3-0.6-5.2,1.9-4.6,2.6c0.7,0.7,2.4,0.2,2.5,0.7c0.1,1-5,0.6-5,1.4c0,0.8-4.7,2-6.2,2.2
				c-3.9,0.5-4.8,0.5-6.7,2c-1.9,1.6-0.4-1.4,1-2.8c1.4-1.4,2.9-0.8,3.8-2c0.8-1.1,2.2-1,4.4-1.4c2.3-0.4,2.2-1.7,3.2-2.2
				c1.1-0.5,3.7-1.5,4.2-2.6s5.9-2.9,7-2.8c1.1,0.1,1.3-2.2,1.9-2.2s3.7-1.4,4.9-1.9c1.2-0.5,1.8-1.7,1.9-2.5s-1.6-0.7-1.8-1.4
				c-0.2-0.7,0.8-0.2,2-0.7c1.3-0.5,0-2.2-1-1.9s0.5-0.9-0.4-2s-2.7,0.7-2.6-0.5c0.1-1.1-0.1-2.6-0.8-3.3c-0.7-0.7-2,1.3-3.5,0.1
				c-1.5-1.1-5.9-1.9-5.9-1.4s-2.1-0.7-2.5-0.2s-3.9,0.4-5,0.1c-1.1-0.3-2.6,0.4-2.6,1.5c-0.1,1.1-4.3,0.7-5.1,0.5s2.9-3.2,2.9-3.8
				c0-0.5-6.3,0.1-6.7-0.5c-0.4-0.6-3.4-0.8-4.8-0.7c-1.4,0.1-0.1-0.4,1.2-0.5s2.4-1.2,3.8-1.4c1.4-0.2,1.1-0.7,0.5-1.6
				c-0.6-0.8-2-0.4-3.4-0.8s-3.1-1-4.3-1.1s-2.5,0.6-5.3,1.1s-3.1,2.7-4.5,3.4c-1.4,0.7-4,3.3-2.8,3.5s0.6,1,0.8,1.7
				c0.2,0.8-0.9,1-2.3,0.7c-1.4-0.2-6.2-0.2-6.2,0.8c0.1,1,2.8,1.5,2.6,2s-2.1-0.1-3.1-0.6s-3.1-0.2-3.5,0.8s-2.1,0.8-2.6,0.5
				c-0.5-0.2-1.7,0.5-2.6,0.2c-0.9-0.3,1.8-1.6,1.1-2.3s-3.5-0.1-3.8,1s-2-0.8-2.7-0.4c-0.7,0.4-1.4,0.8-2.6,1.3
				c-1.3,0.5-3.4-0.6-3.9,0.4s2.4,1.3,2.5,1.7s-6.5,0.4-6.7,1c-0.2,0.7-2.4,0.7-5.1,0.7c-2.7,0.1-1.6,1.4-3.8,1.8
				c-2.2,0.4-3.1,0.5-3.8,1.6s-2.4,1.3-3.1,0.4c-0.7-0.8-2.7,0.4-1.6,0.5c1.1,0.1,0.1,1.2-0.6,1c-0.7-0.2-2.6,1.1-1.5,1
				s1.6,0.8,1.1,1.4c-0.5,0.7-2.9-0.8-3.5-0.2s1.1,1.4,2.2,1.3c1.1-0.1,1.7,0.6,1.8,1.4c0.1,0.8-2.5-0.5-3.1,0.2
				c-0.5,0.7,0.4,1,1.6,1.1c1.1,0.1,0.3,0.5,1.3,1.4c0.1,0.1,0.1,0.1,0.2,0.2c0.6,0.7-0.5,1-0.4,1.7c0.1,0.8-1.1,1.1-1.1,0.4
				c0-0.7-3.2-1-3.8-0.2c-0.7,0.8-1.1,1.4-1.9,0.7c-0.8-0.7-3.1,0.2-6,0.3s-9,0.4-10.5,0.9s-2.8,2.6-1.4,4c1.4,1.4,0.1,2,0.1,2.9
				s3.6,2.8,5.5,2.9c1.9,0.2,3.5,2.5,2.3,4c-1.1,1.4-4.6-0.4-6.9-2.2c-2.3-1.8-7.6-2.5-9.3-2.4s-0.7-1.6-2.9-1.5s-4.1,2-2.6,2
				s2.5-0.1,1.7,0.6c-0.8,0.7,0.4,0.5,2.2,1.3s-1.5,1.9-3.4,0.6c-1.9-1.3-3.8-0.1-4.4,0.9c-0.5,1,2.2,3.7,5.4,4.2s2.2,1.5,3.7,2
				s0.4,1.1-0.6,1.2c-1,0.1-3.1-1.6-4.7-2.4c-1.6-0.8-6,0.4-6.9-0.6s0.6-1.9-0.2-2.6c-0.8-0.7-0.1-2.3,1-4s-0.2-4.6-1.7-5
				c-1.6-0.5-1.4,1.1-1.1,1.6c0.4,0.5,0.2,2.8-1,4.3s-4.9,1.5-4.9,2.5s-2.5,1.8-1.6,2.5c0.8,0.7,4.1,4.4,4.6,5.6
				c0.5,1.1-2.9,4.7-2.4,6.8s-0.5,3.1,0.2,4.1s2.2,0.1,3.1,0.5c1,0.4,2.5-0.6,4.7-1s6.3,1.9,7.8,2.6c1.5,0.7,0.7,1.9,1.5,3.1
				c0.8,1.2-1.8,1.2-1.9,3c-0.1,1.8,4.5,2.6,4.7,3.1s-3.2,0.1-4.6-0.4c-1.3-0.5-1.4-2.2-1.9-2.6c-0.4-0.4,0.9-1.8,1-2.9
				c0.1-1.1-1.5-1.8-2-2.6s-1.5-1.9-2.6-1.7s-5,0.6-6.2,1.7c-1.2,1.1,0.2,4.1,0.8,5.6c0.7,1.5-3.5,3.6-3.4,4.8s-1.3,1.7-3.1,2.7
				s-3.8,1.7-3.7,3.2c0.1,1.6-2.4,0.7-3.7,0s-2.9,0.4-4.7,0.4c-1.8-0.1-1.8-1.6-3.2-1c-1.4,0.5-2.4-0.7-2-1.7c0.4-1.1,2-0.2,2.2,0.5
				c0.1,0.8,1.1,0.4,2.3-0.2c1.2-0.7,0.6,0.8,2.3,1c1.7,0.1,0.8-0.9,2.1-0.8c1.3,0.1,1.4-0.3,1-1s1-1.1,1.8-1.5
				c0.9-0.4,0.5-1.7,1.3-2.2c0.8-0.4,0.2-1.3,1.1-1.3c0.8-0.1,1.2-1.3,2-1.3s1.2-1.3,0.7-1.9c-0.5-0.7,0.3-2.5,1.1-2.7
				s0.8-1,0.1-1.5s-3.4-2.3-3.2-3.5c0.2-1.1-0.5-3.2-0.1-4.1s0.1-2.8-0.1-3.8c-0.1-1.1,0.7-2.3,1-4.3c0.4-2-2.1-4.1-3.3-4.6
				s-0.4-1.6,1.3-3.1c1.7-1.4,1.9-5.9,1.7-6.9c-0.1-1-3.7-1.8-5-1.7c-1.4,0.1-6.5-0.1-7.7-0.4c-1.3-0.2-1.7,1.1-2.3,2.3
				s-1.9,3.1-2.7,5.8s-4,3.5-5.4,4.1s-2.3,2.6-1.7,3.5c0.7,1,1.6,0.2,2.3,0.5c0.7,0.4-0.1,2.9-0.5,3.2c-0.4,0.4,0.8,1.3-0.2,1.9
				c-1,0.7-2,2-1.4,2.8c0.6,0.7,3.5,1.1,4.8,1.8s0.8,2,1.7,3.3c1,1.3,2,0.5,2.5,1.3s-1.7,3.9-2.5,4s-4-3.2-4.9-3.9
				c-1-0.7-4.7-1.9-6.5-2.8c-1.9-1-3.4-0.8-5.4-2.2s-3.8-2-7.5-2c-3.7,0.1-6.1-0.8-7.4-0.7c-1.3,0.2-0.8-1.3-3-2.2
				c-2.2-1-3.7-2.3-4.9-1.6c-1.3,0.7-0.8,3.1,1.1,3.4c1.9,0.3,1,1.3,3,1.2s2.6,0.6,2.6,1.9c-0.1,1.3,1,2.5,1.9,3.4
				c0.9,0.8,0.4,2.2-1.3,2.2c-1.6,0-3.5,0.2-2.8,1.4c0.7,1.1-0.5,1.4-2.1,0.8c-1.6-0.6-0.7-1.7,0-2.4s-1.4-1.5-2.5-1.9
				c-1-0.4-5.1,2.6-6.2,3.1c-1.1,0.5-4-0.7-6.8,0s-2.7,3-3.8,2.8s-4.3,0.3-5.5-0.4s-0.2-1.1,1-1.1c1.3,0.1,1.7-0.4,1-1.2
				s1-2.2,0.9-2.8s-4.7,1-5.5,1.6c-0.8,0.7,0.1,1.9-0.8,2.3c-0.8,0.4-0.8-0.7-1.8-1.1c-1-0.4-8,1.3-9.3,2.8s-3.9,1.6-3.9,2.4
				c0,0.8-3.2,0.8-4.4,1.4c-1.3,0.6-0.4,3.1-0.9,4.3s-5.4,0.8-6.9,0.9c-1.5,0.1-2-2.9-3.2-3.1c-1.2-0.2-0.5-1.9-0.1-2.6
				s1.3-0.1,2.8-1.1s3,0.5,3.6-0.2s-2.3-2.4-2.5-3.9s-3.4-1.9-5.2-1.4s-3.8,0.1-5-0.5c-1.3-0.6-1.1,1.1,0.7,1.6
				c1.9,0.5,0.9,1.9,1.2,2.8c0.3,0.9-0.5,2.9-1.6,4.5s-0.3,1.5,1.3,1.4s1.5,2,1.5,3.6s-1.3,2-1.3,3.1s-1.3-0.5-1.7-0.1
				c-0.4,0.5-1-0.2-1.2-1.2s-2.7-0.4-4.1-0.8c-1.4-0.4-1.9,0.2-2.6,1.3c-0.7,1-2.6,1.4-3.6,1.6c-1.1,0.1-2.8,2.1-3.9,2.8
				s-1.3,2.1,0.2,3.5s1.8,2.4,1.7,3.2s-4.2,0.5-4.9-0.3s-3.3-1.1-4.2-1c-0.9,0.2-3.4-2.7-4.6-2.8c-1.3-0.1-2,1.5-2.5,2.3
				c-0.4,0.8,0.6,1,1.2,2.3c0.6,1.3,2.8,1.4,4,1.4c1.1,0,0.7,1.7,0.4,2.5s-2.5,1.3-3.1,0.5s-3.1,0-3.2-1c-0.1-1-1.9-2.4-3.7-2.1
				c-1.9,0.3-2.2-0.9-2.1-2.3c0.1-1.4-1-2.3-1-2.9c0.1-0.7-0.8-2,0.1-2.6c1-0.7,0.2-1.7,0.3-2.6c0.1-0.9-1.6-2.3-3.1-2.3
				s-1.2-1.5-2.5-1.8s-3.8-2.4-4-3.3c-0.2-0.9-2.1-1-1.4-1.3c0.7-0.3,2.2,0.1,3.2,1.2s2.8,2,5.6,2.4s4,1.7,7.1,2.2s5,0.9,9.5,1.6
				c4.5,0.7,10.5-3.9,11.8-5.2s-0.4-3.8-0.4-4.8s-2-1.1-2.3-1.8s-1.6-2-3.4-2c-1.7,0-2-2-3.4-1.9s-2.3-0.6-5.9-3
				c-3.6-2.4-8.6-4.1-9.5-3.7c-0.9,0.4-1.5,0.7-2.1-0.2s-2-0.8-2.9-0.1c-1,0.7-1.9-0.7-3.7-0.2c-1.8,0.4-2.8-0.8-2.3-1.3
				s3.1-0.1,3-1s-1.1,0-2.7-1.1c-1.6-1.1-2.5-0.4-2.9,0.5s-1.6,0.7-2.5-0.1c-0.8-0.8-3.1-1-3.3-0.1s-1.9,0.7-1.8-0.2
				c0.1-0.9-2.5-1.6-2.6-2s1.1-0.4,2,0.2c1,0.5,1.6,0.2,2.7-0.8c1.1-1,2.6-0.2,2.8-1.1c0.2-0.9-1.7-1.5-2.1-2s-1.7-1.3-3.1-1
				c-1.3,0.2-1.4-0.3-2.2-1s-3.2,0.5-3.2,2.2s-1.5,1.3-1,0.4c0.5-0.9-0.7-2,0.5-2.3s0.5-2.1-1.7-2.3s-3.1,1.7-2.5,2.3
				c0.5,0.6-1.5,3.2-2.4,3.2s0.1-2.2,0.1-3.4c-0.1-1.2-0.9-0.5-2.6,1.4c-1.7,1.9-2.9,3.7-3.9,3.8c-1,0.2-0.8-1.7,0.7-2.6
				c1.6-0.8,1.6-3.1,2.6-3.1s1-1.2-0.5-1.6c-1.5-0.4-1.7,1.3-2.2,1.8s-2.9-0.8-2.9-0.4c0.1,0.5-1.3,0.7-0.7,1.6
				c0.6,0.9-0.3,1.7-0.9,0.6c-0.6-1.1-2.1-0.2-2.8,1s-1.7,1.1-1,1.6c0.7,0.4,0.7,2-0.4,2.3c-1.1,0.3-0.7-2.9-1.5-2.6
				c-0.8,0.3-0.3-1.6,0.8-1.6s2.3-1.7,2.2-2.1c-0.2-0.7-1.4-0.5-1.4,0.4s-1.8,0.7-3.3,0.7c-1.5-0.1-1.4,1.7,0.2,2.7
				c1.7,1-0.3,1.6-1.1,0.8c-0.8-0.7-2.2-0.4-3.1,0.1c-0.9,0.4,2.2,1.5,2.3,2s-1.6-0.7-1.9-0.2c-0.4,0.4-2-0.3-2.2-1.3
				c-0.1-1-2.8,0.4-1.3,0.8c1.5,0.4,1,1.3,1,2.6s-1.7,0.3-1.4-0.8c0.4-1.1-1.1-0.9-2.3-0.2s0.2-1.3-0.3-2.3s-1.6,0-2.8,0.2
				c-1.3,0.2-1.9,0.3-1.1,1.1c0.8,0.8,0.7,2-0.4,1.9c-1-0.2-1.4,0-1.3,1c0.1,1-1.3,1-1.4,0.2c-0.1-0.8-2.2-0.6-2.8,0.4
				s-2.3,1.7-2.1,2.8s1.5-0.5,2.6-0.2s-0.1,0.9,0.5,1.4s0.5,1.9-0.4,1.1c-0.8-0.8-1.9-1-2.1,0.2c-0.2,1.3-1.1-0.2-1.8-1.1
				s-1.4,1.7-2.2,1.1c-0.8-0.6,1.6-2.5,1-3.4s-1,0.5-2.4,1.9s-3.2,1.3-2.6,2c0.7,0.7-1.4,1-1.7,2.2c-0.4,1.1-3.2,1.6-5,2.8
				s0.4,1.3,1.4,0.1c1-1.1,1.4-0.5,3-1.5s3.4-1.9,4-1.4c0.6,0.4,1.6,0.7,2.4-0.4c0.8-1.1,1.7-0.8,2.5-0.2c0.8,0.7-1.3,1.2-0.4,2.2
				c1,1-1.1,1.5-1.1,0.7s-1.2-1.6-1.6-0.8c-0.4,0.8-1.1,1.6-1.9,1.7c-0.8,0.1-1.6,1.5-1.6,2.9s-1.4,0-1.5,1.3s-2,3.5-3.7,5.1
				s-0.1,2-0.7,3c-0.5,1-2.5,0.1-3.2,0.5s0.4,2.9-0.5,3.7s0,1.9,0,2.8c0,0.9-2.3-0.5-2.5,0.4s-2.2,0.7-2.8,0.9s1.2,1.7,2.3,2.5
				s-1,1.5-1.3,0.5c-0.2-1-1.7,0.6-3.6,1.4c-1.9,0.8-1.1,2.5-2.5,2.6s-1,2.3-2,3.1c-1,0.7-0.7-1.7-2.2-1.7c-1.5-0.1-1.4,1-0.5,2.3
				s-1.4,0.3-2.2,1.4c-0.8,1.1-3.2,0.5-3.9,1.4s1.8,0.9,2.2,1.6c0.4,0.7-2.2,0.4-3.5,0.1c-1.3-0.3-1,1.7-2.2,1.4
				c-1.2-0.2-2.7,1-1.9,1.9c0.8,0.8-0.7,1-1.5,0.4c-0.8-0.5-1.6,0.8-1.9,1.8c-0.3,1,1.6,1.6,1.6,2c-0.1,0.5-1.6,1.3-0.5,1.5
				s0.3,1.2-0.4,1.5s-0.7,1,0,1.9s-1.3,1.1-0.3,2.5s1.7-0.4,2.1,0.7c0.4,1,1.6,0.1,2.9-1.1c1.3-1.2,1.8,1.3,0.7,1.3
				c-1.1-0.1-2.3,0.6-2.1,1.7c0.2,1.1-1.7,0.9-1.6-0.4c0.1-1.3-2.2,0.2-1.4,1.2s-0.3,1.5-0.3,2.4s1.6,0.7,2.3-0.3s1.7-0.8,2.2,0.2
				c0.4,1-1,0.2-1,1.6c0,1.4-0.9,0.2-1.7,1.3c-0.8,1.1,3.1,3.1,4.3,3.4s2.3,1.6,4.7,1.3c2.4-0.4,7-4.8,7.6-5.6
				c0.6-0.8,1.9,0.1,2.8-0.6c0.9-0.7,0.4-2.6,1-2.9c0.7-0.4,1,2,1.6,2.2s1,0.7,1,2.2c-0.1,1.5,0.5,3,1.8,4.1s0.3,2.7,1.4,4.2
				c1.1,1.5,0.8,2.6,2,3.7c1.3,1.1,1.4,1.7,0.8,3.1c-0.5,1.4,1.1,1,1.1,1.9c0.1,0.8-0.4,2.6,0.1,3.4c0.4,0.8,1.3,0,3.2-0.1
				s1.4-1.3,1.5-2.4s1-0.6,1.3-1.3c0.2-0.7,2-0.9,3.4-0.3s2.1-0.4,2.3-1.9c0.2-1.4,1,0.3,1.4,0.6c0.4,0.3,1.7-2.2,2.3-3.8
				c0.6-1.6-0.1-1.3-1.4,0.2c-1.4,1.6-0.6-1.6-0.1-2.8c0.5-1.3,0.5-4.9,0.7-5.8c0.2-0.8,0.5-2.1,2.3-2.5c1.7-0.4,4-2.5,3.7-3.4
				c-0.4-0.9,2.4-2.4,2.4-3.3s-2.9-3.7-3.8-4.3c-1-0.6-3.1-0.1-2.9-0.8c0.2-0.7-0.2-3.2-0.5-4.6c-0.2-1.3,1.5-2.7,1.5-4
				s-0.1-2.7,1.1-3.1c1.1-0.4,0.4-1.5,1.9-1.9s1.2-2.5,2.8-3.2s1.7-1.2,3.8-2.2s5.6-3.4,6.2-4.7c0.6-1.3-2.2-2.6-0.4-3.9
				c1.7-1.3,0.3-2.8,1.6-3.3s1.7-1.1,2.6-2.1c0.9-1,2.1-0.1,4.3-0.4c2.2-0.4,3.8,0.7,5.5,1.4c1.6,0.7,1.4,1.9,1.4,3.1
				c0.1,1.3,0.1,2-0.7,1.4c-0.8-0.5-1.7,0-2.2,1.8s-2.8,4-4.1,4.1c-1.4,0.1-1.3,1.6-2.4,1.9c-1.1,0.3-2.2,1-2.2,2.2
				c0.1,1.3-1.7,1.4-2.8,1.4s-0.9,2-1.8,2.6c-0.9,0.5-0.7,1.3,0.1,2.3c0.8,1.1,0.1,2,0.4,2.8c0.3,0.8,1.6,2.6,0.7,4.6
				c-0.9,2-1.9,4.4-1.1,4.2c0.8-0.2,2.6,1.6,3.8,1.5s1.3,1.7,2.5,1.3c1.1-0.4,1.1,1.1,4.4,1c3.3-0.1,10-2.9,12.6-2.9s4.4-0.5,5.3-1
				c1-0.5,1.6,1.9,2.6,2.6c1,0.8,2.9,0.1,3.5,0.8c0.7,0.7-0.5,0.8-1.9,0.5c-1.4-0.2-1.7,0.6-3.9,1.3s-1.1,1.5-2.9,2
				c-1.7,0.5-5.5-1.2-7.7-0.8s-6.5,0.4-7.6,1.5c-1,1.1-3.6,1.4-2.5,2.3c1.1,1,0,1.4,0.8,2.6c0.8,1.1,1.3,1.6,2.4,1.4
				c1.1-0.2,2,0.4,0.8,1.6c-1.2,1.3-0.4,2.2-0.4,4.1c-0.1,1.9-2.2,1.6-3.3,1.6s-3-3.4-3.6-4.2c-0.6-0.8-2.5,1-3.9,1.8
				s-0.7,2.5-1.6,3.2c-1,0.8-1.6,2.1-0.6,3.8c1,1.7,0.7,3.5-0.3,4.6s0.3,0.8,0.8,1.7c0.5,1-2.2,1.1-1.3,2.2c0.8,1.1-1.9,1.2-1.9,0
				s-2.9-0.6-2.8,0.2c0.1,0.8-0.7,2.1-2.5,2.1c-1.7,0-1.9-1.7-1.9-2.5c-0.1-0.8-7,0.7-8.9,2.5c-1.9,1.9-6.2,1.1-6.3,2.2
				c-0.1,1-1.3,1.4-1.5,0.4s-0.8-1.3-2.4-1.3c-1.6,0,1-1.6,0.4-2.3c-0.6-0.8-2.2,1.4-3.6,1c-1.4-0.5-3.3,1.7-4.6,2.6
				c-1.3,1-3.1-0.2-2.1-1.6s0-1.3-1.4-0.7s-3.2-0.1-3-1.4s-2-2.3-1.9-3.1c0.1-0.8,1.3-0.3,2.1,0.4c0.8,0.7,2.7,0.8,2.9-0.1
				c0.1-0.6-0.3-3.1-1.4-2.5c-1.1,0.6-1.4,0.4-1.9-0.2c-0.4-0.6,0.8-1.6,1.1-2.5c0.3-1,2.3-0.6,2.6-1.4s-1.3-1.6-1.9-1.9
				c-0.6-0.3-0.8-2.2-0.1-2.8c0.7-0.6,1-2.9,0.4-3.5s-2.8,0-2.9,1.6c-0.2,1.6-1.9,0.9-2.4,1.3s1,1.1,0.2,1.8
				c-0.8,0.7-1.1-1.1-2.3-1.2c-1.3-0.1-1.4,1.9-2,2.9c-0.7,1-0.2,3.2,0,4.6s2,2.3,1.6,3.5s1.9,2.7,1.3,3.7c-0.5,1,0.3,2,1.1,3.5
				s-1.7,0.7-1.7,1.6c-0.1,1-2.3-0.1-3-0.4s-3.1-0.1-3.1,0.5c0.1,0.6-0.2,1.8-1.1,1.3c-0.9-0.5-2.3-0.2-4.1,0.1s-2.3,2.1-1.7,2.8
				c0.7,0.7-1.7,1.1-1.9,0.1s-2-0.3-1.9,1s-2,1.7-1.9,3.3c0.1,1.6-1.9,3-3.2,3.8s-2.8,1.7-4.3,1.6c-1.4-0.1-2.7,1.1-2.5,3.5
				s-1.7,2.6-4.2,2.8c-2.5,0.2-1.6,2.1-2.6,2.9s-4.6-0.4-5.1-1.7c-0.5-1.3-3.7,0-2.3,1.6s1.3,3.7,0.5,4.3c-0.8,0.6-2.5-1-3.5-0.2
				c-1.1,0.8-1.1-0.7-2.5-1.2c-1.3-0.5-1.9,0.6-4,0.4s-3.3,1-2.5,1.9s-0.1,1.7,0.5,2.5s3.4,0.7,5.4,1.7c2,1.1,2.5,0.2,3.5,1
				s1.3,0.3,1.3,1.8c0.1,1.5,1.2,2.9,3.2,3.5c2,0.5,0.5,1.9,1.1,3.2c0.6,1.3-0.9,3.2-0.6,4.9c0.3,1.6-1,6.8-1.9,7.3
				c-1,0.5-4.8-1-7.3-0.7s-10.3-0.4-13.4-0.1c-3.1,0.2-3.2-1.3-4.9-1.3s-1,2-3.4,2.1s-2.6,1.6-0.9,2.9c1.7,1.4,0.1,5.5,0.8,6.7
				c0.8,1.3-1,7.9-2.5,9.7c-1.6,1.8-0.1,2.3,1.6,3.5c1.6,1.3,0.5,5.8,0.5,6.9s1.4,0.8,3.1,0.8c1.7,0,3.7-1.3,5.4-0.5s2.7,5,4.9,4.7
				c1-0.1,0.5-0.8,1-1.3s1.4-0.1,2.3-0.1c1,0,1.4-1.4,3.7-1.4c2.3-0.1,3.7-0.2,5.2-0.2c1.4,0.1,2.6-0.4,2.9-1.4
				c0.4-1,1.6-1.9,3.2-2.2c1.6-0.2,1.4-1.9,1.5-2.9s2.8-2.4,3-3.1s-1.6-3.5,0.1-5.9c1.6-2.5,3.4-2.6,3.4-4c0-1.3,1.7-1.7,3.7-2
				c2-0.2,2.7-1.6,4.4-2.3c1.7-0.7,2.2-2.1,1.4-4.4c-0.7-2.3,1.4-3.7,3.4-4s6.3,0.9,7.4,1.6c1.1,0.7,2.7,0.5,4.7-1.6
				s3.2-1.6,4.5-2.2c1.3-0.7,0.7-1.8,2.8-2.4s4.9,1.1,5.7,2.4s1.1,1.4,1.3,2.4s1,3.1,3.8,4.9c2.9,1.9,4,4,5.5,4.7
				c1.5,0.8,3,0.6,3.9,1.7s2.1,1.7,3.5,2.3c1.4,0.7,1.5,2.2,2.9,2.4c1.4,0.2,0.5,1.4,1.3,2.4s1.1,3.2,0.2,4.4
				c-0.9,1.2-0.4,3.2,0.2,3.2c0.6,0,1.9-2.2,2-3.4c0.2-1.2,1.4-1.1,2.3-2.4c1-1.3-1.4-1.6-1.9-3.2c-0.4-1.6,1.8-3.1,3.9-1.7
				c2.1,1.3,2.9,2.2,3.1,0.2c0.1-2-6.5-4.7-8-5.7c-1.6-1-0.5-2.5-3-2.4s-5.4-2.9-6.3-6.5c-0.9-3.5-4.7-3.7-5.7-5.8
				c-1-2.1,0.9-2.3,0.1-4.1c-0.8-1.7,3.2-3.1,4.4-2.6s0.4,2.9,1.4,2.9s3.1-0.1,3.1,1.3c0.1,1.4,2.6,4.6,3.6,5.7s3.1,0.8,3.2,1.7
				c0.1,0.9,1.7,1.7,3.5,1.9c1.8,0.1,4.9,3.5,6.7,4.4c1.7,0.9,2.5,1.5,1.3,2.6c-1.1,1.1-1.4,5-0.1,6c1.3,1,1.6,3.1,2.9,3.5
				c1.3,0.4,2.3,2,2.2,3.5c-0.2,1.5,1.9,2,2.9,1c1-1.1,3.7,0.6,3.7,1.3s-2.8-0.8-4.3,0.4c-1.6,1.1,1.2,2.2,0.8,3.4
				c-0.4,1.2,0.7,2.9,2.1,2.8c1.4-0.1,2.9,2.2,3.8,1.8c0.8-0.4-1-3.6-0.7-4.1s2,0.8,2.8-0.1c0.8-1-0.6-1.7-1.9-1.6
				c-1.3,0.1-0.1-1.7,1.4-0.8c1.5,0.9,2.2-0.2,2.9-0.4c0.7-0.1,0.9-2.7-1.3-3.3c-2.2-0.6-1.9,1.6-3.4,0.1c-1.4-1.5,1.3-0.9,1.3-2.2
				c0-1.3-2.2-3.1-3.3-4.6s1.5-2.2,2.1-1.1s2.2,0.9,3.2,0.5s-1.1-2.3,0.8-3.1c1.9-0.7,1.9,0.5,2.5,0.8c0.6,0.2,1.1-1.5,3.1-1.5
				c1.9,0,3.4,2.5,5.1,2.5c1.7,0,2.3-1.8,3.8-2.3c1.4-0.5,4.7,0.2,5.5-0.5s-2-1.6-3.1-2.5c-1-0.8-0.9-2.9-1.6-3.1
				c-0.7-0.1-1.7-2.9-0.8-3.1c0.8-0.2,1.9-3.1,3.2-3.5s0.8-1.7,0.8-3c0.1-1.3,0.8-3.2,2-3.3c1.3-0.1,2.3-0.1,2.1-2.2
				s0.2-1.9,1.9-3.2c1.7-1.3,1.9-3.8,3.5-4.1c1.6-0.3,2.2-1,4.5-0.7c2.3,0.4-1.1,1.8,0.4,2.6c1.6,0.8,6.4-0.2,6.6,1
				c0.2,1.2-5.5,2.4-5.4,3s3.1,1.2,4.1,1.9c1,0.7-0.3,2.5,0.2,3.1s2,0.1,3.3-0.8s2.3-0.6,3.9-1.7c1.6-1.1,5-0.1,5.4-0.8
				c0.4-0.7-1-1.3-4.1-1.1c-3.1,0.2-3.3-2.7-3.3-3.3c0-0.6,3.2-3.1,5.1-3.2c1.9-0.2,3.4-0.7,5.2-1.6c1.8-0.8,7.1-1.7,7.4-1
				s-4.2,2.6-5,2.9s1.6,1.6,1.6,2.3c-0.1,0.7-2.6,0.9-2.4,2.3c0.2,1.4-0.8,1.7-2.2,1.7s-1.7,0.8-1.1,1c0.7,0.1,0.6,1.9,3.2,2.6
				c2.6,0.7,5.3,3.1,7.6,5.5c2.2,2.4,6.8,1.4,7.3,4.3s2.2,1.7,1.6,4.2c-0.6,2.5-6.8,4.5-8.5,3.9c-1.6-0.6-4.7,0.2-7.1,0.2
				c-2.3,0-3-1.7-4.8-1.6s-1.8-1.6-3.6-1.6s-0.4-0.9-6.1-1.6c-5.6-0.7-10.5,2.2-12.3,3.8c-1.8,1.6-8.3,0.1-8.9,0.5
				c-0.6,0.4,0.1,2.3-2,3.1c-2.2,0.8-6.9,0-8.5,0.7s-2.2,3.1-0.8,3s2.1,0.5,1.7,1.1c-0.4,0.6,1.1,2.3,0.4,3
				c-0.8,0.7-0.8,2.1,0.1,2.8c1,0.7,1.1,2,0,2.2s2,1.5,2,2.1c0.1,0.6,2.6,0.9,2.6,1.6s0.8,1,2,0.6s1.7,1.4,2.5,2.6s5.2,0.4,5.2-1
				c0-1.3,1.3-1.7,3.3-1.5s4.6,2.9,5.5,3.2c1,0.4,2.9-0.7,4.2-0.7s3.1-2,3.8-2.4s2,1.4,3.1,0.8s2.4-1.3,3.1-0.8
				c0.7,0.4-1.7,2.3-1.1,3.2c0.7,1-0.7,2.5,0.1,3.4c0.7,0.9-0.4,2-0.4,3.5c0,1.6-3.2,5.3-3.7,8c-0.4,2.6-3.2,7.4-3.7,7.9
				s-2.5-0.7-4.3-0.2c-1.9,0.5-3.3-0.2-5.1-1.1s-7.7,0.2-8.5,1.4c-0.8,1.1-2.8,1.1-4.6,0.4s-4.1-1.8-7.4-2.1
				c-3.3-0.3-5.9-0.8-6.2-1.6c-0.3-0.8-1.9-0.9-5.5-1.4c-3.5-0.5-2.2-2.9-6.2-3.2c-4-0.2-9,2.9-9.1,4.6s1.9,3.5,0.5,5.3
				c-1.3,1.7-4.2,1.9-6.2,0.1c-2-1.9-5-2.7-7.5-2.7s-4.2-1.6-4-2.9s-0.6-1.9-2.6-2.3s-3.8-2.1-7.4-1.5c-3.6,0.6-6.2-1.9-6.2-2.7
				c0-0.8-1.1-2.1-1.7-1.4c-0.6,0.7-2.9,0.1-3.2-1.4s1.5-1.4,3.2-2.8s1.9-4,0.1-5.5s-0.5-2.2,0.7-3.5c1.3-1.3,0.1-2-0.5-1.4
				c-0.7,0.6-1.7,0.8-1.9-0.7c-0.2-1.4-4.1-1.7-5.6-0.3c-1.5,1.4-5.3,0.1-6-0.1s-2.8,0.4-4.1,0.4c-1.3,0.1-4.6,2.2-5.6,1.1
				c-1.1-1-12.1,0.8-15.2,0.9c-3.1,0.1-4.4,3.4-6.3,3.4c-1.9,0-4.8,1.6-6.4,3.3c-1.6,1.7-4.1-0.4-6.2-0.4c-2.1-0.1-5.3,1-6.9-0.7
				c-1.6-1.7-2.6-2.3-3.8-1.7c-1.1,0.5-3.2,6.5-4.4,8.3c-1.2,1.7-4.6,2.9-6.2,2.9s-1.8,2.5-3.1,3.5s-0.8,2.6-2.3,3.8
				c-1.5,1.2-0.8,4.9,0,6.2c0.8,1.3-2.8,5.5-4.8,6.7s-2.7,3.5-5.9,4s-4.4,3.2-5.2,5.2c-0.7,1.9-5.2,4.7-5.4,7.4
				c-0.2,2.7-4.4,6.9-7.1,12.7c-2.8,5.8-0.2,7,1.1,8.4s-1,4,0.9,6.5c1.9,2.6-0.4,6.5-1.3,8c-0.9,1.4-0.3,4.8-1.6,6.8
				s0.5,4.9,1.5,5.8s-1.3,3.5,0.2,5.1s1.3,2.3,3.7,3c2.3,0.7-0.2,1.9,1.7,3.1s1.6,2.6,3.4,3.9c1.8,1.3,4.2,3.2,5.2,6.5
				s1.9,4,3.2,5.1c1.4,1.1,5.6,3.5,8.5,5.7s7.4,5.2,9.5,5.9c2.1,0.8,7-1.4,13-2.5c5.9-1,10.2,1.4,10.9,1.6s5.8-2.2,7.9-3.2
				c2-1,4.4-1.6,5.5-2.5c1.1-1,3.7-1.1,5-1.1s2.1-1.8,2.8-0.8s4.1,1.1,6.1,1.6c1.9,0.4,3.9,3.1,3.8,4.1c-0.1,1,1.3,3,2.2,3.5
				s3.1-0.9,4.1-0.9s4.7,0.1,5.4-0.6s1.5,1,2.3,2.2s2.5,0.3,3.1,0.7c0.7,0.4,1.4,3.2,1.1,4c-0.2,0.8-1.3,2.8-0.7,3.7s0.3,2.2-1,2.6
				c-1.3,0.4-1.2,1.6-0.2,1.6c1,0.1,0,1.4-0.5,1.9s1.3,1.3,1.6,2c0.3,0.8-2.3,0.5-2.2,1.7c0.1,1.1-0.9,2-1.6,2.6s1.9,2.8,2,3.6
				s0.7,1.5,2.9,3.7c2.3,2.2,1,2.7,4.4,5.3s4.3,6.1,4.9,8.8c0.6,2.7,3.1,7.7,3.7,8.9c0.5,1.1-0.7,2.2-0.7,4.3s2.3,5.9,2.5,8.5
				s-1.4,4.2-2.9,5.9c-1.4,1.7-2.9,5.5-2.9,7.8s-2.2,4.6-2.1,5.7c0.1,1.1-0.3,4.3-0.5,5.5s0.9,3.6,2.3,5.5c1.4,1.9,3.1,5.3,4,8.3
				c0.9,2.9,3.5,6.2,4.1,8.5c0.7,2.2-0.5,5.4,0.2,6.8c0.7,1.4,1.1,3.9,1.4,6.4c0.4,2.5,0.5,7.7,2.8,9.8c2.2,2.2,4.6,6.5,5.6,9.7
				s3.3,6.2,3.9,8c0.6,1.9,1.3,3.6,0,3.8s-1.3,1.3,0.1,3.3c1.3,2,0.2,3.2,1.3,3.5c1.1,0.2,0.8,1,1.7,1c0.9,0.1,1.6,1,2.2,1.7
				c0.6,0.8,2,0.8,2.6-0.2c0.7-1,2.7-1.3,4.8-1.3s1.7-0.9,3.7-1.5s4.5-0.7,6.2-0.1c1.7,0.6,3.1,0.1,3.9-0.5c0.8-0.5,2.5,0.8,2.6-0.5
				c0.1-1.4,1.8-1.1,3.4-1.1c1.6,0,5.3-2.5,8.3-5.3s8-9,9.7-11.8s4.4-5.2,5.8-6.5c1.4-1.3,2-6.8,2.1-8.7s-1.2-0.4-1.6-1.6
				c-0.4-1.2,2.9-3.4,6.4-4.7s4.7-2,5.1-3.2c0.4-1.2-0.1-4.6,0.4-5.9c0.5-1.3-0.3-2.1-0.7-5.1s-1.5-3.5-2-5.2s-0.4-3,0.7-3.1
				c1-0.1,1-0.5,1.9-2.2c0.8-1.6,1.8-1,3.4-2.2c1.6-1.2,1.7-2.7,4.3-4.7s5.4-1.9,7.9-3.4s6.8-7.4,6.4-8.5c-0.4-1.1-1.3-5.9-1-7.9
				c0.2-2-0.4-7.2-0.4-9.7s-2.8-1.4-2.9-3.8c-0.1-2.5-1.6-2.5-1.5-4.1c0.1-1.7,0.2-3.2-0.4-3.4c-0.6-0.2-0.2-1.6,0.7-3.1
				c1-1.4-1.7-1.6-2.2-3.4c-0.4-1.8,4.9-13.6,5.8-15c0.9-1.4,1.8-1.1,2.6-2.1s1,0.5,2.2-1.4s5.9-6.4,9.4-10c3.4-3.6,5.2-4.4,7.1-5.4
				c1.9-1,6.8-5.7,10.1-9.9c2.1-2.6,4.4-5.6,4.7-7.5s2.2-4.4,3.7-6.3c1.4-1.9,3.8-6.6,3.8-8c-0.1-1.4,1.2-4.5,1.4-7.1
				s-2-2.8-2.6-1.4c-0.7,1.4-5.8,2.4-9.1,2.5s-5.3,0.4-6.5,1.5s-4.2-0.3-5.3,1s-5.3,2.3-6.7-0.5c-1.4-2.9-3.8-2.8-4.3-3.2
				c-0.4-0.4,1.2-1.6,2.3-1.9c1.1-0.2,0.6-1.6-0.4-2.4s-2.6-2.5-4.9-5.3c-2.3-2.9-5-4.4-6.4-4.4s-1.7-2.5-2.6-2.6
				c-0.9-0.1-2.9-3.7-3-5.9c-0.1-2.3-3.4-6.2-4.8-6.8c-1.4-0.7-2.4-3.2-2.4-6.4c0-3.2-0.8-5.7-0.9-6.7c-0.1-1-1.7-3.2-3.5-4.2
				c-1.9-1-2.6-2.8-2.3-4.7c0.3-1.9-1-1.8-1.9-4.5c-0.8-2.7-4.2-6.7-4.3-8.3c-0.1-1.6-2-2.5-1.9-4.1c0.1-1.7-0.9-1.9-2.8-4.5
				c-1.9-2.6-2.4-7.3-1.9-7.4c0.5-0.2,2.1,3.9,2.7,5.2c0.6,1.3,2.6,5.3,4.1,5.3s2-6.1,2.5-5.8c0.5,0.3-0.1,4.5,0.8,4.8
				c0.9,0.3,1.4,1.9,3.3,4c1.9,2.1,5.8,7.7,5.9,9.1c0.1,1.4,0.7,2.9,3.1,4.5c2.4,1.6,2.4,3.6,3.7,4.6s1,2.1,1,4.5
				c0.1,2.4,1.1,5.5,3.3,6.8s3.7,2.8,4.7,5.3c1,2.6,2.3,4.8,3.7,6.2c1.4,1.4,0.6,2.1,1.4,3.1c0.8,1,2.2,3.5,1.7,4.9
				s-0.1,4.6,1.2,6.5s0.8,5.3,1.4,5.9c0.6,0.7,5.3,0.5,7.4-0.8c2.1-1.4,3.5-1.6,5.2-1.6s3.9-1.4,4.4-2.2c0.5-0.7,3-0.8,4-0.7
				c1,0.1,2-1,3.2-2.2c1.1-1.1,4.7-1.6,8.6-2.8c3.8-1.2,3-3,3.9-4.1s2.2-0.5,4.5-1.8s4.9-0.7,6.6-1.1c1.7-0.5,0.1-1.9,1.6-3.2
				c1.5-1.3,3.7-0.3,4.4-0.7c0.8-0.4,1.3-3.2,2.6-3.7s2.8-0.2,2.6-1.3c-0.2-1.1,0.1-5.2,1.4-5.5c1.3-0.2,3.2-1.6,3.3-2.3
				c0.1-0.7,2.6-3.4,3.4-4.7c0.8-1.3,0.8-2-0.3-2.2s-2.9-3.4-3.4-4.3s-4-0.3-6.8-2.5s-2.6-9.3-3.3-9.4s-3.7,3.1-4.9,5.5
				c-1.2,2.3-4.7,4.1-7.7,3.6s-4,0.7-4.8,1.3c-0.8,0.5-3.2-2.6-2.5-4c0.8-1.3,1.3-4.7-0.5-5.2c-1.7-0.5-2.7,3-2.7,4
				s-3.4-3.3-2.5-4.3s-0.5-3.2-1.8-4.4c-1.3-1.2-4-3.4-4.1-4.8s-2.5-5.9-2.5-6.8s2-1.8,3.1-1.8s1-1.2,1.9-0.5c0.8,0.7,2-0.1,2.8-0.1
				c0.8-0.1,3.1,4.3,4.1,6.4s1,2.8,2.3,3.7c1.4,0.9,2.9,0.4,4.9,2.5c2,2,7.1,3.4,9.2,3.5c2.2,0.1,3.8-2.3,6.5-1.8
				c2.8,0.5,2.1,4.1,3.1,5.3c1,1.3,12.2,2.1,14.2,2.6c1.9,0.5,11.2,0.5,11.8-0.2c0.7-0.7,2.2-1.1,3.1-0.5c0.9,0.6,4.9,0.8,6.5-0.1
				c2-1.1,3.2,0,3.2,1c0.1,1,1,1.4,1.9,2.2c0.9,0.8,0.2,1.8,0.8,2.8s1.8,0.8,3.5,1.6c1.7,0.8,2,2.9,4.4,3.8c2.3,0.9,4.4-1.5,4.4,0.2
				s-5.5,1.4-5.6,1.9s5.7,7.6,8.6,7c2.9-0.5,5.1-3.7,4.3-4.2s0.5-2.5,1.3-2.1s0.1,3.5,1,4.2s0.6,2,0,3.7s0.6,5,0.8,6.8
				c0.2,1.9,1.4,4.6,1.9,7.3c0.4,2.8,2.2,7.8,3.8,10.9s2.9,9.1,4,10.5s3.8,5.8,3.8,8.5s2.9,6.5,4,7.2c1,0.7,3.2-0.8,3.8-2.5
				c0.5-1.7,3.6-2.3,3.8-3.8c0.2-1.4,0.5-2.6,1.6-2.8s1.1-1.3,1.1-2.9s0.1-3.8,1.2-5.2c1.1-1.4,1.3-5.1,0.6-6.6s-0.3-3.6,0.3-5.1
				s0.4-3.2,1.5-3.4c1.1-0.1,2.8-1.1,4-2.8c1.2-1.6,4.9-3.8,6.2-4.9s5.3-4.6,6.5-6.6s4.6-2.6,6.2-4.3c1.6-1.6,1-2.5,1.3-4.2
				s5.3-2.5,7.3-2.5c1.9,0,2.4-0.8,3.7-0.8s3.1-0.2,3.2-1.6c0.1-1.4,1.6-2.4,2.5-2c0.8,0.4,2.1,3.8,2.2,5.5c0.1,1.7,2.1,5.1,4.4,6.1
				c2.3,1,3.9,5.7,4.6,8.2c0.7,2.5,0.2,5.1-0.6,6.5s0.3,1.5,1.7,2.2s2.9,1,4-0.5c1-1.4,3.1-2.5,3.4-4.1c0.3-1.6,1.3,0.8,2.1,1.6
				c0.8,0.8,1.4,2.5,1.6,4.5c0.2,2,0.4,7.1,2.1,8.8c1.7,1.6,2,5.2,1.6,6.4c-0.5,1.3,0.9,3.4,0.5,4.8s-0.9,5.2-1.4,7.1
				s-0.8,3.5,0.2,3.6c1.1,0.1,3.2,2.6,5.3,5.2s2.3,5.8,2.3,8.2c0.1,2.4,3.6,6.2,4.1,7.8c0.5,1.6,1.6,2,3.9,3.7
				c2.3,1.7,6.9,4.4,7.8,4c0.9-0.4-1.4-4.4-2.7-5.8c-1.3-1.4-0.1-5.1-0.1-7.8c0.1-2.7-2.5-2.4-3.1-4.3s-1.6-0.8-2-2s-2.9-3.1-5-3.3
				c-2-0.2-3-3.2-2.8-4.6s-1.5-2.6-1.5-3.8c0-1.2-1.2-1.3-2.6-1.9c-1.4-0.7,0.3-4.7,0.5-6.5c0.2-1.7,3.1-6.7,2.2-8.3
				c-0.8-1.6,2.9-2.8,3.4-1c0.5,1.7,0.7,2.6,3.1,2.5c2.4-0.1,2.4,1.7,4.3,2.3c1.9,0.5,1.2,2.6,1.4,3.8c0.2,1.1,1.7,0.5,2.5,0.4
				s-0.5,1.3,0.2,2.2c0.7,0.8,2.8-0.7,3.2,0.3s1.2,1.4,2.2,2s-1.2,1.6-1.1,3.5c0.1,1.9,1.5,2.4,2,1.6s2.8-2.5,3.7-2.8s0-1.6,1-1.6
				c1,0.1,0.7-1.4,1.1-2.2c0.4-0.8,1.1-0.5,2.5-0.4s3.5-1.3,5.5-2.6c2-1.3,2.4-1.6,3.2-5.4c0.8-3.8-0.9-8.3-1-9.4s-2.8-6.4-3.8-6.4
				c-1,0.1-5.7-4.7-6.5-5.5s-0.6-2.1-1.8-3.1c-1.2-1-1.3-3.7-1-5.5c0.3-1.9,2.9-2.3,2.9-3.5c-0.1-1.3,0.2-2.3,1.6-2.4
				c1.3-0.1,2.6-1.1,3.2-2.1s2.5,0.1,2.8-1c0.4-1.1,1.7-0.8,2.2,0.1s1.1,1.1,2.3,0c1.2-1.1,1.8,1.1,1.1,1.7
				c-0.7,0.6-0.2,2.5,0.9,3.5c1.1,1.1,1.3-0.7,1.1-1.7c-0.2-1.1,1.9-2.2,5.7-3.4c3.8-1.3,7.9-4,7.9-4.6c0.1-0.6,2.7,1.1,4,0.1
				s5.8-1.1,7-1.1c1.2-0.1,1.1-1.1,2.4-2.1s1-1.5,2.4-1.9s2.3-1.7,2.3-2.5s2.7-1,2.8-1.7c0.1-0.8,2-1,2-2s1.2-0.8,1.7-1.5
				s-0.4-2.8,0.5-3.1c1-0.3-0.4-1.4-0.5-2c-0.2-0.5,1.8-0.7,2.8-1.3c1-0.7,1.7-1.7,1.9-2.8c0.2-1.1,1.9-2.2,2.6-2.5
				c0.8-0.3,1.1-1.9,0.8-3.3c-0.2-1.4,1.4-1,0.7-1.6c-0.7-0.5,0.3-2,1.7-2.5c1.4-0.4-0.9-1.1-1.7-0.5c-0.8,0.6-1.6-1.7-2.3-0.8
				s-2.8-0.5-1.4-0.8c1.3-0.3,3.4-1.8,4.3-2.1c0.9-0.3-1.3-2.3-2.5-2.2c-1.1,0.1-2.4-2.6-3.6-2.6s0.9-0.8,2.3-0.1
				c1.4,0.7,3,1.3,3.6,0.7c0.6-0.6-2.3-3-3.4-3.8s-0.1-2-0.7-2.5c-0.7-0.5-2.1-3.5-2.6-4.9s-3-1.6-3.6-2.5s0.1-3,1.9-3.8
				c1.9-0.8,1.1-2.3,1.9-2.2c0.8,0.2,1.6-0.2,2.2-1.6c0.7-1.4,1.8-0.5,2.5-1.3c0.7-0.7,3.6-0.7,4.6-1.4c1-0.7-1-2.9-2.3-2.6
				c-1.4,0.4-3-0.2-4-1.6s-3.5,2.6-5.4,3.5s-3.2-1.6-2.5-3.2s-1.5-1.6-4.2-1.4c-2.7,0.1-1.7-4.8-0.1-5s4,1.5,5-1.5s2.5-0.7,4.7-3.3
				c2.3-2.6,4.9-4.3,6.9-2.7c2,1.6-2.1,4-2.8,5.5c-0.7,1.5,0.6,2-0.6,3.1s0.5,1.4,2.8-0.1s5.2-3.3,7.5-4.2c2.3-0.9,5.5,0.6,6.6,2
				s-1.3,3.1-2.4,4.4s0.7,1.4,0.7,2.5c0.1,1.1,1.5,2,2,1s1.4-0.6,3.1-0.6s1,2.6,2.2,2.7c1.3,0.1,1.1,2-0.2,1.7
				c-1.4-0.3-1.4,1.9-0.2,3.7c1.2,1.9-2.3,4-1.3,4.9c1,1,0.2,2.1,0.6,2.7s5.5-0.2,7.7-2.5s2.8-2,4-1.7c1.1,0.3,2.3-0.8,1.7-1.7
				c-0.6-0.9-1.3-3.1-1.1-5.9c0.2-2.8-6.4-9.4-7.8-10.2c-1.4-0.8-0.5-3.2,1.1-3.6c1.7-0.4,5.8-3.6,7.1-4.3s0.4-3.1,1.4-4.9
				c1-1.9,7.4-7,8.9-7s3,2.6,4.7,2.6c1.7,0.1,9.3-5,9.4-5.9c0.1-0.8,4.5-5.1,6.6-7.3c2.1-2.2,4.9-5.5,5.9-8c0.7-1.6,3.6-4.6,4.3-5.8
				c0.7-1.2,1.2-1.3,2.5-4.1c1.3-2.8,1.3-10.2,1.7-10.7c0.4-0.5,0.2-1.7,0.8-2.5c0.6-0.8,0.3-1.9,1.5-2.9s1-1.9,0.7-2.7
				c-0.3-0.8,0.1-2.5-0.2-3.1c-0.3-0.5-0.2-0.8,0.5-1.2c0.7-0.4-0.5-1.5-1.5-2s-2.3-0.9-2.5-2c-0.1-1.1-1.9-2.5-3.2-2.4
				c-1.3,0.1-3.8-0.7-3.5,0.1c0.3,0.8-0.1,1.6-0.8,1.4s-1,0.4-1.7,1.6c-0.8,1.2-3.5,1.3-2.3,0.2c1.3-1.1-0.4-1.2-0.2-2.4
				c0.2-1.2,1.3-2.4-0.1-1.6s-1.4,2.6-2.5,2.9c-1.1,0.2-0.8-3.2-0.5-4.1s-2.1,0.1-4.6-0.1s-1.9-1.9,0.2-3c2-1.1,1.7-2.1,2.7-2.5
				s3.7-2.2,5.2-3.1c1.6-0.9,1.9-1.9,2.2-2.9c0.4-1,3.2-2.3,5.8-4.4c2.6-2.1,3.8-3.3,4.4-4.6c0.6-1.3,4.4-2.8,4.5-3.8s4.6-3.4,7.6-4
				c3.1-0.6,7.9,0.2,8.8,1.1s1.6,0.5,2.1-0.1s1.7-0.3,3.8-0.1c2,0.2,2.5-1,3.9-0.5c1.4,0.4,2.5,0.7,3.4-1c0.8-1.6,4.8-1.3,5.7-0.7
				c0.9,0.7,1.6,1.6,3.1,0.6c1.4-1,1.4,1.3,2.8,1.4c1.4,0.2,0.5,1.4-0.7,1.3c-1.2-0.1-2.7,0.6-1.3,1.4c1.4,0.8,3-0.7,4.1-0.6
				c1.1,0.1,2.8,0.2,4.3-0.7c1.5-1,1.9,0.8,2.9-0.1c1-0.8,3.1-1.1,4.2-1s0.2-1.3-1.6-1.3c-1.8,0-1.7-1-0.3-3.4
				c1.4-2.5,4.2-3.8,5.9-5.3c1.7-1.5,3-0.8,3-1.7c0-1,0.8-3.7,2.2-3.7c1.3-0.1,4.6,0.5,6.7-0.6c2-1.1,1.9,0.8,2.7,1.1
				c0.8,0.3,2-1.7,2.9-1.1c1,0.6-1.4,2-2,3.8c-0.5,1.7,1.3,1.1,2.3,1.6s-1.3,1.2-1.1,1.7c0.2,0.5,2.3,0.5,4.9-2.2
				c2.6-2.6,5-3.4,6.7-3.2s0.7-1.5,0.8-4c0.1-2.5,5.3-3.2,7-2.5s1.6,1.4-0.1,1c-1.6-0.4-3.1,1-3.1,3.1c0.1,2-1.4,2.7-0.7,3.5
				c0.8,0.8-1.1,1-1.2,1.8s0,1.5-1.2,1.9s-5.2,0.8-5.3,2.3c-0.1,1.6-2.3,1.7-3.3,3.7c-1,1.9-4.9,3.1-7.5,6.9s-6.7,3.8-6.7,4.6
				s-2.8,0.7-3.8,0.8c-1,0.1,0.9,2.5-1.4,4.9c-2.3,2.5-3.8,5.9-3.7,9.3c0.1,3.4,1.2,13.3,2.2,15s0.4,6,1.3,6.9
				c0.8,0.9,0.5,2.4,1.1,2.9c0.5,0.5,2.8-2.4,4.3-3.7c1.5-1.3,1-1.7,2-2.3c1-0.7,0.6-3.4,0.9-4.1s2.2-1.1,2.8-1.9
				c0.6-0.8,2.2-0.3,3-0.6c0.8-0.3-0.1-2.3-0.4-3.4s2.5-2.7,3.9-3.7s3.2,0.7,4.9-0.8c1.6-1.5-0.1-3.2-0.7-4s1.6-4.6,2.9-4.9
				s1.9,0.9,3.1-0.2s-1.1-2.8-1.9-2.7c-0.8,0.1-1.1-3.1,0.8-4.6c2-1.5,1.2-1.8-0.1-2.2c-1.3-0.4-1.6,0.1-2.6,0.2s-2-2.1-0.5-4.2
				c1.6-2.1,3.1-1.9,3.4-3.6c0.4-1.7,2.5-4.2,3.1-5.1s2.7,0,3.5-0.2s0.5,1.6,1.6,0.7c1-0.9,2.7-3.9,4.1-3.9s0.5,2.2,0.8,3.5
				c0.4,1.3,1.1-0.4,3.8-2.2c2.6-1.8,8.4-1.6,10.1-0.8s2,2.8,3,2.6c1.5-0.4,0.2-2,1.7-2.4c1.4-0.4,4-1.9,5.9-3.3
				c1.9-1.4,1.4-0.4,2.4-1.6c1-1.3,2-0.7,2.3-1.6c0.3-0.8,3.1-2.2,6.8-3.1c3.8-0.8,8.7-3.4,8.5-4.1c-0.2-0.8,1.4-1.1,1.6-0.4
				c0.2,0.8,1.6,0.5,3.6,0.9s2.9,1.2,4.4-0.4c1.6-1.6-0.2-2.1-0.1-3.3s-2.7-2.5-2.3-3.7c0.4-1.3-2-4.6-2.8-4
				c-0.7,0.7-2.4-0.5-2.4-1.5s-0.1-2.1-1.3-1.4c-1.1,0.7-3.1,0.4-3.4-0.7c-0.4-1.1,2.2-1.9,4-1.1s1.3,1.4,2.2,2
				c0.9,0.5,3.4,0.3,4.6-0.3c1.3-0.6,4.8-1.7,5.4-2.8c0.6-1-0.1-1.5,1.1-2.1s0.3-1.9-0.7-2.4s-0.8-2,0.3-2c1.1,0,0.8-1.3,1.5-1.3
				c0.7-0.1,0.8,0.5,2.2-0.1c1.3-0.7,0.1,1-0.5,2.2c-0.6,1.1,1.3,2.1,1.4,2.8c0.2,0.7,2.8,0.9,4.2,0.1c1.4-0.8,6.1,1,6.4,2.1
				s1,2.5,2.9,3.5s3.7,0.5,4,1.4c0.4,0.9,1.1,1.4,2.2,1.1c1.1-0.2,1.7,1,2.5,0.2c0.8-0.7,1.2,0.4,2.2-0.5s-2.2-1.5-1.8-2.2
				c0.4-0.7,1.1,0.5,2,0.5c0.9-0.1-0.2-1.8,0.4-2c0.7-0.2,0.1-3.8-0.6-4C1361.3,215.1,1361.9,213.9,1363.2,214.9z M823,353.6
				c-1.4-0.1-2.6,1.3-4.1,0.8c-1.4-0.5-3.2-1.7-3.7,0s-1.1,3.5,0.8,3.4c1.9-0.1,1.6,1.2,0.2,2.5c-1.3,1.3,2-0.2,2.3,1
				c0.2,1.2,1.3,1.3,0.8,3.2c-0.5,1.9,0.4,6.8-0.1,7.6c-0.6,0.9-5.3,1.8-8.8,1.9s-3.7-4.4-7.4-4.4s-6.2-4.7-4.2-7.2s3.6-6.5,2.4-8.6
				c-1.2-2.2-8.4-9.7-8.3-11.8c0.1-2,1-3.4-1.6-5.5c-2.5-2.2,0.2-3.6,2-5.9s5.9-3.1,7.9-4.9s5.8-3.5,8.5-2.8c2.8,0.7,5-0.5,6.2,1.2
				s0,4.8,0.5,6s-2.2,1.3-4,1.1c-1.8-0.2-5.5,0.7-5,1.8c0.5,1.1,1.8,3.6-0.6,2.3c-2.4-1.3-3.4,1.3-2,1.3c1.3,0,3.1,1.6,3.1,2.6
				c0,1.1,0.1,3.5,1.3,3.1s1.2,1.8,2.9,1.7c1.7-0.1,3.2,0.5,1.9,2c-1.3,1.6,0.8,5.9,1.3,4.9s-0.5-3.7,2.4-3.5s1.6,3.6,3.1,3.7
				C822.6,351.3,824.4,353.7,823,353.6z M846.5,336.8c-3,2.2-5.9,1.8-4.9-0.8c1-2.6,1.1-5.8-0.5-5.8s-0.5,5.5-1.7,5.9s-1.6-5-0.2-7
				c1.3-1.9,3.1-0.3,3.7,0.1c0.5,0.4,0.2-2,1.7-1.9c1.4,0.1-0.1,2.4,1,2.4C846.6,329.7,849.5,334.7,846.5,336.8z M850.8,326.6
				c-0.5,0.7-5.2-0.6-5.6-1.5C844.8,324,851.9,325.2,850.8,326.6z M919,326.1c-3.4,0-10.8-1.7-13.8,1.6c-3,3.2-0.8,4.9-2.2,5.2
				c-1.4,0.3-2.2-4.9-0.5-6.6s7.1-2.4,10.4-1.6c3.4,0.8,9.4-0.7,10.2-0.5C924,324.5,922.3,326.1,919,326.1z M1038,290
				c-3.4,3.1-10.3,3.8-10.3,6.3s-8.3,3.8-9,2.7c-0.6-0.9,6.1-1.3,7.7-4.9s7.8-5.5,10.8-10.3c2.2-3.4,4-8.6,5.2-8.3
				C1043.7,275.9,1041.4,286.9,1038,290z M327.1,455c1.6,2.5,6.3,1,6.7,0C334.5,453.2,325.5,452.5,327.1,455z M799.2,579.8
				c-0.5-2-1,0.7-1.4,1.2c-0.5,0.5-0.7,1.9-0.6,2.9c0.1,1-1.4,1.9-2.4,1.8c-1-0.1-2.5,0.5-2,1.8s-0.7,1.1-0.1,2.2
				c0.6,1.1-1.3,2.4-3,2.5s-3.8,3.1-5.6,2.9c-1.8-0.2-3.6,1.2-5.2,1c-1.6-0.2-0.5,3.2-1.7,5.4s-0.6,4.7,0.5,7.3s1.9,4.8-1,8.3
				s-2.6,7.3-1.6,9.7c1.1,2.4,1.1,6,2.6,7.7c1.6,1.7,5.9,3.1,7.2,1.8s2.7,0.2,4.2-1.6c1.4-1.7,3.8-10.9,5.9-17
				c2-6.1,4.7-14.2,4.4-15.8c-0.2-1.7,1.4-2.8,0.7-4.6s0.2-4,1.1-2.5c0.8,1.4,2,1.4,2.4-0.5s-1.4-4.9-1.6-7.7
				C802,583.7,799.6,581.1,799.2,579.8z M511.8,181.7c-1.6,0.8-4.8,1-7.2,0.4c-2.4-0.6-6.2-2.6-9-1.1c-2.8,1.6-1.1-2.3,1.2-2.6
				c2.3-0.4,1.3-1.4,0.7-3.8c-0.6-2.4,3.8-0.8,5.8,1.9c1.9,2.8,5.6,4,8.9,3c3.2-1,0.1-3.6,1.4-5.4c1.3-1.8-10-7.4-10.6-9.4
				c-0.6-1.9,2.9-0.6,6,0.7s3.8-2.5,3.8-4.2s-6.7-1.8-9.7-0.1s-5.9-2.2-1.8-2.6c4.1-0.5,0.4-2.2,1.6-3.4s6.4,3.5,9,2.6
				c2.6-0.8,4.6,0.1,6.8-1.7c2.3-1.8-4.1-3.5-5.4-5c-1.3-1.6,6.6-1,9-0.8c2.4,0.1,3-3.5,1.1-2.8s-8.8-2.4-7.3-4.6
				c1.4-2.2,4.1,0.4,7.1-1.2c3-1.6,0.2-7.4-1.9-7.4c-2.2,0-7.2-0.7-7.2-1.8s-4.2-2-3-3.1s2.8,1.3,5.5-0.7c2.8-2,8.5,0.5,11,0
				s-1.1-5.2-2.5-4.3c-1.4,0.8-6.4,1.1-6.7-1.4c-0.4-2.5,4.7,0,5.5-1.2s-7-4.3-8.2-1.8s-5.5,1.7-3.2,0.2c2.3-1.4,2.8-5.5,2.5-7.6
				c-0.2-2,8.2-2.2,7.2-5.5c-1-3.4,4-4.1,6.7-4.1c2.8,0-0.1-3.6-2.8-3.2c-2.6,0.4-5.4,3.4-6.7,2.2c-1.3-1.2,3.1-3.4,5.5-3.4
				s8.2-0.2,10.2-1.4c2-1.2-3.6-2.3-7.4-1.8c-3.8,0.5-3.8-1.2,1.9-1.3c5.8-0.1,4.8-1.3,8.9-1.8c4.1-0.5,2.8-2.2,5.3-2.3
				c2.5-0.1,9.1-2.9,9.1-4.2c0-1.3-9.5-4-13.9-4s-8,0.7-8.3,3.8c-0.2,3.1-5.9-0.6-8.3,0.5c-2.4,1.1-1.2-2.5-3.6-1.3
				c-2.4,1.2-5,4.1-7.9,5.3c-2.9,1.2-5,4.2-6.8,4.4c-1.8,0.2,3.8-5.5,6.7-8.4c2.9-2.9,1.3-6.2-2.5-5.9c-3.8,0.4-3,2.8-5.2,3.2
				c-2.2,0.5-12.5,5.6-13,4.1c-0.5-1.6,8.5-4.2,8.4-5.3c-0.1-1.1-11.4-1.2-16.4-0.5s-13.9,3.6-14,2.2s10.3-3.5,15.6-4.1
				c5.4-0.6,15,0.4,19.1-1.3c4.1-1.7,10.2-1.8,11.3-3.1c1.1-1.3-4.7-3.1-7.6-3s-5.8-0.2-5.5-1.7c0.2-1.4-4.4-1.8-4.9-2.9
				s-9.5-0.2-11.4-1.4c-1.9-1.2-7.6-1.8-12.4-1.4s-14.6,0.2-16.9,0.5c-2.3,0.2-3.7,1.1-5.8,1c-2-0.1-5.2,0.6-4,1.9
				c2.2,2.4-3.2,3.4-2.9,1.6s-4.7-2.6-6.2-1.3c-1.8,1.5-9.8-1.6-11,0s-10.7,1.1-13.4,1.6c-2.8,0.5,4.3,2.5,4.1,3.7
				c-0.2,1.2-9,0-7.2,2.2s7.6,3.7,10.3,6.5c2.8,2.8-2.2,1.1-5.3-1c-3.1-2-7.1-1.3-9-3.4c-1.9-2-9.1-3.6-10.9-2.4
				c-2.1,1.4,4.9,4.1,4.9,5.6c0,1.6-4.8-0.4-5.6,0.2c-0.8,0.6-5-4.1-7.4-4.1s-0.4,2.2-0.4,5.2s-4.7,4.8-3.4,2.8
				c1.3-2,0.4-7.3-2.2-8.3c-2.5-1-9,2-12.4,1.9s-7.8,1-4.9,2.6c2.9,1.7-0.1,2.6-2.6,0.8c-2.5-1.8-10.8,0-9.1,1.2
				c1.7,1.2,2.3,4.7,1.2,6.1c-1.1,1.4-4.6-1.4-7.8-1.2c-3.2,0.2-19.3,7.9-18.4,10c1,2,7.8,0.4,10,1.6s-0.7,5.6-3.4,7.4
				c-2.6,1.8-12.5,0.1-12.7,2.3c-0.2,2.2-15.5,2.5-15.5,6c0,1.3,0.7,2.6,2.4,3c2.2,0.5,4.8-0.2,6.7,1.9c1.9,2.2,7.3,2.3,11,0.8
				c3.7-1.4,6.5,0.2,6.4,2.4c-0.1,2.2-8.4-0.8-10.9,0.7c-2.5,1.6-10.3,0.2-10,1.9c0.4,1.7,4.2,1.3,7.3,1.9c3.1,0.6,0.2,1.9,0.1,3.2
				s1.7,1.1,4.8,2.6c3.1,1.6,8.3,2.5,6.6,0.7c-1.7-1.8,3.2-1.6,4.1-0.5c0.8,1.1,3.1-1.6,5.4-1s3.1-2.2,4.9-1s10.2,1.9,13.1,3.5
				s6.8,1.9,6.5,4.2c-0.4,2.3,2.4,4,5.6,5.4s3.8,4.6,3.7,6.6c-0.1,2,3.5,3.5,2.9,4.4c-0.6,1-0.1,2.3,2,4.2c2.2,1.9-3.4,3.4-2,5
				c1.3,1.7-1.9,4.9,1.9,5.5s3.2-2.6,6.1-2.6s-0.1,2.5,1.4,4.1c1.6,1.6,4.8,1.2,7.8,3.7s1.1,3.7-1.7,1.7c-2.8-2-10.8-1.6-10.8-0.8
				s8.9,5.8,10.9,5c2-0.7,4.8,3,3.6,4.2c-1.2,1.2-0.6,4.2-0.8,5.6c-0.2,1.4-3.2,0-5.2,0.2c-1.9,0.2-3.2,0.8-3.2,2.9c0,2-3,3.5-3.4,6
				s2.4,2.4,4,3.5s-2.9,1.8-3.1,3.6s4.1,5,5.6,5.9c1.6,0.8,0.1,4.9,0.7,7c0.6,2,2.6-0.5,2.4,2.2c-0.2,2.6,1.9,2.5,2,4.1
				s3.8,1.3,3.1,3.5s1.1,3.7,1.9,4.9s4,3.2,4.6,4.8s2.4,3.6,4.6,3s2.3,1.4,4,1.2s4.3,0.7,4.8,2s5.6,2.5,7.1,2.8
				c1.4,0.2,1.7-2.4,3-3.1c1.3-0.7,0.8-6,2-6.4s0.8-5.9-0.4-6.4c-1.2-0.5-0.7-2.4,2-2c2.8,0.4,1.8-2.4,3.1-2.8
				c1.3-0.4,0.7-2.9,1.7-3.1c1-0.2,0.8-1.9,0.1-2.9c-0.7-1,0.1-1.7,1.6-1.9c1.4-0.2,1.1-2.3-0.8-3s-1.3-2.9,0.6-1.6
				c1.9,1.3,3.4,0.4,2.3-1.1c-1.1-1.4,1.3-2.2,3.8-2.4s3.8-1.6,3.4-3.5c-0.5-1.9,2.9-1.8,2-0.1c-0.8,1.7-0.4,3.4,0.8,2.2
				c1.2-1.2,3.5-0.4,7.6-1.6c4.1-1.2,8-4.6,9-7.8s5.6-2.9,5-5c-0.6-2.2,0.8-3,3.8-1.6s0.6-1,4-1s2.8-1.2,6-1.3s11.6-1.6,14.5-4
				s9-4.4,11.5-6C512.7,182.2,513.3,180.9,511.8,181.7z M1053.2,149.1c-0.5,1-3.1,1-2.4,1.9c1.2,1.6,7.2,0.7,7.3-1.2
				C1058.3,147.9,1053.7,148.1,1053.2,149.1z M338.5,307.6c0.4,1.4,10.8,5.8,11.2,3.8C350,309.4,338.2,306.4,338.5,307.6z
				 M648.7,279.2c-1.1-0.2-0.4,1.6,1.1,1.8c1.5,0.2,3.1-2.6,2.9-3.4c-0.2-0.7,1.5-4,1-4.4c-0.5-0.3-0.8,0.8-1.4,1
				c-0.5,0.1-1.1-2.3-1.4-1c-0.2,1.3-1.4-0.5-2.6,1.1c-1.2,1.7,0.7,3.2,1.6,3.7C650.6,278.7,649.7,279.5,648.7,279.2z M677.8,262.3
				c-2.3,0.1-3.3,4.5-2.8,5.3C675.5,268.1,680,262.2,677.8,262.3z M693.9,255.8c0.5-0.9-3.5-0.5-2.6,0.3
				C692,256.7,693.4,256.7,693.9,255.8z M690.5,261.1c1.1-0.1,3.5-2.1,4.2-2.8c0.7-0.7-0.4-1.4-2.6-0.8
				C689.9,258.1,689.6,261.1,690.5,261.1z M389.5,186.1c0.1-1.9-2-0.7-3.2-3s-7.3-3.2-7.9-1.4c-0.2,0.7-2.2,1.8-0.6,3.5
				s2.6,1,4.4,2.6C384,189.5,389.4,188.1,389.5,186.1z M373.9,300c1.7-1-0.1-2-1.9-1.3s-6.6,7.3-6.6,9.1s-0.1,4-1.8,3.8
				c-1.7-0.1-3.6,1.4-2.3,2.4c1.3,1-3.5,3.7-1.2,4.9c1.6,0.8,4.1-0.4,6.2-0.1c2.2,0.2,4,0.4,5.8-1c1.8-1.3,1.8,1.2,3.7,1
				c1.9-0.2-1.1,1.6-1,2.9s2-0.7,3.5-1.4s3.2,0,2.5,1.2s4,2.4,5,0.5c1.1-1.9-1.1-4.9-1.8-3.6c-0.7,1.3-1.8-1-0.2-2.2
				c1.6-1.2-0.2-1.7-1.7-1s-1.1-3.2,0.2-4c1.3-0.7-3.2-2.2-3.2-0.8c0,1.3-3.2,0.5-3.6-0.7s-2.6-1.6-1.8-2.4c0.8-0.8-2.8-1.3-3.1,0.1
				s-1.4-1,0.4-2.9S372.2,301,373.9,300z M454.7,551.5c-1.8,0.1-5.2-0.4-9.7-5.2s-8.9-4.5-11.9-3.7s-6-1.4-8-1.9
				c-2-0.4-3.9,2.1-5.3,2.6s0.7-2.2,0.8-3.9c0.1-1.7-5.4-4.1-9.5-5.8c-4.1-1.6-5.9-0.8-5.9,1.8s-1.6-0.8-2.9,2s-3.6,1-2.1,0.1
				s3-3,3.5-4.7s-5.9-3.1-8.2-2.2s-0.8,4.1-2.6,3.1c-1.8-1-0.4-3.4,1.1-3.3c1.4,0.1,3.1-2.9,4-5c1-2.2-1.7-2.5-3.3-4.3
				s-1.3-7.1-3-7.8s-4.3-4.9-6.9-5.4s-5.3-2.3-7.5-2.1c-2.2,0.3-4.4,1.3-5.2,0.1c-0.8-1.2-2-1-3.1-0.1s-3.1-3.2-4.1-3.2
				s-2.3-0.9-2.1-2.4c0.3-1.5-2.5-1.7-4-3.4c-1.5-1.7-5.8-1.6-7.4-1.5c-1.5,0.1,1-1.7,1.1-3.3c0.1-1.6-4.3-1.9-6-2.2
				s-1.3-2.2,0.5-2.2c1.8-0.1-1-1.3-3.4-1c-2.4,0.4-5.8,1.7-7.8,2.8c-2,1.1-5.4-3.1-7.6-2.2s-5.4,0.9-5.3-0.9s-0.9-3.3-3.1-3.1
				s-1.7-2.2-3.4-2.2c-1.7,0,0,2.1-1.2,2.6s-5.2,1.5-5.5,3.1s2.2,4.3,1.3,5.9c-0.8,1.6-3.5,0.3-4.3-1.4c-0.8-1.7,2.3-4.3,1.8-5.3
				s-1.3-3.2,0.4-3.6c1.8-0.4,2.7-1.5,1-2.5s-2.7,1.9-4.6,2.2c-1.9,0.3-2.2,1.4-3.5,2.1c-1.3,0.6-3.6,0.1-3.7,1.2
				c-0.1,1.2-0.8,0-1.9-0.3s-3.9,2.2-3.8,3.5s0.5,2.6-1.4,3.9c-2,1.3-3.1,3.6-4,4.7s-2-0.8-3.4-3s-4-2-5.7-2.7
				c-1.6-0.7-3.7,0.3-5.8,2.2c-2.1,1.9-4.7,0.8-6.5-0.2s-6-6.6-6.7-7.7c-0.6-1.2,0.4-3.5,1-5.2s-0.4-5.8,0.5-6.9
				c1-1.1,0.4-1.7,0.9-4.2c0.4-2.5-2.5-1.6-4.5-3.6s-6.3-1.1-8.6-0.2s-5-1-7.6,0.4c-2.5,1.4-2.1-1.7-0.4-3c1.6-1.3-0.8-6.3,1.1-6.7
				c1.9-0.4,2.4-3.6,2.7-6s-0.5-3.2,0.7-4.6c1.3-1.3,2.6-1.4,2.2-3.3c-0.4-1.9-2.1,0-3.5-0.9s-2.7-0.3-6.4,0.3s-5.4,2.1-5.2,4.7
				s-1.3,1.4-1.2,3.7c0.1,2.2-2.9,2.3-2.7,3.7c0.2,1.3-2.3,0-3.1-0.4c-0.7-0.4-8.5,1.9-9.5,2.1c-1.1,0.2-3.1-2.2-4.6-2.2
				c-1.5,0.1-2.2-2.2-2.3-4.1c-0.2-1.9-3.1-3.6-4.3-5.3c-1.3-1.7-1.4-5.5-1.5-7.9s-0.4-6.6,1.3-11.3c1.7-4.8-3.1-5.2-0.8-6.9
				c2.2-1.7-0.1-3.1,1-3.9c1.1-0.7,3-1.4,3-2.5s1-1.1,2.4-0.9s4.1-2.3,4-3.3c-0.2-1,0.3-1.2,2-0.8c1.7,0.4,1.4-2,2.5-1.6
				s2,1,2.1,0.2s1.2-0.6,2,0.4c0.8,1.1,3.1,1.3,3.3,0.1c0.2-1.3,1.5,0,2.7,1.3s1.7,0.9,3.4,1s1.7-0.4,1.8-1.4s1.9,2.3,3.6,2.5
				c1.7,0.2,0.4-1.1-0.9-2.1c-1.3-1,0.3-1.4-0.8-2.2c-1.1-0.8,1.3-1.9,3.5-1.8s2.1,0.6,2.9-0.6c0.8-1.3,1.6,0,1.6,1.1
				s3.5-0.6,5.4-0.6s3.6,1.6,3.8,2.7s1.4,1.6,2.8,0.4c1.3-1.2,2.5-2.5,3.8-1.3c1.3,1.3,2.5,3,4,4.5s-0.7,3.4,0.1,4.6
				c0.8,1.2-0.1,2.8,1.7,4s0.2,3.9,1.6,4.2s2.6,2.6,2.8,3.5s2.9,2.1,3.1,0.5s1.6-3.3,1.8-4.8s-1.1-6.6-2.2-8.2s0.3-2-1.2-3.9
				c-1.4-1.9-2.3-5.2-2.2-7.9c0.1-2.7,3.2-7.1,4.8-8.5c1.5-1.3,3.2-0.6,3.6-2.1s2.2-3.2,3.3-3.2s2.2,0.3,2.4-0.9
				c0.2-1.2,2-2.6,4.3-3s1-1.6,0.4-2.7s0.5-2.2,1-1.4c0.4,0.7,1.9,0.8,2.8,0.2c0.9-0.6,3-2.3,1-2.4s-2.4-0.9-1.3-1.3
				c1.2-0.4,0.2-2.6-1.4-2.8c-1.6-0.2-1.1-1-0.1-2s-1.4-2.6-2.6-3.4s0.7-1.3,1.6-1.4c0.9-0.2,0.2-4.3,0.6-5.3s2-1,1.3,0
				c-0.6,1-1.5,2.6-0.4,4c1.2,1.3,1.5,2.8,1.1,4.9s0.4,1.5,1.8-1.2c1.3-2.7,1.5-5,0.6-5.3s-0.8-3,0.2-1.7s1.3,1.4,2.9-0.2
				c1.5-1.6,3.1-4.4,2.2-5c-1-0.6,0.4-1.3,2.2-1.2c1.8,0.1,5.7-1.1,5.9-1.6c0.9-1.8-6.2,0.8-6.2-0.2s4.5-2,6.6-2.1s1.1-2.9,2-1.7
				c0.9,1.2,2.2,1,3.4,0.3s0.3-2.8-1.1-3.1s1-1.3,0.5-2.1s0.9-4,2.6-4.4s0.9-1.4,2.3-1.4s1.7-1.7,3-3s3.1,2,5,0.2s5.7-4.1,7.3-4
				c1.6,0.1,4-2.1,4.8-3.4c0.7-1.3,1.7,1.3,0.3,1.7s1.2,1.5,3.7,1.4s-1.2,0.9-3.1,0.8s-2.7,0.2-5.2,2.7s-1.9,3.2-0.4,4.5
				c1.4,1.3,3.3,0.7,5.3-1s1.9-3.4,3.9-3.3s7.1-1.8,9.4-2.5s0.8-1.1,0.8-2.1s4-1,5.4-2s-0.3-1.8-1.5-1.6c-1.3,0.2-0.3-1.8-0.1-2.8
				c0.2-1-2.7,0.4-2.8,1.6c-0.1,1.2-2.1,1.6-2.1,2.3c0,2.1-0.3,1-1.7,1.7s-7,0-7.2-1.3s-4.2-1.9-4.4-3.6s-2.2-2.2-0.5-4.1
				c1.6-1.9-0.3-2.8-1.8-1.3c-1.5,1.4-2.4-0.8-0.4-1.6c2.1-0.8,5.9-1.6,4-5.2c-2-3.6-14.4,1.1-17.5,2.9s-7.1,7.6-8.8,7.6
				c-1.7,0,3-3.1,3.7-4.2c0.7-1.2-0.2-2.3,0.8-1.9s3.8-3.9,5.7-5.3c1.9-1.4,4-0.1,4.2-1.3c0.3-1.2,1.2-2,3-3.6s23.3-1.3,25.4-1.3
				c2.1,0.1,6.1-2.7,7.3-4.5c1.2-1.8,2.7-1.8,5.6-1.6c2.9,0.2,4.2-2.4,5.7-3.4s0.9-1.4-0.4-1.7c-1.3-0.3-2.4-1.1-1.2-1.2
				c1.3-0.1,1.9-0.8,2.4-2.4s-0.4-0.9-2.2-3.1s-2.6,0.7-4.3,0.5s1.2-2.3-0.3-3.2c-1.4-0.9-4.1-0.3-6.3,1.5c-2.2,1.8-2-0.1-3.9,1.7
				c-1.9,1.8-1.9-0.9-1-1.6s1.5,0.1,2.3-1s1.6,0,3.7-1.3s3.9-0.7,4.5-1.7s-1-2.3-3-1.9s-3.3-2.7-4.6-1.8c-1.3,0.9-1-1.3-2.4-0.4
				s-2.2-0.3-2.9-2c-0.6-1.7-4.5-4.5-6.8-5.2s-0.8-2,0.4-1.1s2.7-0.9,3.2-1.8s-0.9-1.7-1.6-1.8c-0.7-0.1-0.7-1.3-0.5-2.2
				s-2.5-2.1-2.6-3s-1.6-1.5-1.5-2.3s-1.5-2-1.5-3.1s-2.7-3.2-2.8-4.5c-0.1-1.3-1.5-2.2-2.1-3.7c-0.5-1.5-1.3-0.8-1.8,1.3
				s-2.4,2.1-1.9,2.8c1.1,1.5,0.3,1.5-0.5,2.4s0.5,2.2-0.8,2.2s-0.7,2.8-1.4,1.5c-0.7-1.3-2.4-0.9-2.4,0.4s-2.9,2.4-4,2.3
				c-1.2-0.1-1.2-2.5-2.2-1.8s-0.8-2.1-2.3-2s-2.6-0.1-2.2-1.4c0.4-1.3-2.6-2-1.6-2.8s-0.3-2.2-0.4-4.6s1.3-2.5,1.3-3.4
				s-1.1-0.9-2.2-0.2s-1.1-1-2.2-0.9c-1.2,0.1-4.7-0.1-4.9-1.7s-1.3-0.8-1.9-2.3c-0.5-1.5-2-0.4-2-1.4s-0.6-1.5-1.7-1.6
				s-1.4-1.3-2.9-1.4s-3.2,1-4,1.3c-0.8,0.4-2.9-1.3-3.7-0.6s-1-0.4-3.2-1.1c-2.2-0.6-5.2-0.8-5.4,0s-2,1.1-1.7,3s2.2,1.5,2.6,2.8
				s-0.9,0.8-1,2s-1.3,1.1-1.3,1.9c0,0.8,0.8,0.6,1.3,2.2c0.4,1.6,1.3,1.5,1.6,3.7c0.3,2.2-0.7,1.7-1.6,2s0.1,1.3-1.2,2.8
				c-1.3,1.4-2.3,3-1.3,3.9c1,0.9,4.7,2.4,6.1,4.9s1.3,6.2,0.9,8.9s-3.5,3.3-5.8,5.7c-2.2,2.3-4.6,2-5.7,2.1s-0.4,2.2,1.1,4
				s0.3,2.2,1.1,4s0,3.2,1.2,4.9c1.2,1.6,0.4,2.2-0.9,3.4c-1.3,1.2,0.5,0.5,0.6,2.1c0.1,1.5-0.6,0.6-1.8-0.2
				c-1.2-0.8-2.2,1.5-2.2,2.5s-2.8-1.3-3.4-1.3c-0.6,0.1,0.2-1.5-1.4-2.8s-2.9-1.5-2.9-2.8s-2.8-2.2-2.8-3.6s0.4-5.1-0.3-6.2
				c-0.6-1.1-0.1-2.2,0.4-3.2s-0.6-2.5-2.2-2.5s-3.9-0.5-6.1-0.4c-2.2,0.2-3.5-0.2-4.2-0.8c-0.7-0.6-2.8-2-5.6-2.7s-4-2.2-4.3-3
				s-3.1-1.4-3.7-2.2c-0.6-0.8-3.3-1.3-4.4-1.1c-1.1,0.2-3.8-2.2-5.4-2.2c-1.6,0.1-5.4,1.7-6,1.8c-0.6,0.1,0.1-1.3,0.5-2
				s-1.3-3.3-1.8-5.1c-0.4-1.8-1.1-3.8-3-3.5s-4-0.7-4.5-1.1s-0.6-5.5-0.2-7.6s2.8-5.4,2.8-6.7s1.5-2,2.9-2.3s0.3-3,1.6-3.1
				c1.3-0.2,1.4-0.7,1.7-1.8s1.9-0.4,1-1.3c-0.9-0.9-0.2-1.2,1.9-1.2c2.1,0,5.1-0.7,4.7-2.8c-0.4-2.1-5.8-0.5-5.8-2.2
				s-6.8-1.8-6.4-2.8c0.4-1,6.8,0.7,9.2,1.6c2.3,0.9,3,0.8,4.9,0.7s0.6-2.5,1-3.5s4,1.5,6,1c2.1-0.5,4-4.8,5.8-5.9
				c1.7-1.2,0.2-2.2-3.1-2c-3.3,0.3-5.2-1-7-2.3s-1.6-2.4,0.3-2.2c1.9,0.2,6.4,3.9,8.1,4c1.7,0.1,4.7-3.3,6.1-4.4
				c1.4-1.1-1.3-1.5-2.3-2.3s1.7-1.3,3.1-1.3c1.4,0,2.1,1.3,2.6,1.9c0.5,0.6,3.1-0.4,4.3-0.4s-0.2-2.1-2.2-2.9
				c-2.1-0.8,0.1-2.3,0.7-1.1c0.6,1.3,2.1,1,2.8,2.4c1,2.1,1.7,0.7,3.5,0.1s2.7-1.7,3.7-2.8s1.2,0.2,2.3-1.5c1.2-1.7-0.5-3.3-2-4.4
				c-1.4-1.1,0.1-2.2-1.3-2.9s-1.7-2.1,0.1-1.7s3.2-0.2,4-1.4c0.8-1.3-2.7-1.5-1.1-2.4s0.3-1.8-1.3-1.8c-1.6,0-3-0.8-3.1-2.2
				c-0.1-1.3-2.9-0.4-4.6-1.3c-1.7-0.8-5.5-0.6-6.4-0.5s-1,3.8,0.4,3.9c1.3,0.1,2.4,1.5,1.3,2s0.2,1.9-0.7,1.8s-2.3-0.5-2.6,1.8
				s-0.4,3.2-2,4c-1.5,0.8-0.4-2.6-1.8-2.5c-1.4,0.1-1.6,2.9-0.5,3.1c1.1,0.3,1.3,1.2,1.5,2.5s-2,0.4-2.9,2s-1-0.7-2.2-1.8
				c-1.3-1.1-2.8-2.9-2.7-4.2c0.1-1.2,0.7-1.6,1.7-1.8s0-1.1-0.1-2.7c-0.1-1.6-1.3-1.1-2.7-2.8s-3-1.7-3.8-0.9s-0.3,2.3-1.5,2.9
				s-0.7,3.1-1.8,3.2c-1.1,0.2-0.4-4.4-1.3-4.9s-0.8-1.5,0.5-1.7s2.2-1.6,1-1.6s-3.2-1.3-4-1.6c-0.8-0.4-2.2,1.5-3.1,0.8
				c-0.9-0.7,0.1-2.5,0.2-3.5c0.1-1,1.4,0.4,2.3-0.8c0.9-1.3-2.5-1.3-2.5-2.6s-2.7-1.7-3.6-2.2c-0.9-0.4,0.6-2.7,0.2-3.6
				c-0.4-0.9-3.8-3.9-5.2-3.6c-1.4,0.3-1.8-1.9-1-1.8c0.8,0.1,1.4-0.4,3-2.2c1.5-1.7,1.7-2.2,0.6-2.6c-1.1-0.4-1.6-1.4,0.3-1.3
				c1.9,0.1,5.2,1.3,6.3,0.5s4.5-6.1,5.8-8s-1-2.1-4.2-1.8s-4-1.3-6.7-1.4s-7.7,0.5-8.5,1.3c-0.7,0.8,1.3,1.5,1.1,2.4
				c-0.3,0.9-1.9-0.6-2.6-0.3c-0.7,0.4,0.3,1.5,0,4.7s0.6,3.3,1.5,4.5s0.7,2.7,0.7,4.7s-1.9,1.9-2.5,2.3s1.6,1.2,1.3,2.4
				c-0.4,1.3-2.2-0.7-3.3-0.4c-1.1,0.4-2,3.4-0.8,4.4s1.6,0.8,0.7,2c-0.9,1.2-1.9,2.9,0.3,4.6c2.2,1.7,6.1,1.5,8.2,2.9
				c2.1,1.3-0.9,0.5-0.1,2.1c0.8,1.5-1.3,2.1-1.3,3.2c0.1,1.2,0.9,0.5,2-1.4s1.9,0.5,1.8,2.2c-0.1,1.7-1.6,0.7-2.8,2.4s-2.2,2-4,1.6
				c-1.7-0.4-0.7,2.4,0,4c0.7,1.5-0.2,2.1-2.2,1.5c-2-0.5-3.1-1.8-2.2-3.3c1-1.5,1.7-3.3,0.5-3.1s-3.9-0.1-4.7-1.3
				c-0.8-1.3,0.5-0.7,3-0.4s0.4-1.6,2.2-1.6s3.1,1,4.7-0.4c1.5-1.3-1-4-2.2-3.5c-1.3,0.4-3.2,1-3.2-0.3s2.2-0.4,3.3-0.6
				c1.2-0.3-0.6-1.9-2.4-1.4c-1.8,0.4-3.1,0.5-4.5-1s-4-2.4-4.7,1.1s-3.1,1.6-4.1,2.8s1.2,2,3.6,2.1s4.2,2.3,3.1,2.3
				c-1.2,0-0.6,1.7-1.9,1.1c-1.3-0.6-2.5,0-1.6,1.1s-0.4,1.5-0.3,2.6c0.1,1.1-1.9,0.1-3.8-0.1c-1.9-0.2-5.4,0.4-7.9,1
				c-2.5,0.5-5.3-0.4-6.4-1.5c-1.1-1.2-2.5-1-4.3-1s-1.3-1.7-3.6-1.8s-1.8-2.1-2.1-3.2c-0.3-1.2-4.9-0.8-6.7,0.3
				c-1.7,1.1-5,0.6-5.9,2.6s0.8,1.7,1.8,1.7c1.4,0,1.3-1.6,3.8-1.3c2.5,0.4,4.3-2.6,5.4-1.5s-4.3,3.1-6.7,3.5s-1.8,2.2,0.4,5.6
				c2.2,3.3-1,1.4-1,3.1c0,1.6-4.2-0.5-2.5-1.1c1.7-0.5,0.9-2.2-0.4-3.3s-2.2,0-2.1-1.2c0.2-1.2-1.4,0.1-2.7-0.9s-1.9-1.8-3.6-0.9
				c-1.7,0.9-3.7,0.6-7.5,1.3c-3.8,0.6-10.7,0.4-12-0.8c-1.3-1.3,3.2-3.5,4.6-3.1c1.3,0.3,0.5-1.4-1.5-3.1c-2.1-1.6-6.7-2.6-6.6-1.6
				s-2.6,0.1-5.9-0.5s-3.8-1.8-5.9-1.9c-2.1-0.1-5.4-0.7-7.9-2.7s-8.5-1.4-9.2,0.4c-0.7,1.8-2.7,1.7-4.7,1.7s0.9-2.2,0.2-2.6
				c-0.9-0.5,0.1-3-1.3-3.1c-1.4-0.2-2.8,5.9-5.5,5.8c-2.7-0.2-3.9-6.5-6.1-8.1s-4.3-1.7-2.4,0.7s-1.6,0.7-1.4,2.3s-3.1,3.5-3,2.6
				s-1.8-1.9-4,0.6s-3.7,2.2-3.9,1.3c-0.2-0.9-6.6,2.3-6.3,3.4c0.3,1.1-1,1.9-2.7,1.8s-0.4-1.5,1-2.2c1.5-0.8,5.7-4.1,7.8-4.5
				c2.2-0.4,6.3-2.1,6.4-3.1s-2.1-0.2-3.5-0.4c-1.4-0.3-4,1.3-6.4,2.4c-2.4,1.1-5.2,0.7-4.5,2.2c0.7,1.4-2.2-0.2-2.9,0.8
				s-1.8-0.1-0.9-0.6s-2.2-1.5-2.2-0.9s-0.5,1.4-2.7,1.4s-4.3,1.5-2.9,2.6c1.4,1.1,2.3,1.6,1.6,2.3s-3-1.9-6.1-1.6
				c-3.1,0.3-9.4-3.5-9.4-4.4s-6.7,0-9.4-1c-2.6-1-6.5-2.8-8.5-2.3s-6.2,1-7.6,0.3s-3.4-1.3-6.4-0.9c-3,0.4-4.9-1.6-8.6-2.5
				s-9.1,0.3-10.3,0.7s-1-1.3-2.6-1.2c-1.6,0.2-0.4-0.7-1.3-2.1c-0.9-1.3-5.4-0.1-7,0.1s-2.1-0.8-2-1.6s-1.4-0.5-2.1,0.5
				c-0.6,1.1-2.4,1.3-3.1,0.5s1.5-1,1.6-1.8s-2.3-1.3-3.2-1.5s-2.3,0.9-4.2,2.6c-1.9,1.7-4.7,1.5-6.4,1.3s-3.9,0.2-3.8,1.2
				c0.1,1,2.2,0.9,0.9,2.2s-1.7-1.7-3-0.4s-5,1.3-5.9,1.1s-3.9,3.1-4.8,4s0.7,1.7-1.7,4.3c-2.4,2.6-8.9,2.1-10.3,2.1
				s-0.4,1.5-1.1,2.5s0.8,1.9,4.5,2.9s6.2,5.8,6.7,7s5-0.1,6.8,0.2s-0.2,2.8,1.3,3.5s3.9-0.4,4.3,0.9c0.4,1.3-3.1,0-4.9,1.3
				c-1.8,1.3-2.7,2-3.4,1s-3.7-0.4-5.2-0.2s-0.1-1.9,0-2.8c0.1-0.9-2.1-1.5-5,0.2c-3,1.7-1.9,1.1-2.2,2.4s-1.6-0.8-3.5,0.4
				s-4.9,2-5.5,3.1c-0.5,1.2,4,2,5.8,2.3s-2.2,1.5-0.7,2s0.8,1.8,3.1,3c2.2,1.2,7.3,0,8.6,0c1.3,0,2.6,1.6,3.7,0.4
				c1.1-1.2,5.1-4.4,7.2-2.5c2.1,1.9-2.2,1.6-1.2,2.8c1.1,1.2,2.4,4,0.4,5.4s-3.9,0.4-4.9,0.4c-1.1-0.1-0.4,2-2.2,3.3
				c-1.7,1.3-3-1.4-5.1-1.4c-2.2,0-1.7,2.8-1.6,4.1s-3.2-0.3-4,3c-0.8,3.2-4.2,0.4-2,3.6s1.9,1.2,3.7,2.4c1.8,1.3-2,3.5-0.2,3.9
				s3.8,3.6,5,4.8s2.9-0.6,4.8-0.7s1-2.7,2.1-1.7s2.6,3.9,1.6,4.6s-0.2,3-0.4,4c-0.2,1.1,4.1,0.7,4.4-0.5c0.3-1.3,3.7-1.6,5.6,0.4
				c1.9,2.1,2.5,2.4,2.5,0.8s1.6-3.4,1.7-2.1c0.1,1.3,1.6,1.7,4.4,0.4c2.8-1.3,1.5,0.1,0.1,1.9c-2,2.5,0,6.1-1.4,6.5s-2.6,4-4.9,4.3
				c-2.3,0.3-6.3,4.7-6.8,5.4s-5.6-1.4-6.3,0.6c-0.7,2.1-3.8,3.6-3,4.4c0.5,0.5,4.7-1.5,4.9-2.6s0.7-0.9,1.4-0.1s2.5-0.4,3.3-1.1
				s2.2-0.4,3-0.4c0.8,0.1,1.2-1,3.6-1.4c2.4-0.4,1.9-1.2,2.4-2.4s6.3-4,7.4-4.2c1.1-0.3,0.4-2.1,1.6-2.2c1.2-0.1,3-1.5,4.5-2.8
				s1.9-0.7,3.1-1.2s0.3-2.8,1.4-3c1.2-0.2,2.1-1.1,2.1-2.1s-3-1-3.2-1.6c-0.3-0.6,2.3-3,3.3-2.9s2.6-1,2.7-2.4s1.5-1.7,2.7-3
				s0.9-2.3,2.1-2.4s2.2-1.7,3.5-2.4s0,0.9,2.4,1s1.9,2.3,0.1,1.5s-2.6-0.7-4.2,0.8s-0.4,2-1.6,3.7c-1.3,1.7-1.3,2.8,0.3,3
				s0.1,1.3-1.4,1.8c-1.5,0.4-0.4,1.3,1.6,1.3c2.1,0,5.1-3,8-4.4s5,0,5.8-0.3s-0.9-1.6,0.1-2.1s-1.2-0.7-1.8-2.4s1-0.6,1.3-2
				c0.4-1.3,1.3-0.8,2.2-0.2s2.2-0.6,3,1.1c0.8,1.7,1.7-0.4,3.1,0.7c1.4,1.2-0.3,1-1.8,1.3s-0.7,2.4,0.4,1.4s2.2-1.6,3.2-0.6
				s1.5,0.5,2.4-0.4c0.9-0.9,0.9,0.1,0.9,0.8s1.9,1,4.6,1.4s7.6-0.2,8.8-0.3s0.8,1.9,3.6,2.4s3.5-2.8,4.9-1.6c1.4,1.2,0,1.6-0.8,2.5
				s0.9,1,2,1.4s3.6,1.2,4.8,2.3c1.2,1.2,1.9,2.4,4.8,3.9c2.9,1.4,0.1-3.6,2.3-2s1.4,0.1,3.2,1.7s1.2-0.7,0.4-3.4
				c-0.8-2.7,0.8-0.9,1.6,0.4s0.8,3.7,0.3,5.3c-0.5,1.6-3.2,0.3-3-0.6c0.3-0.9-2.7-0.5-2.8,0.7c-0.1,1.3,1.9,3.7,3.3,4
				c1.4,0.3,0.4,2.5,1.3,2.8c1.2,0.4,1.2,2.7,1.9,2.3s0.4-3.1-0.4-4.4s-0.4-3.1,0.6-2.7s0,2.2,0.5,2.9c0.5,0.6,1.2-0.6,2.4-1.3
				c1.3-0.7-0.5-2.8-0.1-3.9s1.9,0.9,2.4,2.8s-1.3,1.8-1.3,2.8s-1.7,0.5-2.2,1.1c-0.5,0.5-0.3,4.1,0.4,4.2s1.2-3,1.6-1.4
				c0.4,1.5,2.2-2,2.6-0.5c0.4,1.4,2.6,3.1,3.4,2.7c0.8-0.4-0.4-1.9-1.6-2c-1.3-0.1-1.1-2.2,0.1-2.2c1.2-0.1,3.2,3,3.1,4
				c-0.1,1.1-1.1,1-2.1,2.1s-2.3-1.8-3.5-1.7c-1.2,0.1,0,1.9,0.5,3.1c0.5,1.3-1.4,3,0.1,4s1.1-0.6,1.3-1.3c0.3-0.7,1.4,0.2,2.2,0.8
				c0.8,0.6,0.9-1.4,0.9-2.2c0-0.8,1.3-0.4,2.1,0.7c0.7,1.1,0.8-1.2,1.9-1s0.4,1.9,0.4,2.9s1.9-0.8,1.7,0.3
				c-0.2,1.1,0.6,1.6,1.7,2.5s-2,0.9-1.1,1.7c0.9,0.8-0.2,2.1,0.7,3.1c0.9,1,2.5,0.6,3.5-0.2c1-0.8,1.7,1,0.9,2.3
				c-0.8,1.3,0.9,2.3,1.7,1.3c0.8-1,2.5,1.6,3.3,2.1c0.8,0.4,1.6,1.8,0.3,1.8s-1.2,2.3-0.2,2.4s0.9,1.3,0.9,2.2c0,0.8,3.1,2,4.3,1.6
				s2.2,0.7,2.8,1.7c0.5,1,2.7,1.7,3.5,1.1s1.3,1.2,1.5,2.4c0.2,1.3,2,0.5,3.1,0.4s1.7,1.4,2.4,1.2c1.8-0.7,2.2,2.9,3.5,4.3
				s0.3,2.5,0.7,4.2c0.4,1.7,0.1,4.1-1.3,4.1c-1.3,0-1.5-1.5-0.5-2.1c1-0.5,0.4-2.5-0.5-2.5s-1-2-0.4-3.1c0.6-1.2-1.3-0.4-2.5-1.6
				c-1.2-1.3-4.2-1-4.7-2.2c-0.4-1.2-3.2-5.4-4.8-5.3c-1.5,0.1-3.5,0.2-5.3-1.2c-1.8-1.3-3-1.4-4.2-0.6s1.3,1,1.3,1.9
				s0.8,1.4,1.9,1.3s1.7,2.1,2.8,2.2c1.1,0.1,1.4,1.8,2.7,1.8s1.5,1.4,2.2,2.2c0.6,0.8,2.1,0.1,2.1,0.9s1.8,1.5,1.9,2.6
				s0.6,3.5,2.1,5.4s0.4,3.1,1.8,3.8s1.3,1.5,0,1.3s-0.4,1-0.8,3.7s-0.4,8.3-0.6,10c-0.3,1.7-2.2,4.5-1.1,6.3c1.2,1.8,2,4.3,1.3,6.6
				c-0.6,2.2-0.5,3.6,0.4,5.3c1,1.7,0.2,4.7,1.3,5.3c1.1,0.6,2.1,1.9,3.1,3.5s1.9,0.6,2.1,2.2s0.2,1.9,1.6,2.5s0.5,2.2,0.5,3.1
				s1.9,2.5,4.2,4.6c2.3,2.1,0.4,3.8,2.1,3.8s3.3,1,5,2.1s2.2,0.4,3.4,0.7c1.2,0.3,3.3,2.8,3.8,4.5c0.4,1.7,1.2,3.6,3.1,5.9
				s3.2,6.5,3.4,7.9s2.8,2.6,5,4s2.2,4.6,2,5.4c-0.3,0.8-3.1-0.5-3.2,0.3c-0.2,0.8,3.6,4,5,3.8s2.2,0.7,4.4,2.7s2.1,4.3,1.2,5
				c-0.9,0.7,1.8,2.2,4.7,4.1s4,4.2,4.3,5.2s1.5,0.1,2-1.3c0.4-1.3-0.9-1.7-0.9-3.2s-2.3-1.3-3.4-1.4c-1.1-0.2,0.1-2.5-1-3.6
				s-2.1-3.8-2.6-5.8s-3.3-4-4.5-6.1c-1.2-2.2-2.4-3.9-3.2-4.4s1.2-1.3,0.4-2.2c-0.7-0.8-1.8-0.7-3.1-1.3c-1.3-0.6-2.2-1.7-2.2-3.1
				s-0.9-4.9-1.3-6c-0.4-1.2,1-1,1.4-0.4c0.4,0.5,0.8,1.1,1.4,0.7s1.7-0.1,2.2,0.9c0.4,1,2,0.1,2.7,0.5s-1.6,1,0.7,5.1
				s0.7,1.8,0.7,4.6s1.4,1.5,1.9,1.1c0.4-0.4,1.7,0.9,2.9,2.3s3.4,1.5,3.4,2.3s0.4,2.4,2,2.7c1.5,0.3,1.8,2,2.8,2.2s1.2,1.3,0.6,2.4
				c-0.5,1.2,0,2.2,2.5,3.1c2.5,1,1.3,1.2,3.3,3.1s7.6,8,8.7,9.7c1.2,1.7,1.5,3.1,2,4.4c0.4,1.3-0.9,1.9-0.2,3s-1.3,0.6-1.3,1.4
				c0.1,0.8,1.3,4.9,3.2,5c2,0.2,4.2,2.6,5.8,4s4,1.1,6.5,2s4.5,3.1,8,4c3.5,1,6.9,2.5,9.2,4s5,0.8,8.2-0.4s5.6,0.4,7.4,1.1
				c1.8,0.7,7.1,6.1,8.8,7.2s4.5-0.1,5.7,1s6.6,2.8,8,2.8s1.4-1.4,2.5-0.5s-0.4,2.2,1,3.1c1.4,0.8,3.4,4,4.9,4.8s1.9,2.7,1.1,3.2
				s-0.9,2.7,1.1,3.5s1.3-0.4,2.3-0.4s0.9,1.5,1.8,1.5c0.9,0,3,1.1,2.9,2.5s0.7,2.1,2.3,2.1c1.8,0,4.9,0.8,6.2,2.4
				c1.3,1.6,2.2,0.5,3,2c0.8,1.4,2.7,0.1,3.1-0.8s-1-1.3-1.2-2.2c-0.2-1,1.8-0.6,2.2-2c0.4-1.3,3.2-2,4.5-1.4s2.3,1.4,1.2,2.8
				c-1.2,1.3,2.4,4.1,3.7,5.5s0.4,2.4,0.8,3.1s0.7,1.8,0,2.2c-0.7,0.4-0.1,5.4,0.7,6.3c0.8,0.9,0,1.7-0.9,3.5s-1.7,2.6-3.3,2.7
				c-1.6,0.1-1.5,2.6-2.1,2.6s-0.9,1.4-0.8,2.2s-1.3,1.3-2.8,1.4s-1.3,1.8-1.3,3s-1.3,1.2-1.8,2.4c-0.5,1.3,0.2,1.5-1.1,2.2
				c-1.3,0.6-1.6,1.7-0.9,2.8s-0.1,2.1-0.3,2.7c-0.2,0.6,1.1,0.9,2.3,2.1s1.4-0.4,2,0.4c0.5,0.9-0.4,2.5-1.8,2.5s-3,2.1-3.7,3.6
				s1.3,4.5,1.5,5.6c0.3,1.1-1.1,0.1-1.3,1.1c-0.2,1,3,2.4,4.4,3.5s2.7,4.1,4,5.6c1.3,1.4,1.4,2.7,2.9,6.2c1.4,3.5,4.3,9.4,6.3,12
				c2,2.5,2.9,4.5,2.4,5.2c-0.4,0.7,0.1,2.7,1.5,3.7s2.6,2.6,6.4,4.5s10.7,5.5,11.7,7.2s4.2,3.3,4.9,3.7c0.6,0.4-0.3,3.1,0.3,4.4
				s0.8,7.9,0.3,10.4s-1.1,4.6-1.6,6.1s1.3,1.6,0.5,2.3s-0.4,2.5-0.4,5.4s-1.7,7.7-1.8,9.3c-0.1,1.5-1.3,2.5-1.1,4.2
				c0.2,1.7-0.8,2.7-1.8,3.5s1.6,3.4,1.5,4.9c-0.1,1.4-2,2.1-1.5,4.4c0.6,2.9,0,7.9,0,8.9s-1.2,0.9-0.9,2.8c0.3,1.9-1.2,2.3-1.4,5
				c-0.3,2.7-2.3,6.6-3.1,8.6c-0.8,2.1-0.8,3.2-1.9,3.2s-1.3,1.2-0.5,3s-0.5,3.3,0.5,5.1s0.7,2.4,0.2,4.1c-0.5,1.7-1.3,1.8-1.3,3.4
				c0,1.6-1.3,3-0.5,4.8c0.7,1.8,0.5,2.4-0.4,2.4s-1.3,1.4-1.7,4.4s-0.3,2.9,1.9,2.7c2.2-0.2,0.4-7.3,1.8-7.3s0.2-1.2,1.5-1.5
				c1.3-0.4,0.2,1.3,1.1,1.5c0.9,0.3,1.5,1,0.3,1.8c-1.3,0.8,0.3,2.4-0.4,3.4c-0.6,1-1.5,2.1-1,3.2c0.5,1.2-0.6,1.1-0.7,2.6
				s0.8,1.6,0.2,2c-0.6,0.4,0.8,1.5-0.1,1.7s-0.4,1.3,0.2,2.4s-1.2,0.4-2.1,1.2s0.9,1.7,0.4,2.7s-2-0.5-2.6-1.1
				c-0.6-0.5,1-1.6,1.8-2.7c0.8-1.1-0.8-3.5-2.2-3c-1.3,0.5,1.3,2.1,1.3,3.2s-2.2-0.3-2.2,1c0.1,1.3-1.5,0.8-2.3,1.7s1.1,1.7,0.2,2
				s-2.4,1.5-2.5,2.4s1,1.1,1,0.2c0-0.9,1.4-1.2,1.9,0c0.4,1.2,1.1,0,2.3,0.3c1.3,0.3,1.1,2.2,0.4,2.1s-1.4,1.2-1.3,2.5
				s2.7,0,3.8,0.4s0.7,2.2,0.1,1.6c-0.6-0.6-2.1-1.7-2.7-0.6c-0.6,1.1-1.6,0.5-2.4,0.2c-0.8-0.4-3.7,1.5-2.7,2.2s0.9,1.9,1.5,1.8
				c0.6-0.1,1.6-0.5,2-1.3s1.6-1.4,1.7,0.2c0.1,1.6-1.7,0.8-2.1,1.7s-1.1,1.6-2.2,2.4s0,2.2,0.9,1.7s-0.3,1.1,1,1.3
				c1.2,0.2,1.5-0.7,1.3-1.6c-0.3-0.9,0.6-2.9,1.7-1.9s-0.5,2-0.5,2.9s-0.6,2.1-0.6,3.1s-1.2,0.4-1.1,1.5s-2.5,0.4-1.3,1.1
				s-0.7,1.7-0.1,2.4s1.2-1,2.2-0.6s0.8,0.6,2.1,0.1c1.3-0.5,2,1,0.8,1.3s-2.4,1.7-1.9,1.9s2.1-0.9,2.4,0.3c0.4,1.2,1.3,0.8,1.3-0.4
				c0.1-1.3,2.2-0.2,2.6,0.9s-2.2,1.7-3.6,1.4c-1.3-0.3-2.1,1.3-1.2,2.4c0.9,1.2,2,0,3-1s5.8-0.7,6.2,0.4c0.4,1.1-2.2,0.2-2.5,0.8
				s-2.2,1.2-2.5,0.4c-0.3-0.7-2.2,0.3-2.2,1.4c-0.1,1.2-1.5,1.2,0.1,1.6s1.2-1.7,3.7-1.5s3.9-2.3,4.6-0.9s-2.1,2.6-3.1,1.7
				c-1-0.9-2.2,0.6-2.1,2c0.1,1.3-2.9-0.4-4.3-0.5c-1.4-0.2-0.8,1.3,0.4,2.7c1.3,1.3,2-0.2,3.5,0.8s1.5,2.1,2.6,1.1s0-0.9-0.7-1.3
				c-0.7-0.4-0.1-2,1.6-1.2s3.7-0.7,3.1-2.9s1.5-3.1,3.6-3.9c2.1-0.7,1,1.3-0.5,2s-1.8,1.1-0.6,2.3c1.2,1.3,2.7-0.8,3.7,0.2
				s-1.8,0.8-2.2,1.8c-0.4,1,1.7,2.2,0.2,2.9s-0.8-3-1.7-3.3s-1.7,0.4-0.8,2.5c0.9,2.1-1.1,0.3-2-0.7s-2.2,0.4-1.1,1.5
				s-2.1-0.1-2.1,1.6c0,1.7,1.3,0.3,3,0.6s0.9,2.7,2.1,3.6c1.2,0.9,0.2-2.9,1.4-3.1c1.3-0.3,0.1,2.9,2.9,3.8
				c2.8,0.9,0.2-0.5,1.4-1.4c1.3-0.9,2.9,2.7,4.2,3.1s0.4-1.6-0.5-2.7s1-0.4,2.3,0s2.4,0.6,2.7-0.4c0.3-1,1.6,0.7,2.5-0.3
				s3.6-0.4,5-1.3c1.4-0.9-0.4-1.2-2.7-1.3s-6.7-4.2-8-5.3s-0.4-2.2-2-1.9s-0.5-1.3,0.4-1.7s-0.5-2.2-1.7-2.2s-3.8,0.3-3.3-1.5
				c0.4-1.8,3.7,0.5,4.3-0.1c0.6-0.6-2.2-3-2.2-3.8c0.1-0.8-0.4-2.2-0.4-3.1c0-0.9-0.4-2.9,0.8-3.8c1.3-0.9,1.3-1.8,2.2-1.6
				c0.8,0.2,2.4-0.7,2.5-2.9s1.1-3,2.9-4.5c2-1.7,5.2-3.2,4.8-4c-0.4-0.7,0.7-3.1,0.7-4s-3.1-0.7-4-1.1c-1-0.4-4.6-2.9-2.8-6.2
				c1.8-3.3,5.6-3.7,6.7-3.8s0.1-1.6,1-2.2c0.9-0.5,1.1-1.4,1.1-2.8c0-1.5,0-4,1.6-4.1c1.6-0.2,2.1-1.1,1.1-1.3
				c-1-0.3-1.4-1.4,0.2-1.6c1.6-0.2,1.1,1.3,2.2,1.3c1.2,0,3.1-2,1.6-3.1c-1.5-1.2-2,0.5-2.8,0.7s-1.4-1.1-2.2-1.1s-0.3-2.2-0.6-3.1
				c-0.4-0.8-0.9-2.8-0.2-3.8c0.7-1,3.8,1.5,6.5,1.7s4.7-1.3,4.7-2.3s-1.3-2.8,0.4-3.9s0.3-1.4-0.2-2.9s0.7-2.3,1.4-1.6
				s6,0.3,10.4-0.6c4.4-0.9,7.5-2.5,7.7-3.8c0.3-1.3,3.1-4.2,3.7-5.3s0.1-2.4-1.7-2.7c-1.8-0.3-1.7-2.3-0.7-3.5s-0.5-2.2-2.2-2.4
				s-4.4-1.3-2.9-2.8s1.4,0.7,3.1,0.5c1.6-0.2,3.2,0.4,5.2,1.3c2,0.9,1.3-0.3,3.1,0s4,0.4,6.1-0.8c2.1-1.3,2.6-3.9,5.1-5.7
				s1.9-2.9,3.1-5c1.2-2.2,0.2-3.1,2.2-4.9s-0.4-3.1,2.2-4.3c2.5-1.2,2.2,1.1,0.1,3.7c-2.1,2.6-2.4,3.3,0.3,1.3
				c2.7-2,3.7-4.8,5.2-7.9c1.5-3.1,2.7-4.1,4-4.3s1.3-3.5,1.2-5.8c-0.2-2.3-0.9-4.5,0.1-6s0-3,1.3-3s3.1-1.9,5.1-3.9
				s3.2-2.2,5.3-2.3c2.1-0.2,0.9-0.9,2.2-1.3s2.2-1.6,3.1-2.4s4.6,0.1,6.7,0.1c2.2,0,3.6,0.2,3.6-1.2c0-1.3,1-2.4,2.2-2.4
				s1.8-0.4,1.8-2.2s0.5-2.9,1.6-3.7s1.3-2.6,1.6-3.8c0.4-1.2,1.5-0.4,1.5-2.2c0-1.7,0.6-3.6,0.6-4.9c0-1.3,1.4-1.2,2.1-2.2
				c0.6-1-0.5-2.2,0.4-5c1-2.8,0-5.4,0-7.9s0-5.1,0.9-5.9c0.9-0.8,0.4-1.3-0.3-1.6s0.1-1.3,0.7-1.2c0.6,0.2,1.3,1.5,2.5,0.8
				s2.2-3.8,3.2-6.3s2.6-2.4,3.9-3c1.3-0.5,4-3.6,5.7-8s-0.1-8.7-0.8-11.8C457.5,550.7,456.5,551.4,454.7,551.5z M283.9,337.1
				c2.9,0.4,4.9-1.8,5.8-0.2c1.3,2.3-3.4,3.8-7.9,4s-5.4,1.3-6.1-0.5C274.9,338.6,281.1,336.8,283.9,337.1z M277.6,343.4
				c0.5,1.2-5.9,4.3-9.4,6.1c-3.4,1.8-8.1,0.9-8.1-1.8c0-2.7,2.5-2.2,3.1-0.9c0.5,1.3,4-3.2,6.7-3.1c2.7,0.2,3.4,1.8,5.2,0.5
				S277.3,342.5,277.6,343.4z M258,326.7c0-1.1,4.1-0.5,6.7,0.4c2.5,0.9,6.3-1.1,7.6,2c1.3,3.1,4.2,5.4,1.4,5.6
				c-2.3,0.2-5.4-3.1-5.2-1.3c0.2,1.8-1.3,0.9-1.3,3.6s-1.8,6.5-2.9,6.3c-1.3-0.2,0.5-4.5-1.6-5.2c-2.2-0.7-4.7,3.1-4.3,0.7
				c0.4-2.3,3.6-4.3,1.6-7.4s-5.6-3.1-6.3-0.7s-3.2,1.3-4.1,3.1c-0.9,1.8-1.8,5.8-1.1,8.6c0.7,2.9-0.2,4.3-2.9,5.9s-4.1-2.5-3.1-7.7
				c0.7-3.6,2.7-7,0.9-7s2.3-4.3,6.1-5.2C253.4,327.4,258,327.8,258,326.7z M233.6,318.1c3.1,0.2,5-5.8,7.4-5.8s8.3,0.5,8.6,3.6
				c0.4,3.1,4,0.2,4.3,3.1c0.4,2.9,3.6,5,1.8,6.3c-1.5,1-1.1-1.6-3.8-1.6s-5.4,2.5-7.6,1.4s-1.1-2.5-3.1-2.5s1.4-3.8-1.4-2.2
				c-2.9,1.6-7.2,5.6-9.2,3.8s-3.8,0.5-5.2-0.9C224,321.8,230.5,317.9,233.6,318.1z M121.2,209.7c-2.4,2.9-3.1,3.4-5.6,2.9
				c-2.4-0.4-3.9,0.8-2.7,1.6c1.2,0.9,1.3,1.6-1.2,2.1c-2.5,0.6-4.2,2.5-5.2,2.3s4.3-4,2.9-5s-4.7,1.7-4.8,2.9
				c-0.1,1.2-2.3,1.3-3.6,1.2c-1.4-0.1-3.1-1.4-1.8-1.5c1.4-0.1,0.4-1.6,2.3-2.4c1.9-0.7-0.4-1.8,0.2-2.6s4.4,0.8,4.4-0.6
				c0.1-1.4-3.8-2.6-5.1-1.8c-1.3,0.9-4.3,2.9-7.9,1.3c-1.1-0.5,9-1.6,10.7-3.1c1.7-1.6,9.4-3.4,10-1.9c0.6,1.4-4.1,2.4-1.9,3.6
				c2.3,1.3,6,0.4,6.9-0.9C119.8,206.6,123.6,206.8,121.2,209.7z M143.9,238.6c-2.8,2.4-2.6,1.8-5,2.2s-0.5,2.9-3.4,3.1
				c-2.9,0.2-10,0.5-11-1.1c-0.3-0.5,3.9-0.1,4.2-1.4c0.3-1.2,1.4-3.1,3.2-3.1s1.6-2.4-1.3-3.8c-2.9-1.4,4.2-2.4,5.9-0.1
				c1.6,2.3,4.6,3.9,6.2,2.3c1.6-1.6,11-6.2,11-4.1S146.7,236.2,143.9,238.6z M197,287.8c0-2.3,3.6-3.4,5-1.6s3.6,9.2,4.9,11.5
				c1.3,2.3,1.3,6.1-0.4,6.3c-2,0.2,0.2-5.2-3.4-7.2C198.9,294.5,197,290.2,197,287.8z M1083.2,572.3c0.8,0.7,3.8,2.3,3.8,0.2
				c0-2-8.2-3.2-7.4-2C1080.3,571.6,1082.4,571.6,1083.2,572.3z M1087.4,438.7c1.2-0.8,6.1-11.2,5-12.6s-5.9,0.8-7.2,5.6
				C1083.9,436.5,1087,439,1087.4,438.7z M1073.6,564.7c-0.5,1.1-2.5,1.3-3.7,0.5s-2.7,1.1-1.9,2.2c0.4,0.5,2.9,2.4,5.9,1
				s5-0.1,5.8-1.7C1080.3,565,1074.1,563.6,1073.6,564.7z M1083.7,463.8c-0.4,1.1,0.1,5.5,1.1,5.5s1.7,1.2,1.1,3.1s1.8,2.2,4.1,1.3
				c2.3-0.8,1.4,1.6,3.7,1.2s5.4,2.5,4.9,3.6s0.1,4.6,1.2,3.6s2.8,0.2,1.7,1.8c-1.1,1.6,1.7,3.1,2,5c0.4,1.9,1.6,0.4,1.3-1.1
				c-0.2-1.4,0.2-1.3,1.8-2.4c1.6-1.1-0.1-2.9-1.1-4.9s-4.6-1.3-4.6-3.2c0-1.9-2.6-2.5-2.8-3.6c-0.1-1.1-3.6-2.2-5.6-1
				s-0.6-2.2-2-3.7c-1.4-1.6,1.1-3.8,2.8-5.8c1.7-1.9-0.5-5.2-0.2-6.6c0.2-1.4,0.1-1.9-0.7-1.4c-0.8,0.5-4.3-1.4-5.9-0.5
				c-1.6,1-0.1,8.9-0.8,9.5C1084.9,464.8,1084,463,1083.7,463.8z M1045.3,453.2c0.1-1.4,2.5-3.7,2.2-4.8c-0.2-0.8-3.5-0.4-5-0.4
				c-1.6,0-5.5,2.3-4,5.5C1040,456.8,1045.2,454.6,1045.3,453.2z M1108.5,544.6c0.5,1.9,4,3,4.9,1.3
				C1114.4,544.3,1108,542.4,1108.5,544.6z M1098.8,573.4c1.8,1,4.6-2.2,5.6-3.6c1.1-1.4,9-3.6,9.4-4.6s-3.6,0.2-6,0.1
				c-2.4-0.1-2.6,2.9-5.8,3.1C1098.9,568.7,1096.9,572.4,1098.8,573.4z M1097.7,566.1c2.2-0.1,4.6-0.7,1.3-1.2
				c-3.2-0.5-5.4,1.9-8.6,0.7s-8.1,0-7.6,1.1c0.5,1,3.4,1.1,6.6,1.2C1092.7,568,1095.6,566.2,1097.7,566.1z M1106.8,492.4
				c1.1,1.8-2,0.4-2.3,2.2c-0.2,1.8-2.5,0.4-2.4,1.8s-2.4,0-3.6-0.8s-2.9,2.3-4.7,2.8c-1.8,0.5-2.8,4.3-1.6,4.2
				c1.4-0.1,2.2-2,3.6-1.9s1-1.4,3-1.1c2,0.4,0.6,6.5,3.4,7s2.9,2.2,4.2,2.2c1.3,0-0.2-3.8-0.1-5.2c0.1-1.3,2.9-0.1,4.3-1.8
				c1.4-1.7-1-6.1-1-9C1109.7,489.8,1105.8,490.6,1106.8,492.4z M1038.3,528.4c1.8,1.7,1.3,4.3,2.2,5.6c0.8,1.3,3.5,1.6,3.5,4.1
				s2.3,6.5,3.8,5.4c1.6-1.1,2.8,0.5,3.2,1.6c0.5,1.1,4.2-0.8,5.4-0.6c1.2,0.2,4.9,1,5.2,2.4c0.2,1.4,3.6-0.1,5.9-1
				c2.3-0.8,1-7.7,3.1-9c2.2-1.3,2.6-3.8,2.4-6.2s5.3-2.5,6.1-3.5c0.8-1-1.2-2.5-2.8-3.2c-1.6-0.7-0.2-2.3-1.3-3.2
				c-1.1-1-2.9-3.5-1.3-3.6s-1.1-2.3,0.2-3c1.3-0.7,4.2-1.8,3.1-2.8s3.2-0.1,3.7-1.6c0.5-1.4-1.7-2.6-2.8-2.4
				c-1.1,0.2-3.6,0.1-3.6-1s-2.3-3.1-3.7-3.1c-1.4,0-3.1,2.9-3.2,4.1s-2.4,1.1-2.2,2.8c0.2,1.7-2.9,1-2.9,2s-1.9-0.5-2.9-0.5
				s-3.1,3.4-3.6,5.6c-0.5,2.3-2.6,1.6-5.9,1.8c-3.2,0.2-1.9,3.6-2.6,5.2c-0.7,1.6-4.9-1.7-6.5-1.6
				C1039.4,522.9,1036.8,527,1038.3,528.4z M926.8,491.2c-1.1,0.1-0.8,2.3-1.4,3.8c-0.6,1.6-0.5,3.1-0.2,5.4c0.2,2.3,0,4.7,2,6
				c2.3,1.5,6.1-2.4,6.2-5.8C933.5,497.4,927.7,491.1,926.8,491.2z M1026.7,548.8c-0.1-1.7,0.6-3.4,0.6-4.2s0.6-1.2,1.7-1
				s1-2.3,0.1-2.5c-0.8-0.2-1.3-3.2-3.4-3.2c-2,0-1.7,1.7-0.5,1.8c1.2,0.1,1.9,1.1,1.6,1.9c-0.4,0.8-0.8-0.8-2.5-0.7
				c-1.7,0.1-0.6-2-2.5-2.2c-1.9-0.1-1.6-3.6-3.6-3.6s-2.2-1.7-0.8-2.9c1.3-1.2-2-2.3-2-3.7s-2.2-0.6-2.2-1.8s-1-0.6-2-2
				c-1.1-1.4-1.6-0.1-2.5-1.2c-1-1.1-2.3-1.7-3.1-1.3s-2.8-1.6-3.5-3.5c-0.6-1.5-6.1-4.1-6.8-6.1s-2.6-2.9-5.9-2.8
				c-3.2,0.1-4.5-3.2-5.3-1.6c-1,2,3.5,6.6,5.5,7.8s3.1,5.5,5.5,5.8c2.4,0.2,2.6,7.8,4.4,8.2s5.6,6.2,6.2,9.4c0.6,3.1,4.6,4.7,5.9,7
				c1.3,2.3,6.6,5.4,7.3,6.4s1.4,3.1,2,2s3.1,0,4.3,0.1C1026.5,554.9,1026.8,550.5,1026.7,548.8z M1060.8,566
				c0.8-1.2,2.4,1.9,4.8,0.1c2.4-1.8-4-1.1-4.1-2.5s-4.8-0.1-7.1-1.1c-2.3-1,2.5-1.8,4.1-2.8s-1-1.3-4.8-0.1s-8.3-2.6-8.4-1
				c-0.1,1.7-7-0.7-8.6-1.9c-1.7-1.2-8.2-2.8-9.5-0.5s-2.5,0.2-1.9,2.4c0.4,1.4,1.9,0.6,3,0.6s0.6,2,2.2,2.3
				c1.6,0.2,6.7,1.7,7.2,0.6c0.5-1.1,5.3,0,7.7,1.9c2.4,1.9,7.9,2,10.1,1.7C1057.5,565.4,1059.9,567.2,1060.8,566z"/>
		</g>
	</g>
</g>
</svg>
