<?xml version="1.0" encoding="UTF-8" standalone="no"?>
<svg width="60px" height="42px" viewBox="0 0 60 42" version="1.1" xmlns="http://www.w3.org/2000/svg" xmlns:xlink="http://www.w3.org/1999/xlink" xmlns:sketch="http://www.bohemiancoding.com/sketch/ns">
    <!-- Generator: Sketch 3.4 (15588) - http://www.bohemiancoding.com/sketch -->
    <title>Fill 32</title>
    <desc>Created with Sketch.</desc>
    <defs></defs>
    <g id="Page-1" stroke="none" stroke-width="1" fill="none" fill-rule="evenodd" sketch:type="MSPage">
        <path d="M53.443,20.2570395 C51.643,18.7570395 50.443,18.4570395 50.443,17.5560395 C50.443,16.6560395 49.844,16.3560395 48.344,14.5560395 C46.844,12.7560395 44.444,12.7560395 44.444,12.7560395 L43.845,11.2560395 L41.745,10.9560395 C41.745,10.9560395 40.545,10.0590395 42.345,9.15903953 C44.144,8.25903953 42.345,5.85503953 42.045,4.95903953 C41.782,4.17303953 39.25,1.11903953 38.6,0.343039526 C38.278,0.330039526 37.979,0.283039526 37.757,0.154039526 C36.749,-0.421960474 34.736,0.731039526 33.728,1.73603953 C32.722,2.74303953 33.442,3.32003953 32.724,4.03803953 C32.004,4.75603953 29.558,6.91403953 27.977,8.93003953 C26.394,10.9420395 22.367,9.64803953 21.073,10.3660395 C19.778,11.0840395 21.646,12.2370395 20.783,12.9550395 C19.92,13.6730395 17.331,14.8260395 16.468,15.2570395 C15.605,15.6890395 12.153,15.5440395 11.148,16.8380395 C10.14,18.1330395 8.991,15.4020395 7.983,16.8380395 C6.975,18.2780395 5.825,18.4230395 5.249,17.9910395 C5.114,17.8890395 4.971,17.7110395 4.824,17.4820395 C3.89,18.3420395 2.751,19.3130395 2.373,20.5060395 C1.726,22.5560395 0,24.3900395 0,25.3610395 C0,26.3320395 0.647,27.6260395 0.647,29.3520395 C0.647,31.0780395 1.079,31.9410395 2.05,33.2360395 C3.021,34.5300395 2.805,36.1480395 2.805,36.1480395 C2.805,36.1480395 3.128,36.7960395 3.884,37.7670395 C4.639,38.7370395 6.796,40.1400395 7.012,40.8950395 C7.11,41.2420395 7.48,41.5150395 7.851,41.7140395 C7.946,41.5520395 8.037,41.3910395 8.145,41.2560395 C9.345,39.7550395 9.045,37.6550395 9.045,37.6550395 L11.745,37.0550395 L13.845,36.4550395 L18.046,37.0550395 L18.046,33.7550395 C18.046,33.7550395 21.044,29.8580395 23.145,29.8580395 C25.245,29.8580395 27.045,32.5550395 27.045,32.5550395 L36.344,34.3550395 C36.344,34.3550395 36.944,31.6580395 37.844,31.0580395 C38.745,30.4580395 40.545,31.6580395 41.745,31.0580395 C42.945,30.4580395 44.744,29.5580395 46.844,29.5580395 C48.944,29.5580395 49.842,30.7580395 50.743,28.9580395 C51.643,27.1570395 56.143,29.5580395 56.143,29.5580395 L59.743,28.9580395 L58.543,25.9570395 C58.543,25.9570395 55.243,24.4590395 55.243,23.5570395 C55.243,22.6570395 55.243,21.7570395 53.443,20.2570395 Z" id="Fill-32" fill="#ED1C24" sketch:type="MSShapeGroup"></path>
    </g>
</svg>